0
SECTION
2
HEADER
9
$ACADVER
1
AC1009
9
$INSUNITS
70
4
0
ENDSEC
0
SECTION
2
ENTITIES
0
LINE
8
0
10
185.7422
20
21.2755
30
0
11
-106.2823
21
404.1564
31
0
0
LINE
8
0
10
-106.2823
20
404.1564
30
0
11
-128.4538
21
400.2469
31
0
0
LINE
8
0
10
-128.4538
20
400.2469
30
0
11
-151.4538
21
400.2469
31
0
0
LINE
8
0
10
-151.4538
20
400.2469
30
0
11
-168.4538
21
394.2469
31
0
0
LINE
8
0
10
-168.4538
20
394.2469
30
0
11
-168.4538
21
-394.2469
31
0
0
LINE
8
0
10
-168.4538
20
-394.2469
30
0
11
-151.4538
21
-400.2469
31
0
0
LINE
8
0
10
-151.4538
20
-400.2469
30
0
11
-128.4538
21
-400.2469
31
0
0
LINE
8
0
10
-128.4538
20
-400.2469
30
0
11
-106.2823
21
-404.1564
31
0
0
LINE
8
0
10
-106.2823
20
-404.1564
30
0
11
185.7422
21
-21.2755
31
0
0
LINE
8
0
10
185.7422
20
-21.2755
30
0
11
176.8158
21
0.0000
31
0
0
LINE
8
0
10
176.8158
20
0.0000
30
0
11
185.7422
21
21.2755
31
0
0
CIRCLE
8
0
10
-103.4538
20
0.0000
30
0
40
3.5000
0
CIRCLE
8
0
10
-63.4538
20
0.0000
30
0
40
3.5000
0
CIRCLE
8
0
10
175.4426
20
18.2901
30
0
40
2.2500
0
CIRCLE
8
0
10
175.4426
20
-18.2901
30
0
40
2.2500
0
CIRCLE
8
0
10
104.7917
20
110.9222
30
0
40
2.2500
0
CIRCLE
8
0
10
104.7917
20
-110.9222
30
0
40
2.2500
0
CIRCLE
8
0
10
34.1409
20
203.5543
30
0
40
2.2500
0
CIRCLE
8
0
10
34.1409
20
-203.5543
30
0
40
2.2500
0
CIRCLE
8
0
10
-36.5099
20
296.1865
30
0
40
2.2500
0
CIRCLE
8
0
10
-36.5099
20
-296.1865
30
0
40
2.2500
0
CIRCLE
8
0
10
-107.1607
20
388.8186
30
0
40
2.2500
0
CIRCLE
8
0
10
-107.1607
20
-388.8186
30
0
40
2.2500
0
LINE
8
0
10
6.0000
20
501.8842
30
0
11
0.0000
21
484.8842
31
0
0
LINE
8
0
10
0.0000
20
484.8842
30
0
11
0.0000
21
461.8842
31
0
0
LINE
8
0
10
0.0000
20
461.8842
30
0
11
200.1252
21
0.0000
31
0
0
LINE
8
0
10
200.1252
20
0.0000
30
0
11
0.0000
21
-461.8842
31
0
0
LINE
8
0
10
0.0000
20
-461.8842
30
0
11
0.0000
21
-484.8842
31
0
0
LINE
8
0
10
0.0000
20
-484.8842
30
0
11
6.0000
21
-501.8842
31
0
0
LINE
8
0
10
6.0000
20
-501.8842
30
0
11
1294.0000
21
-501.8842
31
0
0
LINE
8
0
10
1294.0000
20
-501.8842
30
0
11
1300.0000
21
-484.8842
31
0
0
LINE
8
0
10
1300.0000
20
-484.8842
30
0
11
1300.0000
21
-461.8842
31
0
0
LINE
8
0
10
1300.0000
20
-461.8842
30
0
11
1099.8748
21
0.0000
31
0
0
LINE
8
0
10
1099.8748
20
0.0000
30
0
11
1300.0000
21
461.8842
31
0
0
LINE
8
0
10
1300.0000
20
461.8842
30
0
11
1300.0000
21
484.8842
31
0
0
LINE
8
0
10
1300.0000
20
484.8842
30
0
11
1294.0000
21
501.8842
31
0
0
LINE
8
0
10
1294.0000
20
501.8842
30
0
11
6.0000
21
501.8842
31
0
0
CIRCLE
8
0
10
300.0000
20
436.8842
30
0
40
3.5000
0
CIRCLE
8
0
10
300.0000
20
396.8842
30
0
40
3.5000
0
CIRCLE
8
0
10
300.0000
20
-436.8842
30
0
40
3.5000
0
CIRCLE
8
0
10
300.0000
20
-396.8842
30
0
40
3.5000
0
CIRCLE
8
0
10
650.0000
20
436.8842
30
0
40
3.5000
0
CIRCLE
8
0
10
650.0000
20
396.8842
30
0
40
3.5000
0
CIRCLE
8
0
10
650.0000
20
-436.8842
30
0
40
3.5000
0
CIRCLE
8
0
10
650.0000
20
-396.8842
30
0
40
3.5000
0
CIRCLE
8
0
10
1000.0000
20
436.8842
30
0
40
3.5000
0
CIRCLE
8
0
10
1000.0000
20
396.8842
30
0
40
3.5000
0
CIRCLE
8
0
10
1000.0000
20
-436.8842
30
0
40
3.5000
0
CIRCLE
8
0
10
1000.0000
20
-396.8842
30
0
40
3.5000
0
LINE
8
0
10
202.0181
20
15.1249
30
0
11
200.2290
21
19.2540
31
0
0
LINE
8
0
10
206.1471
20
16.9140
30
0
11
204.3581
21
21.0431
31
0
0
ARC
8
0
10
202.2936
20
20.1485
30
0
40
2.2500
50
23.4261
51
203.4261
0
ARC
8
0
10
204.0826
20
16.0195
30
0
40
2.2500
50
203.4261
51
23.4261
0
LINE
8
0
10
155.7016
20
122.0222
30
0
11
153.9125
21
126.1513
31
0
0
LINE
8
0
10
159.8307
20
123.8113
30
0
11
158.0416
21
127.9404
31
0
0
ARC
8
0
10
155.9771
20
127.0458
30
0
40
2.2500
50
23.4261
51
203.4261
0
ARC
8
0
10
157.7661
20
122.9168
30
0
40
2.2500
50
203.4261
51
23.4261
0
LINE
8
0
10
109.3851
20
228.9196
30
0
11
107.5961
21
233.0486
31
0
0
LINE
8
0
10
113.5142
20
230.7086
30
0
11
111.7252
21
234.8377
31
0
0
ARC
8
0
10
109.6606
20
233.9432
30
0
40
2.2500
50
23.4261
51
203.4261
0
ARC
8
0
10
111.4497
20
229.8141
30
0
40
2.2500
50
203.4261
51
23.4261
0
LINE
8
0
10
63.0687
20
335.8169
30
0
11
61.2796
21
339.9459
31
0
0
LINE
8
0
10
67.1977
20
337.6059
30
0
11
65.4087
21
341.7350
31
0
0
ARC
8
0
10
63.3442
20
340.8405
30
0
40
2.2500
50
23.4261
51
203.4261
0
ARC
8
0
10
65.1332
20
336.7114
30
0
40
2.2500
50
203.4261
51
23.4261
0
LINE
8
0
10
16.7522
20
442.7142
30
0
11
14.9631
21
446.8433
31
0
0
LINE
8
0
10
20.8813
20
444.5032
30
0
11
19.0922
21
448.6323
31
0
0
ARC
8
0
10
17.0277
20
447.7378
30
0
40
2.2500
50
23.4261
51
203.4261
0
ARC
8
0
10
18.8167
20
443.6087
30
0
40
2.2500
50
203.4261
51
23.4261
0
LINE
8
0
10
206.1471
20
-16.9140
30
0
11
204.3581
21
-21.0431
31
0
0
LINE
8
0
10
202.0181
20
-15.1249
30
0
11
200.2290
21
-19.2540
31
0
0
ARC
8
0
10
202.2936
20
-20.1485
30
0
40
2.2500
50
156.5739
51
336.5739
0
ARC
8
0
10
204.0826
20
-16.0195
30
0
40
2.2500
50
336.5739
51
156.5739
0
LINE
8
0
10
159.8307
20
-123.8113
30
0
11
158.0416
21
-127.9404
31
0
0
LINE
8
0
10
155.7016
20
-122.0222
30
0
11
153.9125
21
-126.1513
31
0
0
ARC
8
0
10
155.9771
20
-127.0458
30
0
40
2.2500
50
156.5739
51
336.5739
0
ARC
8
0
10
157.7661
20
-122.9168
30
0
40
2.2500
50
336.5739
51
156.5739
0
LINE
8
0
10
113.5142
20
-230.7086
30
0
11
111.7252
21
-234.8377
31
0
0
LINE
8
0
10
109.3851
20
-228.9196
30
0
11
107.5961
21
-233.0486
31
0
0
ARC
8
0
10
109.6606
20
-233.9432
30
0
40
2.2500
50
156.5739
51
336.5739
0
ARC
8
0
10
111.4497
20
-229.8141
30
0
40
2.2500
50
336.5739
51
156.5739
0
LINE
8
0
10
67.1977
20
-337.6059
30
0
11
65.4087
21
-341.7350
31
0
0
LINE
8
0
10
63.0687
20
-335.8169
30
0
11
61.2796
21
-339.9459
31
0
0
ARC
8
0
10
63.3442
20
-340.8405
30
0
40
2.2500
50
156.5739
51
336.5739
0
ARC
8
0
10
65.1332
20
-336.7114
30
0
40
2.2500
50
336.5739
51
156.5739
0
LINE
8
0
10
20.8813
20
-444.5032
30
0
11
19.0922
21
-448.6323
31
0
0
LINE
8
0
10
16.7522
20
-442.7142
30
0
11
14.9631
21
-446.8433
31
0
0
ARC
8
0
10
17.0277
20
-447.7378
30
0
40
2.2500
50
156.5739
51
336.5739
0
ARC
8
0
10
18.8167
20
-443.6087
30
0
40
2.2500
50
336.5739
51
156.5739
0
LINE
8
0
10
1093.8529
20
16.9140
30
0
11
1095.6419
21
21.0431
31
0
0
LINE
8
0
10
1097.9819
20
15.1249
30
0
11
1099.7710
21
19.2540
31
0
0
ARC
8
0
10
1097.7064
20
20.1485
30
0
40
2.2500
50
336.5739
51
156.5739
0
ARC
8
0
10
1095.9174
20
16.0195
30
0
40
2.2500
50
156.5739
51
336.5739
0
LINE
8
0
10
1140.1693
20
123.8113
30
0
11
1141.9584
21
127.9404
31
0
0
LINE
8
0
10
1144.2984
20
122.0222
30
0
11
1146.0875
21
126.1513
31
0
0
ARC
8
0
10
1144.0229
20
127.0458
30
0
40
2.2500
50
336.5739
51
156.5739
0
ARC
8
0
10
1142.2339
20
122.9168
30
0
40
2.2500
50
156.5739
51
336.5739
0
LINE
8
0
10
1186.4858
20
230.7086
30
0
11
1188.2748
21
234.8377
31
0
0
LINE
8
0
10
1190.6149
20
228.9196
30
0
11
1192.4039
21
233.0486
31
0
0
ARC
8
0
10
1190.3394
20
233.9432
30
0
40
2.2500
50
336.5739
51
156.5739
0
ARC
8
0
10
1188.5503
20
229.8141
30
0
40
2.2500
50
156.5739
51
336.5739
0
LINE
8
0
10
1232.8023
20
337.6059
30
0
11
1234.5913
21
341.7350
31
0
0
LINE
8
0
10
1236.9313
20
335.8169
30
0
11
1238.7204
21
339.9459
31
0
0
ARC
8
0
10
1236.6558
20
340.8405
30
0
40
2.2500
50
336.5739
51
156.5739
0
ARC
8
0
10
1234.8668
20
336.7114
30
0
40
2.2500
50
156.5739
51
336.5739
0
LINE
8
0
10
1279.1187
20
444.5032
30
0
11
1280.9078
21
448.6323
31
0
0
LINE
8
0
10
1283.2478
20
442.7142
30
0
11
1285.0369
21
446.8433
31
0
0
ARC
8
0
10
1282.9723
20
447.7378
30
0
40
2.2500
50
336.5739
51
156.5739
0
ARC
8
0
10
1281.1833
20
443.6087
30
0
40
2.2500
50
156.5739
51
336.5739
0
LINE
8
0
10
1097.9819
20
-15.1249
30
0
11
1099.7710
21
-19.2540
31
0
0
LINE
8
0
10
1093.8529
20
-16.9140
30
0
11
1095.6419
21
-21.0431
31
0
0
ARC
8
0
10
1097.7064
20
-20.1485
30
0
40
2.2500
50
203.4261
51
23.4261
0
ARC
8
0
10
1095.9174
20
-16.0195
30
0
40
2.2500
50
23.4261
51
203.4261
0
LINE
8
0
10
1144.2984
20
-122.0222
30
0
11
1146.0875
21
-126.1513
31
0
0
LINE
8
0
10
1140.1693
20
-123.8113
30
0
11
1141.9584
21
-127.9404
31
0
0
ARC
8
0
10
1144.0229
20
-127.0458
30
0
40
2.2500
50
203.4261
51
23.4261
0
ARC
8
0
10
1142.2339
20
-122.9168
30
0
40
2.2500
50
23.4261
51
203.4261
0
LINE
8
0
10
1190.6149
20
-228.9196
30
0
11
1192.4039
21
-233.0486
31
0
0
LINE
8
0
10
1186.4858
20
-230.7086
30
0
11
1188.2748
21
-234.8377
31
0
0
ARC
8
0
10
1190.3394
20
-233.9432
30
0
40
2.2500
50
203.4261
51
23.4261
0
ARC
8
0
10
1188.5503
20
-229.8141
30
0
40
2.2500
50
23.4261
51
203.4261
0
LINE
8
0
10
1236.9313
20
-335.8169
30
0
11
1238.7204
21
-339.9459
31
0
0
LINE
8
0
10
1232.8023
20
-337.6059
30
0
11
1234.5913
21
-341.7350
31
0
0
ARC
8
0
10
1236.6558
20
-340.8405
30
0
40
2.2500
50
203.4261
51
23.4261
0
ARC
8
0
10
1234.8668
20
-336.7114
30
0
40
2.2500
50
23.4261
51
203.4261
0
LINE
8
0
10
1283.2478
20
-442.7142
30
0
11
1285.0369
21
-446.8433
31
0
0
LINE
8
0
10
1279.1187
20
-444.5032
30
0
11
1280.9078
21
-448.6323
31
0
0
ARC
8
0
10
1282.9723
20
-447.7378
30
0
40
2.2500
50
203.4261
51
23.4261
0
ARC
8
0
10
1281.1833
20
-443.6087
30
0
40
2.2500
50
23.4261
51
203.4261
0
LINE
8
0
10
1123.1842
20
0.0000
30
0
11
1114.2578
21
-21.2755
31
0
0
LINE
8
0
10
1114.2578
20
-21.2755
30
0
11
1406.2823
21
-404.1564
31
0
0
LINE
8
0
10
1406.2823
20
-404.1564
30
0
11
1428.4538
21
-400.2469
31
0
0
LINE
8
0
10
1428.4538
20
-400.2469
30
0
11
1451.4538
21
-400.2469
31
0
0
LINE
8
0
10
1451.4538
20
-400.2469
30
0
11
1468.4538
21
-394.2469
31
0
0
LINE
8
0
10
1468.4538
20
-394.2469
30
0
11
1468.4538
21
394.2469
31
0
0
LINE
8
0
10
1468.4538
20
394.2469
30
0
11
1451.4538
21
400.2469
31
0
0
LINE
8
0
10
1451.4538
20
400.2469
30
0
11
1428.4538
21
400.2469
31
0
0
LINE
8
0
10
1428.4538
20
400.2469
30
0
11
1406.2823
21
404.1564
31
0
0
LINE
8
0
10
1406.2823
20
404.1564
30
0
11
1114.2578
21
21.2755
31
0
0
LINE
8
0
10
1114.2578
20
21.2755
30
0
11
1123.1842
21
0.0000
31
0
0
CIRCLE
8
0
10
1403.4538
20
0.0000
30
0
40
3.5000
0
CIRCLE
8
0
10
1363.4538
20
0.0000
30
0
40
3.5000
0
CIRCLE
8
0
10
1124.5574
20
18.2901
30
0
40
2.2500
0
CIRCLE
8
0
10
1124.5574
20
-18.2901
30
0
40
2.2500
0
CIRCLE
8
0
10
1195.2083
20
110.9222
30
0
40
2.2500
0
CIRCLE
8
0
10
1195.2083
20
-110.9222
30
0
40
2.2500
0
CIRCLE
8
0
10
1265.8591
20
203.5543
30
0
40
2.2500
0
CIRCLE
8
0
10
1265.8591
20
-203.5543
30
0
40
2.2500
0
CIRCLE
8
0
10
1336.5099
20
296.1865
30
0
40
2.2500
0
CIRCLE
8
0
10
1336.5099
20
-296.1865
30
0
40
2.2500
0
CIRCLE
8
0
10
1407.1607
20
388.8186
30
0
40
2.2500
0
CIRCLE
8
0
10
1407.1607
20
-388.8186
30
0
40
2.2500
0
ENDSEC
0
EOF
