0
SECTION
2
HEADER
9
$ACADVER
1
AC1009
9
$INSUNITS
70
4
0
ENDSEC
0
SECTION
2
ENTITIES
0
LINE
8
0
10
348.3425
20
21.2755
30
0
11
-191.7114
21
729.3542
31
0
0
LINE
8
0
10
-191.7114
20
729.3542
30
0
11
-213.8829
21
725.4448
31
0
0
LINE
8
0
10
-213.8829
20
725.4448
30
0
11
-236.8829
21
725.4448
31
0
0
LINE
8
0
10
-236.8829
20
725.4448
30
0
11
-253.8829
21
719.4448
31
0
0
LINE
8
0
10
-253.8829
20
719.4448
30
0
11
-253.8829
21
-719.4448
31
0
0
LINE
8
0
10
-253.8829
20
-719.4448
30
0
11
-236.8829
21
-725.4448
31
0
0
LINE
8
0
10
-236.8829
20
-725.4448
30
0
11
-213.8829
21
-725.4448
31
0
0
LINE
8
0
10
-213.8829
20
-725.4448
30
0
11
-191.7114
21
-729.3542
31
0
0
LINE
8
0
10
-191.7114
20
-729.3542
30
0
11
348.3425
21
-21.2755
31
0
0
LINE
8
0
10
348.3425
20
-21.2755
30
0
11
339.4161
21
0.0000
31
0
0
LINE
8
0
10
339.4161
20
0.0000
30
0
11
348.3425
21
21.2755
31
0
0
CIRCLE
8
0
10
-188.8829
20
-400.0000
30
0
40
3.5000
0
CIRCLE
8
0
10
-148.8829
20
-400.0000
30
0
40
3.5000
0
CIRCLE
8
0
10
-188.8829
20
0.0000
30
0
40
3.5000
0
CIRCLE
8
0
10
-148.8829
20
0.0000
30
0
40
3.5000
0
CIRCLE
8
0
10
-188.8829
20
400.0000
30
0
40
3.5000
0
CIRCLE
8
0
10
-148.8829
20
400.0000
30
0
40
3.5000
0
CIRCLE
8
0
10
338.0429
20
18.2901
30
0
40
2.2500
0
CIRCLE
8
0
10
338.0429
20
-18.2901
30
0
40
2.2500
0
CIRCLE
8
0
10
249.5019
20
134.3784
30
0
40
2.2500
0
CIRCLE
8
0
10
249.5019
20
-134.3784
30
0
40
2.2500
0
CIRCLE
8
0
10
160.9610
20
250.4667
30
0
40
2.2500
0
CIRCLE
8
0
10
160.9610
20
-250.4667
30
0
40
2.2500
0
CIRCLE
8
0
10
72.4201
20
366.5551
30
0
40
2.2500
0
CIRCLE
8
0
10
72.4201
20
-366.5551
30
0
40
2.2500
0
CIRCLE
8
0
10
-16.1209
20
482.6434
30
0
40
2.2500
0
CIRCLE
8
0
10
-16.1209
20
-482.6434
30
0
40
2.2500
0
CIRCLE
8
0
10
-104.6618
20
598.7317
30
0
40
2.2500
0
CIRCLE
8
0
10
-104.6618
20
-598.7317
30
0
40
2.2500
0
CIRCLE
8
0
10
-193.2028
20
714.8201
30
0
40
2.2500
0
CIRCLE
8
0
10
-193.2028
20
-714.8201
30
0
40
2.2500
0
LINE
8
0
10
6.0000
20
877.1619
30
0
11
0.0000
21
860.1619
31
0
0
LINE
8
0
10
0.0000
20
860.1619
30
0
11
0.0000
21
837.1619
31
0
0
LINE
8
0
10
0.0000
20
837.1619
30
0
11
362.7255
21
0.0000
31
0
0
LINE
8
0
10
362.7255
20
0.0000
30
0
11
0.0000
21
-837.1619
31
0
0
LINE
8
0
10
0.0000
20
-837.1619
30
0
11
0.0000
21
-860.1619
31
0
0
LINE
8
0
10
0.0000
20
-860.1619
30
0
11
6.0000
21
-877.1619
31
0
0
LINE
8
0
10
6.0000
20
-877.1619
30
0
11
725.0000
21
-877.1619
31
0
0
LINE
8
0
10
725.0000
20
-877.1619
30
0
11
725.0000
21
-835.1619
31
0
0
LINE
8
0
10
725.0000
20
-835.1619
30
0
11
739.0000
21
-835.1619
31
0
0
LINE
8
0
10
739.0000
20
-835.1619
30
0
11
739.0000
21
-15.0000
31
0
0
LINE
8
0
10
739.0000
20
-15.0000
30
0
11
724.0000
21
0.0000
31
0
0
LINE
8
0
10
724.0000
20
0.0000
30
0
11
739.0000
21
15.0000
31
0
0
LINE
8
0
10
739.0000
20
15.0000
30
0
11
739.0000
21
835.1619
31
0
0
LINE
8
0
10
739.0000
20
835.1619
30
0
11
725.0000
21
835.1619
31
0
0
LINE
8
0
10
725.0000
20
835.1619
30
0
11
725.0000
21
877.1619
31
0
0
LINE
8
0
10
725.0000
20
877.1619
30
0
11
6.0000
21
877.1619
31
0
0
CIRCLE
8
0
10
300.0000
20
812.1619
30
0
40
3.5000
0
CIRCLE
8
0
10
300.0000
20
772.1619
30
0
40
3.5000
0
CIRCLE
8
0
10
300.0000
20
-812.1619
30
0
40
3.5000
0
CIRCLE
8
0
10
300.0000
20
-772.1619
30
0
40
3.5000
0
CIRCLE
8
0
10
583.3333
20
812.1619
30
0
40
3.5000
0
CIRCLE
8
0
10
583.3333
20
772.1619
30
0
40
3.5000
0
CIRCLE
8
0
10
583.3333
20
-812.1619
30
0
40
3.5000
0
CIRCLE
8
0
10
583.3333
20
-772.1619
30
0
40
3.5000
0
LINE
8
0
10
364.6184
20
15.1249
30
0
11
362.8293
21
19.2540
31
0
0
LINE
8
0
10
368.7475
20
16.9140
30
0
11
366.9584
21
21.0431
31
0
0
ARC
8
0
10
364.8939
20
20.1485
30
0
40
2.2500
50
23.4261
51
203.4261
0
ARC
8
0
10
366.6829
20
16.0195
30
0
40
2.2500
50
203.4261
51
23.4261
0
LINE
8
0
10
306.5737
20
149.0907
30
0
11
304.7847
21
153.2197
31
0
0
LINE
8
0
10
310.7028
20
150.8797
30
0
11
308.9137
21
155.0088
31
0
0
ARC
8
0
10
306.8492
20
154.1143
30
0
40
2.2500
50
23.4261
51
203.4261
0
ARC
8
0
10
308.6382
20
149.9852
30
0
40
2.2500
50
203.4261
51
23.4261
0
LINE
8
0
10
248.5290
20
283.0564
30
0
11
246.7400
21
287.1855
31
0
0
LINE
8
0
10
252.6581
20
284.8454
30
0
11
250.8691
21
288.9745
31
0
0
ARC
8
0
10
248.8045
20
288.0800
30
0
40
2.2500
50
23.4261
51
203.4261
0
ARC
8
0
10
250.5936
20
283.9509
30
0
40
2.2500
50
203.4261
51
23.4261
0
LINE
8
0
10
190.4844
20
417.0221
30
0
11
188.6953
21
421.1512
31
0
0
LINE
8
0
10
194.6134
20
418.8112
30
0
11
192.8244
21
422.9402
31
0
0
ARC
8
0
10
190.7599
20
422.0457
30
0
40
2.2500
50
23.4261
51
203.4261
0
ARC
8
0
10
192.5489
20
417.9166
30
0
40
2.2500
50
203.4261
51
23.4261
0
LINE
8
0
10
132.4397
20
550.9878
30
0
11
130.6506
21
555.1169
31
0
0
LINE
8
0
10
136.5688
20
552.7769
30
0
11
134.7797
21
556.9060
31
0
0
ARC
8
0
10
132.7152
20
556.0114
30
0
40
2.2500
50
23.4261
51
203.4261
0
ARC
8
0
10
134.5042
20
551.8824
30
0
40
2.2500
50
203.4261
51
23.4261
0
LINE
8
0
10
74.3950
20
684.9536
30
0
11
72.6060
21
689.0827
31
0
0
LINE
8
0
10
78.5241
20
686.7426
30
0
11
76.7351
21
690.8717
31
0
0
ARC
8
0
10
74.6705
20
689.9772
30
0
40
2.2500
50
23.4261
51
203.4261
0
ARC
8
0
10
76.4596
20
685.8481
30
0
40
2.2500
50
203.4261
51
23.4261
0
LINE
8
0
10
16.3503
20
818.9193
30
0
11
14.5613
21
823.0484
31
0
0
LINE
8
0
10
20.4794
20
820.7083
30
0
11
18.6904
21
824.8374
31
0
0
ARC
8
0
10
16.6258
20
823.9429
30
0
40
2.2500
50
23.4261
51
203.4261
0
ARC
8
0
10
18.4149
20
819.8138
30
0
40
2.2500
50
203.4261
51
23.4261
0
LINE
8
0
10
368.7475
20
-16.9140
30
0
11
366.9584
21
-21.0431
31
0
0
LINE
8
0
10
364.6184
20
-15.1249
30
0
11
362.8293
21
-19.2540
31
0
0
ARC
8
0
10
364.8939
20
-20.1485
30
0
40
2.2500
50
156.5739
51
336.5739
0
ARC
8
0
10
366.6829
20
-16.0195
30
0
40
2.2500
50
336.5739
51
156.5739
0
LINE
8
0
10
310.7028
20
-150.8797
30
0
11
308.9137
21
-155.0088
31
0
0
LINE
8
0
10
306.5737
20
-149.0907
30
0
11
304.7847
21
-153.2197
31
0
0
ARC
8
0
10
306.8492
20
-154.1143
30
0
40
2.2500
50
156.5739
51
336.5739
0
ARC
8
0
10
308.6382
20
-149.9852
30
0
40
2.2500
50
336.5739
51
156.5739
0
LINE
8
0
10
252.6581
20
-284.8454
30
0
11
250.8691
21
-288.9745
31
0
0
LINE
8
0
10
248.5290
20
-283.0564
30
0
11
246.7400
21
-287.1855
31
0
0
ARC
8
0
10
248.8045
20
-288.0800
30
0
40
2.2500
50
156.5739
51
336.5739
0
ARC
8
0
10
250.5936
20
-283.9509
30
0
40
2.2500
50
336.5739
51
156.5739
0
LINE
8
0
10
194.6134
20
-418.8112
30
0
11
192.8244
21
-422.9402
31
0
0
LINE
8
0
10
190.4844
20
-417.0221
30
0
11
188.6953
21
-421.1512
31
0
0
ARC
8
0
10
190.7599
20
-422.0457
30
0
40
2.2500
50
156.5739
51
336.5739
0
ARC
8
0
10
192.5489
20
-417.9166
30
0
40
2.2500
50
336.5739
51
156.5739
0
LINE
8
0
10
136.5688
20
-552.7769
30
0
11
134.7797
21
-556.9060
31
0
0
LINE
8
0
10
132.4397
20
-550.9878
30
0
11
130.6506
21
-555.1169
31
0
0
ARC
8
0
10
132.7152
20
-556.0114
30
0
40
2.2500
50
156.5739
51
336.5739
0
ARC
8
0
10
134.5042
20
-551.8824
30
0
40
2.2500
50
336.5739
51
156.5739
0
LINE
8
0
10
78.5241
20
-686.7426
30
0
11
76.7351
21
-690.8717
31
0
0
LINE
8
0
10
74.3950
20
-684.9536
30
0
11
72.6060
21
-689.0827
31
0
0
ARC
8
0
10
74.6705
20
-689.9772
30
0
40
2.2500
50
156.5739
51
336.5739
0
ARC
8
0
10
76.4596
20
-685.8481
30
0
40
2.2500
50
336.5739
51
156.5739
0
LINE
8
0
10
20.4794
20
-820.7083
30
0
11
18.6904
21
-824.8374
31
0
0
LINE
8
0
10
16.3503
20
-818.9193
30
0
11
14.5613
21
-823.0484
31
0
0
ARC
8
0
10
16.6258
20
-823.9429
30
0
40
2.2500
50
156.5739
51
336.5739
0
ARC
8
0
10
18.4149
20
-819.8138
30
0
40
2.2500
50
336.5739
51
156.5739
0
LINE
8
0
10
853.0000
20
877.1619
30
0
11
853.0000
21
835.1619
31
0
0
LINE
8
0
10
853.0000
20
835.1619
30
0
11
839.0000
21
835.1619
31
0
0
LINE
8
0
10
839.0000
20
835.1619
30
0
11
839.0000
21
15.0000
31
0
0
LINE
8
0
10
839.0000
20
15.0000
30
0
11
854.0000
21
0.0000
31
0
0
LINE
8
0
10
854.0000
20
0.0000
30
0
11
839.0000
21
-15.0000
31
0
0
LINE
8
0
10
839.0000
20
-15.0000
30
0
11
839.0000
21
-835.1619
31
0
0
LINE
8
0
10
839.0000
20
-835.1619
30
0
11
853.0000
21
-835.1619
31
0
0
LINE
8
0
10
853.0000
20
-835.1619
30
0
11
853.0000
21
-877.1619
31
0
0
LINE
8
0
10
853.0000
20
-877.1619
30
0
11
1572.0000
21
-877.1619
31
0
0
LINE
8
0
10
1572.0000
20
-877.1619
30
0
11
1578.0000
21
-860.1619
31
0
0
LINE
8
0
10
1578.0000
20
-860.1619
30
0
11
1578.0000
21
-837.1619
31
0
0
LINE
8
0
10
1578.0000
20
-837.1619
30
0
11
1215.2745
21
0.0000
31
0
0
LINE
8
0
10
1215.2745
20
0.0000
30
0
11
1578.0000
21
837.1619
31
0
0
LINE
8
0
10
1578.0000
20
837.1619
30
0
11
1578.0000
21
860.1619
31
0
0
LINE
8
0
10
1578.0000
20
860.1619
30
0
11
1572.0000
21
877.1619
31
0
0
LINE
8
0
10
1572.0000
20
877.1619
30
0
11
853.0000
21
877.1619
31
0
0
CIRCLE
8
0
10
994.6667
20
812.1619
30
0
40
3.5000
0
CIRCLE
8
0
10
994.6667
20
772.1619
30
0
40
3.5000
0
CIRCLE
8
0
10
994.6667
20
-812.1619
30
0
40
3.5000
0
CIRCLE
8
0
10
994.6667
20
-772.1619
30
0
40
3.5000
0
CIRCLE
8
0
10
1278.0000
20
812.1619
30
0
40
3.5000
0
CIRCLE
8
0
10
1278.0000
20
772.1619
30
0
40
3.5000
0
CIRCLE
8
0
10
1278.0000
20
-812.1619
30
0
40
3.5000
0
CIRCLE
8
0
10
1278.0000
20
-772.1619
30
0
40
3.5000
0
LINE
8
0
10
1209.2525
20
16.9140
30
0
11
1211.0416
21
21.0431
31
0
0
LINE
8
0
10
1213.3816
20
15.1249
30
0
11
1215.1707
21
19.2540
31
0
0
ARC
8
0
10
1213.1061
20
20.1485
30
0
40
2.2500
50
336.5739
51
156.5739
0
ARC
8
0
10
1211.3171
20
16.0195
30
0
40
2.2500
50
156.5739
51
336.5739
0
LINE
8
0
10
1267.2972
20
150.8797
30
0
11
1269.0863
21
155.0088
31
0
0
LINE
8
0
10
1271.4263
20
149.0907
30
0
11
1273.2153
21
153.2197
31
0
0
ARC
8
0
10
1271.1508
20
154.1143
30
0
40
2.2500
50
336.5739
51
156.5739
0
ARC
8
0
10
1269.3618
20
149.9852
30
0
40
2.2500
50
156.5739
51
336.5739
0
LINE
8
0
10
1325.3419
20
284.8454
30
0
11
1327.1309
21
288.9745
31
0
0
LINE
8
0
10
1329.4710
20
283.0564
30
0
11
1331.2600
21
287.1855
31
0
0
ARC
8
0
10
1329.1955
20
288.0800
30
0
40
2.2500
50
336.5739
51
156.5739
0
ARC
8
0
10
1327.4064
20
283.9509
30
0
40
2.2500
50
156.5739
51
336.5739
0
LINE
8
0
10
1383.3866
20
418.8112
30
0
11
1385.1756
21
422.9402
31
0
0
LINE
8
0
10
1387.5156
20
417.0221
30
0
11
1389.3047
21
421.1512
31
0
0
ARC
8
0
10
1387.2401
20
422.0457
30
0
40
2.2500
50
336.5739
51
156.5739
0
ARC
8
0
10
1385.4511
20
417.9166
30
0
40
2.2500
50
156.5739
51
336.5739
0
LINE
8
0
10
1441.4312
20
552.7769
30
0
11
1443.2203
21
556.9060
31
0
0
LINE
8
0
10
1445.5603
20
550.9878
30
0
11
1447.3494
21
555.1169
31
0
0
ARC
8
0
10
1445.2848
20
556.0114
30
0
40
2.2500
50
336.5739
51
156.5739
0
ARC
8
0
10
1443.4958
20
551.8824
30
0
40
2.2500
50
156.5739
51
336.5739
0
LINE
8
0
10
1499.4759
20
686.7426
30
0
11
1501.2649
21
690.8717
31
0
0
LINE
8
0
10
1503.6050
20
684.9536
30
0
11
1505.3940
21
689.0827
31
0
0
ARC
8
0
10
1503.3295
20
689.9772
30
0
40
2.2500
50
336.5739
51
156.5739
0
ARC
8
0
10
1501.5404
20
685.8481
30
0
40
2.2500
50
156.5739
51
336.5739
0
LINE
8
0
10
1557.5206
20
820.7083
30
0
11
1559.3096
21
824.8374
31
0
0
LINE
8
0
10
1561.6497
20
818.9193
30
0
11
1563.4387
21
823.0484
31
0
0
ARC
8
0
10
1561.3742
20
823.9429
30
0
40
2.2500
50
336.5739
51
156.5739
0
ARC
8
0
10
1559.5851
20
819.8138
30
0
40
2.2500
50
156.5739
51
336.5739
0
LINE
8
0
10
1213.3816
20
-15.1249
30
0
11
1215.1707
21
-19.2540
31
0
0
LINE
8
0
10
1209.2525
20
-16.9140
30
0
11
1211.0416
21
-21.0431
31
0
0
ARC
8
0
10
1213.1061
20
-20.1485
30
0
40
2.2500
50
203.4261
51
23.4261
0
ARC
8
0
10
1211.3171
20
-16.0195
30
0
40
2.2500
50
23.4261
51
203.4261
0
LINE
8
0
10
1271.4263
20
-149.0907
30
0
11
1273.2153
21
-153.2197
31
0
0
LINE
8
0
10
1267.2972
20
-150.8797
30
0
11
1269.0863
21
-155.0088
31
0
0
ARC
8
0
10
1271.1508
20
-154.1143
30
0
40
2.2500
50
203.4261
51
23.4261
0
ARC
8
0
10
1269.3618
20
-149.9852
30
0
40
2.2500
50
23.4261
51
203.4261
0
LINE
8
0
10
1329.4710
20
-283.0564
30
0
11
1331.2600
21
-287.1855
31
0
0
LINE
8
0
10
1325.3419
20
-284.8454
30
0
11
1327.1309
21
-288.9745
31
0
0
ARC
8
0
10
1329.1955
20
-288.0800
30
0
40
2.2500
50
203.4261
51
23.4261
0
ARC
8
0
10
1327.4064
20
-283.9509
30
0
40
2.2500
50
23.4261
51
203.4261
0
LINE
8
0
10
1387.5156
20
-417.0221
30
0
11
1389.3047
21
-421.1512
31
0
0
LINE
8
0
10
1383.3866
20
-418.8112
30
0
11
1385.1756
21
-422.9402
31
0
0
ARC
8
0
10
1387.2401
20
-422.0457
30
0
40
2.2500
50
203.4261
51
23.4261
0
ARC
8
0
10
1385.4511
20
-417.9166
30
0
40
2.2500
50
23.4261
51
203.4261
0
LINE
8
0
10
1445.5603
20
-550.9878
30
0
11
1447.3494
21
-555.1169
31
0
0
LINE
8
0
10
1441.4312
20
-552.7769
30
0
11
1443.2203
21
-556.9060
31
0
0
ARC
8
0
10
1445.2848
20
-556.0114
30
0
40
2.2500
50
203.4261
51
23.4261
0
ARC
8
0
10
1443.4958
20
-551.8824
30
0
40
2.2500
50
23.4261
51
203.4261
0
LINE
8
0
10
1503.6050
20
-684.9536
30
0
11
1505.3940
21
-689.0827
31
0
0
LINE
8
0
10
1499.4759
20
-686.7426
30
0
11
1501.2649
21
-690.8717
31
0
0
ARC
8
0
10
1503.3295
20
-689.9772
30
0
40
2.2500
50
203.4261
51
23.4261
0
ARC
8
0
10
1501.5404
20
-685.8481
30
0
40
2.2500
50
23.4261
51
203.4261
0
LINE
8
0
10
1561.6497
20
-818.9193
30
0
11
1563.4387
21
-823.0484
31
0
0
LINE
8
0
10
1557.5206
20
-820.7083
30
0
11
1559.3096
21
-824.8374
31
0
0
ARC
8
0
10
1561.3742
20
-823.9429
30
0
40
2.2500
50
203.4261
51
23.4261
0
ARC
8
0
10
1559.5851
20
-819.8138
30
0
40
2.2500
50
23.4261
51
203.4261
0
LINE
8
0
10
1238.5839
20
0.0000
30
0
11
1229.6575
21
-21.2755
31
0
0
LINE
8
0
10
1229.6575
20
-21.2755
30
0
11
1769.7114
21
-729.3542
31
0
0
LINE
8
0
10
1769.7114
20
-729.3542
30
0
11
1791.8829
21
-725.4448
31
0
0
LINE
8
0
10
1791.8829
20
-725.4448
30
0
11
1814.8829
21
-725.4448
31
0
0
LINE
8
0
10
1814.8829
20
-725.4448
30
0
11
1831.8829
21
-719.4448
31
0
0
LINE
8
0
10
1831.8829
20
-719.4448
30
0
11
1831.8829
21
719.4448
31
0
0
LINE
8
0
10
1831.8829
20
719.4448
30
0
11
1814.8829
21
725.4448
31
0
0
LINE
8
0
10
1814.8829
20
725.4448
30
0
11
1791.8829
21
725.4448
31
0
0
LINE
8
0
10
1791.8829
20
725.4448
30
0
11
1769.7114
21
729.3542
31
0
0
LINE
8
0
10
1769.7114
20
729.3542
30
0
11
1229.6575
21
21.2755
31
0
0
LINE
8
0
10
1229.6575
20
21.2755
30
0
11
1238.5839
21
0.0000
31
0
0
CIRCLE
8
0
10
1766.8829
20
-400.0000
30
0
40
3.5000
0
CIRCLE
8
0
10
1726.8829
20
-400.0000
30
0
40
3.5000
0
CIRCLE
8
0
10
1766.8829
20
0.0000
30
0
40
3.5000
0
CIRCLE
8
0
10
1726.8829
20
0.0000
30
0
40
3.5000
0
CIRCLE
8
0
10
1766.8829
20
400.0000
30
0
40
3.5000
0
CIRCLE
8
0
10
1726.8829
20
400.0000
30
0
40
3.5000
0
CIRCLE
8
0
10
1239.9571
20
18.2901
30
0
40
2.2500
0
CIRCLE
8
0
10
1239.9571
20
-18.2901
30
0
40
2.2500
0
CIRCLE
8
0
10
1328.4981
20
134.3784
30
0
40
2.2500
0
CIRCLE
8
0
10
1328.4981
20
-134.3784
30
0
40
2.2500
0
CIRCLE
8
0
10
1417.0390
20
250.4667
30
0
40
2.2500
0
CIRCLE
8
0
10
1417.0390
20
-250.4667
30
0
40
2.2500
0
CIRCLE
8
0
10
1505.5799
20
366.5551
30
0
40
2.2500
0
CIRCLE
8
0
10
1505.5799
20
-366.5551
30
0
40
2.2500
0
CIRCLE
8
0
10
1594.1209
20
482.6434
30
0
40
2.2500
0
CIRCLE
8
0
10
1594.1209
20
-482.6434
30
0
40
2.2500
0
CIRCLE
8
0
10
1682.6618
20
598.7317
30
0
40
2.2500
0
CIRCLE
8
0
10
1682.6618
20
-598.7317
30
0
40
2.2500
0
CIRCLE
8
0
10
1771.2028
20
714.8201
30
0
40
2.2500
0
CIRCLE
8
0
10
1771.2028
20
-714.8201
30
0
40
2.2500
0
ENDSEC
0
EOF
