0
SECTION
2
HEADER
9
$ACADVER
1
AC1009
9
$INSUNITS
70
4
0
ENDSEC
0
SECTION
2
ENTITIES
0
LINE
8
0
10
285.8039
20
21.2755
30
0
11
-158.8540
21
604.2781
31
0
0
LINE
8
0
10
-158.8540
20
604.2781
30
0
11
-181.0255
21
600.3687
31
0
0
LINE
8
0
10
-181.0255
20
600.3687
30
0
11
-204.0255
21
600.3687
31
0
0
LINE
8
0
10
-204.0255
20
600.3687
30
0
11
-221.0255
21
594.3687
31
0
0
LINE
8
0
10
-221.0255
20
594.3687
30
0
11
-221.0255
21
-594.3687
31
0
0
LINE
8
0
10
-221.0255
20
-594.3687
30
0
11
-204.0255
21
-600.3687
31
0
0
LINE
8
0
10
-204.0255
20
-600.3687
30
0
11
-181.0255
21
-600.3687
31
0
0
LINE
8
0
10
-181.0255
20
-600.3687
30
0
11
-158.8540
21
-604.2781
31
0
0
LINE
8
0
10
-158.8540
20
-604.2781
30
0
11
285.8039
21
-21.2755
31
0
0
LINE
8
0
10
285.8039
20
-21.2755
30
0
11
276.8775
21
0.0000
31
0
0
LINE
8
0
10
276.8775
20
0.0000
30
0
11
285.8039
21
21.2755
31
0
0
CIRCLE
8
0
10
-156.0255
20
-200.0000
30
0
40
3.5000
0
CIRCLE
8
0
10
-116.0255
20
-200.0000
30
0
40
3.5000
0
CIRCLE
8
0
10
-156.0255
20
200.0000
30
0
40
3.5000
0
CIRCLE
8
0
10
-116.0255
20
200.0000
30
0
40
3.5000
0
CIRCLE
8
0
10
275.5043
20
18.2901
30
0
40
2.2500
0
CIRCLE
8
0
10
275.5043
20
-18.2901
30
0
40
2.2500
0
CIRCLE
8
0
10
188.1762
20
132.7881
30
0
40
2.2500
0
CIRCLE
8
0
10
188.1762
20
-132.7881
30
0
40
2.2500
0
CIRCLE
8
0
10
100.8482
20
247.2862
30
0
40
2.2500
0
CIRCLE
8
0
10
100.8482
20
-247.2862
30
0
40
2.2500
0
CIRCLE
8
0
10
13.5201
20
361.7843
30
0
40
2.2500
0
CIRCLE
8
0
10
13.5201
20
-361.7843
30
0
40
2.2500
0
CIRCLE
8
0
10
-73.8079
20
476.2824
30
0
40
2.2500
0
CIRCLE
8
0
10
-73.8079
20
-476.2824
30
0
40
2.2500
0
CIRCLE
8
0
10
-161.1360
20
590.7805
30
0
40
2.2500
0
CIRCLE
8
0
10
-161.1360
20
-590.7805
30
0
40
2.2500
0
LINE
8
0
10
6.0000
20
732.8243
30
0
11
0.0000
21
715.8243
31
0
0
LINE
8
0
10
0.0000
20
715.8243
30
0
11
0.0000
21
692.8243
31
0
0
LINE
8
0
10
0.0000
20
692.8243
30
0
11
300.1869
21
0.0000
31
0
0
LINE
8
0
10
300.1869
20
0.0000
30
0
11
0.0000
21
-692.8243
31
0
0
LINE
8
0
10
0.0000
20
-692.8243
30
0
11
0.0000
21
-715.8243
31
0
0
LINE
8
0
10
0.0000
20
-715.8243
30
0
11
6.0000
21
-732.8243
31
0
0
LINE
8
0
10
6.0000
20
-732.8243
30
0
11
1150.0000
21
-732.8243
31
0
0
LINE
8
0
10
1150.0000
20
-732.8243
30
0
11
1150.0000
21
-690.8243
31
0
0
LINE
8
0
10
1150.0000
20
-690.8243
30
0
11
1164.0000
21
-690.8243
31
0
0
LINE
8
0
10
1164.0000
20
-690.8243
30
0
11
1164.0000
21
-15.0000
31
0
0
LINE
8
0
10
1164.0000
20
-15.0000
30
0
11
1149.0000
21
0.0000
31
0
0
LINE
8
0
10
1149.0000
20
0.0000
30
0
11
1164.0000
21
15.0000
31
0
0
LINE
8
0
10
1164.0000
20
15.0000
30
0
11
1164.0000
21
690.8243
31
0
0
LINE
8
0
10
1164.0000
20
690.8243
30
0
11
1150.0000
21
690.8243
31
0
0
LINE
8
0
10
1150.0000
20
690.8243
30
0
11
1150.0000
21
732.8243
31
0
0
LINE
8
0
10
1150.0000
20
732.8243
30
0
11
6.0000
21
732.8243
31
0
0
CIRCLE
8
0
10
300.0000
20
667.8243
30
0
40
3.5000
0
CIRCLE
8
0
10
300.0000
20
627.8243
30
0
40
3.5000
0
CIRCLE
8
0
10
300.0000
20
-667.8243
30
0
40
3.5000
0
CIRCLE
8
0
10
300.0000
20
-627.8243
30
0
40
3.5000
0
CIRCLE
8
0
10
542.8571
20
667.8243
30
0
40
3.5000
0
CIRCLE
8
0
10
542.8571
20
627.8243
30
0
40
3.5000
0
CIRCLE
8
0
10
542.8571
20
-667.8243
30
0
40
3.5000
0
CIRCLE
8
0
10
542.8571
20
-627.8243
30
0
40
3.5000
0
CIRCLE
8
0
10
785.7143
20
667.8243
30
0
40
3.5000
0
CIRCLE
8
0
10
785.7143
20
627.8243
30
0
40
3.5000
0
CIRCLE
8
0
10
785.7143
20
-667.8243
30
0
40
3.5000
0
CIRCLE
8
0
10
785.7143
20
-627.8243
30
0
40
3.5000
0
CIRCLE
8
0
10
1028.5714
20
667.8243
30
0
40
3.5000
0
CIRCLE
8
0
10
1028.5714
20
627.8243
30
0
40
3.5000
0
CIRCLE
8
0
10
1028.5714
20
-667.8243
30
0
40
3.5000
0
CIRCLE
8
0
10
1028.5714
20
-627.8243
30
0
40
3.5000
0
LINE
8
0
10
302.0798
20
15.1249
30
0
11
300.2907
21
19.2540
31
0
0
LINE
8
0
10
306.2089
20
16.9140
30
0
11
304.4198
21
21.0431
31
0
0
ARC
8
0
10
302.3553
20
20.1485
30
0
40
2.2500
50
23.4261
51
203.4261
0
ARC
8
0
10
304.1443
20
16.0195
30
0
40
2.2500
50
203.4261
51
23.4261
0
LINE
8
0
10
244.8303
20
147.2555
30
0
11
243.0412
21
151.3846
31
0
0
LINE
8
0
10
248.9593
20
149.0446
30
0
11
247.1703
21
153.1736
31
0
0
ARC
8
0
10
245.1057
20
152.2791
30
0
40
2.2500
50
23.4261
51
203.4261
0
ARC
8
0
10
246.8948
20
148.1500
30
0
40
2.2500
50
203.4261
51
23.4261
0
LINE
8
0
10
187.5807
20
279.3861
30
0
11
185.7917
21
283.5152
31
0
0
LINE
8
0
10
191.7098
20
281.1751
30
0
11
189.9207
21
285.3042
31
0
0
ARC
8
0
10
187.8562
20
284.4097
30
0
40
2.2500
50
23.4261
51
203.4261
0
ARC
8
0
10
189.6453
20
280.2806
30
0
40
2.2500
50
203.4261
51
23.4261
0
LINE
8
0
10
130.3312
20
411.5167
30
0
11
128.5421
21
415.6458
31
0
0
LINE
8
0
10
134.4603
20
413.3057
30
0
11
132.6712
21
417.4348
31
0
0
ARC
8
0
10
130.6067
20
416.5403
30
0
40
2.2500
50
23.4261
51
203.4261
0
ARC
8
0
10
132.3957
20
412.4112
30
0
40
2.2500
50
203.4261
51
23.4261
0
LINE
8
0
10
73.0816
20
543.6473
30
0
11
71.2926
21
547.7763
31
0
0
LINE
8
0
10
77.2107
20
545.4363
30
0
11
75.4217
21
549.5654
31
0
0
ARC
8
0
10
73.3571
20
548.6709
30
0
40
2.2500
50
23.4261
51
203.4261
0
ARC
8
0
10
75.1462
20
544.5418
30
0
40
2.2500
50
203.4261
51
23.4261
0
LINE
8
0
10
15.8321
20
675.7778
30
0
11
14.0431
21
679.9069
31
0
0
LINE
8
0
10
19.9612
20
677.5669
30
0
11
18.1721
21
681.6960
31
0
0
ARC
8
0
10
16.1076
20
680.8014
30
0
40
2.2500
50
23.4261
51
203.4261
0
ARC
8
0
10
17.8966
20
676.6724
30
0
40
2.2500
50
203.4261
51
23.4261
0
LINE
8
0
10
306.2089
20
-16.9140
30
0
11
304.4198
21
-21.0431
31
0
0
LINE
8
0
10
302.0798
20
-15.1249
30
0
11
300.2907
21
-19.2540
31
0
0
ARC
8
0
10
302.3553
20
-20.1485
30
0
40
2.2500
50
156.5739
51
336.5739
0
ARC
8
0
10
304.1443
20
-16.0195
30
0
40
2.2500
50
336.5739
51
156.5739
0
LINE
8
0
10
248.9593
20
-149.0446
30
0
11
247.1703
21
-153.1736
31
0
0
LINE
8
0
10
244.8303
20
-147.2555
30
0
11
243.0412
21
-151.3846
31
0
0
ARC
8
0
10
245.1057
20
-152.2791
30
0
40
2.2500
50
156.5739
51
336.5739
0
ARC
8
0
10
246.8948
20
-148.1500
30
0
40
2.2500
50
336.5739
51
156.5739
0
LINE
8
0
10
191.7098
20
-281.1751
30
0
11
189.9207
21
-285.3042
31
0
0
LINE
8
0
10
187.5807
20
-279.3861
30
0
11
185.7917
21
-283.5152
31
0
0
ARC
8
0
10
187.8562
20
-284.4097
30
0
40
2.2500
50
156.5739
51
336.5739
0
ARC
8
0
10
189.6453
20
-280.2806
30
0
40
2.2500
50
336.5739
51
156.5739
0
LINE
8
0
10
134.4603
20
-413.3057
30
0
11
132.6712
21
-417.4348
31
0
0
LINE
8
0
10
130.3312
20
-411.5167
30
0
11
128.5421
21
-415.6458
31
0
0
ARC
8
0
10
130.6067
20
-416.5403
30
0
40
2.2500
50
156.5739
51
336.5739
0
ARC
8
0
10
132.3957
20
-412.4112
30
0
40
2.2500
50
336.5739
51
156.5739
0
LINE
8
0
10
77.2107
20
-545.4363
30
0
11
75.4217
21
-549.5654
31
0
0
LINE
8
0
10
73.0816
20
-543.6473
30
0
11
71.2926
21
-547.7763
31
0
0
ARC
8
0
10
73.3571
20
-548.6709
30
0
40
2.2500
50
156.5739
51
336.5739
0
ARC
8
0
10
75.1462
20
-544.5418
30
0
40
2.2500
50
336.5739
51
156.5739
0
LINE
8
0
10
19.9612
20
-677.5669
30
0
11
18.1721
21
-681.6960
31
0
0
LINE
8
0
10
15.8321
20
-675.7778
30
0
11
14.0431
21
-679.9069
31
0
0
ARC
8
0
10
16.1076
20
-680.8014
30
0
40
2.2500
50
156.5739
51
336.5739
0
ARC
8
0
10
17.8966
20
-676.6724
30
0
40
2.2500
50
336.5739
51
156.5739
0
LINE
8
0
10
1278.0000
20
732.8243
30
0
11
1278.0000
21
690.8243
31
0
0
LINE
8
0
10
1278.0000
20
690.8243
30
0
11
1264.0000
21
690.8243
31
0
0
LINE
8
0
10
1264.0000
20
690.8243
30
0
11
1264.0000
21
15.0000
31
0
0
LINE
8
0
10
1264.0000
20
15.0000
30
0
11
1279.0000
21
0.0000
31
0
0
LINE
8
0
10
1279.0000
20
0.0000
30
0
11
1264.0000
21
-15.0000
31
0
0
LINE
8
0
10
1264.0000
20
-15.0000
30
0
11
1264.0000
21
-690.8243
31
0
0
LINE
8
0
10
1264.0000
20
-690.8243
30
0
11
1278.0000
21
-690.8243
31
0
0
LINE
8
0
10
1278.0000
20
-690.8243
30
0
11
1278.0000
21
-732.8243
31
0
0
LINE
8
0
10
1278.0000
20
-732.8243
30
0
11
2422.0000
21
-732.8243
31
0
0
LINE
8
0
10
2422.0000
20
-732.8243
30
0
11
2428.0000
21
-715.8243
31
0
0
LINE
8
0
10
2428.0000
20
-715.8243
30
0
11
2428.0000
21
-692.8243
31
0
0
LINE
8
0
10
2428.0000
20
-692.8243
30
0
11
2127.8131
21
0.0000
31
0
0
LINE
8
0
10
2127.8131
20
0.0000
30
0
11
2428.0000
21
692.8243
31
0
0
LINE
8
0
10
2428.0000
20
692.8243
30
0
11
2428.0000
21
715.8243
31
0
0
LINE
8
0
10
2428.0000
20
715.8243
30
0
11
2422.0000
21
732.8243
31
0
0
LINE
8
0
10
2422.0000
20
732.8243
30
0
11
1278.0000
21
732.8243
31
0
0
CIRCLE
8
0
10
1399.4286
20
667.8243
30
0
40
3.5000
0
CIRCLE
8
0
10
1399.4286
20
627.8243
30
0
40
3.5000
0
CIRCLE
8
0
10
1399.4286
20
-667.8243
30
0
40
3.5000
0
CIRCLE
8
0
10
1399.4286
20
-627.8243
30
0
40
3.5000
0
CIRCLE
8
0
10
1642.2857
20
667.8243
30
0
40
3.5000
0
CIRCLE
8
0
10
1642.2857
20
627.8243
30
0
40
3.5000
0
CIRCLE
8
0
10
1642.2857
20
-667.8243
30
0
40
3.5000
0
CIRCLE
8
0
10
1642.2857
20
-627.8243
30
0
40
3.5000
0
CIRCLE
8
0
10
1885.1429
20
667.8243
30
0
40
3.5000
0
CIRCLE
8
0
10
1885.1429
20
627.8243
30
0
40
3.5000
0
CIRCLE
8
0
10
1885.1429
20
-667.8243
30
0
40
3.5000
0
CIRCLE
8
0
10
1885.1429
20
-627.8243
30
0
40
3.5000
0
CIRCLE
8
0
10
2128.0000
20
667.8243
30
0
40
3.5000
0
CIRCLE
8
0
10
2128.0000
20
627.8243
30
0
40
3.5000
0
CIRCLE
8
0
10
2128.0000
20
-667.8243
30
0
40
3.5000
0
CIRCLE
8
0
10
2128.0000
20
-627.8243
30
0
40
3.5000
0
LINE
8
0
10
2121.7911
20
16.9140
30
0
11
2123.5802
21
21.0431
31
0
0
LINE
8
0
10
2125.9202
20
15.1249
30
0
11
2127.7093
21
19.2540
31
0
0
ARC
8
0
10
2125.6447
20
20.1485
30
0
40
2.2500
50
336.5739
51
156.5739
0
ARC
8
0
10
2123.8557
20
16.0195
30
0
40
2.2500
50
156.5739
51
336.5739
0
LINE
8
0
10
2179.0407
20
149.0446
30
0
11
2180.8297
21
153.1736
31
0
0
LINE
8
0
10
2183.1697
20
147.2555
30
0
11
2184.9588
21
151.3846
31
0
0
ARC
8
0
10
2182.8943
20
152.2791
30
0
40
2.2500
50
336.5739
51
156.5739
0
ARC
8
0
10
2181.1052
20
148.1500
30
0
40
2.2500
50
156.5739
51
336.5739
0
LINE
8
0
10
2236.2902
20
281.1751
30
0
11
2238.0793
21
285.3042
31
0
0
LINE
8
0
10
2240.4193
20
279.3861
30
0
11
2242.2083
21
283.5152
31
0
0
ARC
8
0
10
2240.1438
20
284.4097
30
0
40
2.2500
50
336.5739
51
156.5739
0
ARC
8
0
10
2238.3547
20
280.2806
30
0
40
2.2500
50
156.5739
51
336.5739
0
LINE
8
0
10
2293.5397
20
413.3057
30
0
11
2295.3288
21
417.4348
31
0
0
LINE
8
0
10
2297.6688
20
411.5167
30
0
11
2299.4579
21
415.6458
31
0
0
ARC
8
0
10
2297.3933
20
416.5403
30
0
40
2.2500
50
336.5739
51
156.5739
0
ARC
8
0
10
2295.6043
20
412.4112
30
0
40
2.2500
50
156.5739
51
336.5739
0
LINE
8
0
10
2350.7893
20
545.4363
30
0
11
2352.5783
21
549.5654
31
0
0
LINE
8
0
10
2354.9184
20
543.6473
30
0
11
2356.7074
21
547.7763
31
0
0
ARC
8
0
10
2354.6429
20
548.6709
30
0
40
2.2500
50
336.5739
51
156.5739
0
ARC
8
0
10
2352.8538
20
544.5418
30
0
40
2.2500
50
156.5739
51
336.5739
0
LINE
8
0
10
2408.0388
20
677.5669
30
0
11
2409.8279
21
681.6960
31
0
0
LINE
8
0
10
2412.1679
20
675.7778
30
0
11
2413.9569
21
679.9069
31
0
0
ARC
8
0
10
2411.8924
20
680.8014
30
0
40
2.2500
50
336.5739
51
156.5739
0
ARC
8
0
10
2410.1034
20
676.6724
30
0
40
2.2500
50
156.5739
51
336.5739
0
LINE
8
0
10
2125.9202
20
-15.1249
30
0
11
2127.7093
21
-19.2540
31
0
0
LINE
8
0
10
2121.7911
20
-16.9140
30
0
11
2123.5802
21
-21.0431
31
0
0
ARC
8
0
10
2125.6447
20
-20.1485
30
0
40
2.2500
50
203.4261
51
23.4261
0
ARC
8
0
10
2123.8557
20
-16.0195
30
0
40
2.2500
50
23.4261
51
203.4261
0
LINE
8
0
10
2183.1697
20
-147.2555
30
0
11
2184.9588
21
-151.3846
31
0
0
LINE
8
0
10
2179.0407
20
-149.0446
30
0
11
2180.8297
21
-153.1736
31
0
0
ARC
8
0
10
2182.8943
20
-152.2791
30
0
40
2.2500
50
203.4261
51
23.4261
0
ARC
8
0
10
2181.1052
20
-148.1500
30
0
40
2.2500
50
23.4261
51
203.4261
0
LINE
8
0
10
2240.4193
20
-279.3861
30
0
11
2242.2083
21
-283.5152
31
0
0
LINE
8
0
10
2236.2902
20
-281.1751
30
0
11
2238.0793
21
-285.3042
31
0
0
ARC
8
0
10
2240.1438
20
-284.4097
30
0
40
2.2500
50
203.4261
51
23.4261
0
ARC
8
0
10
2238.3547
20
-280.2806
30
0
40
2.2500
50
23.4261
51
203.4261
0
LINE
8
0
10
2297.6688
20
-411.5167
30
0
11
2299.4579
21
-415.6458
31
0
0
LINE
8
0
10
2293.5397
20
-413.3057
30
0
11
2295.3288
21
-417.4348
31
0
0
ARC
8
0
10
2297.3933
20
-416.5403
30
0
40
2.2500
50
203.4261
51
23.4261
0
ARC
8
0
10
2295.6043
20
-412.4112
30
0
40
2.2500
50
23.4261
51
203.4261
0
LINE
8
0
10
2354.9184
20
-543.6473
30
0
11
2356.7074
21
-547.7763
31
0
0
LINE
8
0
10
2350.7893
20
-545.4363
30
0
11
2352.5783
21
-549.5654
31
0
0
ARC
8
0
10
2354.6429
20
-548.6709
30
0
40
2.2500
50
203.4261
51
23.4261
0
ARC
8
0
10
2352.8538
20
-544.5418
30
0
40
2.2500
50
23.4261
51
203.4261
0
LINE
8
0
10
2412.1679
20
-675.7778
30
0
11
2413.9569
21
-679.9069
31
0
0
LINE
8
0
10
2408.0388
20
-677.5669
30
0
11
2409.8279
21
-681.6960
31
0
0
ARC
8
0
10
2411.8924
20
-680.8014
30
0
40
2.2500
50
203.4261
51
23.4261
0
ARC
8
0
10
2410.1034
20
-676.6724
30
0
40
2.2500
50
23.4261
51
203.4261
0
LINE
8
0
10
2151.1225
20
0.0000
30
0
11
2142.1961
21
-21.2755
31
0
0
LINE
8
0
10
2142.1961
20
-21.2755
30
0
11
2586.8540
21
-604.2781
31
0
0
LINE
8
0
10
2586.8540
20
-604.2781
30
0
11
2609.0255
21
-600.3687
31
0
0
LINE
8
0
10
2609.0255
20
-600.3687
30
0
11
2632.0255
21
-600.3687
31
0
0
LINE
8
0
10
2632.0255
20
-600.3687
30
0
11
2649.0255
21
-594.3687
31
0
0
LINE
8
0
10
2649.0255
20
-594.3687
30
0
11
2649.0255
21
594.3687
31
0
0
LINE
8
0
10
2649.0255
20
594.3687
30
0
11
2632.0255
21
600.3687
31
0
0
LINE
8
0
10
2632.0255
20
600.3687
30
0
11
2609.0255
21
600.3687
31
0
0
LINE
8
0
10
2609.0255
20
600.3687
30
0
11
2586.8540
21
604.2781
31
0
0
LINE
8
0
10
2586.8540
20
604.2781
30
0
11
2142.1961
21
21.2755
31
0
0
LINE
8
0
10
2142.1961
20
21.2755
30
0
11
2151.1225
21
0.0000
31
0
0
CIRCLE
8
0
10
2584.0255
20
-200.0000
30
0
40
3.5000
0
CIRCLE
8
0
10
2544.0255
20
-200.0000
30
0
40
3.5000
0
CIRCLE
8
0
10
2584.0255
20
200.0000
30
0
40
3.5000
0
CIRCLE
8
0
10
2544.0255
20
200.0000
30
0
40
3.5000
0
CIRCLE
8
0
10
2152.4957
20
18.2901
30
0
40
2.2500
0
CIRCLE
8
0
10
2152.4957
20
-18.2901
30
0
40
2.2500
0
CIRCLE
8
0
10
2239.8238
20
132.7881
30
0
40
2.2500
0
CIRCLE
8
0
10
2239.8238
20
-132.7881
30
0
40
2.2500
0
CIRCLE
8
0
10
2327.1518
20
247.2862
30
0
40
2.2500
0
CIRCLE
8
0
10
2327.1518
20
-247.2862
30
0
40
2.2500
0
CIRCLE
8
0
10
2414.4799
20
361.7843
30
0
40
2.2500
0
CIRCLE
8
0
10
2414.4799
20
-361.7843
30
0
40
2.2500
0
CIRCLE
8
0
10
2501.8079
20
476.2824
30
0
40
2.2500
0
CIRCLE
8
0
10
2501.8079
20
-476.2824
30
0
40
2.2500
0
CIRCLE
8
0
10
2589.1360
20
590.7805
30
0
40
2.2500
0
CIRCLE
8
0
10
2589.1360
20
-590.7805
30
0
40
2.2500
0
ENDSEC
0
EOF
