0
SECTION
2
HEADER
9
$ACADVER
1
AC1009
9
$INSUNITS
70
4
0
ENDSEC
0
SECTION
2
ENTITIES
0
LINE
8
0
10
198.2499
20
21.2755
30
0
11
-112.8537
21
429.1716
31
0
0
LINE
8
0
10
-112.8537
20
429.1716
30
0
11
-135.0253
21
425.2622
31
0
0
LINE
8
0
10
-135.0253
20
425.2622
30
0
11
-158.0253
21
425.2622
31
0
0
LINE
8
0
10
-158.0253
20
425.2622
30
0
11
-175.0253
21
419.2622
31
0
0
LINE
8
0
10
-175.0253
20
419.2622
30
0
11
-175.0253
21
-419.2622
31
0
0
LINE
8
0
10
-175.0253
20
-419.2622
30
0
11
-158.0253
21
-425.2622
31
0
0
LINE
8
0
10
-158.0253
20
-425.2622
30
0
11
-135.0253
21
-425.2622
31
0
0
LINE
8
0
10
-135.0253
20
-425.2622
30
0
11
-112.8537
21
-429.1716
31
0
0
LINE
8
0
10
-112.8537
20
-429.1716
30
0
11
198.2499
21
-21.2755
31
0
0
LINE
8
0
10
198.2499
20
-21.2755
30
0
11
189.3235
21
0.0000
31
0
0
LINE
8
0
10
189.3235
20
0.0000
30
0
11
198.2499
21
21.2755
31
0
0
CIRCLE
8
0
10
-110.0253
20
0.0000
30
0
40
3.5000
0
CIRCLE
8
0
10
-70.0253
20
0.0000
30
0
40
3.5000
0
CIRCLE
8
0
10
187.9503
20
18.2901
30
0
40
2.2500
0
CIRCLE
8
0
10
187.9503
20
-18.2901
30
0
40
2.2500
0
CIRCLE
8
0
10
112.1447
20
117.6808
30
0
40
2.2500
0
CIRCLE
8
0
10
112.1447
20
-117.6808
30
0
40
2.2500
0
CIRCLE
8
0
10
36.3391
20
217.0715
30
0
40
2.2500
0
CIRCLE
8
0
10
36.3391
20
-217.0715
30
0
40
2.2500
0
CIRCLE
8
0
10
-39.4665
20
316.4622
30
0
40
2.2500
0
CIRCLE
8
0
10
-39.4665
20
-316.4622
30
0
40
2.2500
0
CIRCLE
8
0
10
-115.2721
20
415.8529
30
0
40
2.2500
0
CIRCLE
8
0
10
-115.2721
20
-415.8529
30
0
40
2.2500
0
LINE
8
0
10
6.0000
20
530.7518
30
0
11
0.0000
21
513.7518
31
0
0
LINE
8
0
10
0.0000
20
513.7518
30
0
11
0.0000
21
490.7518
31
0
0
LINE
8
0
10
0.0000
20
490.7518
30
0
11
212.6329
21
0.0000
31
0
0
LINE
8
0
10
212.6329
20
0.0000
30
0
11
0.0000
21
-490.7518
31
0
0
LINE
8
0
10
0.0000
20
-490.7518
30
0
11
0.0000
21
-513.7518
31
0
0
LINE
8
0
10
0.0000
20
-513.7518
30
0
11
6.0000
21
-530.7518
31
0
0
LINE
8
0
10
6.0000
20
-530.7518
30
0
11
1294.0000
21
-530.7518
31
0
0
LINE
8
0
10
1294.0000
20
-530.7518
30
0
11
1300.0000
21
-513.7518
31
0
0
LINE
8
0
10
1300.0000
20
-513.7518
30
0
11
1300.0000
21
-490.7518
31
0
0
LINE
8
0
10
1300.0000
20
-490.7518
30
0
11
1087.3671
21
0.0000
31
0
0
LINE
8
0
10
1087.3671
20
0.0000
30
0
11
1300.0000
21
490.7518
31
0
0
LINE
8
0
10
1300.0000
20
490.7518
30
0
11
1300.0000
21
513.7518
31
0
0
LINE
8
0
10
1300.0000
20
513.7518
30
0
11
1294.0000
21
530.7518
31
0
0
LINE
8
0
10
1294.0000
20
530.7518
30
0
11
6.0000
21
530.7518
31
0
0
CIRCLE
8
0
10
300.0000
20
465.7518
30
0
40
3.5000
0
CIRCLE
8
0
10
300.0000
20
425.7518
30
0
40
3.5000
0
CIRCLE
8
0
10
300.0000
20
-465.7518
30
0
40
3.5000
0
CIRCLE
8
0
10
300.0000
20
-425.7518
30
0
40
3.5000
0
CIRCLE
8
0
10
650.0000
20
465.7518
30
0
40
3.5000
0
CIRCLE
8
0
10
650.0000
20
425.7518
30
0
40
3.5000
0
CIRCLE
8
0
10
650.0000
20
-465.7518
30
0
40
3.5000
0
CIRCLE
8
0
10
650.0000
20
-425.7518
30
0
40
3.5000
0
CIRCLE
8
0
10
1000.0000
20
465.7518
30
0
40
3.5000
0
CIRCLE
8
0
10
1000.0000
20
425.7518
30
0
40
3.5000
0
CIRCLE
8
0
10
1000.0000
20
-465.7518
30
0
40
3.5000
0
CIRCLE
8
0
10
1000.0000
20
-425.7518
30
0
40
3.5000
0
LINE
8
0
10
214.5258
20
15.1249
30
0
11
212.7367
21
19.2540
31
0
0
LINE
8
0
10
218.6549
20
16.9140
30
0
11
216.8658
21
21.0431
31
0
0
ARC
8
0
10
214.8013
20
20.1485
30
0
40
2.2500
50
23.4261
51
203.4261
0
ARC
8
0
10
216.5903
20
16.0195
30
0
40
2.2500
50
203.4261
51
23.4261
0
LINE
8
0
10
164.8300
20
129.8216
30
0
11
163.0410
21
133.9507
31
0
0
LINE
8
0
10
168.9591
20
131.6107
30
0
11
167.1700
21
135.7397
31
0
0
ARC
8
0
10
165.1055
20
134.8452
30
0
40
2.2500
50
23.4261
51
203.4261
0
ARC
8
0
10
166.8945
20
130.7161
30
0
40
2.2500
50
203.4261
51
23.4261
0
LINE
8
0
10
115.1342
20
244.5183
30
0
11
113.3452
21
248.6474
31
0
0
LINE
8
0
10
119.2633
20
246.3074
30
0
11
117.4743
21
250.4364
31
0
0
ARC
8
0
10
115.4097
20
249.5419
30
0
40
2.2500
50
23.4261
51
203.4261
0
ARC
8
0
10
117.1988
20
245.4128
30
0
40
2.2500
50
203.4261
51
23.4261
0
LINE
8
0
10
65.4384
20
359.2150
30
0
11
63.6494
21
363.3441
31
0
0
LINE
8
0
10
69.5675
20
361.0040
30
0
11
67.7785
21
365.1331
31
0
0
ARC
8
0
10
65.7139
20
364.2386
30
0
40
2.2500
50
23.4261
51
203.4261
0
ARC
8
0
10
67.5030
20
360.1095
30
0
40
2.2500
50
203.4261
51
23.4261
0
LINE
8
0
10
15.7427
20
473.9117
30
0
11
13.9536
21
478.0408
31
0
0
LINE
8
0
10
19.8717
20
475.7007
30
0
11
18.0827
21
479.8298
31
0
0
ARC
8
0
10
16.0182
20
478.9353
30
0
40
2.2500
50
23.4261
51
203.4261
0
ARC
8
0
10
17.8072
20
474.8062
30
0
40
2.2500
50
203.4261
51
23.4261
0
LINE
8
0
10
218.6549
20
-16.9140
30
0
11
216.8658
21
-21.0431
31
0
0
LINE
8
0
10
214.5258
20
-15.1249
30
0
11
212.7367
21
-19.2540
31
0
0
ARC
8
0
10
214.8013
20
-20.1485
30
0
40
2.2500
50
156.5739
51
336.5739
0
ARC
8
0
10
216.5903
20
-16.0195
30
0
40
2.2500
50
336.5739
51
156.5739
0
LINE
8
0
10
168.9591
20
-131.6107
30
0
11
167.1700
21
-135.7397
31
0
0
LINE
8
0
10
164.8300
20
-129.8216
30
0
11
163.0410
21
-133.9507
31
0
0
ARC
8
0
10
165.1055
20
-134.8452
30
0
40
2.2500
50
156.5739
51
336.5739
0
ARC
8
0
10
166.8945
20
-130.7161
30
0
40
2.2500
50
336.5739
51
156.5739
0
LINE
8
0
10
119.2633
20
-246.3074
30
0
11
117.4743
21
-250.4364
31
0
0
LINE
8
0
10
115.1342
20
-244.5183
30
0
11
113.3452
21
-248.6474
31
0
0
ARC
8
0
10
115.4097
20
-249.5419
30
0
40
2.2500
50
156.5739
51
336.5739
0
ARC
8
0
10
117.1988
20
-245.4128
30
0
40
2.2500
50
336.5739
51
156.5739
0
LINE
8
0
10
69.5675
20
-361.0040
30
0
11
67.7785
21
-365.1331
31
0
0
LINE
8
0
10
65.4384
20
-359.2150
30
0
11
63.6494
21
-363.3441
31
0
0
ARC
8
0
10
65.7139
20
-364.2386
30
0
40
2.2500
50
156.5739
51
336.5739
0
ARC
8
0
10
67.5030
20
-360.1095
30
0
40
2.2500
50
336.5739
51
156.5739
0
LINE
8
0
10
19.8717
20
-475.7007
30
0
11
18.0827
21
-479.8298
31
0
0
LINE
8
0
10
15.7427
20
-473.9117
30
0
11
13.9536
21
-478.0408
31
0
0
ARC
8
0
10
16.0182
20
-478.9353
30
0
40
2.2500
50
156.5739
51
336.5739
0
ARC
8
0
10
17.8072
20
-474.8062
30
0
40
2.2500
50
336.5739
51
156.5739
0
LINE
8
0
10
1081.3451
20
16.9140
30
0
11
1083.1342
21
21.0431
31
0
0
LINE
8
0
10
1085.4742
20
15.1249
30
0
11
1087.2633
21
19.2540
31
0
0
ARC
8
0
10
1085.1987
20
20.1485
30
0
40
2.2500
50
336.5739
51
156.5739
0
ARC
8
0
10
1083.4097
20
16.0195
30
0
40
2.2500
50
156.5739
51
336.5739
0
LINE
8
0
10
1131.0409
20
131.6107
30
0
11
1132.8300
21
135.7397
31
0
0
LINE
8
0
10
1135.1700
20
129.8216
30
0
11
1136.9590
21
133.9507
31
0
0
ARC
8
0
10
1134.8945
20
134.8452
30
0
40
2.2500
50
336.5739
51
156.5739
0
ARC
8
0
10
1133.1055
20
130.7161
30
0
40
2.2500
50
156.5739
51
336.5739
0
LINE
8
0
10
1180.7367
20
246.3074
30
0
11
1182.5257
21
250.4364
31
0
0
LINE
8
0
10
1184.8658
20
244.5183
30
0
11
1186.6548
21
248.6474
31
0
0
ARC
8
0
10
1184.5903
20
249.5419
30
0
40
2.2500
50
336.5739
51
156.5739
0
ARC
8
0
10
1182.8012
20
245.4128
30
0
40
2.2500
50
156.5739
51
336.5739
0
LINE
8
0
10
1230.4325
20
361.0040
30
0
11
1232.2215
21
365.1331
31
0
0
LINE
8
0
10
1234.5616
20
359.2150
30
0
11
1236.3506
21
363.3441
31
0
0
ARC
8
0
10
1234.2861
20
364.2386
30
0
40
2.2500
50
336.5739
51
156.5739
0
ARC
8
0
10
1232.4970
20
360.1095
30
0
40
2.2500
50
156.5739
51
336.5739
0
LINE
8
0
10
1280.1283
20
475.7007
30
0
11
1281.9173
21
479.8298
31
0
0
LINE
8
0
10
1284.2573
20
473.9117
30
0
11
1286.0464
21
478.0408
31
0
0
ARC
8
0
10
1283.9818
20
478.9353
30
0
40
2.2500
50
336.5739
51
156.5739
0
ARC
8
0
10
1282.1928
20
474.8062
30
0
40
2.2500
50
156.5739
51
336.5739
0
LINE
8
0
10
1085.4742
20
-15.1249
30
0
11
1087.2633
21
-19.2540
31
0
0
LINE
8
0
10
1081.3451
20
-16.9140
30
0
11
1083.1342
21
-21.0431
31
0
0
ARC
8
0
10
1085.1987
20
-20.1485
30
0
40
2.2500
50
203.4261
51
23.4261
0
ARC
8
0
10
1083.4097
20
-16.0195
30
0
40
2.2500
50
23.4261
51
203.4261
0
LINE
8
0
10
1135.1700
20
-129.8216
30
0
11
1136.9590
21
-133.9507
31
0
0
LINE
8
0
10
1131.0409
20
-131.6107
30
0
11
1132.8300
21
-135.7397
31
0
0
ARC
8
0
10
1134.8945
20
-134.8452
30
0
40
2.2500
50
203.4261
51
23.4261
0
ARC
8
0
10
1133.1055
20
-130.7161
30
0
40
2.2500
50
23.4261
51
203.4261
0
LINE
8
0
10
1184.8658
20
-244.5183
30
0
11
1186.6548
21
-248.6474
31
0
0
LINE
8
0
10
1180.7367
20
-246.3074
30
0
11
1182.5257
21
-250.4364
31
0
0
ARC
8
0
10
1184.5903
20
-249.5419
30
0
40
2.2500
50
203.4261
51
23.4261
0
ARC
8
0
10
1182.8012
20
-245.4128
30
0
40
2.2500
50
23.4261
51
203.4261
0
LINE
8
0
10
1234.5616
20
-359.2150
30
0
11
1236.3506
21
-363.3441
31
0
0
LINE
8
0
10
1230.4325
20
-361.0040
30
0
11
1232.2215
21
-365.1331
31
0
0
ARC
8
0
10
1234.2861
20
-364.2386
30
0
40
2.2500
50
203.4261
51
23.4261
0
ARC
8
0
10
1232.4970
20
-360.1095
30
0
40
2.2500
50
23.4261
51
203.4261
0
LINE
8
0
10
1284.2573
20
-473.9117
30
0
11
1286.0464
21
-478.0408
31
0
0
LINE
8
0
10
1280.1283
20
-475.7007
30
0
11
1281.9173
21
-479.8298
31
0
0
ARC
8
0
10
1283.9818
20
-478.9353
30
0
40
2.2500
50
203.4261
51
23.4261
0
ARC
8
0
10
1282.1928
20
-474.8062
30
0
40
2.2500
50
23.4261
51
203.4261
0
LINE
8
0
10
1110.6765
20
0.0000
30
0
11
1101.7501
21
-21.2755
31
0
0
LINE
8
0
10
1101.7501
20
-21.2755
30
0
11
1412.8537
21
-429.1716
31
0
0
LINE
8
0
10
1412.8537
20
-429.1716
30
0
11
1435.0253
21
-425.2622
31
0
0
LINE
8
0
10
1435.0253
20
-425.2622
30
0
11
1458.0253
21
-425.2622
31
0
0
LINE
8
0
10
1458.0253
20
-425.2622
30
0
11
1475.0253
21
-419.2622
31
0
0
LINE
8
0
10
1475.0253
20
-419.2622
30
0
11
1475.0253
21
419.2622
31
0
0
LINE
8
0
10
1475.0253
20
419.2622
30
0
11
1458.0253
21
425.2622
31
0
0
LINE
8
0
10
1458.0253
20
425.2622
30
0
11
1435.0253
21
425.2622
31
0
0
LINE
8
0
10
1435.0253
20
425.2622
30
0
11
1412.8537
21
429.1716
31
0
0
LINE
8
0
10
1412.8537
20
429.1716
30
0
11
1101.7501
21
21.2755
31
0
0
LINE
8
0
10
1101.7501
20
21.2755
30
0
11
1110.6765
21
0.0000
31
0
0
CIRCLE
8
0
10
1410.0253
20
0.0000
30
0
40
3.5000
0
CIRCLE
8
0
10
1370.0253
20
0.0000
30
0
40
3.5000
0
CIRCLE
8
0
10
1112.0497
20
18.2901
30
0
40
2.2500
0
CIRCLE
8
0
10
1112.0497
20
-18.2901
30
0
40
2.2500
0
CIRCLE
8
0
10
1187.8553
20
117.6808
30
0
40
2.2500
0
CIRCLE
8
0
10
1187.8553
20
-117.6808
30
0
40
2.2500
0
CIRCLE
8
0
10
1263.6609
20
217.0715
30
0
40
2.2500
0
CIRCLE
8
0
10
1263.6609
20
-217.0715
30
0
40
2.2500
0
CIRCLE
8
0
10
1339.4665
20
316.4622
30
0
40
2.2500
0
CIRCLE
8
0
10
1339.4665
20
-316.4622
30
0
40
2.2500
0
CIRCLE
8
0
10
1415.2721
20
415.8529
30
0
40
2.2500
0
CIRCLE
8
0
10
1415.2721
20
-415.8529
30
0
40
2.2500
0
ENDSEC
0
EOF
