0
SECTION
2
HEADER
9
$ACADVER
1
AC1009
9
$INSUNITS
70
4
0
ENDSEC
0
SECTION
2
ENTITIES
0
LINE
8
0
10
373.3579
20
21.2755
30
0
11
-204.8543
21
779.3846
31
0
0
LINE
8
0
10
-204.8543
20
779.3846
30
0
11
-227.0258
21
775.4752
31
0
0
LINE
8
0
10
-227.0258
20
775.4752
30
0
11
-250.0258
21
775.4752
31
0
0
LINE
8
0
10
-250.0258
20
775.4752
30
0
11
-267.0258
21
769.4752
31
0
0
LINE
8
0
10
-267.0258
20
769.4752
30
0
11
-267.0258
21
-769.4752
31
0
0
LINE
8
0
10
-267.0258
20
-769.4752
30
0
11
-250.0258
21
-775.4752
31
0
0
LINE
8
0
10
-250.0258
20
-775.4752
30
0
11
-227.0258
21
-775.4752
31
0
0
LINE
8
0
10
-227.0258
20
-775.4752
30
0
11
-204.8543
21
-779.3846
31
0
0
LINE
8
0
10
-204.8543
20
-779.3846
30
0
11
373.3579
21
-21.2755
31
0
0
LINE
8
0
10
373.3579
20
-21.2755
30
0
11
364.4316
21
0.0000
31
0
0
LINE
8
0
10
364.4316
20
0.0000
30
0
11
373.3579
21
21.2755
31
0
0
CIRCLE
8
0
10
-202.0258
20
-450.0000
30
0
40
3.5000
0
CIRCLE
8
0
10
-162.0258
20
-450.0000
30
0
40
3.5000
0
CIRCLE
8
0
10
-202.0258
20
-150.0000
30
0
40
3.5000
0
CIRCLE
8
0
10
-162.0258
20
-150.0000
30
0
40
3.5000
0
CIRCLE
8
0
10
-202.0258
20
150.0000
30
0
40
3.5000
0
CIRCLE
8
0
10
-162.0258
20
150.0000
30
0
40
3.5000
0
CIRCLE
8
0
10
-202.0258
20
450.0000
30
0
40
3.5000
0
CIRCLE
8
0
10
-162.0258
20
450.0000
30
0
40
3.5000
0
CIRCLE
8
0
10
363.0583
20
18.2901
30
0
40
2.2500
0
CIRCLE
8
0
10
363.0583
20
-18.2901
30
0
40
2.2500
0
CIRCLE
8
0
10
281.7947
20
124.8369
30
0
40
2.2500
0
CIRCLE
8
0
10
281.7947
20
-124.8369
30
0
40
2.2500
0
CIRCLE
8
0
10
200.5311
20
231.3837
30
0
40
2.2500
0
CIRCLE
8
0
10
200.5311
20
-231.3837
30
0
40
2.2500
0
CIRCLE
8
0
10
119.2675
20
337.9305
30
0
40
2.2500
0
CIRCLE
8
0
10
119.2675
20
-337.9305
30
0
40
2.2500
0
CIRCLE
8
0
10
38.0039
20
444.4774
30
0
40
2.2500
0
CIRCLE
8
0
10
38.0039
20
-444.4774
30
0
40
2.2500
0
CIRCLE
8
0
10
-43.2597
20
551.0242
30
0
40
2.2500
0
CIRCLE
8
0
10
-43.2597
20
-551.0242
30
0
40
2.2500
0
CIRCLE
8
0
10
-124.5233
20
657.5710
30
0
40
2.2500
0
CIRCLE
8
0
10
-124.5233
20
-657.5710
30
0
40
2.2500
0
CIRCLE
8
0
10
-205.7869
20
764.1179
30
0
40
2.2500
0
CIRCLE
8
0
10
-205.7869
20
-764.1179
30
0
40
2.2500
0
LINE
8
0
10
6.0000
20
934.8969
30
0
11
0.0000
21
917.8969
31
0
0
LINE
8
0
10
0.0000
20
917.8969
30
0
11
0.0000
21
894.8969
31
0
0
LINE
8
0
10
0.0000
20
894.8969
30
0
11
387.7409
21
0.0000
31
0
0
LINE
8
0
10
387.7409
20
0.0000
30
0
11
0.0000
21
-894.8969
31
0
0
LINE
8
0
10
0.0000
20
-894.8969
30
0
11
0.0000
21
-917.8969
31
0
0
LINE
8
0
10
0.0000
20
-917.8969
30
0
11
6.0000
21
-934.8969
31
0
0
LINE
8
0
10
6.0000
20
-934.8969
30
0
11
950.0000
21
-934.8969
31
0
0
LINE
8
0
10
950.0000
20
-934.8969
30
0
11
950.0000
21
-892.8969
31
0
0
LINE
8
0
10
950.0000
20
-892.8969
30
0
11
964.0000
21
-892.8969
31
0
0
LINE
8
0
10
964.0000
20
-892.8969
30
0
11
964.0000
21
-15.0000
31
0
0
LINE
8
0
10
964.0000
20
-15.0000
30
0
11
949.0000
21
0.0000
31
0
0
LINE
8
0
10
949.0000
20
0.0000
30
0
11
964.0000
21
15.0000
31
0
0
LINE
8
0
10
964.0000
20
15.0000
30
0
11
964.0000
21
892.8969
31
0
0
LINE
8
0
10
964.0000
20
892.8969
30
0
11
950.0000
21
892.8969
31
0
0
LINE
8
0
10
950.0000
20
892.8969
30
0
11
950.0000
21
934.8969
31
0
0
LINE
8
0
10
950.0000
20
934.8969
30
0
11
6.0000
21
934.8969
31
0
0
CIRCLE
8
0
10
300.0000
20
869.8969
30
0
40
3.5000
0
CIRCLE
8
0
10
300.0000
20
829.8969
30
0
40
3.5000
0
CIRCLE
8
0
10
300.0000
20
-869.8969
30
0
40
3.5000
0
CIRCLE
8
0
10
300.0000
20
-829.8969
30
0
40
3.5000
0
CIRCLE
8
0
10
560.0000
20
869.8969
30
0
40
3.5000
0
CIRCLE
8
0
10
560.0000
20
829.8969
30
0
40
3.5000
0
CIRCLE
8
0
10
560.0000
20
-869.8969
30
0
40
3.5000
0
CIRCLE
8
0
10
560.0000
20
-829.8969
30
0
40
3.5000
0
CIRCLE
8
0
10
820.0000
20
869.8969
30
0
40
3.5000
0
CIRCLE
8
0
10
820.0000
20
829.8969
30
0
40
3.5000
0
CIRCLE
8
0
10
820.0000
20
-869.8969
30
0
40
3.5000
0
CIRCLE
8
0
10
820.0000
20
-829.8969
30
0
40
3.5000
0
LINE
8
0
10
389.6338
20
15.1249
30
0
11
387.8448
21
19.2540
31
0
0
LINE
8
0
10
393.7629
20
16.9140
30
0
11
391.9738
21
21.0431
31
0
0
ARC
8
0
10
389.9093
20
20.1485
30
0
40
2.2500
50
23.4261
51
203.4261
0
ARC
8
0
10
391.6983
20
16.0195
30
0
40
2.2500
50
203.4261
51
23.4261
0
LINE
8
0
10
336.3599
20
138.0798
30
0
11
334.5709
21
142.2089
31
0
0
LINE
8
0
10
340.4890
20
139.8688
30
0
11
338.7000
21
143.9979
31
0
0
ARC
8
0
10
336.6354
20
143.1034
30
0
40
2.2500
50
23.4261
51
203.4261
0
ARC
8
0
10
338.4245
20
138.9743
30
0
40
2.2500
50
203.4261
51
23.4261
0
LINE
8
0
10
283.0861
20
261.0346
30
0
11
281.2970
21
265.1637
31
0
0
LINE
8
0
10
287.2151
20
262.8237
30
0
11
285.4261
21
266.9528
31
0
0
ARC
8
0
10
283.3615
20
266.0582
30
0
40
2.2500
50
23.4261
51
203.4261
0
ARC
8
0
10
285.1506
20
261.9291
30
0
40
2.2500
50
203.4261
51
23.4261
0
LINE
8
0
10
229.8122
20
383.9895
30
0
11
228.0231
21
388.1186
31
0
0
LINE
8
0
10
233.9413
20
385.7785
30
0
11
232.1522
21
389.9076
31
0
0
ARC
8
0
10
230.0877
20
389.0131
30
0
40
2.2500
50
23.4261
51
203.4261
0
ARC
8
0
10
231.8767
20
384.8840
30
0
40
2.2500
50
203.4261
51
23.4261
0
LINE
8
0
10
176.5383
20
506.9443
30
0
11
174.7493
21
511.0734
31
0
0
LINE
8
0
10
180.6674
20
508.7334
30
0
11
178.8783
21
512.8624
31
0
0
ARC
8
0
10
176.8138
20
511.9679
30
0
40
2.2500
50
23.4261
51
203.4261
0
ARC
8
0
10
178.6028
20
507.8388
30
0
40
2.2500
50
203.4261
51
23.4261
0
LINE
8
0
10
123.2644
20
629.8992
30
0
11
121.4754
21
634.0282
31
0
0
LINE
8
0
10
127.3935
20
631.6882
30
0
11
125.6045
21
635.8173
31
0
0
ARC
8
0
10
123.5399
20
634.9228
30
0
40
2.2500
50
23.4261
51
203.4261
0
ARC
8
0
10
125.3290
20
630.7937
30
0
40
2.2500
50
203.4261
51
23.4261
0
LINE
8
0
10
69.9906
20
752.8540
30
0
11
68.2015
21
756.9831
31
0
0
LINE
8
0
10
74.1196
20
754.6431
30
0
11
72.3306
21
758.7721
31
0
0
ARC
8
0
10
70.2660
20
757.8776
30
0
40
2.2500
50
23.4261
51
203.4261
0
ARC
8
0
10
72.0551
20
753.7485
30
0
40
2.2500
50
203.4261
51
23.4261
0
LINE
8
0
10
16.7167
20
875.8089
30
0
11
14.9276
21
879.9379
31
0
0
LINE
8
0
10
20.8458
20
877.5979
30
0
11
19.0567
21
881.7270
31
0
0
ARC
8
0
10
16.9922
20
880.8325
30
0
40
2.2500
50
23.4261
51
203.4261
0
ARC
8
0
10
18.7812
20
876.7034
30
0
40
2.2500
50
203.4261
51
23.4261
0
LINE
8
0
10
393.7629
20
-16.9140
30
0
11
391.9738
21
-21.0431
31
0
0
LINE
8
0
10
389.6338
20
-15.1249
30
0
11
387.8448
21
-19.2540
31
0
0
ARC
8
0
10
389.9093
20
-20.1485
30
0
40
2.2500
50
156.5739
51
336.5739
0
ARC
8
0
10
391.6983
20
-16.0195
30
0
40
2.2500
50
336.5739
51
156.5739
0
LINE
8
0
10
340.4890
20
-139.8688
30
0
11
338.7000
21
-143.9979
31
0
0
LINE
8
0
10
336.3599
20
-138.0798
30
0
11
334.5709
21
-142.2089
31
0
0
ARC
8
0
10
336.6354
20
-143.1034
30
0
40
2.2500
50
156.5739
51
336.5739
0
ARC
8
0
10
338.4245
20
-138.9743
30
0
40
2.2500
50
336.5739
51
156.5739
0
LINE
8
0
10
287.2151
20
-262.8237
30
0
11
285.4261
21
-266.9528
31
0
0
LINE
8
0
10
283.0861
20
-261.0346
30
0
11
281.2970
21
-265.1637
31
0
0
ARC
8
0
10
283.3615
20
-266.0582
30
0
40
2.2500
50
156.5739
51
336.5739
0
ARC
8
0
10
285.1506
20
-261.9291
30
0
40
2.2500
50
336.5739
51
156.5739
0
LINE
8
0
10
233.9413
20
-385.7785
30
0
11
232.1522
21
-389.9076
31
0
0
LINE
8
0
10
229.8122
20
-383.9895
30
0
11
228.0231
21
-388.1186
31
0
0
ARC
8
0
10
230.0877
20
-389.0131
30
0
40
2.2500
50
156.5739
51
336.5739
0
ARC
8
0
10
231.8767
20
-384.8840
30
0
40
2.2500
50
336.5739
51
156.5739
0
LINE
8
0
10
180.6674
20
-508.7334
30
0
11
178.8783
21
-512.8624
31
0
0
LINE
8
0
10
176.5383
20
-506.9443
30
0
11
174.7493
21
-511.0734
31
0
0
ARC
8
0
10
176.8138
20
-511.9679
30
0
40
2.2500
50
156.5739
51
336.5739
0
ARC
8
0
10
178.6028
20
-507.8388
30
0
40
2.2500
50
336.5739
51
156.5739
0
LINE
8
0
10
127.3935
20
-631.6882
30
0
11
125.6045
21
-635.8173
31
0
0
LINE
8
0
10
123.2644
20
-629.8992
30
0
11
121.4754
21
-634.0282
31
0
0
ARC
8
0
10
123.5399
20
-634.9228
30
0
40
2.2500
50
156.5739
51
336.5739
0
ARC
8
0
10
125.3290
20
-630.7937
30
0
40
2.2500
50
336.5739
51
156.5739
0
LINE
8
0
10
74.1196
20
-754.6431
30
0
11
72.3306
21
-758.7721
31
0
0
LINE
8
0
10
69.9906
20
-752.8540
30
0
11
68.2015
21
-756.9831
31
0
0
ARC
8
0
10
70.2660
20
-757.8776
30
0
40
2.2500
50
156.5739
51
336.5739
0
ARC
8
0
10
72.0551
20
-753.7485
30
0
40
2.2500
50
336.5739
51
156.5739
0
LINE
8
0
10
20.8458
20
-877.5979
30
0
11
19.0567
21
-881.7270
31
0
0
LINE
8
0
10
16.7167
20
-875.8089
30
0
11
14.9276
21
-879.9379
31
0
0
ARC
8
0
10
16.9922
20
-880.8325
30
0
40
2.2500
50
156.5739
51
336.5739
0
ARC
8
0
10
18.7812
20
-876.7034
30
0
40
2.2500
50
336.5739
51
156.5739
0
LINE
8
0
10
1078.0000
20
934.8969
30
0
11
1078.0000
21
892.8969
31
0
0
LINE
8
0
10
1078.0000
20
892.8969
30
0
11
1064.0000
21
892.8969
31
0
0
LINE
8
0
10
1064.0000
20
892.8969
30
0
11
1064.0000
21
15.0000
31
0
0
LINE
8
0
10
1064.0000
20
15.0000
30
0
11
1079.0000
21
0.0000
31
0
0
LINE
8
0
10
1079.0000
20
0.0000
30
0
11
1064.0000
21
-15.0000
31
0
0
LINE
8
0
10
1064.0000
20
-15.0000
30
0
11
1064.0000
21
-892.8969
31
0
0
LINE
8
0
10
1064.0000
20
-892.8969
30
0
11
1078.0000
21
-892.8969
31
0
0
LINE
8
0
10
1078.0000
20
-892.8969
30
0
11
1078.0000
21
-934.8969
31
0
0
LINE
8
0
10
1078.0000
20
-934.8969
30
0
11
2022.0000
21
-934.8969
31
0
0
LINE
8
0
10
2022.0000
20
-934.8969
30
0
11
2028.0000
21
-917.8969
31
0
0
LINE
8
0
10
2028.0000
20
-917.8969
30
0
11
2028.0000
21
-894.8969
31
0
0
LINE
8
0
10
2028.0000
20
-894.8969
30
0
11
1640.2591
21
0.0000
31
0
0
LINE
8
0
10
1640.2591
20
0.0000
30
0
11
2028.0000
21
894.8969
31
0
0
LINE
8
0
10
2028.0000
20
894.8969
30
0
11
2028.0000
21
917.8969
31
0
0
LINE
8
0
10
2028.0000
20
917.8969
30
0
11
2022.0000
21
934.8969
31
0
0
LINE
8
0
10
2022.0000
20
934.8969
30
0
11
1078.0000
21
934.8969
31
0
0
CIRCLE
8
0
10
1208.0000
20
869.8969
30
0
40
3.5000
0
CIRCLE
8
0
10
1208.0000
20
829.8969
30
0
40
3.5000
0
CIRCLE
8
0
10
1208.0000
20
-869.8969
30
0
40
3.5000
0
CIRCLE
8
0
10
1208.0000
20
-829.8969
30
0
40
3.5000
0
CIRCLE
8
0
10
1468.0000
20
869.8969
30
0
40
3.5000
0
CIRCLE
8
0
10
1468.0000
20
829.8969
30
0
40
3.5000
0
CIRCLE
8
0
10
1468.0000
20
-869.8969
30
0
40
3.5000
0
CIRCLE
8
0
10
1468.0000
20
-829.8969
30
0
40
3.5000
0
CIRCLE
8
0
10
1728.0000
20
869.8969
30
0
40
3.5000
0
CIRCLE
8
0
10
1728.0000
20
829.8969
30
0
40
3.5000
0
CIRCLE
8
0
10
1728.0000
20
-869.8969
30
0
40
3.5000
0
CIRCLE
8
0
10
1728.0000
20
-829.8969
30
0
40
3.5000
0
LINE
8
0
10
1634.2371
20
16.9140
30
0
11
1636.0262
21
21.0431
31
0
0
LINE
8
0
10
1638.3662
20
15.1249
30
0
11
1640.1552
21
19.2540
31
0
0
ARC
8
0
10
1638.0907
20
20.1485
30
0
40
2.2500
50
336.5739
51
156.5739
0
ARC
8
0
10
1636.3017
20
16.0195
30
0
40
2.2500
50
156.5739
51
336.5739
0
LINE
8
0
10
1687.5110
20
139.8688
30
0
11
1689.3000
21
143.9979
31
0
0
LINE
8
0
10
1691.6401
20
138.0798
30
0
11
1693.4291
21
142.2089
31
0
0
ARC
8
0
10
1691.3646
20
143.1034
30
0
40
2.2500
50
336.5739
51
156.5739
0
ARC
8
0
10
1689.5755
20
138.9743
30
0
40
2.2500
50
156.5739
51
336.5739
0
LINE
8
0
10
1740.7849
20
262.8237
30
0
11
1742.5739
21
266.9528
31
0
0
LINE
8
0
10
1744.9139
20
261.0346
30
0
11
1746.7030
21
265.1637
31
0
0
ARC
8
0
10
1744.6385
20
266.0582
30
0
40
2.2500
50
336.5739
51
156.5739
0
ARC
8
0
10
1742.8494
20
261.9291
30
0
40
2.2500
50
156.5739
51
336.5739
0
LINE
8
0
10
1794.0587
20
385.7785
30
0
11
1795.8478
21
389.9076
31
0
0
LINE
8
0
10
1798.1878
20
383.9895
30
0
11
1799.9769
21
388.1186
31
0
0
ARC
8
0
10
1797.9123
20
389.0131
30
0
40
2.2500
50
336.5739
51
156.5739
0
ARC
8
0
10
1796.1233
20
384.8840
30
0
40
2.2500
50
156.5739
51
336.5739
0
LINE
8
0
10
1847.3326
20
508.7334
30
0
11
1849.1217
21
512.8624
31
0
0
LINE
8
0
10
1851.4617
20
506.9443
30
0
11
1853.2507
21
511.0734
31
0
0
ARC
8
0
10
1851.1862
20
511.9679
30
0
40
2.2500
50
336.5739
51
156.5739
0
ARC
8
0
10
1849.3972
20
507.8388
30
0
40
2.2500
50
156.5739
51
336.5739
0
LINE
8
0
10
1900.6065
20
631.6882
30
0
11
1902.3955
21
635.8173
31
0
0
LINE
8
0
10
1904.7356
20
629.8992
30
0
11
1906.5246
21
634.0282
31
0
0
ARC
8
0
10
1904.4601
20
634.9228
30
0
40
2.2500
50
336.5739
51
156.5739
0
ARC
8
0
10
1902.6710
20
630.7937
30
0
40
2.2500
50
156.5739
51
336.5739
0
LINE
8
0
10
1953.8804
20
754.6431
30
0
11
1955.6694
21
758.7721
31
0
0
LINE
8
0
10
1958.0094
20
752.8540
30
0
11
1959.7985
21
756.9831
31
0
0
ARC
8
0
10
1957.7340
20
757.8776
30
0
40
2.2500
50
336.5739
51
156.5739
0
ARC
8
0
10
1955.9449
20
753.7485
30
0
40
2.2500
50
156.5739
51
336.5739
0
LINE
8
0
10
2007.1542
20
877.5979
30
0
11
2008.9433
21
881.7270
31
0
0
LINE
8
0
10
2011.2833
20
875.8089
30
0
11
2013.0724
21
879.9379
31
0
0
ARC
8
0
10
2011.0078
20
880.8325
30
0
40
2.2500
50
336.5739
51
156.5739
0
ARC
8
0
10
2009.2188
20
876.7034
30
0
40
2.2500
50
156.5739
51
336.5739
0
LINE
8
0
10
1638.3662
20
-15.1249
30
0
11
1640.1552
21
-19.2540
31
0
0
LINE
8
0
10
1634.2371
20
-16.9140
30
0
11
1636.0262
21
-21.0431
31
0
0
ARC
8
0
10
1638.0907
20
-20.1485
30
0
40
2.2500
50
203.4261
51
23.4261
0
ARC
8
0
10
1636.3017
20
-16.0195
30
0
40
2.2500
50
23.4261
51
203.4261
0
LINE
8
0
10
1691.6401
20
-138.0798
30
0
11
1693.4291
21
-142.2089
31
0
0
LINE
8
0
10
1687.5110
20
-139.8688
30
0
11
1689.3000
21
-143.9979
31
0
0
ARC
8
0
10
1691.3646
20
-143.1034
30
0
40
2.2500
50
203.4261
51
23.4261
0
ARC
8
0
10
1689.5755
20
-138.9743
30
0
40
2.2500
50
23.4261
51
203.4261
0
LINE
8
0
10
1744.9139
20
-261.0346
30
0
11
1746.7030
21
-265.1637
31
0
0
LINE
8
0
10
1740.7849
20
-262.8237
30
0
11
1742.5739
21
-266.9528
31
0
0
ARC
8
0
10
1744.6385
20
-266.0582
30
0
40
2.2500
50
203.4261
51
23.4261
0
ARC
8
0
10
1742.8494
20
-261.9291
30
0
40
2.2500
50
23.4261
51
203.4261
0
LINE
8
0
10
1798.1878
20
-383.9895
30
0
11
1799.9769
21
-388.1186
31
0
0
LINE
8
0
10
1794.0587
20
-385.7785
30
0
11
1795.8478
21
-389.9076
31
0
0
ARC
8
0
10
1797.9123
20
-389.0131
30
0
40
2.2500
50
203.4261
51
23.4261
0
ARC
8
0
10
1796.1233
20
-384.8840
30
0
40
2.2500
50
23.4261
51
203.4261
0
LINE
8
0
10
1851.4617
20
-506.9443
30
0
11
1853.2507
21
-511.0734
31
0
0
LINE
8
0
10
1847.3326
20
-508.7334
30
0
11
1849.1217
21
-512.8624
31
0
0
ARC
8
0
10
1851.1862
20
-511.9679
30
0
40
2.2500
50
203.4261
51
23.4261
0
ARC
8
0
10
1849.3972
20
-507.8388
30
0
40
2.2500
50
23.4261
51
203.4261
0
LINE
8
0
10
1904.7356
20
-629.8992
30
0
11
1906.5246
21
-634.0282
31
0
0
LINE
8
0
10
1900.6065
20
-631.6882
30
0
11
1902.3955
21
-635.8173
31
0
0
ARC
8
0
10
1904.4601
20
-634.9228
30
0
40
2.2500
50
203.4261
51
23.4261
0
ARC
8
0
10
1902.6710
20
-630.7937
30
0
40
2.2500
50
23.4261
51
203.4261
0
LINE
8
0
10
1958.0094
20
-752.8540
30
0
11
1959.7985
21
-756.9831
31
0
0
LINE
8
0
10
1953.8804
20
-754.6431
30
0
11
1955.6694
21
-758.7721
31
0
0
ARC
8
0
10
1957.7340
20
-757.8776
30
0
40
2.2500
50
203.4261
51
23.4261
0
ARC
8
0
10
1955.9449
20
-753.7485
30
0
40
2.2500
50
23.4261
51
203.4261
0
LINE
8
0
10
2011.2833
20
-875.8089
30
0
11
2013.0724
21
-879.9379
31
0
0
LINE
8
0
10
2007.1542
20
-877.5979
30
0
11
2008.9433
21
-881.7270
31
0
0
ARC
8
0
10
2011.0078
20
-880.8325
30
0
40
2.2500
50
203.4261
51
23.4261
0
ARC
8
0
10
2009.2188
20
-876.7034
30
0
40
2.2500
50
23.4261
51
203.4261
0
LINE
8
0
10
1663.5684
20
0.0000
30
0
11
1654.6421
21
-21.2755
31
0
0
LINE
8
0
10
1654.6421
20
-21.2755
30
0
11
2232.8543
21
-779.3846
31
0
0
LINE
8
0
10
2232.8543
20
-779.3846
30
0
11
2255.0258
21
-775.4752
31
0
0
LINE
8
0
10
2255.0258
20
-775.4752
30
0
11
2278.0258
21
-775.4752
31
0
0
LINE
8
0
10
2278.0258
20
-775.4752
30
0
11
2295.0258
21
-769.4752
31
0
0
LINE
8
0
10
2295.0258
20
-769.4752
30
0
11
2295.0258
21
769.4752
31
0
0
LINE
8
0
10
2295.0258
20
769.4752
30
0
11
2278.0258
21
775.4752
31
0
0
LINE
8
0
10
2278.0258
20
775.4752
30
0
11
2255.0258
21
775.4752
31
0
0
LINE
8
0
10
2255.0258
20
775.4752
30
0
11
2232.8543
21
779.3846
31
0
0
LINE
8
0
10
2232.8543
20
779.3846
30
0
11
1654.6421
21
21.2755
31
0
0
LINE
8
0
10
1654.6421
20
21.2755
30
0
11
1663.5684
21
0.0000
31
0
0
CIRCLE
8
0
10
2230.0258
20
-450.0000
30
0
40
3.5000
0
CIRCLE
8
0
10
2190.0258
20
-450.0000
30
0
40
3.5000
0
CIRCLE
8
0
10
2230.0258
20
-150.0000
30
0
40
3.5000
0
CIRCLE
8
0
10
2190.0258
20
-150.0000
30
0
40
3.5000
0
CIRCLE
8
0
10
2230.0258
20
150.0000
30
0
40
3.5000
0
CIRCLE
8
0
10
2190.0258
20
150.0000
30
0
40
3.5000
0
CIRCLE
8
0
10
2230.0258
20
450.0000
30
0
40
3.5000
0
CIRCLE
8
0
10
2190.0258
20
450.0000
30
0
40
3.5000
0
CIRCLE
8
0
10
1664.9417
20
18.2901
30
0
40
2.2500
0
CIRCLE
8
0
10
1664.9417
20
-18.2901
30
0
40
2.2500
0
CIRCLE
8
0
10
1746.2053
20
124.8369
30
0
40
2.2500
0
CIRCLE
8
0
10
1746.2053
20
-124.8369
30
0
40
2.2500
0
CIRCLE
8
0
10
1827.4689
20
231.3837
30
0
40
2.2500
0
CIRCLE
8
0
10
1827.4689
20
-231.3837
30
0
40
2.2500
0
CIRCLE
8
0
10
1908.7325
20
337.9305
30
0
40
2.2500
0
CIRCLE
8
0
10
1908.7325
20
-337.9305
30
0
40
2.2500
0
CIRCLE
8
0
10
1989.9961
20
444.4774
30
0
40
2.2500
0
CIRCLE
8
0
10
1989.9961
20
-444.4774
30
0
40
2.2500
0
CIRCLE
8
0
10
2071.2597
20
551.0242
30
0
40
2.2500
0
CIRCLE
8
0
10
2071.2597
20
-551.0242
30
0
40
2.2500
0
CIRCLE
8
0
10
2152.5233
20
657.5710
30
0
40
2.2500
0
CIRCLE
8
0
10
2152.5233
20
-657.5710
30
0
40
2.2500
0
CIRCLE
8
0
10
2233.7869
20
764.1179
30
0
40
2.2500
0
CIRCLE
8
0
10
2233.7869
20
-764.1179
30
0
40
2.2500
0
ENDSEC
0
EOF
