0
SECTION
2
HEADER
9
$ACADVER
1
AC1009
9
$INSUNITS
70
4
0
ENDSEC
0
SECTION
2
ENTITIES
0
LINE
8
0
10
148.2191
20
21.2755
30
0
11
-86.5679
21
329.1107
31
0
0
LINE
8
0
10
-86.5679
20
329.1107
30
0
11
-108.7394
21
325.2013
31
0
0
LINE
8
0
10
-108.7394
20
325.2013
30
0
11
-131.7394
21
325.2013
31
0
0
LINE
8
0
10
-131.7394
20
325.2013
30
0
11
-148.7394
21
319.2013
31
0
0
LINE
8
0
10
-148.7394
20
319.2013
30
0
11
-148.7394
21
-319.2013
31
0
0
LINE
8
0
10
-148.7394
20
-319.2013
30
0
11
-131.7394
21
-325.2013
31
0
0
LINE
8
0
10
-131.7394
20
-325.2013
30
0
11
-108.7394
21
-325.2013
31
0
0
LINE
8
0
10
-108.7394
20
-325.2013
30
0
11
-86.5679
21
-329.1107
31
0
0
LINE
8
0
10
-86.5679
20
-329.1107
30
0
11
148.2191
21
-21.2755
31
0
0
LINE
8
0
10
148.2191
20
-21.2755
30
0
11
139.2927
21
0.0000
31
0
0
LINE
8
0
10
139.2927
20
0.0000
30
0
11
148.2191
21
21.2755
31
0
0
CIRCLE
8
0
10
-83.7394
20
0.0000
30
0
40
3.5000
0
CIRCLE
8
0
10
-43.7394
20
0.0000
30
0
40
3.5000
0
CIRCLE
8
0
10
137.9194
20
18.2901
30
0
40
2.2500
0
CIRCLE
8
0
10
137.9194
20
-18.2901
30
0
40
2.2500
0
CIRCLE
8
0
10
62.7203
20
116.8856
30
0
40
2.2500
0
CIRCLE
8
0
10
62.7203
20
-116.8856
30
0
40
2.2500
0
CIRCLE
8
0
10
-12.4789
20
215.4812
30
0
40
2.2500
0
CIRCLE
8
0
10
-12.4789
20
-215.4812
30
0
40
2.2500
0
CIRCLE
8
0
10
-87.6781
20
314.0768
30
0
40
2.2500
0
CIRCLE
8
0
10
-87.6781
20
-314.0768
30
0
40
2.2500
0
LINE
8
0
10
6.0000
20
415.2817
30
0
11
0.0000
21
398.2817
31
0
0
LINE
8
0
10
0.0000
20
398.2817
30
0
11
0.0000
21
375.2817
31
0
0
LINE
8
0
10
0.0000
20
375.2817
30
0
11
162.6021
21
0.0000
31
0
0
LINE
8
0
10
162.6021
20
0.0000
30
0
11
0.0000
21
-375.2817
31
0
0
LINE
8
0
10
0.0000
20
-375.2817
30
0
11
0.0000
21
-398.2817
31
0
0
LINE
8
0
10
0.0000
20
-398.2817
30
0
11
6.0000
21
-415.2817
31
0
0
LINE
8
0
10
6.0000
20
-415.2817
30
0
11
1294.0000
21
-415.2817
31
0
0
LINE
8
0
10
1294.0000
20
-415.2817
30
0
11
1300.0000
21
-398.2817
31
0
0
LINE
8
0
10
1300.0000
20
-398.2817
30
0
11
1300.0000
21
-375.2817
31
0
0
LINE
8
0
10
1300.0000
20
-375.2817
30
0
11
1137.3979
21
0.0000
31
0
0
LINE
8
0
10
1137.3979
20
0.0000
30
0
11
1300.0000
21
375.2817
31
0
0
LINE
8
0
10
1300.0000
20
375.2817
30
0
11
1300.0000
21
398.2817
31
0
0
LINE
8
0
10
1300.0000
20
398.2817
30
0
11
1294.0000
21
415.2817
31
0
0
LINE
8
0
10
1294.0000
20
415.2817
30
0
11
6.0000
21
415.2817
31
0
0
CIRCLE
8
0
10
300.0000
20
350.2817
30
0
40
3.5000
0
CIRCLE
8
0
10
300.0000
20
310.2817
30
0
40
3.5000
0
CIRCLE
8
0
10
300.0000
20
-350.2817
30
0
40
3.5000
0
CIRCLE
8
0
10
300.0000
20
-310.2817
30
0
40
3.5000
0
CIRCLE
8
0
10
650.0000
20
350.2817
30
0
40
3.5000
0
CIRCLE
8
0
10
650.0000
20
310.2817
30
0
40
3.5000
0
CIRCLE
8
0
10
650.0000
20
-350.2817
30
0
40
3.5000
0
CIRCLE
8
0
10
650.0000
20
-310.2817
30
0
40
3.5000
0
CIRCLE
8
0
10
1000.0000
20
350.2817
30
0
40
3.5000
0
CIRCLE
8
0
10
1000.0000
20
310.2817
30
0
40
3.5000
0
CIRCLE
8
0
10
1000.0000
20
-350.2817
30
0
40
3.5000
0
CIRCLE
8
0
10
1000.0000
20
-310.2817
30
0
40
3.5000
0
LINE
8
0
10
164.4949
20
15.1249
30
0
11
162.7059
21
19.2540
31
0
0
LINE
8
0
10
168.6240
20
16.9140
30
0
11
166.8349
21
21.0431
31
0
0
ARC
8
0
10
164.7704
20
20.1485
30
0
40
2.2500
50
23.4261
51
203.4261
0
ARC
8
0
10
166.5595
20
16.0195
30
0
40
2.2500
50
203.4261
51
23.4261
0
LINE
8
0
10
115.1967
20
128.9040
30
0
11
113.4077
21
133.0331
31
0
0
LINE
8
0
10
119.3258
20
130.6931
30
0
11
117.5367
21
134.8222
31
0
0
ARC
8
0
10
115.4722
20
133.9276
30
0
40
2.2500
50
23.4261
51
203.4261
0
ARC
8
0
10
117.2612
20
129.7986
30
0
40
2.2500
50
203.4261
51
23.4261
0
LINE
8
0
10
65.8985
20
242.6832
30
0
11
64.1094
21
246.8122
31
0
0
LINE
8
0
10
70.0276
20
244.4722
30
0
11
68.2385
21
248.6013
31
0
0
ARC
8
0
10
66.1740
20
247.7068
30
0
40
2.2500
50
23.4261
51
203.4261
0
ARC
8
0
10
67.9630
20
243.5777
30
0
40
2.2500
50
203.4261
51
23.4261
0
LINE
8
0
10
16.6003
20
356.4623
30
0
11
14.8112
21
360.5913
31
0
0
LINE
8
0
10
20.7294
20
358.2513
30
0
11
18.9403
21
362.3804
31
0
0
ARC
8
0
10
16.8758
20
361.4859
30
0
40
2.2500
50
23.4261
51
203.4261
0
ARC
8
0
10
18.6648
20
357.3568
30
0
40
2.2500
50
203.4261
51
23.4261
0
LINE
8
0
10
168.6240
20
-16.9140
30
0
11
166.8349
21
-21.0431
31
0
0
LINE
8
0
10
164.4949
20
-15.1249
30
0
11
162.7059
21
-19.2540
31
0
0
ARC
8
0
10
164.7704
20
-20.1485
30
0
40
2.2500
50
156.5739
51
336.5739
0
ARC
8
0
10
166.5595
20
-16.0195
30
0
40
2.2500
50
336.5739
51
156.5739
0
LINE
8
0
10
119.3258
20
-130.6931
30
0
11
117.5367
21
-134.8222
31
0
0
LINE
8
0
10
115.1967
20
-128.9040
30
0
11
113.4077
21
-133.0331
31
0
0
ARC
8
0
10
115.4722
20
-133.9276
30
0
40
2.2500
50
156.5739
51
336.5739
0
ARC
8
0
10
117.2612
20
-129.7986
30
0
40
2.2500
50
336.5739
51
156.5739
0
LINE
8
0
10
70.0276
20
-244.4722
30
0
11
68.2385
21
-248.6013
31
0
0
LINE
8
0
10
65.8985
20
-242.6832
30
0
11
64.1094
21
-246.8122
31
0
0
ARC
8
0
10
66.1740
20
-247.7068
30
0
40
2.2500
50
156.5739
51
336.5739
0
ARC
8
0
10
67.9630
20
-243.5777
30
0
40
2.2500
50
336.5739
51
156.5739
0
LINE
8
0
10
20.7294
20
-358.2513
30
0
11
18.9403
21
-362.3804
31
0
0
LINE
8
0
10
16.6003
20
-356.4623
30
0
11
14.8112
21
-360.5913
31
0
0
ARC
8
0
10
16.8758
20
-361.4859
30
0
40
2.2500
50
156.5739
51
336.5739
0
ARC
8
0
10
18.6648
20
-357.3568
30
0
40
2.2500
50
336.5739
51
156.5739
0
LINE
8
0
10
1131.3760
20
16.9140
30
0
11
1133.1651
21
21.0431
31
0
0
LINE
8
0
10
1135.5051
20
15.1249
30
0
11
1137.2941
21
19.2540
31
0
0
ARC
8
0
10
1135.2296
20
20.1485
30
0
40
2.2500
50
336.5739
51
156.5739
0
ARC
8
0
10
1133.4405
20
16.0195
30
0
40
2.2500
50
156.5739
51
336.5739
0
LINE
8
0
10
1180.6742
20
130.6931
30
0
11
1182.4633
21
134.8222
31
0
0
LINE
8
0
10
1184.8033
20
128.9040
30
0
11
1186.5923
21
133.0331
31
0
0
ARC
8
0
10
1184.5278
20
133.9276
30
0
40
2.2500
50
336.5739
51
156.5739
0
ARC
8
0
10
1182.7388
20
129.7986
30
0
40
2.2500
50
156.5739
51
336.5739
0
LINE
8
0
10
1229.9724
20
244.4722
30
0
11
1231.7615
21
248.6013
31
0
0
LINE
8
0
10
1234.1015
20
242.6832
30
0
11
1235.8906
21
246.8122
31
0
0
ARC
8
0
10
1233.8260
20
247.7068
30
0
40
2.2500
50
336.5739
51
156.5739
0
ARC
8
0
10
1232.0370
20
243.5777
30
0
40
2.2500
50
156.5739
51
336.5739
0
LINE
8
0
10
1279.2706
20
358.2513
30
0
11
1281.0597
21
362.3804
31
0
0
LINE
8
0
10
1283.3997
20
356.4623
30
0
11
1285.1888
21
360.5913
31
0
0
ARC
8
0
10
1283.1242
20
361.4859
30
0
40
2.2500
50
336.5739
51
156.5739
0
ARC
8
0
10
1281.3352
20
357.3568
30
0
40
2.2500
50
156.5739
51
336.5739
0
LINE
8
0
10
1135.5051
20
-15.1249
30
0
11
1137.2941
21
-19.2540
31
0
0
LINE
8
0
10
1131.3760
20
-16.9140
30
0
11
1133.1651
21
-21.0431
31
0
0
ARC
8
0
10
1135.2296
20
-20.1485
30
0
40
2.2500
50
203.4261
51
23.4261
0
ARC
8
0
10
1133.4405
20
-16.0195
30
0
40
2.2500
50
23.4261
51
203.4261
0
LINE
8
0
10
1184.8033
20
-128.9040
30
0
11
1186.5923
21
-133.0331
31
0
0
LINE
8
0
10
1180.6742
20
-130.6931
30
0
11
1182.4633
21
-134.8222
31
0
0
ARC
8
0
10
1184.5278
20
-133.9276
30
0
40
2.2500
50
203.4261
51
23.4261
0
ARC
8
0
10
1182.7388
20
-129.7986
30
0
40
2.2500
50
23.4261
51
203.4261
0
LINE
8
0
10
1234.1015
20
-242.6832
30
0
11
1235.8906
21
-246.8122
31
0
0
LINE
8
0
10
1229.9724
20
-244.4722
30
0
11
1231.7615
21
-248.6013
31
0
0
ARC
8
0
10
1233.8260
20
-247.7068
30
0
40
2.2500
50
203.4261
51
23.4261
0
ARC
8
0
10
1232.0370
20
-243.5777
30
0
40
2.2500
50
23.4261
51
203.4261
0
LINE
8
0
10
1283.3997
20
-356.4623
30
0
11
1285.1888
21
-360.5913
31
0
0
LINE
8
0
10
1279.2706
20
-358.2513
30
0
11
1281.0597
21
-362.3804
31
0
0
ARC
8
0
10
1283.1242
20
-361.4859
30
0
40
2.2500
50
203.4261
51
23.4261
0
ARC
8
0
10
1281.3352
20
-357.3568
30
0
40
2.2500
50
23.4261
51
203.4261
0
LINE
8
0
10
1160.7073
20
0.0000
30
0
11
1151.7809
21
-21.2755
31
0
0
LINE
8
0
10
1151.7809
20
-21.2755
30
0
11
1386.5679
21
-329.1107
31
0
0
LINE
8
0
10
1386.5679
20
-329.1107
30
0
11
1408.7394
21
-325.2013
31
0
0
LINE
8
0
10
1408.7394
20
-325.2013
30
0
11
1431.7394
21
-325.2013
31
0
0
LINE
8
0
10
1431.7394
20
-325.2013
30
0
11
1448.7394
21
-319.2013
31
0
0
LINE
8
0
10
1448.7394
20
-319.2013
30
0
11
1448.7394
21
319.2013
31
0
0
LINE
8
0
10
1448.7394
20
319.2013
30
0
11
1431.7394
21
325.2013
31
0
0
LINE
8
0
10
1431.7394
20
325.2013
30
0
11
1408.7394
21
325.2013
31
0
0
LINE
8
0
10
1408.7394
20
325.2013
30
0
11
1386.5679
21
329.1107
31
0
0
LINE
8
0
10
1386.5679
20
329.1107
30
0
11
1151.7809
21
21.2755
31
0
0
LINE
8
0
10
1151.7809
20
21.2755
30
0
11
1160.7073
21
0.0000
31
0
0
CIRCLE
8
0
10
1383.7394
20
0.0000
30
0
40
3.5000
0
CIRCLE
8
0
10
1343.7394
20
0.0000
30
0
40
3.5000
0
CIRCLE
8
0
10
1162.0806
20
18.2901
30
0
40
2.2500
0
CIRCLE
8
0
10
1162.0806
20
-18.2901
30
0
40
2.2500
0
CIRCLE
8
0
10
1237.2797
20
116.8856
30
0
40
2.2500
0
CIRCLE
8
0
10
1237.2797
20
-116.8856
30
0
40
2.2500
0
CIRCLE
8
0
10
1312.4789
20
215.4812
30
0
40
2.2500
0
CIRCLE
8
0
10
1312.4789
20
-215.4812
30
0
40
2.2500
0
CIRCLE
8
0
10
1387.6781
20
314.0768
30
0
40
2.2500
0
CIRCLE
8
0
10
1387.6781
20
-314.0768
30
0
40
2.2500
0
ENDSEC
0
EOF
