0
SECTION
2
HEADER
9
$ACADVER
1
AC1009
9
$INSUNITS
70
4
0
ENDSEC
0
SECTION
2
ENTITIES
0
LINE
8
0
10
360.8502
20
21.2755
30
0
11
-198.2828
21
754.3694
31
0
0
LINE
8
0
10
-198.2828
20
754.3694
30
0
11
-220.4543
21
750.4600
31
0
0
LINE
8
0
10
-220.4543
20
750.4600
30
0
11
-243.4543
21
750.4600
31
0
0
LINE
8
0
10
-243.4543
20
750.4600
30
0
11
-260.4543
21
744.4600
31
0
0
LINE
8
0
10
-260.4543
20
744.4600
30
0
11
-260.4543
21
-744.4600
31
0
0
LINE
8
0
10
-260.4543
20
-744.4600
30
0
11
-243.4543
21
-750.4600
31
0
0
LINE
8
0
10
-243.4543
20
-750.4600
30
0
11
-220.4543
21
-750.4600
31
0
0
LINE
8
0
10
-220.4543
20
-750.4600
30
0
11
-198.2828
21
-754.3694
31
0
0
LINE
8
0
10
-198.2828
20
-754.3694
30
0
11
360.8502
21
-21.2755
31
0
0
LINE
8
0
10
360.8502
20
-21.2755
30
0
11
351.9238
21
0.0000
31
0
0
LINE
8
0
10
351.9238
20
0.0000
30
0
11
360.8502
21
21.2755
31
0
0
CIRCLE
8
0
10
-195.4543
20
-400.0000
30
0
40
3.5000
0
CIRCLE
8
0
10
-155.4543
20
-400.0000
30
0
40
3.5000
0
CIRCLE
8
0
10
-195.4543
20
0.0000
30
0
40
3.5000
0
CIRCLE
8
0
10
-155.4543
20
0.0000
30
0
40
3.5000
0
CIRCLE
8
0
10
-195.4543
20
400.0000
30
0
40
3.5000
0
CIRCLE
8
0
10
-155.4543
20
400.0000
30
0
40
3.5000
0
CIRCLE
8
0
10
350.5506
20
18.2901
30
0
40
2.2500
0
CIRCLE
8
0
10
350.5506
20
-18.2901
30
0
40
2.2500
0
CIRCLE
8
0
10
272.0160
20
121.2588
30
0
40
2.2500
0
CIRCLE
8
0
10
272.0160
20
-121.2588
30
0
40
2.2500
0
CIRCLE
8
0
10
193.4814
20
224.2276
30
0
40
2.2500
0
CIRCLE
8
0
10
193.4814
20
-224.2276
30
0
40
2.2500
0
CIRCLE
8
0
10
114.9468
20
327.1964
30
0
40
2.2500
0
CIRCLE
8
0
10
114.9468
20
-327.1964
30
0
40
2.2500
0
CIRCLE
8
0
10
36.4122
20
430.1651
30
0
40
2.2500
0
CIRCLE
8
0
10
36.4122
20
-430.1651
30
0
40
2.2500
0
CIRCLE
8
0
10
-42.1224
20
533.1339
30
0
40
2.2500
0
CIRCLE
8
0
10
-42.1224
20
-533.1339
30
0
40
2.2500
0
CIRCLE
8
0
10
-120.6570
20
636.1026
30
0
40
2.2500
0
CIRCLE
8
0
10
-120.6570
20
-636.1026
30
0
40
2.2500
0
CIRCLE
8
0
10
-199.1916
20
739.0714
30
0
40
2.2500
0
CIRCLE
8
0
10
-199.1916
20
-739.0714
30
0
40
2.2500
0
LINE
8
0
10
6.0000
20
906.0294
30
0
11
0.0000
21
889.0294
31
0
0
LINE
8
0
10
0.0000
20
889.0294
30
0
11
0.0000
21
866.0294
31
0
0
LINE
8
0
10
0.0000
20
866.0294
30
0
11
375.2332
21
0.0000
31
0
0
LINE
8
0
10
375.2332
20
0.0000
30
0
11
0.0000
21
-866.0294
31
0
0
LINE
8
0
10
0.0000
20
-866.0294
30
0
11
0.0000
21
-889.0294
31
0
0
LINE
8
0
10
0.0000
20
-889.0294
30
0
11
6.0000
21
-906.0294
31
0
0
LINE
8
0
10
6.0000
20
-906.0294
30
0
11
750.0000
21
-906.0294
31
0
0
LINE
8
0
10
750.0000
20
-906.0294
30
0
11
750.0000
21
-864.0294
31
0
0
LINE
8
0
10
750.0000
20
-864.0294
30
0
11
764.0000
21
-864.0294
31
0
0
LINE
8
0
10
764.0000
20
-864.0294
30
0
11
764.0000
21
-15.0000
31
0
0
LINE
8
0
10
764.0000
20
-15.0000
30
0
11
749.0000
21
0.0000
31
0
0
LINE
8
0
10
749.0000
20
0.0000
30
0
11
764.0000
21
15.0000
31
0
0
LINE
8
0
10
764.0000
20
15.0000
30
0
11
764.0000
21
864.0294
31
0
0
LINE
8
0
10
764.0000
20
864.0294
30
0
11
750.0000
21
864.0294
31
0
0
LINE
8
0
10
750.0000
20
864.0294
30
0
11
750.0000
21
906.0294
31
0
0
LINE
8
0
10
750.0000
20
906.0294
30
0
11
6.0000
21
906.0294
31
0
0
CIRCLE
8
0
10
300.0000
20
841.0294
30
0
40
3.5000
0
CIRCLE
8
0
10
300.0000
20
801.0294
30
0
40
3.5000
0
CIRCLE
8
0
10
300.0000
20
-841.0294
30
0
40
3.5000
0
CIRCLE
8
0
10
300.0000
20
-801.0294
30
0
40
3.5000
0
CIRCLE
8
0
10
600.0000
20
841.0294
30
0
40
3.5000
0
CIRCLE
8
0
10
600.0000
20
801.0294
30
0
40
3.5000
0
CIRCLE
8
0
10
600.0000
20
-841.0294
30
0
40
3.5000
0
CIRCLE
8
0
10
600.0000
20
-801.0294
30
0
40
3.5000
0
LINE
8
0
10
377.1261
20
15.1249
30
0
11
375.3370
21
19.2540
31
0
0
LINE
8
0
10
381.2552
20
16.9140
30
0
11
379.4661
21
21.0431
31
0
0
ARC
8
0
10
377.4016
20
20.1485
30
0
40
2.2500
50
23.4261
51
203.4261
0
ARC
8
0
10
379.1906
20
16.0195
30
0
40
2.2500
50
203.4261
51
23.4261
0
LINE
8
0
10
325.6413
20
133.9507
30
0
11
323.8522
21
138.0798
31
0
0
LINE
8
0
10
329.7703
20
135.7397
30
0
11
327.9813
21
139.8688
31
0
0
ARC
8
0
10
325.9168
20
138.9743
30
0
40
2.2500
50
23.4261
51
203.4261
0
ARC
8
0
10
327.7058
20
134.8452
30
0
40
2.2500
50
203.4261
51
23.4261
0
LINE
8
0
10
274.1564
20
252.7765
30
0
11
272.3674
21
256.9055
31
0
0
LINE
8
0
10
278.2855
20
254.5655
30
0
11
276.4965
21
258.6946
31
0
0
ARC
8
0
10
274.4319
20
257.8001
30
0
40
2.2500
50
23.4261
51
203.4261
0
ARC
8
0
10
276.2210
20
253.6710
30
0
40
2.2500
50
203.4261
51
23.4261
0
LINE
8
0
10
222.6716
20
371.6022
30
0
11
220.8826
21
375.7313
31
0
0
LINE
8
0
10
226.8007
20
373.3913
30
0
11
225.0116
21
377.5204
31
0
0
ARC
8
0
10
222.9471
20
376.6258
30
0
40
2.2500
50
23.4261
51
203.4261
0
ARC
8
0
10
224.7361
20
372.4968
30
0
40
2.2500
50
203.4261
51
23.4261
0
LINE
8
0
10
171.1868
20
490.4280
30
0
11
169.3977
21
494.5571
31
0
0
LINE
8
0
10
175.3159
20
492.2170
30
0
11
173.5268
21
496.3461
31
0
0
ARC
8
0
10
171.4623
20
495.4516
30
0
40
2.2500
50
23.4261
51
203.4261
0
ARC
8
0
10
173.2513
20
491.3225
30
0
40
2.2500
50
203.4261
51
23.4261
0
LINE
8
0
10
119.7020
20
609.2538
30
0
11
117.9129
21
613.3828
31
0
0
LINE
8
0
10
123.8310
20
611.0428
30
0
11
122.0420
21
615.1719
31
0
0
ARC
8
0
10
119.9774
20
614.2774
30
0
40
2.2500
50
23.4261
51
203.4261
0
ARC
8
0
10
121.7665
20
610.1483
30
0
40
2.2500
50
203.4261
51
23.4261
0
LINE
8
0
10
68.2171
20
728.0795
30
0
11
66.4281
21
732.2086
31
0
0
LINE
8
0
10
72.3462
20
729.8686
30
0
11
70.5572
21
733.9977
31
0
0
ARC
8
0
10
68.4926
20
733.1031
30
0
40
2.2500
50
23.4261
51
203.4261
0
ARC
8
0
10
70.2817
20
728.9740
30
0
40
2.2500
50
203.4261
51
23.4261
0
LINE
8
0
10
16.7323
20
846.9053
30
0
11
14.9432
21
851.0344
31
0
0
LINE
8
0
10
20.8614
20
848.6943
30
0
11
19.0723
21
852.8234
31
0
0
ARC
8
0
10
17.0078
20
851.9289
30
0
40
2.2500
50
23.4261
51
203.4261
0
ARC
8
0
10
18.7968
20
847.7998
30
0
40
2.2500
50
203.4261
51
23.4261
0
LINE
8
0
10
381.2552
20
-16.9140
30
0
11
379.4661
21
-21.0431
31
0
0
LINE
8
0
10
377.1261
20
-15.1249
30
0
11
375.3370
21
-19.2540
31
0
0
ARC
8
0
10
377.4016
20
-20.1485
30
0
40
2.2500
50
156.5739
51
336.5739
0
ARC
8
0
10
379.1906
20
-16.0195
30
0
40
2.2500
50
336.5739
51
156.5739
0
LINE
8
0
10
329.7703
20
-135.7397
30
0
11
327.9813
21
-139.8688
31
0
0
LINE
8
0
10
325.6413
20
-133.9507
30
0
11
323.8522
21
-138.0798
31
0
0
ARC
8
0
10
325.9168
20
-138.9743
30
0
40
2.2500
50
156.5739
51
336.5739
0
ARC
8
0
10
327.7058
20
-134.8452
30
0
40
2.2500
50
336.5739
51
156.5739
0
LINE
8
0
10
278.2855
20
-254.5655
30
0
11
276.4965
21
-258.6946
31
0
0
LINE
8
0
10
274.1564
20
-252.7765
30
0
11
272.3674
21
-256.9055
31
0
0
ARC
8
0
10
274.4319
20
-257.8001
30
0
40
2.2500
50
156.5739
51
336.5739
0
ARC
8
0
10
276.2210
20
-253.6710
30
0
40
2.2500
50
336.5739
51
156.5739
0
LINE
8
0
10
226.8007
20
-373.3913
30
0
11
225.0116
21
-377.5204
31
0
0
LINE
8
0
10
222.6716
20
-371.6022
30
0
11
220.8826
21
-375.7313
31
0
0
ARC
8
0
10
222.9471
20
-376.6258
30
0
40
2.2500
50
156.5739
51
336.5739
0
ARC
8
0
10
224.7361
20
-372.4968
30
0
40
2.2500
50
336.5739
51
156.5739
0
LINE
8
0
10
175.3159
20
-492.2170
30
0
11
173.5268
21
-496.3461
31
0
0
LINE
8
0
10
171.1868
20
-490.4280
30
0
11
169.3977
21
-494.5571
31
0
0
ARC
8
0
10
171.4623
20
-495.4516
30
0
40
2.2500
50
156.5739
51
336.5739
0
ARC
8
0
10
173.2513
20
-491.3225
30
0
40
2.2500
50
336.5739
51
156.5739
0
LINE
8
0
10
123.8310
20
-611.0428
30
0
11
122.0420
21
-615.1719
31
0
0
LINE
8
0
10
119.7020
20
-609.2538
30
0
11
117.9129
21
-613.3828
31
0
0
ARC
8
0
10
119.9774
20
-614.2774
30
0
40
2.2500
50
156.5739
51
336.5739
0
ARC
8
0
10
121.7665
20
-610.1483
30
0
40
2.2500
50
336.5739
51
156.5739
0
LINE
8
0
10
72.3462
20
-729.8686
30
0
11
70.5572
21
-733.9977
31
0
0
LINE
8
0
10
68.2171
20
-728.0795
30
0
11
66.4281
21
-732.2086
31
0
0
ARC
8
0
10
68.4926
20
-733.1031
30
0
40
2.2500
50
156.5739
51
336.5739
0
ARC
8
0
10
70.2817
20
-728.9740
30
0
40
2.2500
50
336.5739
51
156.5739
0
LINE
8
0
10
20.8614
20
-848.6943
30
0
11
19.0723
21
-852.8234
31
0
0
LINE
8
0
10
16.7323
20
-846.9053
30
0
11
14.9432
21
-851.0344
31
0
0
ARC
8
0
10
17.0078
20
-851.9289
30
0
40
2.2500
50
156.5739
51
336.5739
0
ARC
8
0
10
18.7968
20
-847.7998
30
0
40
2.2500
50
336.5739
51
156.5739
0
LINE
8
0
10
878.0000
20
906.0294
30
0
11
878.0000
21
864.0294
31
0
0
LINE
8
0
10
878.0000
20
864.0294
30
0
11
864.0000
21
864.0294
31
0
0
LINE
8
0
10
864.0000
20
864.0294
30
0
11
864.0000
21
15.0000
31
0
0
LINE
8
0
10
864.0000
20
15.0000
30
0
11
879.0000
21
0.0000
31
0
0
LINE
8
0
10
879.0000
20
0.0000
30
0
11
864.0000
21
-15.0000
31
0
0
LINE
8
0
10
864.0000
20
-15.0000
30
0
11
864.0000
21
-864.0294
31
0
0
LINE
8
0
10
864.0000
20
-864.0294
30
0
11
878.0000
21
-864.0294
31
0
0
LINE
8
0
10
878.0000
20
-864.0294
30
0
11
878.0000
21
-906.0294
31
0
0
LINE
8
0
10
878.0000
20
-906.0294
30
0
11
1622.0000
21
-906.0294
31
0
0
LINE
8
0
10
1622.0000
20
-906.0294
30
0
11
1628.0000
21
-889.0294
31
0
0
LINE
8
0
10
1628.0000
20
-889.0294
30
0
11
1628.0000
21
-866.0294
31
0
0
LINE
8
0
10
1628.0000
20
-866.0294
30
0
11
1252.7668
21
0.0000
31
0
0
LINE
8
0
10
1252.7668
20
0.0000
30
0
11
1628.0000
21
866.0294
31
0
0
LINE
8
0
10
1628.0000
20
866.0294
30
0
11
1628.0000
21
889.0294
31
0
0
LINE
8
0
10
1628.0000
20
889.0294
30
0
11
1622.0000
21
906.0294
31
0
0
LINE
8
0
10
1622.0000
20
906.0294
30
0
11
878.0000
21
906.0294
31
0
0
CIRCLE
8
0
10
1028.0000
20
841.0294
30
0
40
3.5000
0
CIRCLE
8
0
10
1028.0000
20
801.0294
30
0
40
3.5000
0
CIRCLE
8
0
10
1028.0000
20
-841.0294
30
0
40
3.5000
0
CIRCLE
8
0
10
1028.0000
20
-801.0294
30
0
40
3.5000
0
CIRCLE
8
0
10
1328.0000
20
841.0294
30
0
40
3.5000
0
CIRCLE
8
0
10
1328.0000
20
801.0294
30
0
40
3.5000
0
CIRCLE
8
0
10
1328.0000
20
-841.0294
30
0
40
3.5000
0
CIRCLE
8
0
10
1328.0000
20
-801.0294
30
0
40
3.5000
0
LINE
8
0
10
1246.7448
20
16.9140
30
0
11
1248.5339
21
21.0431
31
0
0
LINE
8
0
10
1250.8739
20
15.1249
30
0
11
1252.6630
21
19.2540
31
0
0
ARC
8
0
10
1250.5984
20
20.1485
30
0
40
2.2500
50
336.5739
51
156.5739
0
ARC
8
0
10
1248.8094
20
16.0195
30
0
40
2.2500
50
156.5739
51
336.5739
0
LINE
8
0
10
1298.2297
20
135.7397
30
0
11
1300.0187
21
139.8688
31
0
0
LINE
8
0
10
1302.3587
20
133.9507
30
0
11
1304.1478
21
138.0798
31
0
0
ARC
8
0
10
1302.0832
20
138.9743
30
0
40
2.2500
50
336.5739
51
156.5739
0
ARC
8
0
10
1300.2942
20
134.8452
30
0
40
2.2500
50
156.5739
51
336.5739
0
LINE
8
0
10
1349.7145
20
254.5655
30
0
11
1351.5035
21
258.6946
31
0
0
LINE
8
0
10
1353.8436
20
252.7765
30
0
11
1355.6326
21
256.9055
31
0
0
ARC
8
0
10
1353.5681
20
257.8001
30
0
40
2.2500
50
336.5739
51
156.5739
0
ARC
8
0
10
1351.7790
20
253.6710
30
0
40
2.2500
50
156.5739
51
336.5739
0
LINE
8
0
10
1401.1993
20
373.3913
30
0
11
1402.9884
21
377.5204
31
0
0
LINE
8
0
10
1405.3284
20
371.6022
30
0
11
1407.1174
21
375.7313
31
0
0
ARC
8
0
10
1405.0529
20
376.6258
30
0
40
2.2500
50
336.5739
51
156.5739
0
ARC
8
0
10
1403.2639
20
372.4968
30
0
40
2.2500
50
156.5739
51
336.5739
0
LINE
8
0
10
1452.6841
20
492.2170
30
0
11
1454.4732
21
496.3461
31
0
0
LINE
8
0
10
1456.8132
20
490.4280
30
0
11
1458.6023
21
494.5571
31
0
0
ARC
8
0
10
1456.5377
20
495.4516
30
0
40
2.2500
50
336.5739
51
156.5739
0
ARC
8
0
10
1454.7487
20
491.3225
30
0
40
2.2500
50
156.5739
51
336.5739
0
LINE
8
0
10
1504.1690
20
611.0428
30
0
11
1505.9580
21
615.1719
31
0
0
LINE
8
0
10
1508.2980
20
609.2538
30
0
11
1510.0871
21
613.3828
31
0
0
ARC
8
0
10
1508.0226
20
614.2774
30
0
40
2.2500
50
336.5739
51
156.5739
0
ARC
8
0
10
1506.2335
20
610.1483
30
0
40
2.2500
50
156.5739
51
336.5739
0
LINE
8
0
10
1555.6538
20
729.8686
30
0
11
1557.4428
21
733.9977
31
0
0
LINE
8
0
10
1559.7829
20
728.0795
30
0
11
1561.5719
21
732.2086
31
0
0
ARC
8
0
10
1559.5074
20
733.1031
30
0
40
2.2500
50
336.5739
51
156.5739
0
ARC
8
0
10
1557.7183
20
728.9740
30
0
40
2.2500
50
156.5739
51
336.5739
0
LINE
8
0
10
1607.1386
20
848.6943
30
0
11
1608.9277
21
852.8234
31
0
0
LINE
8
0
10
1611.2677
20
846.9053
30
0
11
1613.0568
21
851.0344
31
0
0
ARC
8
0
10
1610.9922
20
851.9289
30
0
40
2.2500
50
336.5739
51
156.5739
0
ARC
8
0
10
1609.2032
20
847.7998
30
0
40
2.2500
50
156.5739
51
336.5739
0
LINE
8
0
10
1250.8739
20
-15.1249
30
0
11
1252.6630
21
-19.2540
31
0
0
LINE
8
0
10
1246.7448
20
-16.9140
30
0
11
1248.5339
21
-21.0431
31
0
0
ARC
8
0
10
1250.5984
20
-20.1485
30
0
40
2.2500
50
203.4261
51
23.4261
0
ARC
8
0
10
1248.8094
20
-16.0195
30
0
40
2.2500
50
23.4261
51
203.4261
0
LINE
8
0
10
1302.3587
20
-133.9507
30
0
11
1304.1478
21
-138.0798
31
0
0
LINE
8
0
10
1298.2297
20
-135.7397
30
0
11
1300.0187
21
-139.8688
31
0
0
ARC
8
0
10
1302.0832
20
-138.9743
30
0
40
2.2500
50
203.4261
51
23.4261
0
ARC
8
0
10
1300.2942
20
-134.8452
30
0
40
2.2500
50
23.4261
51
203.4261
0
LINE
8
0
10
1353.8436
20
-252.7765
30
0
11
1355.6326
21
-256.9055
31
0
0
LINE
8
0
10
1349.7145
20
-254.5655
30
0
11
1351.5035
21
-258.6946
31
0
0
ARC
8
0
10
1353.5681
20
-257.8001
30
0
40
2.2500
50
203.4261
51
23.4261
0
ARC
8
0
10
1351.7790
20
-253.6710
30
0
40
2.2500
50
23.4261
51
203.4261
0
LINE
8
0
10
1405.3284
20
-371.6022
30
0
11
1407.1174
21
-375.7313
31
0
0
LINE
8
0
10
1401.1993
20
-373.3913
30
0
11
1402.9884
21
-377.5204
31
0
0
ARC
8
0
10
1405.0529
20
-376.6258
30
0
40
2.2500
50
203.4261
51
23.4261
0
ARC
8
0
10
1403.2639
20
-372.4968
30
0
40
2.2500
50
23.4261
51
203.4261
0
LINE
8
0
10
1456.8132
20
-490.4280
30
0
11
1458.6023
21
-494.5571
31
0
0
LINE
8
0
10
1452.6841
20
-492.2170
30
0
11
1454.4732
21
-496.3461
31
0
0
ARC
8
0
10
1456.5377
20
-495.4516
30
0
40
2.2500
50
203.4261
51
23.4261
0
ARC
8
0
10
1454.7487
20
-491.3225
30
0
40
2.2500
50
23.4261
51
203.4261
0
LINE
8
0
10
1508.2980
20
-609.2538
30
0
11
1510.0871
21
-613.3828
31
0
0
LINE
8
0
10
1504.1690
20
-611.0428
30
0
11
1505.9580
21
-615.1719
31
0
0
ARC
8
0
10
1508.0226
20
-614.2774
30
0
40
2.2500
50
203.4261
51
23.4261
0
ARC
8
0
10
1506.2335
20
-610.1483
30
0
40
2.2500
50
23.4261
51
203.4261
0
LINE
8
0
10
1559.7829
20
-728.0795
30
0
11
1561.5719
21
-732.2086
31
0
0
LINE
8
0
10
1555.6538
20
-729.8686
30
0
11
1557.4428
21
-733.9977
31
0
0
ARC
8
0
10
1559.5074
20
-733.1031
30
0
40
2.2500
50
203.4261
51
23.4261
0
ARC
8
0
10
1557.7183
20
-728.9740
30
0
40
2.2500
50
23.4261
51
203.4261
0
LINE
8
0
10
1611.2677
20
-846.9053
30
0
11
1613.0568
21
-851.0344
31
0
0
LINE
8
0
10
1607.1386
20
-848.6943
30
0
11
1608.9277
21
-852.8234
31
0
0
ARC
8
0
10
1610.9922
20
-851.9289
30
0
40
2.2500
50
203.4261
51
23.4261
0
ARC
8
0
10
1609.2032
20
-847.7998
30
0
40
2.2500
50
23.4261
51
203.4261
0
LINE
8
0
10
1276.0762
20
0.0000
30
0
11
1267.1498
21
-21.2755
31
0
0
LINE
8
0
10
1267.1498
20
-21.2755
30
0
11
1826.2828
21
-754.3694
31
0
0
LINE
8
0
10
1826.2828
20
-754.3694
30
0
11
1848.4543
21
-750.4600
31
0
0
LINE
8
0
10
1848.4543
20
-750.4600
30
0
11
1871.4543
21
-750.4600
31
0
0
LINE
8
0
10
1871.4543
20
-750.4600
30
0
11
1888.4543
21
-744.4600
31
0
0
LINE
8
0
10
1888.4543
20
-744.4600
30
0
11
1888.4543
21
744.4600
31
0
0
LINE
8
0
10
1888.4543
20
744.4600
30
0
11
1871.4543
21
750.4600
31
0
0
LINE
8
0
10
1871.4543
20
750.4600
30
0
11
1848.4543
21
750.4600
31
0
0
LINE
8
0
10
1848.4543
20
750.4600
30
0
11
1826.2828
21
754.3694
31
0
0
LINE
8
0
10
1826.2828
20
754.3694
30
0
11
1267.1498
21
21.2755
31
0
0
LINE
8
0
10
1267.1498
20
21.2755
30
0
11
1276.0762
21
0.0000
31
0
0
CIRCLE
8
0
10
1823.4543
20
-400.0000
30
0
40
3.5000
0
CIRCLE
8
0
10
1783.4543
20
-400.0000
30
0
40
3.5000
0
CIRCLE
8
0
10
1823.4543
20
0.0000
30
0
40
3.5000
0
CIRCLE
8
0
10
1783.4543
20
0.0000
30
0
40
3.5000
0
CIRCLE
8
0
10
1823.4543
20
400.0000
30
0
40
3.5000
0
CIRCLE
8
0
10
1783.4543
20
400.0000
30
0
40
3.5000
0
CIRCLE
8
0
10
1277.4494
20
18.2901
30
0
40
2.2500
0
CIRCLE
8
0
10
1277.4494
20
-18.2901
30
0
40
2.2500
0
CIRCLE
8
0
10
1355.9840
20
121.2588
30
0
40
2.2500
0
CIRCLE
8
0
10
1355.9840
20
-121.2588
30
0
40
2.2500
0
CIRCLE
8
0
10
1434.5186
20
224.2276
30
0
40
2.2500
0
CIRCLE
8
0
10
1434.5186
20
-224.2276
30
0
40
2.2500
0
CIRCLE
8
0
10
1513.0532
20
327.1964
30
0
40
2.2500
0
CIRCLE
8
0
10
1513.0532
20
-327.1964
30
0
40
2.2500
0
CIRCLE
8
0
10
1591.5878
20
430.1651
30
0
40
2.2500
0
CIRCLE
8
0
10
1591.5878
20
-430.1651
30
0
40
2.2500
0
CIRCLE
8
0
10
1670.1224
20
533.1339
30
0
40
2.2500
0
CIRCLE
8
0
10
1670.1224
20
-533.1339
30
0
40
2.2500
0
CIRCLE
8
0
10
1748.6570
20
636.1026
30
0
40
2.2500
0
CIRCLE
8
0
10
1748.6570
20
-636.1026
30
0
40
2.2500
0
CIRCLE
8
0
10
1827.1916
20
739.0714
30
0
40
2.2500
0
CIRCLE
8
0
10
1827.1916
20
-739.0714
30
0
40
2.2500
0
ENDSEC
0
EOF
