0
SECTION
2
HEADER
9
$ACADVER
1
AC1009
9
$INSUNITS
70
4
0
ENDSEC
0
SECTION
2
ENTITIES
0
LINE
8
0
10
385.8657
20
21.2755
30
0
11
-211.4258
21
804.3998
31
0
0
LINE
8
0
10
-211.4258
20
804.3998
30
0
11
-233.5973
21
800.4904
31
0
0
LINE
8
0
10
-233.5973
20
800.4904
30
0
11
-256.5973
21
800.4904
31
0
0
LINE
8
0
10
-256.5973
20
800.4904
30
0
11
-273.5973
21
794.4904
31
0
0
LINE
8
0
10
-273.5973
20
794.4904
30
0
11
-273.5973
21
-794.4904
31
0
0
LINE
8
0
10
-273.5973
20
-794.4904
30
0
11
-256.5973
21
-800.4904
31
0
0
LINE
8
0
10
-256.5973
20
-800.4904
30
0
11
-233.5973
21
-800.4904
31
0
0
LINE
8
0
10
-233.5973
20
-800.4904
30
0
11
-211.4258
21
-804.3998
31
0
0
LINE
8
0
10
-211.4258
20
-804.3998
30
0
11
385.8657
21
-21.2755
31
0
0
LINE
8
0
10
385.8657
20
-21.2755
30
0
11
376.9393
21
0.0000
31
0
0
LINE
8
0
10
376.9393
20
0.0000
30
0
11
385.8657
21
21.2755
31
0
0
CIRCLE
8
0
10
-208.5973
20
-475.0000
30
0
40
3.5000
0
CIRCLE
8
0
10
-168.5973
20
-475.0000
30
0
40
3.5000
0
CIRCLE
8
0
10
-208.5973
20
-158.3333
30
0
40
3.5000
0
CIRCLE
8
0
10
-168.5973
20
-158.3333
30
0
40
3.5000
0
CIRCLE
8
0
10
-208.5973
20
158.3333
30
0
40
3.5000
0
CIRCLE
8
0
10
-168.5973
20
158.3333
30
0
40
3.5000
0
CIRCLE
8
0
10
-208.5973
20
475.0000
30
0
40
3.5000
0
CIRCLE
8
0
10
-168.5973
20
475.0000
30
0
40
3.5000
0
CIRCLE
8
0
10
375.5660
20
18.2901
30
0
40
2.2500
0
CIRCLE
8
0
10
375.5660
20
-18.2901
30
0
40
2.2500
0
CIRCLE
8
0
10
291.2702
20
128.8125
30
0
40
2.2500
0
CIRCLE
8
0
10
291.2702
20
-128.8125
30
0
40
2.2500
0
CIRCLE
8
0
10
206.9744
20
239.3350
30
0
40
2.2500
0
CIRCLE
8
0
10
206.9744
20
-239.3350
30
0
40
2.2500
0
CIRCLE
8
0
10
122.6785
20
349.8574
30
0
40
2.2500
0
CIRCLE
8
0
10
122.6785
20
-349.8574
30
0
40
2.2500
0
CIRCLE
8
0
10
38.3827
20
460.3799
30
0
40
2.2500
0
CIRCLE
8
0
10
38.3827
20
-460.3799
30
0
40
2.2500
0
CIRCLE
8
0
10
-45.9131
20
570.9023
30
0
40
2.2500
0
CIRCLE
8
0
10
-45.9131
20
-570.9023
30
0
40
2.2500
0
CIRCLE
8
0
10
-130.2089
20
681.4248
30
0
40
2.2500
0
CIRCLE
8
0
10
-130.2089
20
-681.4248
30
0
40
2.2500
0
CIRCLE
8
0
10
-214.5048
20
791.9473
30
0
40
2.2500
0
CIRCLE
8
0
10
-214.5048
20
-791.9473
30
0
40
2.2500
0
LINE
8
0
10
6.0000
20
963.7645
30
0
11
0.0000
21
946.7645
31
0
0
LINE
8
0
10
0.0000
20
946.7645
30
0
11
0.0000
21
923.7645
31
0
0
LINE
8
0
10
0.0000
20
923.7645
30
0
11
400.2487
21
0.0000
31
0
0
LINE
8
0
10
400.2487
20
0.0000
30
0
11
0.0000
21
-923.7645
31
0
0
LINE
8
0
10
0.0000
20
-923.7645
30
0
11
0.0000
21
-946.7645
31
0
0
LINE
8
0
10
0.0000
20
-946.7645
30
0
11
6.0000
21
-963.7645
31
0
0
LINE
8
0
10
6.0000
20
-963.7645
30
0
11
900.0000
21
-963.7645
31
0
0
LINE
8
0
10
900.0000
20
-963.7645
30
0
11
900.0000
21
-921.7645
31
0
0
LINE
8
0
10
900.0000
20
-921.7645
30
0
11
914.0000
21
-921.7645
31
0
0
LINE
8
0
10
914.0000
20
-921.7645
30
0
11
914.0000
21
-15.0000
31
0
0
LINE
8
0
10
914.0000
20
-15.0000
30
0
11
899.0000
21
0.0000
31
0
0
LINE
8
0
10
899.0000
20
0.0000
30
0
11
914.0000
21
15.0000
31
0
0
LINE
8
0
10
914.0000
20
15.0000
30
0
11
914.0000
21
921.7645
31
0
0
LINE
8
0
10
914.0000
20
921.7645
30
0
11
900.0000
21
921.7645
31
0
0
LINE
8
0
10
900.0000
20
921.7645
30
0
11
900.0000
21
963.7645
31
0
0
LINE
8
0
10
900.0000
20
963.7645
30
0
11
6.0000
21
963.7645
31
0
0
CIRCLE
8
0
10
300.0000
20
898.7645
30
0
40
3.5000
0
CIRCLE
8
0
10
300.0000
20
858.7645
30
0
40
3.5000
0
CIRCLE
8
0
10
300.0000
20
-898.7645
30
0
40
3.5000
0
CIRCLE
8
0
10
300.0000
20
-858.7645
30
0
40
3.5000
0
CIRCLE
8
0
10
540.0000
20
898.7645
30
0
40
3.5000
0
CIRCLE
8
0
10
540.0000
20
858.7645
30
0
40
3.5000
0
CIRCLE
8
0
10
540.0000
20
-898.7645
30
0
40
3.5000
0
CIRCLE
8
0
10
540.0000
20
-858.7645
30
0
40
3.5000
0
CIRCLE
8
0
10
780.0000
20
898.7645
30
0
40
3.5000
0
CIRCLE
8
0
10
780.0000
20
858.7645
30
0
40
3.5000
0
CIRCLE
8
0
10
780.0000
20
-898.7645
30
0
40
3.5000
0
CIRCLE
8
0
10
780.0000
20
-858.7645
30
0
40
3.5000
0
LINE
8
0
10
402.1415
20
15.1249
30
0
11
400.3525
21
19.2540
31
0
0
LINE
8
0
10
406.2706
20
16.9140
30
0
11
404.4816
21
21.0431
31
0
0
ARC
8
0
10
402.4170
20
20.1485
30
0
40
2.2500
50
23.4261
51
203.4261
0
ARC
8
0
10
404.2061
20
16.0195
30
0
40
2.2500
50
203.4261
51
23.4261
0
LINE
8
0
10
346.8798
20
142.6676
30
0
11
345.0908
21
146.7967
31
0
0
LINE
8
0
10
351.0089
20
144.4567
30
0
11
349.2198
21
148.5858
31
0
0
ARC
8
0
10
347.1553
20
147.6913
30
0
40
2.2500
50
23.4261
51
203.4261
0
ARC
8
0
10
348.9444
20
143.5622
30
0
40
2.2500
50
203.4261
51
23.4261
0
LINE
8
0
10
291.6181
20
270.2104
30
0
11
289.8291
21
274.3394
31
0
0
LINE
8
0
10
295.7472
20
271.9994
30
0
11
293.9581
21
276.1285
31
0
0
ARC
8
0
10
291.8936
20
275.2340
30
0
40
2.2500
50
23.4261
51
203.4261
0
ARC
8
0
10
293.6826
20
271.1049
30
0
40
2.2500
50
203.4261
51
23.4261
0
LINE
8
0
10
236.3564
20
397.7531
30
0
11
234.5674
21
401.8822
31
0
0
LINE
8
0
10
240.4855
20
399.5421
30
0
11
238.6964
21
403.6712
31
0
0
ARC
8
0
10
236.6319
20
402.7767
30
0
40
2.2500
50
23.4261
51
203.4261
0
ARC
8
0
10
238.4209
20
398.6476
30
0
40
2.2500
50
203.4261
51
23.4261
0
LINE
8
0
10
181.0947
20
525.2958
30
0
11
179.3056
21
529.4249
31
0
0
LINE
8
0
10
185.2238
20
527.0848
30
0
11
183.4347
21
531.2139
31
0
0
ARC
8
0
10
181.3702
20
530.3194
30
0
40
2.2500
50
23.4261
51
203.4261
0
ARC
8
0
10
183.1592
20
526.1903
30
0
40
2.2500
50
203.4261
51
23.4261
0
LINE
8
0
10
125.8330
20
652.8385
30
0
11
124.0439
21
656.9676
31
0
0
LINE
8
0
10
129.9621
20
654.6275
30
0
11
128.1730
21
658.7566
31
0
0
ARC
8
0
10
126.1085
20
657.8621
30
0
40
2.2500
50
23.4261
51
203.4261
0
ARC
8
0
10
127.8975
20
653.7330
30
0
40
2.2500
50
203.4261
51
23.4261
0
LINE
8
0
10
70.5713
20
780.3812
30
0
11
68.7822
21
784.5103
31
0
0
LINE
8
0
10
74.7004
20
782.1703
30
0
11
72.9113
21
786.2993
31
0
0
ARC
8
0
10
70.8468
20
785.4048
30
0
40
2.2500
50
23.4261
51
203.4261
0
ARC
8
0
10
72.6358
20
781.2757
30
0
40
2.2500
50
203.4261
51
23.4261
0
LINE
8
0
10
15.3096
20
907.9239
30
0
11
13.5205
21
912.0530
31
0
0
LINE
8
0
10
19.4387
20
909.7130
30
0
11
17.6496
21
913.8421
31
0
0
ARC
8
0
10
15.5851
20
912.9475
30
0
40
2.2500
50
23.4261
51
203.4261
0
ARC
8
0
10
17.3741
20
908.8185
30
0
40
2.2500
50
203.4261
51
23.4261
0
LINE
8
0
10
406.2706
20
-16.9140
30
0
11
404.4816
21
-21.0431
31
0
0
LINE
8
0
10
402.1415
20
-15.1249
30
0
11
400.3525
21
-19.2540
31
0
0
ARC
8
0
10
402.4170
20
-20.1485
30
0
40
2.2500
50
156.5739
51
336.5739
0
ARC
8
0
10
404.2061
20
-16.0195
30
0
40
2.2500
50
336.5739
51
156.5739
0
LINE
8
0
10
351.0089
20
-144.4567
30
0
11
349.2198
21
-148.5858
31
0
0
LINE
8
0
10
346.8798
20
-142.6676
30
0
11
345.0908
21
-146.7967
31
0
0
ARC
8
0
10
347.1553
20
-147.6913
30
0
40
2.2500
50
156.5739
51
336.5739
0
ARC
8
0
10
348.9444
20
-143.5622
30
0
40
2.2500
50
336.5739
51
156.5739
0
LINE
8
0
10
295.7472
20
-271.9994
30
0
11
293.9581
21
-276.1285
31
0
0
LINE
8
0
10
291.6181
20
-270.2104
30
0
11
289.8291
21
-274.3394
31
0
0
ARC
8
0
10
291.8936
20
-275.2340
30
0
40
2.2500
50
156.5739
51
336.5739
0
ARC
8
0
10
293.6826
20
-271.1049
30
0
40
2.2500
50
336.5739
51
156.5739
0
LINE
8
0
10
240.4855
20
-399.5421
30
0
11
238.6964
21
-403.6712
31
0
0
LINE
8
0
10
236.3564
20
-397.7531
30
0
11
234.5674
21
-401.8822
31
0
0
ARC
8
0
10
236.6319
20
-402.7767
30
0
40
2.2500
50
156.5739
51
336.5739
0
ARC
8
0
10
238.4209
20
-398.6476
30
0
40
2.2500
50
336.5739
51
156.5739
0
LINE
8
0
10
185.2238
20
-527.0848
30
0
11
183.4347
21
-531.2139
31
0
0
LINE
8
0
10
181.0947
20
-525.2958
30
0
11
179.3056
21
-529.4249
31
0
0
ARC
8
0
10
181.3702
20
-530.3194
30
0
40
2.2500
50
156.5739
51
336.5739
0
ARC
8
0
10
183.1592
20
-526.1903
30
0
40
2.2500
50
336.5739
51
156.5739
0
LINE
8
0
10
129.9621
20
-654.6275
30
0
11
128.1730
21
-658.7566
31
0
0
LINE
8
0
10
125.8330
20
-652.8385
30
0
11
124.0439
21
-656.9676
31
0
0
ARC
8
0
10
126.1085
20
-657.8621
30
0
40
2.2500
50
156.5739
51
336.5739
0
ARC
8
0
10
127.8975
20
-653.7330
30
0
40
2.2500
50
336.5739
51
156.5739
0
LINE
8
0
10
74.7004
20
-782.1703
30
0
11
72.9113
21
-786.2993
31
0
0
LINE
8
0
10
70.5713
20
-780.3812
30
0
11
68.7822
21
-784.5103
31
0
0
ARC
8
0
10
70.8468
20
-785.4048
30
0
40
2.2500
50
156.5739
51
336.5739
0
ARC
8
0
10
72.6358
20
-781.2757
30
0
40
2.2500
50
336.5739
51
156.5739
0
LINE
8
0
10
19.4387
20
-909.7130
30
0
11
17.6496
21
-913.8421
31
0
0
LINE
8
0
10
15.3096
20
-907.9239
30
0
11
13.5205
21
-912.0530
31
0
0
ARC
8
0
10
15.5851
20
-912.9475
30
0
40
2.2500
50
156.5739
51
336.5739
0
ARC
8
0
10
17.3741
20
-908.8185
30
0
40
2.2500
50
336.5739
51
156.5739
0
LINE
8
0
10
1028.0000
20
963.7645
30
0
11
1028.0000
21
921.7645
31
0
0
LINE
8
0
10
1028.0000
20
921.7645
30
0
11
1014.0000
21
921.7645
31
0
0
LINE
8
0
10
1014.0000
20
921.7645
30
0
11
1014.0000
21
15.0000
31
0
0
LINE
8
0
10
1014.0000
20
15.0000
30
0
11
1029.0000
21
0.0000
31
0
0
LINE
8
0
10
1029.0000
20
0.0000
30
0
11
1014.0000
21
-15.0000
31
0
0
LINE
8
0
10
1014.0000
20
-15.0000
30
0
11
1014.0000
21
-921.7645
31
0
0
LINE
8
0
10
1014.0000
20
-921.7645
30
0
11
1028.0000
21
-921.7645
31
0
0
LINE
8
0
10
1028.0000
20
-921.7645
30
0
11
1028.0000
21
-963.7645
31
0
0
LINE
8
0
10
1028.0000
20
-963.7645
30
0
11
1922.0000
21
-963.7645
31
0
0
LINE
8
0
10
1922.0000
20
-963.7645
30
0
11
1928.0000
21
-946.7645
31
0
0
LINE
8
0
10
1928.0000
20
-946.7645
30
0
11
1928.0000
21
-923.7645
31
0
0
LINE
8
0
10
1928.0000
20
-923.7645
30
0
11
1527.7513
21
0.0000
31
0
0
LINE
8
0
10
1527.7513
20
0.0000
30
0
11
1928.0000
21
923.7645
31
0
0
LINE
8
0
10
1928.0000
20
923.7645
30
0
11
1928.0000
21
946.7645
31
0
0
LINE
8
0
10
1928.0000
20
946.7645
30
0
11
1922.0000
21
963.7645
31
0
0
LINE
8
0
10
1922.0000
20
963.7645
30
0
11
1028.0000
21
963.7645
31
0
0
CIRCLE
8
0
10
1148.0000
20
898.7645
30
0
40
3.5000
0
CIRCLE
8
0
10
1148.0000
20
858.7645
30
0
40
3.5000
0
CIRCLE
8
0
10
1148.0000
20
-898.7645
30
0
40
3.5000
0
CIRCLE
8
0
10
1148.0000
20
-858.7645
30
0
40
3.5000
0
CIRCLE
8
0
10
1388.0000
20
898.7645
30
0
40
3.5000
0
CIRCLE
8
0
10
1388.0000
20
858.7645
30
0
40
3.5000
0
CIRCLE
8
0
10
1388.0000
20
-898.7645
30
0
40
3.5000
0
CIRCLE
8
0
10
1388.0000
20
-858.7645
30
0
40
3.5000
0
CIRCLE
8
0
10
1628.0000
20
898.7645
30
0
40
3.5000
0
CIRCLE
8
0
10
1628.0000
20
858.7645
30
0
40
3.5000
0
CIRCLE
8
0
10
1628.0000
20
-898.7645
30
0
40
3.5000
0
CIRCLE
8
0
10
1628.0000
20
-858.7645
30
0
40
3.5000
0
LINE
8
0
10
1521.7294
20
16.9140
30
0
11
1523.5184
21
21.0431
31
0
0
LINE
8
0
10
1525.8585
20
15.1249
30
0
11
1527.6475
21
19.2540
31
0
0
ARC
8
0
10
1525.5830
20
20.1485
30
0
40
2.2500
50
336.5739
51
156.5739
0
ARC
8
0
10
1523.7939
20
16.0195
30
0
40
2.2500
50
156.5739
51
336.5739
0
LINE
8
0
10
1576.9911
20
144.4567
30
0
11
1578.7802
21
148.5858
31
0
0
LINE
8
0
10
1581.1202
20
142.6676
30
0
11
1582.9092
21
146.7967
31
0
0
ARC
8
0
10
1580.8447
20
147.6913
30
0
40
2.2500
50
336.5739
51
156.5739
0
ARC
8
0
10
1579.0556
20
143.5622
30
0
40
2.2500
50
156.5739
51
336.5739
0
LINE
8
0
10
1632.2528
20
271.9994
30
0
11
1634.0419
21
276.1285
31
0
0
LINE
8
0
10
1636.3819
20
270.2104
30
0
11
1638.1709
21
274.3394
31
0
0
ARC
8
0
10
1636.1064
20
275.2340
30
0
40
2.2500
50
336.5739
51
156.5739
0
ARC
8
0
10
1634.3174
20
271.1049
30
0
40
2.2500
50
156.5739
51
336.5739
0
LINE
8
0
10
1687.5145
20
399.5421
30
0
11
1689.3036
21
403.6712
31
0
0
LINE
8
0
10
1691.6436
20
397.7531
30
0
11
1693.4326
21
401.8822
31
0
0
ARC
8
0
10
1691.3681
20
402.7767
30
0
40
2.2500
50
336.5739
51
156.5739
0
ARC
8
0
10
1689.5791
20
398.6476
30
0
40
2.2500
50
156.5739
51
336.5739
0
LINE
8
0
10
1742.7762
20
527.0848
30
0
11
1744.5653
21
531.2139
31
0
0
LINE
8
0
10
1746.9053
20
525.2958
30
0
11
1748.6944
21
529.4249
31
0
0
ARC
8
0
10
1746.6298
20
530.3194
30
0
40
2.2500
50
336.5739
51
156.5739
0
ARC
8
0
10
1744.8408
20
526.1903
30
0
40
2.2500
50
156.5739
51
336.5739
0
LINE
8
0
10
1798.0379
20
654.6275
30
0
11
1799.8270
21
658.7566
31
0
0
LINE
8
0
10
1802.1670
20
652.8385
30
0
11
1803.9561
21
656.9676
31
0
0
ARC
8
0
10
1801.8915
20
657.8621
30
0
40
2.2500
50
336.5739
51
156.5739
0
ARC
8
0
10
1800.1025
20
653.7330
30
0
40
2.2500
50
156.5739
51
336.5739
0
LINE
8
0
10
1853.2996
20
782.1703
30
0
11
1855.0887
21
786.2993
31
0
0
LINE
8
0
10
1857.4287
20
780.3812
30
0
11
1859.2178
21
784.5103
31
0
0
ARC
8
0
10
1857.1532
20
785.4048
30
0
40
2.2500
50
336.5739
51
156.5739
0
ARC
8
0
10
1855.3642
20
781.2757
30
0
40
2.2500
50
156.5739
51
336.5739
0
LINE
8
0
10
1908.5613
20
909.7130
30
0
11
1910.3504
21
913.8421
31
0
0
LINE
8
0
10
1912.6904
20
907.9239
30
0
11
1914.4795
21
912.0530
31
0
0
ARC
8
0
10
1912.4149
20
912.9475
30
0
40
2.2500
50
336.5739
51
156.5739
0
ARC
8
0
10
1910.6259
20
908.8185
30
0
40
2.2500
50
156.5739
51
336.5739
0
LINE
8
0
10
1525.8585
20
-15.1249
30
0
11
1527.6475
21
-19.2540
31
0
0
LINE
8
0
10
1521.7294
20
-16.9140
30
0
11
1523.5184
21
-21.0431
31
0
0
ARC
8
0
10
1525.5830
20
-20.1485
30
0
40
2.2500
50
203.4261
51
23.4261
0
ARC
8
0
10
1523.7939
20
-16.0195
30
0
40
2.2500
50
23.4261
51
203.4261
0
LINE
8
0
10
1581.1202
20
-142.6676
30
0
11
1582.9092
21
-146.7967
31
0
0
LINE
8
0
10
1576.9911
20
-144.4567
30
0
11
1578.7802
21
-148.5858
31
0
0
ARC
8
0
10
1580.8447
20
-147.6913
30
0
40
2.2500
50
203.4261
51
23.4261
0
ARC
8
0
10
1579.0556
20
-143.5622
30
0
40
2.2500
50
23.4261
51
203.4261
0
LINE
8
0
10
1636.3819
20
-270.2104
30
0
11
1638.1709
21
-274.3394
31
0
0
LINE
8
0
10
1632.2528
20
-271.9994
30
0
11
1634.0419
21
-276.1285
31
0
0
ARC
8
0
10
1636.1064
20
-275.2340
30
0
40
2.2500
50
203.4261
51
23.4261
0
ARC
8
0
10
1634.3174
20
-271.1049
30
0
40
2.2500
50
23.4261
51
203.4261
0
LINE
8
0
10
1691.6436
20
-397.7531
30
0
11
1693.4326
21
-401.8822
31
0
0
LINE
8
0
10
1687.5145
20
-399.5421
30
0
11
1689.3036
21
-403.6712
31
0
0
ARC
8
0
10
1691.3681
20
-402.7767
30
0
40
2.2500
50
203.4261
51
23.4261
0
ARC
8
0
10
1689.5791
20
-398.6476
30
0
40
2.2500
50
23.4261
51
203.4261
0
LINE
8
0
10
1746.9053
20
-525.2958
30
0
11
1748.6944
21
-529.4249
31
0
0
LINE
8
0
10
1742.7762
20
-527.0848
30
0
11
1744.5653
21
-531.2139
31
0
0
ARC
8
0
10
1746.6298
20
-530.3194
30
0
40
2.2500
50
203.4261
51
23.4261
0
ARC
8
0
10
1744.8408
20
-526.1903
30
0
40
2.2500
50
23.4261
51
203.4261
0
LINE
8
0
10
1802.1670
20
-652.8385
30
0
11
1803.9561
21
-656.9676
31
0
0
LINE
8
0
10
1798.0379
20
-654.6275
30
0
11
1799.8270
21
-658.7566
31
0
0
ARC
8
0
10
1801.8915
20
-657.8621
30
0
40
2.2500
50
203.4261
51
23.4261
0
ARC
8
0
10
1800.1025
20
-653.7330
30
0
40
2.2500
50
23.4261
51
203.4261
0
LINE
8
0
10
1857.4287
20
-780.3812
30
0
11
1859.2178
21
-784.5103
31
0
0
LINE
8
0
10
1853.2996
20
-782.1703
30
0
11
1855.0887
21
-786.2993
31
0
0
ARC
8
0
10
1857.1532
20
-785.4048
30
0
40
2.2500
50
203.4261
51
23.4261
0
ARC
8
0
10
1855.3642
20
-781.2757
30
0
40
2.2500
50
23.4261
51
203.4261
0
LINE
8
0
10
1912.6904
20
-907.9239
30
0
11
1914.4795
21
-912.0530
31
0
0
LINE
8
0
10
1908.5613
20
-909.7130
30
0
11
1910.3504
21
-913.8421
31
0
0
ARC
8
0
10
1912.4149
20
-912.9475
30
0
40
2.2500
50
203.4261
51
23.4261
0
ARC
8
0
10
1910.6259
20
-908.8185
30
0
40
2.2500
50
23.4261
51
203.4261
0
LINE
8
0
10
1551.0607
20
0.0000
30
0
11
1542.1343
21
-21.2755
31
0
0
LINE
8
0
10
1542.1343
20
-21.2755
30
0
11
2139.4258
21
-804.3998
31
0
0
LINE
8
0
10
2139.4258
20
-804.3998
30
0
11
2161.5973
21
-800.4904
31
0
0
LINE
8
0
10
2161.5973
20
-800.4904
30
0
11
2184.5973
21
-800.4904
31
0
0
LINE
8
0
10
2184.5973
20
-800.4904
30
0
11
2201.5973
21
-794.4904
31
0
0
LINE
8
0
10
2201.5973
20
-794.4904
30
0
11
2201.5973
21
794.4904
31
0
0
LINE
8
0
10
2201.5973
20
794.4904
30
0
11
2184.5973
21
800.4904
31
0
0
LINE
8
0
10
2184.5973
20
800.4904
30
0
11
2161.5973
21
800.4904
31
0
0
LINE
8
0
10
2161.5973
20
800.4904
30
0
11
2139.4258
21
804.3998
31
0
0
LINE
8
0
10
2139.4258
20
804.3998
30
0
11
1542.1343
21
21.2755
31
0
0
LINE
8
0
10
1542.1343
20
21.2755
30
0
11
1551.0607
21
0.0000
31
0
0
CIRCLE
8
0
10
2136.5973
20
-475.0000
30
0
40
3.5000
0
CIRCLE
8
0
10
2096.5973
20
-475.0000
30
0
40
3.5000
0
CIRCLE
8
0
10
2136.5973
20
-158.3333
30
0
40
3.5000
0
CIRCLE
8
0
10
2096.5973
20
-158.3333
30
0
40
3.5000
0
CIRCLE
8
0
10
2136.5973
20
158.3333
30
0
40
3.5000
0
CIRCLE
8
0
10
2096.5973
20
158.3333
30
0
40
3.5000
0
CIRCLE
8
0
10
2136.5973
20
475.0000
30
0
40
3.5000
0
CIRCLE
8
0
10
2096.5973
20
475.0000
30
0
40
3.5000
0
CIRCLE
8
0
10
1552.4340
20
18.2901
30
0
40
2.2500
0
CIRCLE
8
0
10
1552.4340
20
-18.2901
30
0
40
2.2500
0
CIRCLE
8
0
10
1636.7298
20
128.8125
30
0
40
2.2500
0
CIRCLE
8
0
10
1636.7298
20
-128.8125
30
0
40
2.2500
0
CIRCLE
8
0
10
1721.0256
20
239.3350
30
0
40
2.2500
0
CIRCLE
8
0
10
1721.0256
20
-239.3350
30
0
40
2.2500
0
CIRCLE
8
0
10
1805.3215
20
349.8574
30
0
40
2.2500
0
CIRCLE
8
0
10
1805.3215
20
-349.8574
30
0
40
2.2500
0
CIRCLE
8
0
10
1889.6173
20
460.3799
30
0
40
2.2500
0
CIRCLE
8
0
10
1889.6173
20
-460.3799
30
0
40
2.2500
0
CIRCLE
8
0
10
1973.9131
20
570.9023
30
0
40
2.2500
0
CIRCLE
8
0
10
1973.9131
20
-570.9023
30
0
40
2.2500
0
CIRCLE
8
0
10
2058.2089
20
681.4248
30
0
40
2.2500
0
CIRCLE
8
0
10
2058.2089
20
-681.4248
30
0
40
2.2500
0
CIRCLE
8
0
10
2142.5048
20
791.9473
30
0
40
2.2500
0
CIRCLE
8
0
10
2142.5048
20
-791.9473
30
0
40
2.2500
0
ENDSEC
0
EOF
