0
SECTION
2
HEADER
9
$ACADVER
1
AC1009
9
$INSUNITS
70
4
0
ENDSEC
0
SECTION
2
ENTITIES
0
LINE
8
0
10
160.7268
20
21.2755
30
0
11
-93.1393
21
354.1260
31
0
0
LINE
8
0
10
-93.1393
20
354.1260
30
0
11
-115.3109
21
350.2165
31
0
0
LINE
8
0
10
-115.3109
20
350.2165
30
0
11
-138.3109
21
350.2165
31
0
0
LINE
8
0
10
-138.3109
20
350.2165
30
0
11
-155.3109
21
344.2165
31
0
0
LINE
8
0
10
-155.3109
20
344.2165
30
0
11
-155.3109
21
-344.2165
31
0
0
LINE
8
0
10
-155.3109
20
-344.2165
30
0
11
-138.3109
21
-350.2165
31
0
0
LINE
8
0
10
-138.3109
20
-350.2165
30
0
11
-115.3109
21
-350.2165
31
0
0
LINE
8
0
10
-115.3109
20
-350.2165
30
0
11
-93.1393
21
-354.1260
31
0
0
LINE
8
0
10
-93.1393
20
-354.1260
30
0
11
160.7268
21
-21.2755
31
0
0
LINE
8
0
10
160.7268
20
-21.2755
30
0
11
151.8004
21
0.0000
31
0
0
LINE
8
0
10
151.8004
20
0.0000
30
0
11
160.7268
21
21.2755
31
0
0
CIRCLE
8
0
10
-90.3109
20
0.0000
30
0
40
3.5000
0
CIRCLE
8
0
10
-50.3109
20
0.0000
30
0
40
3.5000
0
CIRCLE
8
0
10
150.4271
20
18.2901
30
0
40
2.2500
0
CIRCLE
8
0
10
150.4271
20
-18.2901
30
0
40
2.2500
0
CIRCLE
8
0
10
69.1635
20
124.8369
30
0
40
2.2500
0
CIRCLE
8
0
10
69.1635
20
-124.8369
30
0
40
2.2500
0
CIRCLE
8
0
10
-12.1001
20
231.3837
30
0
40
2.2500
0
CIRCLE
8
0
10
-12.1001
20
-231.3837
30
0
40
2.2500
0
CIRCLE
8
0
10
-93.3637
20
337.9305
30
0
40
2.2500
0
CIRCLE
8
0
10
-93.3637
20
-337.9305
30
0
40
2.2500
0
LINE
8
0
10
6.0000
20
444.1492
30
0
11
0.0000
21
427.1492
31
0
0
LINE
8
0
10
0.0000
20
427.1492
30
0
11
0.0000
21
404.1492
31
0
0
LINE
8
0
10
0.0000
20
404.1492
30
0
11
175.1098
21
0.0000
31
0
0
LINE
8
0
10
175.1098
20
0.0000
30
0
11
0.0000
21
-404.1492
31
0
0
LINE
8
0
10
0.0000
20
-404.1492
30
0
11
0.0000
21
-427.1492
31
0
0
LINE
8
0
10
0.0000
20
-427.1492
30
0
11
6.0000
21
-444.1492
31
0
0
LINE
8
0
10
6.0000
20
-444.1492
30
0
11
1294.0000
21
-444.1492
31
0
0
LINE
8
0
10
1294.0000
20
-444.1492
30
0
11
1300.0000
21
-427.1492
31
0
0
LINE
8
0
10
1300.0000
20
-427.1492
30
0
11
1300.0000
21
-404.1492
31
0
0
LINE
8
0
10
1300.0000
20
-404.1492
30
0
11
1124.8902
21
0.0000
31
0
0
LINE
8
0
10
1124.8902
20
0.0000
30
0
11
1300.0000
21
404.1492
31
0
0
LINE
8
0
10
1300.0000
20
404.1492
30
0
11
1300.0000
21
427.1492
31
0
0
LINE
8
0
10
1300.0000
20
427.1492
30
0
11
1294.0000
21
444.1492
31
0
0
LINE
8
0
10
1294.0000
20
444.1492
30
0
11
6.0000
21
444.1492
31
0
0
CIRCLE
8
0
10
300.0000
20
379.1492
30
0
40
3.5000
0
CIRCLE
8
0
10
300.0000
20
339.1492
30
0
40
3.5000
0
CIRCLE
8
0
10
300.0000
20
-379.1492
30
0
40
3.5000
0
CIRCLE
8
0
10
300.0000
20
-339.1492
30
0
40
3.5000
0
CIRCLE
8
0
10
650.0000
20
379.1492
30
0
40
3.5000
0
CIRCLE
8
0
10
650.0000
20
339.1492
30
0
40
3.5000
0
CIRCLE
8
0
10
650.0000
20
-379.1492
30
0
40
3.5000
0
CIRCLE
8
0
10
650.0000
20
-339.1492
30
0
40
3.5000
0
CIRCLE
8
0
10
1000.0000
20
379.1492
30
0
40
3.5000
0
CIRCLE
8
0
10
1000.0000
20
339.1492
30
0
40
3.5000
0
CIRCLE
8
0
10
1000.0000
20
-379.1492
30
0
40
3.5000
0
CIRCLE
8
0
10
1000.0000
20
-339.1492
30
0
40
3.5000
0
LINE
8
0
10
177.0026
20
15.1249
30
0
11
175.2136
21
19.2540
31
0
0
LINE
8
0
10
181.1317
20
16.9140
30
0
11
179.3427
21
21.0431
31
0
0
ARC
8
0
10
177.2781
20
20.1485
30
0
40
2.2500
50
23.4261
51
203.4261
0
ARC
8
0
10
179.0672
20
16.0195
30
0
40
2.2500
50
203.4261
51
23.4261
0
LINE
8
0
10
123.7288
20
138.0798
30
0
11
121.9397
21
142.2089
31
0
0
LINE
8
0
10
127.8578
20
139.8688
30
0
11
126.0688
21
143.9979
31
0
0
ARC
8
0
10
124.0042
20
143.1034
30
0
40
2.2500
50
23.4261
51
203.4261
0
ARC
8
0
10
125.7933
20
138.9743
30
0
40
2.2500
50
203.4261
51
23.4261
0
LINE
8
0
10
70.4549
20
261.0346
30
0
11
68.6658
21
265.1637
31
0
0
LINE
8
0
10
74.5840
20
262.8237
30
0
11
72.7949
21
266.9528
31
0
0
ARC
8
0
10
70.7304
20
266.0582
30
0
40
2.2500
50
23.4261
51
203.4261
0
ARC
8
0
10
72.5194
20
261.9291
30
0
40
2.2500
50
203.4261
51
23.4261
0
LINE
8
0
10
17.1810
20
383.9895
30
0
11
15.3920
21
388.1186
31
0
0
LINE
8
0
10
21.3101
20
385.7785
30
0
11
19.5210
21
389.9076
31
0
0
ARC
8
0
10
17.4565
20
389.0131
30
0
40
2.2500
50
23.4261
51
203.4261
0
ARC
8
0
10
19.2455
20
384.8840
30
0
40
2.2500
50
203.4261
51
23.4261
0
LINE
8
0
10
181.1317
20
-16.9140
30
0
11
179.3427
21
-21.0431
31
0
0
LINE
8
0
10
177.0026
20
-15.1249
30
0
11
175.2136
21
-19.2540
31
0
0
ARC
8
0
10
177.2781
20
-20.1485
30
0
40
2.2500
50
156.5739
51
336.5739
0
ARC
8
0
10
179.0672
20
-16.0195
30
0
40
2.2500
50
336.5739
51
156.5739
0
LINE
8
0
10
127.8578
20
-139.8688
30
0
11
126.0688
21
-143.9979
31
0
0
LINE
8
0
10
123.7288
20
-138.0798
30
0
11
121.9397
21
-142.2089
31
0
0
ARC
8
0
10
124.0042
20
-143.1034
30
0
40
2.2500
50
156.5739
51
336.5739
0
ARC
8
0
10
125.7933
20
-138.9743
30
0
40
2.2500
50
336.5739
51
156.5739
0
LINE
8
0
10
74.5840
20
-262.8237
30
0
11
72.7949
21
-266.9528
31
0
0
LINE
8
0
10
70.4549
20
-261.0346
30
0
11
68.6658
21
-265.1637
31
0
0
ARC
8
0
10
70.7304
20
-266.0582
30
0
40
2.2500
50
156.5739
51
336.5739
0
ARC
8
0
10
72.5194
20
-261.9291
30
0
40
2.2500
50
336.5739
51
156.5739
0
LINE
8
0
10
21.3101
20
-385.7785
30
0
11
19.5210
21
-389.9076
31
0
0
LINE
8
0
10
17.1810
20
-383.9895
30
0
11
15.3920
21
-388.1186
31
0
0
ARC
8
0
10
17.4565
20
-389.0131
30
0
40
2.2500
50
156.5739
51
336.5739
0
ARC
8
0
10
19.2455
20
-384.8840
30
0
40
2.2500
50
336.5739
51
156.5739
0
LINE
8
0
10
1118.8683
20
16.9140
30
0
11
1120.6573
21
21.0431
31
0
0
LINE
8
0
10
1122.9974
20
15.1249
30
0
11
1124.7864
21
19.2540
31
0
0
ARC
8
0
10
1122.7219
20
20.1485
30
0
40
2.2500
50
336.5739
51
156.5739
0
ARC
8
0
10
1120.9328
20
16.0195
30
0
40
2.2500
50
156.5739
51
336.5739
0
LINE
8
0
10
1172.1422
20
139.8688
30
0
11
1173.9312
21
143.9979
31
0
0
LINE
8
0
10
1176.2712
20
138.0798
30
0
11
1178.0603
21
142.2089
31
0
0
ARC
8
0
10
1175.9958
20
143.1034
30
0
40
2.2500
50
336.5739
51
156.5739
0
ARC
8
0
10
1174.2067
20
138.9743
30
0
40
2.2500
50
156.5739
51
336.5739
0
LINE
8
0
10
1225.4160
20
262.8237
30
0
11
1227.2051
21
266.9528
31
0
0
LINE
8
0
10
1229.5451
20
261.0346
30
0
11
1231.3342
21
265.1637
31
0
0
ARC
8
0
10
1229.2696
20
266.0582
30
0
40
2.2500
50
336.5739
51
156.5739
0
ARC
8
0
10
1227.4806
20
261.9291
30
0
40
2.2500
50
156.5739
51
336.5739
0
LINE
8
0
10
1278.6899
20
385.7785
30
0
11
1280.4790
21
389.9076
31
0
0
LINE
8
0
10
1282.8190
20
383.9895
30
0
11
1284.6080
21
388.1186
31
0
0
ARC
8
0
10
1282.5435
20
389.0131
30
0
40
2.2500
50
336.5739
51
156.5739
0
ARC
8
0
10
1280.7545
20
384.8840
30
0
40
2.2500
50
156.5739
51
336.5739
0
LINE
8
0
10
1122.9974
20
-15.1249
30
0
11
1124.7864
21
-19.2540
31
0
0
LINE
8
0
10
1118.8683
20
-16.9140
30
0
11
1120.6573
21
-21.0431
31
0
0
ARC
8
0
10
1122.7219
20
-20.1485
30
0
40
2.2500
50
203.4261
51
23.4261
0
ARC
8
0
10
1120.9328
20
-16.0195
30
0
40
2.2500
50
23.4261
51
203.4261
0
LINE
8
0
10
1176.2712
20
-138.0798
30
0
11
1178.0603
21
-142.2089
31
0
0
LINE
8
0
10
1172.1422
20
-139.8688
30
0
11
1173.9312
21
-143.9979
31
0
0
ARC
8
0
10
1175.9958
20
-143.1034
30
0
40
2.2500
50
203.4261
51
23.4261
0
ARC
8
0
10
1174.2067
20
-138.9743
30
0
40
2.2500
50
23.4261
51
203.4261
0
LINE
8
0
10
1229.5451
20
-261.0346
30
0
11
1231.3342
21
-265.1637
31
0
0
LINE
8
0
10
1225.4160
20
-262.8237
30
0
11
1227.2051
21
-266.9528
31
0
0
ARC
8
0
10
1229.2696
20
-266.0582
30
0
40
2.2500
50
203.4261
51
23.4261
0
ARC
8
0
10
1227.4806
20
-261.9291
30
0
40
2.2500
50
23.4261
51
203.4261
0
LINE
8
0
10
1282.8190
20
-383.9895
30
0
11
1284.6080
21
-388.1186
31
0
0
LINE
8
0
10
1278.6899
20
-385.7785
30
0
11
1280.4790
21
-389.9076
31
0
0
ARC
8
0
10
1282.5435
20
-389.0131
30
0
40
2.2500
50
203.4261
51
23.4261
0
ARC
8
0
10
1280.7545
20
-384.8840
30
0
40
2.2500
50
23.4261
51
203.4261
0
LINE
8
0
10
1148.1996
20
0.0000
30
0
11
1139.2732
21
-21.2755
31
0
0
LINE
8
0
10
1139.2732
20
-21.2755
30
0
11
1393.1393
21
-354.1260
31
0
0
LINE
8
0
10
1393.1393
20
-354.1260
30
0
11
1415.3109
21
-350.2165
31
0
0
LINE
8
0
10
1415.3109
20
-350.2165
30
0
11
1438.3109
21
-350.2165
31
0
0
LINE
8
0
10
1438.3109
20
-350.2165
30
0
11
1455.3109
21
-344.2165
31
0
0
LINE
8
0
10
1455.3109
20
-344.2165
30
0
11
1455.3109
21
344.2165
31
0
0
LINE
8
0
10
1455.3109
20
344.2165
30
0
11
1438.3109
21
350.2165
31
0
0
LINE
8
0
10
1438.3109
20
350.2165
30
0
11
1415.3109
21
350.2165
31
0
0
LINE
8
0
10
1415.3109
20
350.2165
30
0
11
1393.1393
21
354.1260
31
0
0
LINE
8
0
10
1393.1393
20
354.1260
30
0
11
1139.2732
21
21.2755
31
0
0
LINE
8
0
10
1139.2732
20
21.2755
30
0
11
1148.1996
21
0.0000
31
0
0
CIRCLE
8
0
10
1390.3109
20
0.0000
30
0
40
3.5000
0
CIRCLE
8
0
10
1350.3109
20
0.0000
30
0
40
3.5000
0
CIRCLE
8
0
10
1149.5729
20
18.2901
30
0
40
2.2500
0
CIRCLE
8
0
10
1149.5729
20
-18.2901
30
0
40
2.2500
0
CIRCLE
8
0
10
1230.8365
20
124.8369
30
0
40
2.2500
0
CIRCLE
8
0
10
1230.8365
20
-124.8369
30
0
40
2.2500
0
CIRCLE
8
0
10
1312.1001
20
231.3837
30
0
40
2.2500
0
CIRCLE
8
0
10
1312.1001
20
-231.3837
30
0
40
2.2500
0
CIRCLE
8
0
10
1393.3637
20
337.9305
30
0
40
2.2500
0
CIRCLE
8
0
10
1393.3637
20
-337.9305
30
0
40
2.2500
0
ENDSEC
0
EOF
