0
SECTION
2
HEADER
9
$ACADVER
1
AC1009
9
$INSUNITS
70
4
0
ENDSEC
0
SECTION
2
ENTITIES
0
LINE
8
0
10
310.8194
20
21.2755
30
0
11
-171.9969
21
654.3085
31
0
0
LINE
8
0
10
-171.9969
20
654.3085
30
0
11
-194.1685
21
650.3991
31
0
0
LINE
8
0
10
-194.1685
20
650.3991
30
0
11
-217.1685
21
650.3991
31
0
0
LINE
8
0
10
-217.1685
20
650.3991
30
0
11
-234.1685
21
644.3991
31
0
0
LINE
8
0
10
-234.1685
20
644.3991
30
0
11
-234.1685
21
-644.3991
31
0
0
LINE
8
0
10
-234.1685
20
-644.3991
30
0
11
-217.1685
21
-650.3991
31
0
0
LINE
8
0
10
-217.1685
20
-650.3991
30
0
11
-194.1685
21
-650.3991
31
0
0
LINE
8
0
10
-194.1685
20
-650.3991
30
0
11
-171.9969
21
-654.3085
31
0
0
LINE
8
0
10
-171.9969
20
-654.3085
30
0
11
310.8194
21
-21.2755
31
0
0
LINE
8
0
10
310.8194
20
-21.2755
30
0
11
301.8930
21
0.0000
31
0
0
LINE
8
0
10
301.8930
20
0.0000
30
0
11
310.8194
21
21.2755
31
0
0
CIRCLE
8
0
10
-169.1685
20
-325.0000
30
0
40
3.5000
0
CIRCLE
8
0
10
-129.1685
20
-325.0000
30
0
40
3.5000
0
CIRCLE
8
0
10
-169.1685
20
0.0000
30
0
40
3.5000
0
CIRCLE
8
0
10
-129.1685
20
0.0000
30
0
40
3.5000
0
CIRCLE
8
0
10
-169.1685
20
325.0000
30
0
40
3.5000
0
CIRCLE
8
0
10
-129.1685
20
325.0000
30
0
40
3.5000
0
CIRCLE
8
0
10
300.5197
20
18.2901
30
0
40
2.2500
0
CIRCLE
8
0
10
300.5197
20
-18.2901
30
0
40
2.2500
0
CIRCLE
8
0
10
221.6819
20
121.6564
30
0
40
2.2500
0
CIRCLE
8
0
10
221.6819
20
-121.6564
30
0
40
2.2500
0
CIRCLE
8
0
10
142.8441
20
225.0227
30
0
40
2.2500
0
CIRCLE
8
0
10
142.8441
20
-225.0227
30
0
40
2.2500
0
CIRCLE
8
0
10
64.0063
20
328.3890
30
0
40
2.2500
0
CIRCLE
8
0
10
64.0063
20
-328.3890
30
0
40
2.2500
0
CIRCLE
8
0
10
-14.8316
20
431.7554
30
0
40
2.2500
0
CIRCLE
8
0
10
-14.8316
20
-431.7554
30
0
40
2.2500
0
CIRCLE
8
0
10
-93.6694
20
535.1217
30
0
40
2.2500
0
CIRCLE
8
0
10
-93.6694
20
-535.1217
30
0
40
2.2500
0
CIRCLE
8
0
10
-172.5072
20
638.4880
30
0
40
2.2500
0
CIRCLE
8
0
10
-172.5072
20
-638.4880
30
0
40
2.2500
0
LINE
8
0
10
6.0000
20
790.5594
30
0
11
0.0000
21
773.5594
31
0
0
LINE
8
0
10
0.0000
20
773.5594
30
0
11
0.0000
21
750.5594
31
0
0
LINE
8
0
10
0.0000
20
750.5594
30
0
11
325.2024
21
0.0000
31
0
0
LINE
8
0
10
325.2024
20
0.0000
30
0
11
0.0000
21
-750.5594
31
0
0
LINE
8
0
10
0.0000
20
-750.5594
30
0
11
0.0000
21
-773.5594
31
0
0
LINE
8
0
10
0.0000
20
-773.5594
30
0
11
6.0000
21
-790.5594
31
0
0
LINE
8
0
10
6.0000
20
-790.5594
30
0
11
650.0000
21
-790.5594
31
0
0
LINE
8
0
10
650.0000
20
-790.5594
30
0
11
650.0000
21
-748.5594
31
0
0
LINE
8
0
10
650.0000
20
-748.5594
30
0
11
664.0000
21
-748.5594
31
0
0
LINE
8
0
10
664.0000
20
-748.5594
30
0
11
664.0000
21
-15.0000
31
0
0
LINE
8
0
10
664.0000
20
-15.0000
30
0
11
649.0000
21
0.0000
31
0
0
LINE
8
0
10
649.0000
20
0.0000
30
0
11
664.0000
21
15.0000
31
0
0
LINE
8
0
10
664.0000
20
15.0000
30
0
11
664.0000
21
748.5594
31
0
0
LINE
8
0
10
664.0000
20
748.5594
30
0
11
650.0000
21
748.5594
31
0
0
LINE
8
0
10
650.0000
20
748.5594
30
0
11
650.0000
21
790.5594
31
0
0
LINE
8
0
10
650.0000
20
790.5594
30
0
11
6.0000
21
790.5594
31
0
0
CIRCLE
8
0
10
300.0000
20
725.5594
30
0
40
3.5000
0
CIRCLE
8
0
10
300.0000
20
685.5594
30
0
40
3.5000
0
CIRCLE
8
0
10
300.0000
20
-725.5594
30
0
40
3.5000
0
CIRCLE
8
0
10
300.0000
20
-685.5594
30
0
40
3.5000
0
CIRCLE
8
0
10
533.3333
20
725.5594
30
0
40
3.5000
0
CIRCLE
8
0
10
533.3333
20
685.5594
30
0
40
3.5000
0
CIRCLE
8
0
10
533.3333
20
-725.5594
30
0
40
3.5000
0
CIRCLE
8
0
10
533.3333
20
-685.5594
30
0
40
3.5000
0
LINE
8
0
10
327.0952
20
15.1249
30
0
11
325.3062
21
19.2540
31
0
0
LINE
8
0
10
331.2243
20
16.9140
30
0
11
329.4353
21
21.0431
31
0
0
ARC
8
0
10
327.3707
20
20.1485
30
0
40
2.2500
50
23.4261
51
203.4261
0
ARC
8
0
10
329.1598
20
16.0195
30
0
40
2.2500
50
203.4261
51
23.4261
0
LINE
8
0
10
275.4116
20
134.4095
30
0
11
273.6226
21
138.5386
31
0
0
LINE
8
0
10
279.5407
20
136.1985
30
0
11
277.7516
21
140.3276
31
0
0
ARC
8
0
10
275.6871
20
139.4331
30
0
40
2.2500
50
23.4261
51
203.4261
0
ARC
8
0
10
277.4762
20
135.3040
30
0
40
2.2500
50
203.4261
51
23.4261
0
LINE
8
0
10
223.7280
20
253.6940
30
0
11
221.9390
21
257.8231
31
0
0
LINE
8
0
10
227.8571
20
255.4831
30
0
11
226.0680
21
259.6122
31
0
0
ARC
8
0
10
224.0035
20
258.7176
30
0
40
2.2500
50
23.4261
51
203.4261
0
ARC
8
0
10
225.7925
20
254.5886
30
0
40
2.2500
50
203.4261
51
23.4261
0
LINE
8
0
10
172.0444
20
372.9786
30
0
11
170.2553
21
377.1077
31
0
0
LINE
8
0
10
176.1735
20
374.7676
30
0
11
174.3844
21
378.8967
31
0
0
ARC
8
0
10
172.3199
20
378.0022
30
0
40
2.2500
50
23.4261
51
203.4261
0
ARC
8
0
10
174.1089
20
373.8731
30
0
40
2.2500
50
203.4261
51
23.4261
0
LINE
8
0
10
120.3608
20
492.2631
30
0
11
118.5717
21
496.3922
31
0
0
LINE
8
0
10
124.4899
20
494.0522
30
0
11
122.7008
21
498.1813
31
0
0
ARC
8
0
10
120.6363
20
497.2867
30
0
40
2.2500
50
23.4261
51
203.4261
0
ARC
8
0
10
122.4253
20
493.1577
30
0
40
2.2500
50
203.4261
51
23.4261
0
LINE
8
0
10
68.6772
20
611.5477
30
0
11
66.8881
21
615.6768
31
0
0
LINE
8
0
10
72.8063
20
613.3367
30
0
11
71.0172
21
617.4658
31
0
0
ARC
8
0
10
68.9527
20
616.5713
30
0
40
2.2500
50
23.4261
51
203.4261
0
ARC
8
0
10
70.7417
20
612.4422
30
0
40
2.2500
50
203.4261
51
23.4261
0
LINE
8
0
10
16.9936
20
730.8322
30
0
11
15.2045
21
734.9613
31
0
0
LINE
8
0
10
21.1226
20
732.6213
30
0
11
19.3336
21
736.7504
31
0
0
ARC
8
0
10
17.2691
20
735.8559
30
0
40
2.2500
50
23.4261
51
203.4261
0
ARC
8
0
10
19.0581
20
731.7268
30
0
40
2.2500
50
203.4261
51
23.4261
0
LINE
8
0
10
331.2243
20
-16.9140
30
0
11
329.4353
21
-21.0431
31
0
0
LINE
8
0
10
327.0952
20
-15.1249
30
0
11
325.3062
21
-19.2540
31
0
0
ARC
8
0
10
327.3707
20
-20.1485
30
0
40
2.2500
50
156.5739
51
336.5739
0
ARC
8
0
10
329.1598
20
-16.0195
30
0
40
2.2500
50
336.5739
51
156.5739
0
LINE
8
0
10
279.5407
20
-136.1985
30
0
11
277.7516
21
-140.3276
31
0
0
LINE
8
0
10
275.4116
20
-134.4095
30
0
11
273.6226
21
-138.5386
31
0
0
ARC
8
0
10
275.6871
20
-139.4331
30
0
40
2.2500
50
156.5739
51
336.5739
0
ARC
8
0
10
277.4762
20
-135.3040
30
0
40
2.2500
50
336.5739
51
156.5739
0
LINE
8
0
10
227.8571
20
-255.4831
30
0
11
226.0680
21
-259.6122
31
0
0
LINE
8
0
10
223.7280
20
-253.6940
30
0
11
221.9390
21
-257.8231
31
0
0
ARC
8
0
10
224.0035
20
-258.7176
30
0
40
2.2500
50
156.5739
51
336.5739
0
ARC
8
0
10
225.7925
20
-254.5886
30
0
40
2.2500
50
336.5739
51
156.5739
0
LINE
8
0
10
176.1735
20
-374.7676
30
0
11
174.3844
21
-378.8967
31
0
0
LINE
8
0
10
172.0444
20
-372.9786
30
0
11
170.2553
21
-377.1077
31
0
0
ARC
8
0
10
172.3199
20
-378.0022
30
0
40
2.2500
50
156.5739
51
336.5739
0
ARC
8
0
10
174.1089
20
-373.8731
30
0
40
2.2500
50
336.5739
51
156.5739
0
LINE
8
0
10
124.4899
20
-494.0522
30
0
11
122.7008
21
-498.1813
31
0
0
LINE
8
0
10
120.3608
20
-492.2631
30
0
11
118.5717
21
-496.3922
31
0
0
ARC
8
0
10
120.6363
20
-497.2867
30
0
40
2.2500
50
156.5739
51
336.5739
0
ARC
8
0
10
122.4253
20
-493.1577
30
0
40
2.2500
50
336.5739
51
156.5739
0
LINE
8
0
10
72.8063
20
-613.3367
30
0
11
71.0172
21
-617.4658
31
0
0
LINE
8
0
10
68.6772
20
-611.5477
30
0
11
66.8881
21
-615.6768
31
0
0
ARC
8
0
10
68.9527
20
-616.5713
30
0
40
2.2500
50
156.5739
51
336.5739
0
ARC
8
0
10
70.7417
20
-612.4422
30
0
40
2.2500
50
336.5739
51
156.5739
0
LINE
8
0
10
21.1226
20
-732.6213
30
0
11
19.3336
21
-736.7504
31
0
0
LINE
8
0
10
16.9936
20
-730.8322
30
0
11
15.2045
21
-734.9613
31
0
0
ARC
8
0
10
17.2691
20
-735.8559
30
0
40
2.2500
50
156.5739
51
336.5739
0
ARC
8
0
10
19.0581
20
-731.7268
30
0
40
2.2500
50
336.5739
51
156.5739
0
LINE
8
0
10
778.0000
20
790.5594
30
0
11
778.0000
21
748.5594
31
0
0
LINE
8
0
10
778.0000
20
748.5594
30
0
11
764.0000
21
748.5594
31
0
0
LINE
8
0
10
764.0000
20
748.5594
30
0
11
764.0000
21
15.0000
31
0
0
LINE
8
0
10
764.0000
20
15.0000
30
0
11
779.0000
21
0.0000
31
0
0
LINE
8
0
10
779.0000
20
0.0000
30
0
11
764.0000
21
-15.0000
31
0
0
LINE
8
0
10
764.0000
20
-15.0000
30
0
11
764.0000
21
-748.5594
31
0
0
LINE
8
0
10
764.0000
20
-748.5594
30
0
11
778.0000
21
-748.5594
31
0
0
LINE
8
0
10
778.0000
20
-748.5594
30
0
11
778.0000
21
-790.5594
31
0
0
LINE
8
0
10
778.0000
20
-790.5594
30
0
11
1422.0000
21
-790.5594
31
0
0
LINE
8
0
10
1422.0000
20
-790.5594
30
0
11
1428.0000
21
-773.5594
31
0
0
LINE
8
0
10
1428.0000
20
-773.5594
30
0
11
1428.0000
21
-750.5594
31
0
0
LINE
8
0
10
1428.0000
20
-750.5594
30
0
11
1102.7976
21
0.0000
31
0
0
LINE
8
0
10
1102.7976
20
0.0000
30
0
11
1428.0000
21
750.5594
31
0
0
LINE
8
0
10
1428.0000
20
750.5594
30
0
11
1428.0000
21
773.5594
31
0
0
LINE
8
0
10
1428.0000
20
773.5594
30
0
11
1422.0000
21
790.5594
31
0
0
LINE
8
0
10
1422.0000
20
790.5594
30
0
11
778.0000
21
790.5594
31
0
0
CIRCLE
8
0
10
894.6667
20
725.5594
30
0
40
3.5000
0
CIRCLE
8
0
10
894.6667
20
685.5594
30
0
40
3.5000
0
CIRCLE
8
0
10
894.6667
20
-725.5594
30
0
40
3.5000
0
CIRCLE
8
0
10
894.6667
20
-685.5594
30
0
40
3.5000
0
CIRCLE
8
0
10
1128.0000
20
725.5594
30
0
40
3.5000
0
CIRCLE
8
0
10
1128.0000
20
685.5594
30
0
40
3.5000
0
CIRCLE
8
0
10
1128.0000
20
-725.5594
30
0
40
3.5000
0
CIRCLE
8
0
10
1128.0000
20
-685.5594
30
0
40
3.5000
0
LINE
8
0
10
1096.7757
20
16.9140
30
0
11
1098.5647
21
21.0431
31
0
0
LINE
8
0
10
1100.9048
20
15.1249
30
0
11
1102.6938
21
19.2540
31
0
0
ARC
8
0
10
1100.6293
20
20.1485
30
0
40
2.2500
50
336.5739
51
156.5739
0
ARC
8
0
10
1098.8402
20
16.0195
30
0
40
2.2500
50
156.5739
51
336.5739
0
LINE
8
0
10
1148.4593
20
136.1985
30
0
11
1150.2484
21
140.3276
31
0
0
LINE
8
0
10
1152.5884
20
134.4095
30
0
11
1154.3774
21
138.5386
31
0
0
ARC
8
0
10
1152.3129
20
139.4331
30
0
40
2.2500
50
336.5739
51
156.5739
0
ARC
8
0
10
1150.5238
20
135.3040
30
0
40
2.2500
50
156.5739
51
336.5739
0
LINE
8
0
10
1200.1429
20
255.4831
30
0
11
1201.9320
21
259.6122
31
0
0
LINE
8
0
10
1204.2720
20
253.6940
30
0
11
1206.0610
21
257.8231
31
0
0
ARC
8
0
10
1203.9965
20
258.7176
30
0
40
2.2500
50
336.5739
51
156.5739
0
ARC
8
0
10
1202.2075
20
254.5886
30
0
40
2.2500
50
156.5739
51
336.5739
0
LINE
8
0
10
1251.8265
20
374.7676
30
0
11
1253.6156
21
378.8967
31
0
0
LINE
8
0
10
1255.9556
20
372.9786
30
0
11
1257.7447
21
377.1077
31
0
0
ARC
8
0
10
1255.6801
20
378.0022
30
0
40
2.2500
50
336.5739
51
156.5739
0
ARC
8
0
10
1253.8911
20
373.8731
30
0
40
2.2500
50
156.5739
51
336.5739
0
LINE
8
0
10
1303.5101
20
494.0522
30
0
11
1305.2992
21
498.1813
31
0
0
LINE
8
0
10
1307.6392
20
492.2631
30
0
11
1309.4283
21
496.3922
31
0
0
ARC
8
0
10
1307.3637
20
497.2867
30
0
40
2.2500
50
336.5739
51
156.5739
0
ARC
8
0
10
1305.5747
20
493.1577
30
0
40
2.2500
50
156.5739
51
336.5739
0
LINE
8
0
10
1355.1937
20
613.3367
30
0
11
1356.9828
21
617.4658
31
0
0
LINE
8
0
10
1359.3228
20
611.5477
30
0
11
1361.1119
21
615.6768
31
0
0
ARC
8
0
10
1359.0473
20
616.5713
30
0
40
2.2500
50
336.5739
51
156.5739
0
ARC
8
0
10
1357.2583
20
612.4422
30
0
40
2.2500
50
156.5739
51
336.5739
0
LINE
8
0
10
1406.8774
20
732.6213
30
0
11
1408.6664
21
736.7504
31
0
0
LINE
8
0
10
1411.0064
20
730.8322
30
0
11
1412.7955
21
734.9613
31
0
0
ARC
8
0
10
1410.7309
20
735.8559
30
0
40
2.2500
50
336.5739
51
156.5739
0
ARC
8
0
10
1408.9419
20
731.7268
30
0
40
2.2500
50
156.5739
51
336.5739
0
LINE
8
0
10
1100.9048
20
-15.1249
30
0
11
1102.6938
21
-19.2540
31
0
0
LINE
8
0
10
1096.7757
20
-16.9140
30
0
11
1098.5647
21
-21.0431
31
0
0
ARC
8
0
10
1100.6293
20
-20.1485
30
0
40
2.2500
50
203.4261
51
23.4261
0
ARC
8
0
10
1098.8402
20
-16.0195
30
0
40
2.2500
50
23.4261
51
203.4261
0
LINE
8
0
10
1152.5884
20
-134.4095
30
0
11
1154.3774
21
-138.5386
31
0
0
LINE
8
0
10
1148.4593
20
-136.1985
30
0
11
1150.2484
21
-140.3276
31
0
0
ARC
8
0
10
1152.3129
20
-139.4331
30
0
40
2.2500
50
203.4261
51
23.4261
0
ARC
8
0
10
1150.5238
20
-135.3040
30
0
40
2.2500
50
23.4261
51
203.4261
0
LINE
8
0
10
1204.2720
20
-253.6940
30
0
11
1206.0610
21
-257.8231
31
0
0
LINE
8
0
10
1200.1429
20
-255.4831
30
0
11
1201.9320
21
-259.6122
31
0
0
ARC
8
0
10
1203.9965
20
-258.7176
30
0
40
2.2500
50
203.4261
51
23.4261
0
ARC
8
0
10
1202.2075
20
-254.5886
30
0
40
2.2500
50
23.4261
51
203.4261
0
LINE
8
0
10
1255.9556
20
-372.9786
30
0
11
1257.7447
21
-377.1077
31
0
0
LINE
8
0
10
1251.8265
20
-374.7676
30
0
11
1253.6156
21
-378.8967
31
0
0
ARC
8
0
10
1255.6801
20
-378.0022
30
0
40
2.2500
50
203.4261
51
23.4261
0
ARC
8
0
10
1253.8911
20
-373.8731
30
0
40
2.2500
50
23.4261
51
203.4261
0
LINE
8
0
10
1307.6392
20
-492.2631
30
0
11
1309.4283
21
-496.3922
31
0
0
LINE
8
0
10
1303.5101
20
-494.0522
30
0
11
1305.2992
21
-498.1813
31
0
0
ARC
8
0
10
1307.3637
20
-497.2867
30
0
40
2.2500
50
203.4261
51
23.4261
0
ARC
8
0
10
1305.5747
20
-493.1577
30
0
40
2.2500
50
23.4261
51
203.4261
0
LINE
8
0
10
1359.3228
20
-611.5477
30
0
11
1361.1119
21
-615.6768
31
0
0
LINE
8
0
10
1355.1937
20
-613.3367
30
0
11
1356.9828
21
-617.4658
31
0
0
ARC
8
0
10
1359.0473
20
-616.5713
30
0
40
2.2500
50
203.4261
51
23.4261
0
ARC
8
0
10
1357.2583
20
-612.4422
30
0
40
2.2500
50
23.4261
51
203.4261
0
LINE
8
0
10
1411.0064
20
-730.8322
30
0
11
1412.7955
21
-734.9613
31
0
0
LINE
8
0
10
1406.8774
20
-732.6213
30
0
11
1408.6664
21
-736.7504
31
0
0
ARC
8
0
10
1410.7309
20
-735.8559
30
0
40
2.2500
50
203.4261
51
23.4261
0
ARC
8
0
10
1408.9419
20
-731.7268
30
0
40
2.2500
50
23.4261
51
203.4261
0
LINE
8
0
10
1126.1070
20
0.0000
30
0
11
1117.1806
21
-21.2755
31
0
0
LINE
8
0
10
1117.1806
20
-21.2755
30
0
11
1599.9969
21
-654.3085
31
0
0
LINE
8
0
10
1599.9969
20
-654.3085
30
0
11
1622.1685
21
-650.3991
31
0
0
LINE
8
0
10
1622.1685
20
-650.3991
30
0
11
1645.1685
21
-650.3991
31
0
0
LINE
8
0
10
1645.1685
20
-650.3991
30
0
11
1662.1685
21
-644.3991
31
0
0
LINE
8
0
10
1662.1685
20
-644.3991
30
0
11
1662.1685
21
644.3991
31
0
0
LINE
8
0
10
1662.1685
20
644.3991
30
0
11
1645.1685
21
650.3991
31
0
0
LINE
8
0
10
1645.1685
20
650.3991
30
0
11
1622.1685
21
650.3991
31
0
0
LINE
8
0
10
1622.1685
20
650.3991
30
0
11
1599.9969
21
654.3085
31
0
0
LINE
8
0
10
1599.9969
20
654.3085
30
0
11
1117.1806
21
21.2755
31
0
0
LINE
8
0
10
1117.1806
20
21.2755
30
0
11
1126.1070
21
0.0000
31
0
0
CIRCLE
8
0
10
1597.1685
20
-325.0000
30
0
40
3.5000
0
CIRCLE
8
0
10
1557.1685
20
-325.0000
30
0
40
3.5000
0
CIRCLE
8
0
10
1597.1685
20
0.0000
30
0
40
3.5000
0
CIRCLE
8
0
10
1557.1685
20
0.0000
30
0
40
3.5000
0
CIRCLE
8
0
10
1597.1685
20
325.0000
30
0
40
3.5000
0
CIRCLE
8
0
10
1557.1685
20
325.0000
30
0
40
3.5000
0
CIRCLE
8
0
10
1127.4803
20
18.2901
30
0
40
2.2500
0
CIRCLE
8
0
10
1127.4803
20
-18.2901
30
0
40
2.2500
0
CIRCLE
8
0
10
1206.3181
20
121.6564
30
0
40
2.2500
0
CIRCLE
8
0
10
1206.3181
20
-121.6564
30
0
40
2.2500
0
CIRCLE
8
0
10
1285.1559
20
225.0227
30
0
40
2.2500
0
CIRCLE
8
0
10
1285.1559
20
-225.0227
30
0
40
2.2500
0
CIRCLE
8
0
10
1363.9937
20
328.3890
30
0
40
2.2500
0
CIRCLE
8
0
10
1363.9937
20
-328.3890
30
0
40
2.2500
0
CIRCLE
8
0
10
1442.8316
20
431.7554
30
0
40
2.2500
0
CIRCLE
8
0
10
1442.8316
20
-431.7554
30
0
40
2.2500
0
CIRCLE
8
0
10
1521.6694
20
535.1217
30
0
40
2.2500
0
CIRCLE
8
0
10
1521.6694
20
-535.1217
30
0
40
2.2500
0
CIRCLE
8
0
10
1600.5072
20
638.4880
30
0
40
2.2500
0
CIRCLE
8
0
10
1600.5072
20
-638.4880
30
0
40
2.2500
0
ENDSEC
0
EOF
