0
SECTION
2
HEADER
9
$ACADVER
1
AC1009
9
$INSUNITS
70
4
0
ENDSEC
0
SECTION
2
ENTITIES
0
LINE
8
0
10
135.7113
20
21.2755
30
0
11
-79.9964
21
304.0955
31
0
0
LINE
8
0
10
-79.9964
20
304.0955
30
0
11
-102.1679
21
300.1861
31
0
0
LINE
8
0
10
-102.1679
20
300.1861
30
0
11
-125.1679
21
300.1861
31
0
0
LINE
8
0
10
-125.1679
20
300.1861
30
0
11
-142.1679
21
294.1861
31
0
0
LINE
8
0
10
-142.1679
20
294.1861
30
0
11
-142.1679
21
-294.1861
31
0
0
LINE
8
0
10
-142.1679
20
-294.1861
30
0
11
-125.1679
21
-300.1861
31
0
0
LINE
8
0
10
-125.1679
20
-300.1861
30
0
11
-102.1679
21
-300.1861
31
0
0
LINE
8
0
10
-102.1679
20
-300.1861
30
0
11
-79.9964
21
-304.0955
31
0
0
LINE
8
0
10
-79.9964
20
-304.0955
30
0
11
135.7113
21
-21.2755
31
0
0
LINE
8
0
10
135.7113
20
-21.2755
30
0
11
126.7849
21
0.0000
31
0
0
LINE
8
0
10
126.7849
20
0.0000
30
0
11
135.7113
21
21.2755
31
0
0
CIRCLE
8
0
10
-77.1679
20
0.0000
30
0
40
3.5000
0
CIRCLE
8
0
10
-37.1679
20
0.0000
30
0
40
3.5000
0
CIRCLE
8
0
10
125.4117
20
18.2901
30
0
40
2.2500
0
CIRCLE
8
0
10
125.4117
20
-18.2901
30
0
40
2.2500
0
CIRCLE
8
0
10
56.5802
20
108.5368
30
0
40
2.2500
0
CIRCLE
8
0
10
56.5802
20
-108.5368
30
0
40
2.2500
0
CIRCLE
8
0
10
-12.2513
20
198.7836
30
0
40
2.2500
0
CIRCLE
8
0
10
-12.2513
20
-198.7836
30
0
40
2.2500
0
CIRCLE
8
0
10
-81.0828
20
289.0303
30
0
40
2.2500
0
CIRCLE
8
0
10
-81.0828
20
-289.0303
30
0
40
2.2500
0
LINE
8
0
10
6.0000
20
386.4142
30
0
11
0.0000
21
369.4142
31
0
0
LINE
8
0
10
0.0000
20
369.4142
30
0
11
0.0000
21
346.4142
31
0
0
LINE
8
0
10
0.0000
20
346.4142
30
0
11
150.0943
21
0.0000
31
0
0
LINE
8
0
10
150.0943
20
0.0000
30
0
11
0.0000
21
-346.4142
31
0
0
LINE
8
0
10
0.0000
20
-346.4142
30
0
11
0.0000
21
-369.4142
31
0
0
LINE
8
0
10
0.0000
20
-369.4142
30
0
11
6.0000
21
-386.4142
31
0
0
LINE
8
0
10
6.0000
20
-386.4142
30
0
11
1294.0000
21
-386.4142
31
0
0
LINE
8
0
10
1294.0000
20
-386.4142
30
0
11
1300.0000
21
-369.4142
31
0
0
LINE
8
0
10
1300.0000
20
-369.4142
30
0
11
1300.0000
21
-346.4142
31
0
0
LINE
8
0
10
1300.0000
20
-346.4142
30
0
11
1149.9057
21
0.0000
31
0
0
LINE
8
0
10
1149.9057
20
0.0000
30
0
11
1300.0000
21
346.4142
31
0
0
LINE
8
0
10
1300.0000
20
346.4142
30
0
11
1300.0000
21
369.4142
31
0
0
LINE
8
0
10
1300.0000
20
369.4142
30
0
11
1294.0000
21
386.4142
31
0
0
LINE
8
0
10
1294.0000
20
386.4142
30
0
11
6.0000
21
386.4142
31
0
0
CIRCLE
8
0
10
300.0000
20
321.4142
30
0
40
3.5000
0
CIRCLE
8
0
10
300.0000
20
281.4142
30
0
40
3.5000
0
CIRCLE
8
0
10
300.0000
20
-321.4142
30
0
40
3.5000
0
CIRCLE
8
0
10
300.0000
20
-281.4142
30
0
40
3.5000
0
CIRCLE
8
0
10
650.0000
20
321.4142
30
0
40
3.5000
0
CIRCLE
8
0
10
650.0000
20
281.4142
30
0
40
3.5000
0
CIRCLE
8
0
10
650.0000
20
-321.4142
30
0
40
3.5000
0
CIRCLE
8
0
10
650.0000
20
-281.4142
30
0
40
3.5000
0
CIRCLE
8
0
10
1000.0000
20
321.4142
30
0
40
3.5000
0
CIRCLE
8
0
10
1000.0000
20
281.4142
30
0
40
3.5000
0
CIRCLE
8
0
10
1000.0000
20
-321.4142
30
0
40
3.5000
0
CIRCLE
8
0
10
1000.0000
20
-281.4142
30
0
40
3.5000
0
LINE
8
0
10
151.9872
20
15.1249
30
0
11
150.1981
21
19.2540
31
0
0
LINE
8
0
10
156.1163
20
16.9140
30
0
11
154.3272
21
21.0431
31
0
0
ARC
8
0
10
152.2627
20
20.1485
30
0
40
2.2500
50
23.4261
51
203.4261
0
ARC
8
0
10
154.0517
20
16.0195
30
0
40
2.2500
50
203.4261
51
23.4261
0
LINE
8
0
10
106.8634
20
119.2695
30
0
11
105.0744
21
123.3986
31
0
0
LINE
8
0
10
110.9925
20
121.0586
30
0
11
109.2035
21
125.1877
31
0
0
ARC
8
0
10
107.1389
20
124.2931
30
0
40
2.2500
50
23.4261
51
203.4261
0
ARC
8
0
10
108.9280
20
120.1640
30
0
40
2.2500
50
203.4261
51
23.4261
0
LINE
8
0
10
61.7397
20
223.4141
30
0
11
59.9506
21
227.5432
31
0
0
LINE
8
0
10
65.8687
20
225.2032
30
0
11
64.0797
21
229.3322
31
0
0
ARC
8
0
10
62.0152
20
228.4377
30
0
40
2.2500
50
23.4261
51
203.4261
0
ARC
8
0
10
63.8042
20
224.3086
30
0
40
2.2500
50
203.4261
51
23.4261
0
LINE
8
0
10
16.6159
20
327.5587
30
0
11
14.8268
21
331.6878
31
0
0
LINE
8
0
10
20.7450
20
329.3477
30
0
11
18.9559
21
333.4768
31
0
0
ARC
8
0
10
16.8914
20
332.5823
30
0
40
2.2500
50
23.4261
51
203.4261
0
ARC
8
0
10
18.6804
20
328.4532
30
0
40
2.2500
50
203.4261
51
23.4261
0
LINE
8
0
10
156.1163
20
-16.9140
30
0
11
154.3272
21
-21.0431
31
0
0
LINE
8
0
10
151.9872
20
-15.1249
30
0
11
150.1981
21
-19.2540
31
0
0
ARC
8
0
10
152.2627
20
-20.1485
30
0
40
2.2500
50
156.5739
51
336.5739
0
ARC
8
0
10
154.0517
20
-16.0195
30
0
40
2.2500
50
336.5739
51
156.5739
0
LINE
8
0
10
110.9925
20
-121.0586
30
0
11
109.2035
21
-125.1877
31
0
0
LINE
8
0
10
106.8634
20
-119.2695
30
0
11
105.0744
21
-123.3986
31
0
0
ARC
8
0
10
107.1389
20
-124.2931
30
0
40
2.2500
50
156.5739
51
336.5739
0
ARC
8
0
10
108.9280
20
-120.1640
30
0
40
2.2500
50
336.5739
51
156.5739
0
LINE
8
0
10
65.8687
20
-225.2032
30
0
11
64.0797
21
-229.3322
31
0
0
LINE
8
0
10
61.7397
20
-223.4141
30
0
11
59.9506
21
-227.5432
31
0
0
ARC
8
0
10
62.0152
20
-228.4377
30
0
40
2.2500
50
156.5739
51
336.5739
0
ARC
8
0
10
63.8042
20
-224.3086
30
0
40
2.2500
50
336.5739
51
156.5739
0
LINE
8
0
10
20.7450
20
-329.3477
30
0
11
18.9559
21
-333.4768
31
0
0
LINE
8
0
10
16.6159
20
-327.5587
30
0
11
14.8268
21
-331.6878
31
0
0
ARC
8
0
10
16.8914
20
-332.5823
30
0
40
2.2500
50
156.5739
51
336.5739
0
ARC
8
0
10
18.6804
20
-328.4532
30
0
40
2.2500
50
336.5739
51
156.5739
0
LINE
8
0
10
1143.8837
20
16.9140
30
0
11
1145.6728
21
21.0431
31
0
0
LINE
8
0
10
1148.0128
20
15.1249
30
0
11
1149.8019
21
19.2540
31
0
0
ARC
8
0
10
1147.7373
20
20.1485
30
0
40
2.2500
50
336.5739
51
156.5739
0
ARC
8
0
10
1145.9483
20
16.0195
30
0
40
2.2500
50
156.5739
51
336.5739
0
LINE
8
0
10
1189.0075
20
121.0586
30
0
11
1190.7965
21
125.1877
31
0
0
LINE
8
0
10
1193.1366
20
119.2695
30
0
11
1194.9256
21
123.3986
31
0
0
ARC
8
0
10
1192.8611
20
124.2931
30
0
40
2.2500
50
336.5739
51
156.5739
0
ARC
8
0
10
1191.0720
20
120.1640
30
0
40
2.2500
50
156.5739
51
336.5739
0
LINE
8
0
10
1234.1313
20
225.2032
30
0
11
1235.9203
21
229.3322
31
0
0
LINE
8
0
10
1238.2603
20
223.4141
30
0
11
1240.0494
21
227.5432
31
0
0
ARC
8
0
10
1237.9848
20
228.4377
30
0
40
2.2500
50
336.5739
51
156.5739
0
ARC
8
0
10
1236.1958
20
224.3086
30
0
40
2.2500
50
156.5739
51
336.5739
0
LINE
8
0
10
1279.2550
20
329.3477
30
0
11
1281.0441
21
333.4768
31
0
0
LINE
8
0
10
1283.3841
20
327.5587
30
0
11
1285.1732
21
331.6878
31
0
0
ARC
8
0
10
1283.1086
20
332.5823
30
0
40
2.2500
50
336.5739
51
156.5739
0
ARC
8
0
10
1281.3196
20
328.4532
30
0
40
2.2500
50
156.5739
51
336.5739
0
LINE
8
0
10
1148.0128
20
-15.1249
30
0
11
1149.8019
21
-19.2540
31
0
0
LINE
8
0
10
1143.8837
20
-16.9140
30
0
11
1145.6728
21
-21.0431
31
0
0
ARC
8
0
10
1147.7373
20
-20.1485
30
0
40
2.2500
50
203.4261
51
23.4261
0
ARC
8
0
10
1145.9483
20
-16.0195
30
0
40
2.2500
50
23.4261
51
203.4261
0
LINE
8
0
10
1193.1366
20
-119.2695
30
0
11
1194.9256
21
-123.3986
31
0
0
LINE
8
0
10
1189.0075
20
-121.0586
30
0
11
1190.7965
21
-125.1877
31
0
0
ARC
8
0
10
1192.8611
20
-124.2931
30
0
40
2.2500
50
203.4261
51
23.4261
0
ARC
8
0
10
1191.0720
20
-120.1640
30
0
40
2.2500
50
23.4261
51
203.4261
0
LINE
8
0
10
1238.2603
20
-223.4141
30
0
11
1240.0494
21
-227.5432
31
0
0
LINE
8
0
10
1234.1313
20
-225.2032
30
0
11
1235.9203
21
-229.3322
31
0
0
ARC
8
0
10
1237.9848
20
-228.4377
30
0
40
2.2500
50
203.4261
51
23.4261
0
ARC
8
0
10
1236.1958
20
-224.3086
30
0
40
2.2500
50
23.4261
51
203.4261
0
LINE
8
0
10
1283.3841
20
-327.5587
30
0
11
1285.1732
21
-331.6878
31
0
0
LINE
8
0
10
1279.2550
20
-329.3477
30
0
11
1281.0441
21
-333.4768
31
0
0
ARC
8
0
10
1283.1086
20
-332.5823
30
0
40
2.2500
50
203.4261
51
23.4261
0
ARC
8
0
10
1281.3196
20
-328.4532
30
0
40
2.2500
50
23.4261
51
203.4261
0
LINE
8
0
10
1173.2151
20
0.0000
30
0
11
1164.2887
21
-21.2755
31
0
0
LINE
8
0
10
1164.2887
20
-21.2755
30
0
11
1379.9964
21
-304.0955
31
0
0
LINE
8
0
10
1379.9964
20
-304.0955
30
0
11
1402.1679
21
-300.1861
31
0
0
LINE
8
0
10
1402.1679
20
-300.1861
30
0
11
1425.1679
21
-300.1861
31
0
0
LINE
8
0
10
1425.1679
20
-300.1861
30
0
11
1442.1679
21
-294.1861
31
0
0
LINE
8
0
10
1442.1679
20
-294.1861
30
0
11
1442.1679
21
294.1861
31
0
0
LINE
8
0
10
1442.1679
20
294.1861
30
0
11
1425.1679
21
300.1861
31
0
0
LINE
8
0
10
1425.1679
20
300.1861
30
0
11
1402.1679
21
300.1861
31
0
0
LINE
8
0
10
1402.1679
20
300.1861
30
0
11
1379.9964
21
304.0955
31
0
0
LINE
8
0
10
1379.9964
20
304.0955
30
0
11
1164.2887
21
21.2755
31
0
0
LINE
8
0
10
1164.2887
20
21.2755
30
0
11
1173.2151
21
0.0000
31
0
0
CIRCLE
8
0
10
1377.1679
20
0.0000
30
0
40
3.5000
0
CIRCLE
8
0
10
1337.1679
20
0.0000
30
0
40
3.5000
0
CIRCLE
8
0
10
1174.5883
20
18.2901
30
0
40
2.2500
0
CIRCLE
8
0
10
1174.5883
20
-18.2901
30
0
40
2.2500
0
CIRCLE
8
0
10
1243.4198
20
108.5368
30
0
40
2.2500
0
CIRCLE
8
0
10
1243.4198
20
-108.5368
30
0
40
2.2500
0
CIRCLE
8
0
10
1312.2513
20
198.7836
30
0
40
2.2500
0
CIRCLE
8
0
10
1312.2513
20
-198.7836
30
0
40
2.2500
0
CIRCLE
8
0
10
1381.0828
20
289.0303
30
0
40
2.2500
0
CIRCLE
8
0
10
1381.0828
20
-289.0303
30
0
40
2.2500
0
ENDSEC
0
EOF
