0
SECTION
2
HEADER
9
$ACADVER
1
AC1009
9
$INSUNITS
70
4
0
ENDSEC
0
SECTION
2
ENTITIES
0
LINE
8
0
10
173.2345
20
21.2755
30
0
11
-99.7108
21
379.1412
31
0
0
LINE
8
0
10
-99.7108
20
379.1412
30
0
11
-121.8823
21
375.2317
31
0
0
LINE
8
0
10
-121.8823
20
375.2317
30
0
11
-144.8823
21
375.2317
31
0
0
LINE
8
0
10
-144.8823
20
375.2317
30
0
11
-161.8823
21
369.2317
31
0
0
LINE
8
0
10
-161.8823
20
369.2317
30
0
11
-161.8823
21
-369.2317
31
0
0
LINE
8
0
10
-161.8823
20
-369.2317
30
0
11
-144.8823
21
-375.2317
31
0
0
LINE
8
0
10
-144.8823
20
-375.2317
30
0
11
-121.8823
21
-375.2317
31
0
0
LINE
8
0
10
-121.8823
20
-375.2317
30
0
11
-99.7108
21
-379.1412
31
0
0
LINE
8
0
10
-99.7108
20
-379.1412
30
0
11
173.2345
21
-21.2755
31
0
0
LINE
8
0
10
173.2345
20
-21.2755
30
0
11
164.3081
21
0.0000
31
0
0
LINE
8
0
10
164.3081
20
0.0000
30
0
11
173.2345
21
21.2755
31
0
0
CIRCLE
8
0
10
-96.8823
20
0.0000
30
0
40
3.5000
0
CIRCLE
8
0
10
-56.8823
20
0.0000
30
0
40
3.5000
0
CIRCLE
8
0
10
162.9348
20
18.2901
30
0
40
2.2500
0
CIRCLE
8
0
10
162.9348
20
-18.2901
30
0
40
2.2500
0
CIRCLE
8
0
10
75.0004
20
133.5833
30
0
40
2.2500
0
CIRCLE
8
0
10
75.0004
20
-133.5833
30
0
40
2.2500
0
CIRCLE
8
0
10
-12.9341
20
248.8765
30
0
40
2.2500
0
CIRCLE
8
0
10
-12.9341
20
-248.8765
30
0
40
2.2500
0
CIRCLE
8
0
10
-100.8686
20
364.1697
30
0
40
2.2500
0
CIRCLE
8
0
10
-100.8686
20
-364.1697
30
0
40
2.2500
0
LINE
8
0
10
6.0000
20
473.0167
30
0
11
0.0000
21
456.0167
31
0
0
LINE
8
0
10
0.0000
20
456.0167
30
0
11
0.0000
21
433.0167
31
0
0
LINE
8
0
10
0.0000
20
433.0167
30
0
11
187.6175
21
0.0000
31
0
0
LINE
8
0
10
187.6175
20
0.0000
30
0
11
0.0000
21
-433.0167
31
0
0
LINE
8
0
10
0.0000
20
-433.0167
30
0
11
0.0000
21
-456.0167
31
0
0
LINE
8
0
10
0.0000
20
-456.0167
30
0
11
6.0000
21
-473.0167
31
0
0
LINE
8
0
10
6.0000
20
-473.0167
30
0
11
1294.0000
21
-473.0167
31
0
0
LINE
8
0
10
1294.0000
20
-473.0167
30
0
11
1300.0000
21
-456.0167
31
0
0
LINE
8
0
10
1300.0000
20
-456.0167
30
0
11
1300.0000
21
-433.0167
31
0
0
LINE
8
0
10
1300.0000
20
-433.0167
30
0
11
1112.3825
21
0.0000
31
0
0
LINE
8
0
10
1112.3825
20
0.0000
30
0
11
1300.0000
21
433.0167
31
0
0
LINE
8
0
10
1300.0000
20
433.0167
30
0
11
1300.0000
21
456.0167
31
0
0
LINE
8
0
10
1300.0000
20
456.0167
30
0
11
1294.0000
21
473.0167
31
0
0
LINE
8
0
10
1294.0000
20
473.0167
30
0
11
6.0000
21
473.0167
31
0
0
CIRCLE
8
0
10
300.0000
20
408.0167
30
0
40
3.5000
0
CIRCLE
8
0
10
300.0000
20
368.0167
30
0
40
3.5000
0
CIRCLE
8
0
10
300.0000
20
-408.0167
30
0
40
3.5000
0
CIRCLE
8
0
10
300.0000
20
-368.0167
30
0
40
3.5000
0
CIRCLE
8
0
10
650.0000
20
408.0167
30
0
40
3.5000
0
CIRCLE
8
0
10
650.0000
20
368.0167
30
0
40
3.5000
0
CIRCLE
8
0
10
650.0000
20
-408.0167
30
0
40
3.5000
0
CIRCLE
8
0
10
650.0000
20
-368.0167
30
0
40
3.5000
0
CIRCLE
8
0
10
1000.0000
20
408.0167
30
0
40
3.5000
0
CIRCLE
8
0
10
1000.0000
20
368.0167
30
0
40
3.5000
0
CIRCLE
8
0
10
1000.0000
20
-408.0167
30
0
40
3.5000
0
CIRCLE
8
0
10
1000.0000
20
-368.0167
30
0
40
3.5000
0
LINE
8
0
10
189.5103
20
15.1249
30
0
11
187.7213
21
19.2540
31
0
0
LINE
8
0
10
193.6394
20
16.9140
30
0
11
191.8504
21
21.0431
31
0
0
ARC
8
0
10
189.7858
20
20.1485
30
0
40
2.2500
50
23.4261
51
203.4261
0
ARC
8
0
10
191.5749
20
16.0195
30
0
40
2.2500
50
203.4261
51
23.4261
0
LINE
8
0
10
131.8632
20
148.1731
30
0
11
130.0742
21
152.3022
31
0
0
LINE
8
0
10
135.9923
20
149.9621
30
0
11
134.2033
21
154.0912
31
0
0
ARC
8
0
10
132.1387
20
153.1967
30
0
40
2.2500
50
23.4261
51
203.4261
0
ARC
8
0
10
133.9278
20
149.0676
30
0
40
2.2500
50
203.4261
51
23.4261
0
LINE
8
0
10
74.2161
20
281.2212
30
0
11
72.4271
21
285.3503
31
0
0
LINE
8
0
10
78.3452
20
283.0103
30
0
11
76.5562
21
287.1394
31
0
0
ARC
8
0
10
74.4916
20
286.2448
30
0
40
2.2500
50
23.4261
51
203.4261
0
ARC
8
0
10
76.2807
20
282.1158
30
0
40
2.2500
50
203.4261
51
23.4261
0
LINE
8
0
10
16.5690
20
414.2694
30
0
11
14.7800
21
418.3985
31
0
0
LINE
8
0
10
20.6981
20
416.0584
30
0
11
18.9091
21
420.1875
31
0
0
ARC
8
0
10
16.8445
20
419.2930
30
0
40
2.2500
50
23.4261
51
203.4261
0
ARC
8
0
10
18.6336
20
415.1639
30
0
40
2.2500
50
203.4261
51
23.4261
0
LINE
8
0
10
193.6394
20
-16.9140
30
0
11
191.8504
21
-21.0431
31
0
0
LINE
8
0
10
189.5103
20
-15.1249
30
0
11
187.7213
21
-19.2540
31
0
0
ARC
8
0
10
189.7858
20
-20.1485
30
0
40
2.2500
50
156.5739
51
336.5739
0
ARC
8
0
10
191.5749
20
-16.0195
30
0
40
2.2500
50
336.5739
51
156.5739
0
LINE
8
0
10
135.9923
20
-149.9621
30
0
11
134.2033
21
-154.0912
31
0
0
LINE
8
0
10
131.8632
20
-148.1731
30
0
11
130.0742
21
-152.3022
31
0
0
ARC
8
0
10
132.1387
20
-153.1967
30
0
40
2.2500
50
156.5739
51
336.5739
0
ARC
8
0
10
133.9278
20
-149.0676
30
0
40
2.2500
50
336.5739
51
156.5739
0
LINE
8
0
10
78.3452
20
-283.0103
30
0
11
76.5562
21
-287.1394
31
0
0
LINE
8
0
10
74.2161
20
-281.2212
30
0
11
72.4271
21
-285.3503
31
0
0
ARC
8
0
10
74.4916
20
-286.2448
30
0
40
2.2500
50
156.5739
51
336.5739
0
ARC
8
0
10
76.2807
20
-282.1158
30
0
40
2.2500
50
336.5739
51
156.5739
0
LINE
8
0
10
20.6981
20
-416.0584
30
0
11
18.9091
21
-420.1875
31
0
0
LINE
8
0
10
16.5690
20
-414.2694
30
0
11
14.7800
21
-418.3985
31
0
0
ARC
8
0
10
16.8445
20
-419.2930
30
0
40
2.2500
50
156.5739
51
336.5739
0
ARC
8
0
10
18.6336
20
-415.1639
30
0
40
2.2500
50
336.5739
51
156.5739
0
LINE
8
0
10
1106.3606
20
16.9140
30
0
11
1108.1496
21
21.0431
31
0
0
LINE
8
0
10
1110.4897
20
15.1249
30
0
11
1112.2787
21
19.2540
31
0
0
ARC
8
0
10
1110.2142
20
20.1485
30
0
40
2.2500
50
336.5739
51
156.5739
0
ARC
8
0
10
1108.4251
20
16.0195
30
0
40
2.2500
50
156.5739
51
336.5739
0
LINE
8
0
10
1164.0077
20
149.9621
30
0
11
1165.7967
21
154.0912
31
0
0
LINE
8
0
10
1168.1368
20
148.1731
30
0
11
1169.9258
21
152.3022
31
0
0
ARC
8
0
10
1167.8613
20
153.1967
30
0
40
2.2500
50
336.5739
51
156.5739
0
ARC
8
0
10
1166.0722
20
149.0676
30
0
40
2.2500
50
156.5739
51
336.5739
0
LINE
8
0
10
1221.6548
20
283.0103
30
0
11
1223.4438
21
287.1394
31
0
0
LINE
8
0
10
1225.7839
20
281.2212
30
0
11
1227.5729
21
285.3503
31
0
0
ARC
8
0
10
1225.5084
20
286.2448
30
0
40
2.2500
50
336.5739
51
156.5739
0
ARC
8
0
10
1223.7193
20
282.1158
30
0
40
2.2500
50
156.5739
51
336.5739
0
LINE
8
0
10
1279.3019
20
416.0584
30
0
11
1281.0909
21
420.1875
31
0
0
LINE
8
0
10
1283.4310
20
414.2694
30
0
11
1285.2200
21
418.3985
31
0
0
ARC
8
0
10
1283.1555
20
419.2930
30
0
40
2.2500
50
336.5739
51
156.5739
0
ARC
8
0
10
1281.3664
20
415.1639
30
0
40
2.2500
50
156.5739
51
336.5739
0
LINE
8
0
10
1110.4897
20
-15.1249
30
0
11
1112.2787
21
-19.2540
31
0
0
LINE
8
0
10
1106.3606
20
-16.9140
30
0
11
1108.1496
21
-21.0431
31
0
0
ARC
8
0
10
1110.2142
20
-20.1485
30
0
40
2.2500
50
203.4261
51
23.4261
0
ARC
8
0
10
1108.4251
20
-16.0195
30
0
40
2.2500
50
23.4261
51
203.4261
0
LINE
8
0
10
1168.1368
20
-148.1731
30
0
11
1169.9258
21
-152.3022
31
0
0
LINE
8
0
10
1164.0077
20
-149.9621
30
0
11
1165.7967
21
-154.0912
31
0
0
ARC
8
0
10
1167.8613
20
-153.1967
30
0
40
2.2500
50
203.4261
51
23.4261
0
ARC
8
0
10
1166.0722
20
-149.0676
30
0
40
2.2500
50
23.4261
51
203.4261
0
LINE
8
0
10
1225.7839
20
-281.2212
30
0
11
1227.5729
21
-285.3503
31
0
0
LINE
8
0
10
1221.6548
20
-283.0103
30
0
11
1223.4438
21
-287.1394
31
0
0
ARC
8
0
10
1225.5084
20
-286.2448
30
0
40
2.2500
50
203.4261
51
23.4261
0
ARC
8
0
10
1223.7193
20
-282.1158
30
0
40
2.2500
50
23.4261
51
203.4261
0
LINE
8
0
10
1283.4310
20
-414.2694
30
0
11
1285.2200
21
-418.3985
31
0
0
LINE
8
0
10
1279.3019
20
-416.0584
30
0
11
1281.0909
21
-420.1875
31
0
0
ARC
8
0
10
1283.1555
20
-419.2930
30
0
40
2.2500
50
203.4261
51
23.4261
0
ARC
8
0
10
1281.3664
20
-415.1639
30
0
40
2.2500
50
23.4261
51
203.4261
0
LINE
8
0
10
1135.6919
20
0.0000
30
0
11
1126.7655
21
-21.2755
31
0
0
LINE
8
0
10
1126.7655
20
-21.2755
30
0
11
1399.7108
21
-379.1412
31
0
0
LINE
8
0
10
1399.7108
20
-379.1412
30
0
11
1421.8823
21
-375.2317
31
0
0
LINE
8
0
10
1421.8823
20
-375.2317
30
0
11
1444.8823
21
-375.2317
31
0
0
LINE
8
0
10
1444.8823
20
-375.2317
30
0
11
1461.8823
21
-369.2317
31
0
0
LINE
8
0
10
1461.8823
20
-369.2317
30
0
11
1461.8823
21
369.2317
31
0
0
LINE
8
0
10
1461.8823
20
369.2317
30
0
11
1444.8823
21
375.2317
31
0
0
LINE
8
0
10
1444.8823
20
375.2317
30
0
11
1421.8823
21
375.2317
31
0
0
LINE
8
0
10
1421.8823
20
375.2317
30
0
11
1399.7108
21
379.1412
31
0
0
LINE
8
0
10
1399.7108
20
379.1412
30
0
11
1126.7655
21
21.2755
31
0
0
LINE
8
0
10
1126.7655
20
21.2755
30
0
11
1135.6919
21
0.0000
31
0
0
CIRCLE
8
0
10
1396.8823
20
0.0000
30
0
40
3.5000
0
CIRCLE
8
0
10
1356.8823
20
0.0000
30
0
40
3.5000
0
CIRCLE
8
0
10
1137.0652
20
18.2901
30
0
40
2.2500
0
CIRCLE
8
0
10
1137.0652
20
-18.2901
30
0
40
2.2500
0
CIRCLE
8
0
10
1224.9996
20
133.5833
30
0
40
2.2500
0
CIRCLE
8
0
10
1224.9996
20
-133.5833
30
0
40
2.2500
0
CIRCLE
8
0
10
1312.9341
20
248.8765
30
0
40
2.2500
0
CIRCLE
8
0
10
1312.9341
20
-248.8765
30
0
40
2.2500
0
CIRCLE
8
0
10
1400.8686
20
364.1697
30
0
40
2.2500
0
CIRCLE
8
0
10
1400.8686
20
-364.1697
30
0
40
2.2500
0
ENDSEC
0
EOF
