0
SECTION
2
HEADER
9
$ACADVER
1
AC1009
9
$INSUNITS
70
4
0
ENDSEC
0
SECTION
2
ENTITIES
0
LINE
8
0
10
223.2654
20
21.2755
30
0
11
-125.9967
21
479.2020
31
0
0
LINE
8
0
10
-125.9967
20
479.2020
30
0
11
-148.1682
21
475.2926
31
0
0
LINE
8
0
10
-148.1682
20
475.2926
30
0
11
-171.1682
21
475.2926
31
0
0
LINE
8
0
10
-171.1682
20
475.2926
30
0
11
-188.1682
21
469.2926
31
0
0
LINE
8
0
10
-188.1682
20
469.2926
30
0
11
-188.1682
21
-469.2926
31
0
0
LINE
8
0
10
-188.1682
20
-469.2926
30
0
11
-171.1682
21
-475.2926
31
0
0
LINE
8
0
10
-171.1682
20
-475.2926
30
0
11
-148.1682
21
-475.2926
31
0
0
LINE
8
0
10
-148.1682
20
-475.2926
30
0
11
-125.9967
21
-479.2020
31
0
0
LINE
8
0
10
-125.9967
20
-479.2020
30
0
11
223.2654
21
-21.2755
31
0
0
LINE
8
0
10
223.2654
20
-21.2755
30
0
11
214.3390
21
0.0000
31
0
0
LINE
8
0
10
214.3390
20
0.0000
30
0
11
223.2654
21
21.2755
31
0
0
CIRCLE
8
0
10
-123.1682
20
-150.0000
30
0
40
3.5000
0
CIRCLE
8
0
10
-83.1682
20
-150.0000
30
0
40
3.5000
0
CIRCLE
8
0
10
-123.1682
20
150.0000
30
0
40
3.5000
0
CIRCLE
8
0
10
-83.1682
20
150.0000
30
0
40
3.5000
0
CIRCLE
8
0
10
212.9657
20
18.2901
30
0
40
2.2500
0
CIRCLE
8
0
10
212.9657
20
-18.2901
30
0
40
2.2500
0
CIRCLE
8
0
10
128.0634
20
129.6076
30
0
40
2.2500
0
CIRCLE
8
0
10
128.0634
20
-129.6076
30
0
40
2.2500
0
CIRCLE
8
0
10
43.1612
20
240.9252
30
0
40
2.2500
0
CIRCLE
8
0
10
43.1612
20
-240.9252
30
0
40
2.2500
0
CIRCLE
8
0
10
-41.7411
20
352.2428
30
0
40
2.2500
0
CIRCLE
8
0
10
-41.7411
20
-352.2428
30
0
40
2.2500
0
CIRCLE
8
0
10
-126.6434
20
463.5604
30
0
40
2.2500
0
CIRCLE
8
0
10
-126.6434
20
-463.5604
30
0
40
2.2500
0
LINE
8
0
10
6.0000
20
588.4868
30
0
11
0.0000
21
571.4868
31
0
0
LINE
8
0
10
0.0000
20
571.4868
30
0
11
0.0000
21
548.4868
31
0
0
LINE
8
0
10
0.0000
20
548.4868
30
0
11
237.6484
21
0.0000
31
0
0
LINE
8
0
10
237.6484
20
0.0000
30
0
11
0.0000
21
-548.4868
31
0
0
LINE
8
0
10
0.0000
20
-548.4868
30
0
11
0.0000
21
-571.4868
31
0
0
LINE
8
0
10
0.0000
20
-571.4868
30
0
11
6.0000
21
-588.4868
31
0
0
LINE
8
0
10
6.0000
20
-588.4868
30
0
11
1294.0000
21
-588.4868
31
0
0
LINE
8
0
10
1294.0000
20
-588.4868
30
0
11
1300.0000
21
-571.4868
31
0
0
LINE
8
0
10
1300.0000
20
-571.4868
30
0
11
1300.0000
21
-548.4868
31
0
0
LINE
8
0
10
1300.0000
20
-548.4868
30
0
11
1062.3516
21
0.0000
31
0
0
LINE
8
0
10
1062.3516
20
0.0000
30
0
11
1300.0000
21
548.4868
31
0
0
LINE
8
0
10
1300.0000
20
548.4868
30
0
11
1300.0000
21
571.4868
31
0
0
LINE
8
0
10
1300.0000
20
571.4868
30
0
11
1294.0000
21
588.4868
31
0
0
LINE
8
0
10
1294.0000
20
588.4868
30
0
11
6.0000
21
588.4868
31
0
0
CIRCLE
8
0
10
300.0000
20
523.4868
30
0
40
3.5000
0
CIRCLE
8
0
10
300.0000
20
483.4868
30
0
40
3.5000
0
CIRCLE
8
0
10
300.0000
20
-523.4868
30
0
40
3.5000
0
CIRCLE
8
0
10
300.0000
20
-483.4868
30
0
40
3.5000
0
CIRCLE
8
0
10
650.0000
20
523.4868
30
0
40
3.5000
0
CIRCLE
8
0
10
650.0000
20
483.4868
30
0
40
3.5000
0
CIRCLE
8
0
10
650.0000
20
-523.4868
30
0
40
3.5000
0
CIRCLE
8
0
10
650.0000
20
-483.4868
30
0
40
3.5000
0
CIRCLE
8
0
10
1000.0000
20
523.4868
30
0
40
3.5000
0
CIRCLE
8
0
10
1000.0000
20
483.4868
30
0
40
3.5000
0
CIRCLE
8
0
10
1000.0000
20
-523.4868
30
0
40
3.5000
0
CIRCLE
8
0
10
1000.0000
20
-483.4868
30
0
40
3.5000
0
LINE
8
0
10
239.5412
20
15.1249
30
0
11
237.7522
21
19.2540
31
0
0
LINE
8
0
10
243.6703
20
16.9140
30
0
11
241.8812
21
21.0431
31
0
0
ARC
8
0
10
239.8167
20
20.1485
30
0
40
2.2500
50
23.4261
51
203.4261
0
ARC
8
0
10
241.6058
20
16.0195
30
0
40
2.2500
50
203.4261
51
23.4261
0
LINE
8
0
10
183.8819
20
143.5852
30
0
11
182.0929
21
147.7143
31
0
0
LINE
8
0
10
188.0110
20
145.3743
30
0
11
186.2220
21
149.5033
31
0
0
ARC
8
0
10
184.1574
20
148.6088
30
0
40
2.2500
50
23.4261
51
203.4261
0
ARC
8
0
10
185.9465
20
144.4797
30
0
40
2.2500
50
203.4261
51
23.4261
0
LINE
8
0
10
128.2227
20
272.0455
30
0
11
126.4336
21
276.1746
31
0
0
LINE
8
0
10
132.3517
20
273.8346
30
0
11
130.5627
21
277.9636
31
0
0
ARC
8
0
10
128.4982
20
277.0691
30
0
40
2.2500
50
23.4261
51
203.4261
0
ARC
8
0
10
130.2872
20
272.9400
30
0
40
2.2500
50
203.4261
51
23.4261
0
LINE
8
0
10
72.5634
20
400.5058
30
0
11
70.7743
21
404.6349
31
0
0
LINE
8
0
10
76.6925
20
402.2948
30
0
11
74.9034
21
406.4239
31
0
0
ARC
8
0
10
72.8389
20
405.5294
30
0
40
2.2500
50
23.4261
51
203.4261
0
ARC
8
0
10
74.6279
20
401.4003
30
0
40
2.2500
50
203.4261
51
23.4261
0
LINE
8
0
10
16.9041
20
528.9661
30
0
11
15.1151
21
533.0952
31
0
0
LINE
8
0
10
21.0332
20
530.7551
30
0
11
19.2442
21
534.8842
31
0
0
ARC
8
0
10
17.1796
20
533.9897
30
0
40
2.2500
50
23.4261
51
203.4261
0
ARC
8
0
10
18.9687
20
529.8606
30
0
40
2.2500
50
203.4261
51
23.4261
0
LINE
8
0
10
243.6703
20
-16.9140
30
0
11
241.8812
21
-21.0431
31
0
0
LINE
8
0
10
239.5412
20
-15.1249
30
0
11
237.7522
21
-19.2540
31
0
0
ARC
8
0
10
239.8167
20
-20.1485
30
0
40
2.2500
50
156.5739
51
336.5739
0
ARC
8
0
10
241.6058
20
-16.0195
30
0
40
2.2500
50
336.5739
51
156.5739
0
LINE
8
0
10
188.0110
20
-145.3743
30
0
11
186.2220
21
-149.5033
31
0
0
LINE
8
0
10
183.8819
20
-143.5852
30
0
11
182.0929
21
-147.7143
31
0
0
ARC
8
0
10
184.1574
20
-148.6088
30
0
40
2.2500
50
156.5739
51
336.5739
0
ARC
8
0
10
185.9465
20
-144.4797
30
0
40
2.2500
50
336.5739
51
156.5739
0
LINE
8
0
10
132.3517
20
-273.8346
30
0
11
130.5627
21
-277.9636
31
0
0
LINE
8
0
10
128.2227
20
-272.0455
30
0
11
126.4336
21
-276.1746
31
0
0
ARC
8
0
10
128.4982
20
-277.0691
30
0
40
2.2500
50
156.5739
51
336.5739
0
ARC
8
0
10
130.2872
20
-272.9400
30
0
40
2.2500
50
336.5739
51
156.5739
0
LINE
8
0
10
76.6925
20
-402.2948
30
0
11
74.9034
21
-406.4239
31
0
0
LINE
8
0
10
72.5634
20
-400.5058
30
0
11
70.7743
21
-404.6349
31
0
0
ARC
8
0
10
72.8389
20
-405.5294
30
0
40
2.2500
50
156.5739
51
336.5739
0
ARC
8
0
10
74.6279
20
-401.4003
30
0
40
2.2500
50
336.5739
51
156.5739
0
LINE
8
0
10
21.0332
20
-530.7551
30
0
11
19.2442
21
-534.8842
31
0
0
LINE
8
0
10
16.9041
20
-528.9661
30
0
11
15.1151
21
-533.0952
31
0
0
ARC
8
0
10
17.1796
20
-533.9897
30
0
40
2.2500
50
156.5739
51
336.5739
0
ARC
8
0
10
18.9687
20
-529.8606
30
0
40
2.2500
50
336.5739
51
156.5739
0
LINE
8
0
10
1056.3297
20
16.9140
30
0
11
1058.1188
21
21.0431
31
0
0
LINE
8
0
10
1060.4588
20
15.1249
30
0
11
1062.2478
21
19.2540
31
0
0
ARC
8
0
10
1060.1833
20
20.1485
30
0
40
2.2500
50
336.5739
51
156.5739
0
ARC
8
0
10
1058.3942
20
16.0195
30
0
40
2.2500
50
156.5739
51
336.5739
0
LINE
8
0
10
1111.9890
20
145.3743
30
0
11
1113.7780
21
149.5033
31
0
0
LINE
8
0
10
1116.1181
20
143.5852
30
0
11
1117.9071
21
147.7143
31
0
0
ARC
8
0
10
1115.8426
20
148.6088
30
0
40
2.2500
50
336.5739
51
156.5739
0
ARC
8
0
10
1114.0535
20
144.4797
30
0
40
2.2500
50
156.5739
51
336.5739
0
LINE
8
0
10
1167.6483
20
273.8346
30
0
11
1169.4373
21
277.9636
31
0
0
LINE
8
0
10
1171.7773
20
272.0455
30
0
11
1173.5664
21
276.1746
31
0
0
ARC
8
0
10
1171.5018
20
277.0691
30
0
40
2.2500
50
336.5739
51
156.5739
0
ARC
8
0
10
1169.7128
20
272.9400
30
0
40
2.2500
50
156.5739
51
336.5739
0
LINE
8
0
10
1223.3075
20
402.2948
30
0
11
1225.0966
21
406.4239
31
0
0
LINE
8
0
10
1227.4366
20
400.5058
30
0
11
1229.2257
21
404.6349
31
0
0
ARC
8
0
10
1227.1611
20
405.5294
30
0
40
2.2500
50
336.5739
51
156.5739
0
ARC
8
0
10
1225.3721
20
401.4003
30
0
40
2.2500
50
156.5739
51
336.5739
0
LINE
8
0
10
1278.9668
20
530.7551
30
0
11
1280.7558
21
534.8842
31
0
0
LINE
8
0
10
1283.0959
20
528.9661
30
0
11
1284.8849
21
533.0952
31
0
0
ARC
8
0
10
1282.8204
20
533.9897
30
0
40
2.2500
50
336.5739
51
156.5739
0
ARC
8
0
10
1281.0313
20
529.8606
30
0
40
2.2500
50
156.5739
51
336.5739
0
LINE
8
0
10
1060.4588
20
-15.1249
30
0
11
1062.2478
21
-19.2540
31
0
0
LINE
8
0
10
1056.3297
20
-16.9140
30
0
11
1058.1188
21
-21.0431
31
0
0
ARC
8
0
10
1060.1833
20
-20.1485
30
0
40
2.2500
50
203.4261
51
23.4261
0
ARC
8
0
10
1058.3942
20
-16.0195
30
0
40
2.2500
50
23.4261
51
203.4261
0
LINE
8
0
10
1116.1181
20
-143.5852
30
0
11
1117.9071
21
-147.7143
31
0
0
LINE
8
0
10
1111.9890
20
-145.3743
30
0
11
1113.7780
21
-149.5033
31
0
0
ARC
8
0
10
1115.8426
20
-148.6088
30
0
40
2.2500
50
203.4261
51
23.4261
0
ARC
8
0
10
1114.0535
20
-144.4797
30
0
40
2.2500
50
23.4261
51
203.4261
0
LINE
8
0
10
1171.7773
20
-272.0455
30
0
11
1173.5664
21
-276.1746
31
0
0
LINE
8
0
10
1167.6483
20
-273.8346
30
0
11
1169.4373
21
-277.9636
31
0
0
ARC
8
0
10
1171.5018
20
-277.0691
30
0
40
2.2500
50
203.4261
51
23.4261
0
ARC
8
0
10
1169.7128
20
-272.9400
30
0
40
2.2500
50
23.4261
51
203.4261
0
LINE
8
0
10
1227.4366
20
-400.5058
30
0
11
1229.2257
21
-404.6349
31
0
0
LINE
8
0
10
1223.3075
20
-402.2948
30
0
11
1225.0966
21
-406.4239
31
0
0
ARC
8
0
10
1227.1611
20
-405.5294
30
0
40
2.2500
50
203.4261
51
23.4261
0
ARC
8
0
10
1225.3721
20
-401.4003
30
0
40
2.2500
50
23.4261
51
203.4261
0
LINE
8
0
10
1283.0959
20
-528.9661
30
0
11
1284.8849
21
-533.0952
31
0
0
LINE
8
0
10
1278.9668
20
-530.7551
30
0
11
1280.7558
21
-534.8842
31
0
0
ARC
8
0
10
1282.8204
20
-533.9897
30
0
40
2.2500
50
203.4261
51
23.4261
0
ARC
8
0
10
1281.0313
20
-529.8606
30
0
40
2.2500
50
23.4261
51
203.4261
0
LINE
8
0
10
1085.6610
20
0.0000
30
0
11
1076.7346
21
-21.2755
31
0
0
LINE
8
0
10
1076.7346
20
-21.2755
30
0
11
1425.9967
21
-479.2020
31
0
0
LINE
8
0
10
1425.9967
20
-479.2020
30
0
11
1448.1682
21
-475.2926
31
0
0
LINE
8
0
10
1448.1682
20
-475.2926
30
0
11
1471.1682
21
-475.2926
31
0
0
LINE
8
0
10
1471.1682
20
-475.2926
30
0
11
1488.1682
21
-469.2926
31
0
0
LINE
8
0
10
1488.1682
20
-469.2926
30
0
11
1488.1682
21
469.2926
31
0
0
LINE
8
0
10
1488.1682
20
469.2926
30
0
11
1471.1682
21
475.2926
31
0
0
LINE
8
0
10
1471.1682
20
475.2926
30
0
11
1448.1682
21
475.2926
31
0
0
LINE
8
0
10
1448.1682
20
475.2926
30
0
11
1425.9967
21
479.2020
31
0
0
LINE
8
0
10
1425.9967
20
479.2020
30
0
11
1076.7346
21
21.2755
31
0
0
LINE
8
0
10
1076.7346
20
21.2755
30
0
11
1085.6610
21
0.0000
31
0
0
CIRCLE
8
0
10
1423.1682
20
-150.0000
30
0
40
3.5000
0
CIRCLE
8
0
10
1383.1682
20
-150.0000
30
0
40
3.5000
0
CIRCLE
8
0
10
1423.1682
20
150.0000
30
0
40
3.5000
0
CIRCLE
8
0
10
1383.1682
20
150.0000
30
0
40
3.5000
0
CIRCLE
8
0
10
1087.0343
20
18.2901
30
0
40
2.2500
0
CIRCLE
8
0
10
1087.0343
20
-18.2901
30
0
40
2.2500
0
CIRCLE
8
0
10
1171.9366
20
129.6076
30
0
40
2.2500
0
CIRCLE
8
0
10
1171.9366
20
-129.6076
30
0
40
2.2500
0
CIRCLE
8
0
10
1256.8388
20
240.9252
30
0
40
2.2500
0
CIRCLE
8
0
10
1256.8388
20
-240.9252
30
0
40
2.2500
0
CIRCLE
8
0
10
1341.7411
20
352.2428
30
0
40
2.2500
0
CIRCLE
8
0
10
1341.7411
20
-352.2428
30
0
40
2.2500
0
CIRCLE
8
0
10
1426.6434
20
463.5604
30
0
40
2.2500
0
CIRCLE
8
0
10
1426.6434
20
-463.5604
30
0
40
2.2500
0
ENDSEC
0
EOF
