0
SECTION
2
HEADER
9
$ACADVER
1
AC1009
9
$INSUNITS
70
4
0
ENDSEC
0
SECTION
2
ENTITIES
0
LINE
8
0
10
260.7885
20
21.2755
30
0
11
-145.7111
21
554.2477
31
0
0
LINE
8
0
10
-145.7111
20
554.2477
30
0
11
-167.8826
21
550.3382
31
0
0
LINE
8
0
10
-167.8826
20
550.3382
30
0
11
-190.8826
21
550.3382
31
0
0
LINE
8
0
10
-190.8826
20
550.3382
30
0
11
-207.8826
21
544.3382
31
0
0
LINE
8
0
10
-207.8826
20
544.3382
30
0
11
-207.8826
21
-544.3382
31
0
0
LINE
8
0
10
-207.8826
20
-544.3382
30
0
11
-190.8826
21
-550.3382
31
0
0
LINE
8
0
10
-190.8826
20
-550.3382
30
0
11
-167.8826
21
-550.3382
31
0
0
LINE
8
0
10
-167.8826
20
-550.3382
30
0
11
-145.7111
21
-554.2477
31
0
0
LINE
8
0
10
-145.7111
20
-554.2477
30
0
11
260.7885
21
-21.2755
31
0
0
LINE
8
0
10
260.7885
20
-21.2755
30
0
11
251.8621
21
0.0000
31
0
0
LINE
8
0
10
251.8621
20
0.0000
30
0
11
260.7885
21
21.2755
31
0
0
CIRCLE
8
0
10
-142.8826
20
-200.0000
30
0
40
3.5000
0
CIRCLE
8
0
10
-102.8826
20
-200.0000
30
0
40
3.5000
0
CIRCLE
8
0
10
-142.8826
20
200.0000
30
0
40
3.5000
0
CIRCLE
8
0
10
-102.8826
20
200.0000
30
0
40
3.5000
0
CIRCLE
8
0
10
250.4889
20
18.2901
30
0
40
2.2500
0
CIRCLE
8
0
10
250.4889
20
-18.2901
30
0
40
2.2500
0
CIRCLE
8
0
10
171.6510
20
121.6564
30
0
40
2.2500
0
CIRCLE
8
0
10
171.6510
20
-121.6564
30
0
40
2.2500
0
CIRCLE
8
0
10
92.8132
20
225.0227
30
0
40
2.2500
0
CIRCLE
8
0
10
92.8132
20
-225.0227
30
0
40
2.2500
0
CIRCLE
8
0
10
13.9754
20
328.3890
30
0
40
2.2500
0
CIRCLE
8
0
10
13.9754
20
-328.3890
30
0
40
2.2500
0
CIRCLE
8
0
10
-64.8624
20
431.7554
30
0
40
2.2500
0
CIRCLE
8
0
10
-64.8624
20
-431.7554
30
0
40
2.2500
0
CIRCLE
8
0
10
-143.7003
20
535.1217
30
0
40
2.2500
0
CIRCLE
8
0
10
-143.7003
20
-535.1217
30
0
40
2.2500
0
LINE
8
0
10
6.0000
20
675.0893
30
0
11
0.0000
21
658.0893
31
0
0
LINE
8
0
10
0.0000
20
658.0893
30
0
11
0.0000
21
635.0893
31
0
0
LINE
8
0
10
0.0000
20
635.0893
30
0
11
275.1715
21
0.0000
31
0
0
LINE
8
0
10
275.1715
20
0.0000
30
0
11
0.0000
21
-635.0893
31
0
0
LINE
8
0
10
0.0000
20
-635.0893
30
0
11
0.0000
21
-658.0893
31
0
0
LINE
8
0
10
0.0000
20
-658.0893
30
0
11
6.0000
21
-675.0893
31
0
0
LINE
8
0
10
6.0000
20
-675.0893
30
0
11
650.0000
21
-675.0893
31
0
0
LINE
8
0
10
650.0000
20
-675.0893
30
0
11
650.0000
21
-633.0893
31
0
0
LINE
8
0
10
650.0000
20
-633.0893
30
0
11
664.0000
21
-633.0893
31
0
0
LINE
8
0
10
664.0000
20
-633.0893
30
0
11
664.0000
21
-15.0000
31
0
0
LINE
8
0
10
664.0000
20
-15.0000
30
0
11
649.0000
21
0.0000
31
0
0
LINE
8
0
10
649.0000
20
0.0000
30
0
11
664.0000
21
15.0000
31
0
0
LINE
8
0
10
664.0000
20
15.0000
30
0
11
664.0000
21
633.0893
31
0
0
LINE
8
0
10
664.0000
20
633.0893
30
0
11
650.0000
21
633.0893
31
0
0
LINE
8
0
10
650.0000
20
633.0893
30
0
11
650.0000
21
675.0893
31
0
0
LINE
8
0
10
650.0000
20
675.0893
30
0
11
6.0000
21
675.0893
31
0
0
CIRCLE
8
0
10
300.0000
20
610.0893
30
0
40
3.5000
0
CIRCLE
8
0
10
300.0000
20
570.0893
30
0
40
3.5000
0
CIRCLE
8
0
10
300.0000
20
-610.0893
30
0
40
3.5000
0
CIRCLE
8
0
10
300.0000
20
-570.0893
30
0
40
3.5000
0
CIRCLE
8
0
10
533.3333
20
610.0893
30
0
40
3.5000
0
CIRCLE
8
0
10
533.3333
20
570.0893
30
0
40
3.5000
0
CIRCLE
8
0
10
533.3333
20
-610.0893
30
0
40
3.5000
0
CIRCLE
8
0
10
533.3333
20
-570.0893
30
0
40
3.5000
0
LINE
8
0
10
277.0644
20
15.1249
30
0
11
275.2753
21
19.2540
31
0
0
LINE
8
0
10
281.1934
20
16.9140
30
0
11
279.4044
21
21.0431
31
0
0
ARC
8
0
10
277.3399
20
20.1485
30
0
40
2.2500
50
23.4261
51
203.4261
0
ARC
8
0
10
279.1289
20
16.0195
30
0
40
2.2500
50
203.4261
51
23.4261
0
LINE
8
0
10
225.3807
20
134.4095
30
0
11
223.5917
21
138.5386
31
0
0
LINE
8
0
10
229.5098
20
136.1985
30
0
11
227.7208
21
140.3276
31
0
0
ARC
8
0
10
225.6562
20
139.4331
30
0
40
2.2500
50
23.4261
51
203.4261
0
ARC
8
0
10
227.4453
20
135.3040
30
0
40
2.2500
50
203.4261
51
23.4261
0
LINE
8
0
10
173.6971
20
253.6940
30
0
11
171.9081
21
257.8231
31
0
0
LINE
8
0
10
177.8262
20
255.4831
30
0
11
176.0372
21
259.6122
31
0
0
ARC
8
0
10
173.9726
20
258.7176
30
0
40
2.2500
50
23.4261
51
203.4261
0
ARC
8
0
10
175.7617
20
254.5886
30
0
40
2.2500
50
203.4261
51
23.4261
0
LINE
8
0
10
122.0135
20
372.9786
30
0
11
120.2245
21
377.1077
31
0
0
LINE
8
0
10
126.1426
20
374.7676
30
0
11
124.3536
21
378.8967
31
0
0
ARC
8
0
10
122.2890
20
378.0022
30
0
40
2.2500
50
23.4261
51
203.4261
0
ARC
8
0
10
124.0781
20
373.8731
30
0
40
2.2500
50
203.4261
51
23.4261
0
LINE
8
0
10
70.3299
20
492.2631
30
0
11
68.5409
21
496.3922
31
0
0
LINE
8
0
10
74.4590
20
494.0522
30
0
11
72.6699
21
498.1813
31
0
0
ARC
8
0
10
70.6054
20
497.2867
30
0
40
2.2500
50
23.4261
51
203.4261
0
ARC
8
0
10
72.3945
20
493.1577
30
0
40
2.2500
50
203.4261
51
23.4261
0
LINE
8
0
10
18.6463
20
611.5477
30
0
11
16.8573
21
615.6768
31
0
0
LINE
8
0
10
22.7754
20
613.3367
30
0
11
20.9863
21
617.4658
31
0
0
ARC
8
0
10
18.9218
20
616.5713
30
0
40
2.2500
50
23.4261
51
203.4261
0
ARC
8
0
10
20.7108
20
612.4422
30
0
40
2.2500
50
203.4261
51
23.4261
0
LINE
8
0
10
281.1934
20
-16.9140
30
0
11
279.4044
21
-21.0431
31
0
0
LINE
8
0
10
277.0644
20
-15.1249
30
0
11
275.2753
21
-19.2540
31
0
0
ARC
8
0
10
277.3399
20
-20.1485
30
0
40
2.2500
50
156.5739
51
336.5739
0
ARC
8
0
10
279.1289
20
-16.0195
30
0
40
2.2500
50
336.5739
51
156.5739
0
LINE
8
0
10
229.5098
20
-136.1985
30
0
11
227.7208
21
-140.3276
31
0
0
LINE
8
0
10
225.3807
20
-134.4095
30
0
11
223.5917
21
-138.5386
31
0
0
ARC
8
0
10
225.6562
20
-139.4331
30
0
40
2.2500
50
156.5739
51
336.5739
0
ARC
8
0
10
227.4453
20
-135.3040
30
0
40
2.2500
50
336.5739
51
156.5739
0
LINE
8
0
10
177.8262
20
-255.4831
30
0
11
176.0372
21
-259.6122
31
0
0
LINE
8
0
10
173.6971
20
-253.6940
30
0
11
171.9081
21
-257.8231
31
0
0
ARC
8
0
10
173.9726
20
-258.7176
30
0
40
2.2500
50
156.5739
51
336.5739
0
ARC
8
0
10
175.7617
20
-254.5886
30
0
40
2.2500
50
336.5739
51
156.5739
0
LINE
8
0
10
126.1426
20
-374.7676
30
0
11
124.3536
21
-378.8967
31
0
0
LINE
8
0
10
122.0135
20
-372.9786
30
0
11
120.2245
21
-377.1077
31
0
0
ARC
8
0
10
122.2890
20
-378.0022
30
0
40
2.2500
50
156.5739
51
336.5739
0
ARC
8
0
10
124.0781
20
-373.8731
30
0
40
2.2500
50
336.5739
51
156.5739
0
LINE
8
0
10
74.4590
20
-494.0522
30
0
11
72.6699
21
-498.1813
31
0
0
LINE
8
0
10
70.3299
20
-492.2631
30
0
11
68.5409
21
-496.3922
31
0
0
ARC
8
0
10
70.6054
20
-497.2867
30
0
40
2.2500
50
156.5739
51
336.5739
0
ARC
8
0
10
72.3945
20
-493.1577
30
0
40
2.2500
50
336.5739
51
156.5739
0
LINE
8
0
10
22.7754
20
-613.3367
30
0
11
20.9863
21
-617.4658
31
0
0
LINE
8
0
10
18.6463
20
-611.5477
30
0
11
16.8573
21
-615.6768
31
0
0
ARC
8
0
10
18.9218
20
-616.5713
30
0
40
2.2500
50
156.5739
51
336.5739
0
ARC
8
0
10
20.7108
20
-612.4422
30
0
40
2.2500
50
336.5739
51
156.5739
0
LINE
8
0
10
778.0000
20
675.0893
30
0
11
778.0000
21
633.0893
31
0
0
LINE
8
0
10
778.0000
20
633.0893
30
0
11
764.0000
21
633.0893
31
0
0
LINE
8
0
10
764.0000
20
633.0893
30
0
11
764.0000
21
15.0000
31
0
0
LINE
8
0
10
764.0000
20
15.0000
30
0
11
779.0000
21
0.0000
31
0
0
LINE
8
0
10
779.0000
20
0.0000
30
0
11
764.0000
21
-15.0000
31
0
0
LINE
8
0
10
764.0000
20
-15.0000
30
0
11
764.0000
21
-633.0893
31
0
0
LINE
8
0
10
764.0000
20
-633.0893
30
0
11
778.0000
21
-633.0893
31
0
0
LINE
8
0
10
778.0000
20
-633.0893
30
0
11
778.0000
21
-675.0893
31
0
0
LINE
8
0
10
778.0000
20
-675.0893
30
0
11
1422.0000
21
-675.0893
31
0
0
LINE
8
0
10
1422.0000
20
-675.0893
30
0
11
1428.0000
21
-658.0893
31
0
0
LINE
8
0
10
1428.0000
20
-658.0893
30
0
11
1428.0000
21
-635.0893
31
0
0
LINE
8
0
10
1428.0000
20
-635.0893
30
0
11
1152.8285
21
0.0000
31
0
0
LINE
8
0
10
1152.8285
20
0.0000
30
0
11
1428.0000
21
635.0893
31
0
0
LINE
8
0
10
1428.0000
20
635.0893
30
0
11
1428.0000
21
658.0893
31
0
0
LINE
8
0
10
1428.0000
20
658.0893
30
0
11
1422.0000
21
675.0893
31
0
0
LINE
8
0
10
1422.0000
20
675.0893
30
0
11
778.0000
21
675.0893
31
0
0
CIRCLE
8
0
10
894.6667
20
610.0893
30
0
40
3.5000
0
CIRCLE
8
0
10
894.6667
20
570.0893
30
0
40
3.5000
0
CIRCLE
8
0
10
894.6667
20
-610.0893
30
0
40
3.5000
0
CIRCLE
8
0
10
894.6667
20
-570.0893
30
0
40
3.5000
0
CIRCLE
8
0
10
1128.0000
20
610.0893
30
0
40
3.5000
0
CIRCLE
8
0
10
1128.0000
20
570.0893
30
0
40
3.5000
0
CIRCLE
8
0
10
1128.0000
20
-610.0893
30
0
40
3.5000
0
CIRCLE
8
0
10
1128.0000
20
-570.0893
30
0
40
3.5000
0
LINE
8
0
10
1146.8066
20
16.9140
30
0
11
1148.5956
21
21.0431
31
0
0
LINE
8
0
10
1150.9356
20
15.1249
30
0
11
1152.7247
21
19.2540
31
0
0
ARC
8
0
10
1150.6601
20
20.1485
30
0
40
2.2500
50
336.5739
51
156.5739
0
ARC
8
0
10
1148.8711
20
16.0195
30
0
40
2.2500
50
156.5739
51
336.5739
0
LINE
8
0
10
1198.4902
20
136.1985
30
0
11
1200.2792
21
140.3276
31
0
0
LINE
8
0
10
1202.6193
20
134.4095
30
0
11
1204.4083
21
138.5386
31
0
0
ARC
8
0
10
1202.3438
20
139.4331
30
0
40
2.2500
50
336.5739
51
156.5739
0
ARC
8
0
10
1200.5547
20
135.3040
30
0
40
2.2500
50
156.5739
51
336.5739
0
LINE
8
0
10
1250.1738
20
255.4831
30
0
11
1251.9628
21
259.6122
31
0
0
LINE
8
0
10
1254.3029
20
253.6940
30
0
11
1256.0919
21
257.8231
31
0
0
ARC
8
0
10
1254.0274
20
258.7176
30
0
40
2.2500
50
336.5739
51
156.5739
0
ARC
8
0
10
1252.2383
20
254.5886
30
0
40
2.2500
50
156.5739
51
336.5739
0
LINE
8
0
10
1301.8574
20
374.7676
30
0
11
1303.6464
21
378.8967
31
0
0
LINE
8
0
10
1305.9865
20
372.9786
30
0
11
1307.7755
21
377.1077
31
0
0
ARC
8
0
10
1305.7110
20
378.0022
30
0
40
2.2500
50
336.5739
51
156.5739
0
ARC
8
0
10
1303.9219
20
373.8731
30
0
40
2.2500
50
156.5739
51
336.5739
0
LINE
8
0
10
1353.5410
20
494.0522
30
0
11
1355.3301
21
498.1813
31
0
0
LINE
8
0
10
1357.6701
20
492.2631
30
0
11
1359.4591
21
496.3922
31
0
0
ARC
8
0
10
1357.3946
20
497.2867
30
0
40
2.2500
50
336.5739
51
156.5739
0
ARC
8
0
10
1355.6055
20
493.1577
30
0
40
2.2500
50
156.5739
51
336.5739
0
LINE
8
0
10
1405.2246
20
613.3367
30
0
11
1407.0137
21
617.4658
31
0
0
LINE
8
0
10
1409.3537
20
611.5477
30
0
11
1411.1427
21
615.6768
31
0
0
ARC
8
0
10
1409.0782
20
616.5713
30
0
40
2.2500
50
336.5739
51
156.5739
0
ARC
8
0
10
1407.2892
20
612.4422
30
0
40
2.2500
50
156.5739
51
336.5739
0
LINE
8
0
10
1150.9356
20
-15.1249
30
0
11
1152.7247
21
-19.2540
31
0
0
LINE
8
0
10
1146.8066
20
-16.9140
30
0
11
1148.5956
21
-21.0431
31
0
0
ARC
8
0
10
1150.6601
20
-20.1485
30
0
40
2.2500
50
203.4261
51
23.4261
0
ARC
8
0
10
1148.8711
20
-16.0195
30
0
40
2.2500
50
23.4261
51
203.4261
0
LINE
8
0
10
1202.6193
20
-134.4095
30
0
11
1204.4083
21
-138.5386
31
0
0
LINE
8
0
10
1198.4902
20
-136.1985
30
0
11
1200.2792
21
-140.3276
31
0
0
ARC
8
0
10
1202.3438
20
-139.4331
30
0
40
2.2500
50
203.4261
51
23.4261
0
ARC
8
0
10
1200.5547
20
-135.3040
30
0
40
2.2500
50
23.4261
51
203.4261
0
LINE
8
0
10
1254.3029
20
-253.6940
30
0
11
1256.0919
21
-257.8231
31
0
0
LINE
8
0
10
1250.1738
20
-255.4831
30
0
11
1251.9628
21
-259.6122
31
0
0
ARC
8
0
10
1254.0274
20
-258.7176
30
0
40
2.2500
50
203.4261
51
23.4261
0
ARC
8
0
10
1252.2383
20
-254.5886
30
0
40
2.2500
50
23.4261
51
203.4261
0
LINE
8
0
10
1305.9865
20
-372.9786
30
0
11
1307.7755
21
-377.1077
31
0
0
LINE
8
0
10
1301.8574
20
-374.7676
30
0
11
1303.6464
21
-378.8967
31
0
0
ARC
8
0
10
1305.7110
20
-378.0022
30
0
40
2.2500
50
203.4261
51
23.4261
0
ARC
8
0
10
1303.9219
20
-373.8731
30
0
40
2.2500
50
23.4261
51
203.4261
0
LINE
8
0
10
1357.6701
20
-492.2631
30
0
11
1359.4591
21
-496.3922
31
0
0
LINE
8
0
10
1353.5410
20
-494.0522
30
0
11
1355.3301
21
-498.1813
31
0
0
ARC
8
0
10
1357.3946
20
-497.2867
30
0
40
2.2500
50
203.4261
51
23.4261
0
ARC
8
0
10
1355.6055
20
-493.1577
30
0
40
2.2500
50
23.4261
51
203.4261
0
LINE
8
0
10
1409.3537
20
-611.5477
30
0
11
1411.1427
21
-615.6768
31
0
0
LINE
8
0
10
1405.2246
20
-613.3367
30
0
11
1407.0137
21
-617.4658
31
0
0
ARC
8
0
10
1409.0782
20
-616.5713
30
0
40
2.2500
50
203.4261
51
23.4261
0
ARC
8
0
10
1407.2892
20
-612.4422
30
0
40
2.2500
50
23.4261
51
203.4261
0
LINE
8
0
10
1176.1379
20
0.0000
30
0
11
1167.2115
21
-21.2755
31
0
0
LINE
8
0
10
1167.2115
20
-21.2755
30
0
11
1573.7111
21
-554.2477
31
0
0
LINE
8
0
10
1573.7111
20
-554.2477
30
0
11
1595.8826
21
-550.3382
31
0
0
LINE
8
0
10
1595.8826
20
-550.3382
30
0
11
1618.8826
21
-550.3382
31
0
0
LINE
8
0
10
1618.8826
20
-550.3382
30
0
11
1635.8826
21
-544.3382
31
0
0
LINE
8
0
10
1635.8826
20
-544.3382
30
0
11
1635.8826
21
544.3382
31
0
0
LINE
8
0
10
1635.8826
20
544.3382
30
0
11
1618.8826
21
550.3382
31
0
0
LINE
8
0
10
1618.8826
20
550.3382
30
0
11
1595.8826
21
550.3382
31
0
0
LINE
8
0
10
1595.8826
20
550.3382
30
0
11
1573.7111
21
554.2477
31
0
0
LINE
8
0
10
1573.7111
20
554.2477
30
0
11
1167.2115
21
21.2755
31
0
0
LINE
8
0
10
1167.2115
20
21.2755
30
0
11
1176.1379
21
0.0000
31
0
0
CIRCLE
8
0
10
1570.8826
20
-200.0000
30
0
40
3.5000
0
CIRCLE
8
0
10
1530.8826
20
-200.0000
30
0
40
3.5000
0
CIRCLE
8
0
10
1570.8826
20
200.0000
30
0
40
3.5000
0
CIRCLE
8
0
10
1530.8826
20
200.0000
30
0
40
3.5000
0
CIRCLE
8
0
10
1177.5111
20
18.2901
30
0
40
2.2500
0
CIRCLE
8
0
10
1177.5111
20
-18.2901
30
0
40
2.2500
0
CIRCLE
8
0
10
1256.3490
20
121.6564
30
0
40
2.2500
0
CIRCLE
8
0
10
1256.3490
20
-121.6564
30
0
40
2.2500
0
CIRCLE
8
0
10
1335.1868
20
225.0227
30
0
40
2.2500
0
CIRCLE
8
0
10
1335.1868
20
-225.0227
30
0
40
2.2500
0
CIRCLE
8
0
10
1414.0246
20
328.3890
30
0
40
2.2500
0
CIRCLE
8
0
10
1414.0246
20
-328.3890
30
0
40
2.2500
0
CIRCLE
8
0
10
1492.8624
20
431.7554
30
0
40
2.2500
0
CIRCLE
8
0
10
1492.8624
20
-431.7554
30
0
40
2.2500
0
CIRCLE
8
0
10
1571.7003
20
535.1217
30
0
40
2.2500
0
CIRCLE
8
0
10
1571.7003
20
-535.1217
30
0
40
2.2500
0
ENDSEC
0
EOF
