0
SECTION
2
HEADER
9
$ACADVER
1
AC1009
9
$INSUNITS
70
4
0
ENDSEC
0
SECTION
2
ENTITIES
0
LINE
8
0
10
298.3116
20
21.2755
30
0
11
-165.4255
21
629.2933
31
0
0
LINE
8
0
10
-165.4255
20
629.2933
30
0
11
-187.5970
21
625.3839
31
0
0
LINE
8
0
10
-187.5970
20
625.3839
30
0
11
-210.5970
21
625.3839
31
0
0
LINE
8
0
10
-210.5970
20
625.3839
30
0
11
-227.5970
21
619.3839
31
0
0
LINE
8
0
10
-227.5970
20
619.3839
30
0
11
-227.5970
21
-619.3839
31
0
0
LINE
8
0
10
-227.5970
20
-619.3839
30
0
11
-210.5970
21
-625.3839
31
0
0
LINE
8
0
10
-210.5970
20
-625.3839
30
0
11
-187.5970
21
-625.3839
31
0
0
LINE
8
0
10
-187.5970
20
-625.3839
30
0
11
-165.4255
21
-629.2933
31
0
0
LINE
8
0
10
-165.4255
20
-629.2933
30
0
11
298.3116
21
-21.2755
31
0
0
LINE
8
0
10
298.3116
20
-21.2755
30
0
11
289.3853
21
0.0000
31
0
0
LINE
8
0
10
289.3853
20
0.0000
30
0
11
298.3116
21
21.2755
31
0
0
CIRCLE
8
0
10
-162.5970
20
-300.0000
30
0
40
3.5000
0
CIRCLE
8
0
10
-122.5970
20
-300.0000
30
0
40
3.5000
0
CIRCLE
8
0
10
-162.5970
20
0.0000
30
0
40
3.5000
0
CIRCLE
8
0
10
-122.5970
20
0.0000
30
0
40
3.5000
0
CIRCLE
8
0
10
-162.5970
20
300.0000
30
0
40
3.5000
0
CIRCLE
8
0
10
-122.5970
20
300.0000
30
0
40
3.5000
0
CIRCLE
8
0
10
288.0120
20
18.2901
30
0
40
2.2500
0
CIRCLE
8
0
10
288.0120
20
-18.2901
30
0
40
2.2500
0
CIRCLE
8
0
10
197.0453
20
137.5589
30
0
40
2.2500
0
CIRCLE
8
0
10
197.0453
20
-137.5589
30
0
40
2.2500
0
CIRCLE
8
0
10
106.0786
20
256.8277
30
0
40
2.2500
0
CIRCLE
8
0
10
106.0786
20
-256.8277
30
0
40
2.2500
0
CIRCLE
8
0
10
15.1119
20
376.0966
30
0
40
2.2500
0
CIRCLE
8
0
10
15.1119
20
-376.0966
30
0
40
2.2500
0
CIRCLE
8
0
10
-75.8549
20
495.3654
30
0
40
2.2500
0
CIRCLE
8
0
10
-75.8549
20
-495.3654
30
0
40
2.2500
0
CIRCLE
8
0
10
-166.8216
20
614.6343
30
0
40
2.2500
0
CIRCLE
8
0
10
-166.8216
20
-614.6343
30
0
40
2.2500
0
LINE
8
0
10
6.0000
20
761.6919
30
0
11
0.0000
21
744.6919
31
0
0
LINE
8
0
10
0.0000
20
744.6919
30
0
11
0.0000
21
721.6919
31
0
0
LINE
8
0
10
0.0000
20
721.6919
30
0
11
312.6946
21
0.0000
31
0
0
LINE
8
0
10
312.6946
20
0.0000
30
0
11
0.0000
21
-721.6919
31
0
0
LINE
8
0
10
0.0000
20
-721.6919
30
0
11
0.0000
21
-744.6919
31
0
0
LINE
8
0
10
0.0000
20
-744.6919
30
0
11
6.0000
21
-761.6919
31
0
0
LINE
8
0
10
6.0000
20
-761.6919
30
0
11
650.0000
21
-761.6919
31
0
0
LINE
8
0
10
650.0000
20
-761.6919
30
0
11
650.0000
21
-719.6919
31
0
0
LINE
8
0
10
650.0000
20
-719.6919
30
0
11
664.0000
21
-719.6919
31
0
0
LINE
8
0
10
664.0000
20
-719.6919
30
0
11
664.0000
21
-15.0000
31
0
0
LINE
8
0
10
664.0000
20
-15.0000
30
0
11
649.0000
21
0.0000
31
0
0
LINE
8
0
10
649.0000
20
0.0000
30
0
11
664.0000
21
15.0000
31
0
0
LINE
8
0
10
664.0000
20
15.0000
30
0
11
664.0000
21
719.6919
31
0
0
LINE
8
0
10
664.0000
20
719.6919
30
0
11
650.0000
21
719.6919
31
0
0
LINE
8
0
10
650.0000
20
719.6919
30
0
11
650.0000
21
761.6919
31
0
0
LINE
8
0
10
650.0000
20
761.6919
30
0
11
6.0000
21
761.6919
31
0
0
CIRCLE
8
0
10
300.0000
20
696.6919
30
0
40
3.5000
0
CIRCLE
8
0
10
300.0000
20
656.6919
30
0
40
3.5000
0
CIRCLE
8
0
10
300.0000
20
-696.6919
30
0
40
3.5000
0
CIRCLE
8
0
10
300.0000
20
-656.6919
30
0
40
3.5000
0
CIRCLE
8
0
10
533.3333
20
696.6919
30
0
40
3.5000
0
CIRCLE
8
0
10
533.3333
20
656.6919
30
0
40
3.5000
0
CIRCLE
8
0
10
533.3333
20
-696.6919
30
0
40
3.5000
0
CIRCLE
8
0
10
533.3333
20
-656.6919
30
0
40
3.5000
0
LINE
8
0
10
314.5875
20
15.1249
30
0
11
312.7985
21
19.2540
31
0
0
LINE
8
0
10
318.7166
20
16.9140
30
0
11
316.9275
21
21.0431
31
0
0
ARC
8
0
10
314.8630
20
20.1485
30
0
40
2.2500
50
23.4261
51
203.4261
0
ARC
8
0
10
316.6520
20
16.0195
30
0
40
2.2500
50
203.4261
51
23.4261
0
LINE
8
0
10
254.9526
20
152.7610
30
0
11
253.1635
21
156.8900
31
0
0
LINE
8
0
10
259.0817
20
154.5500
30
0
11
257.2926
21
158.6791
31
0
0
ARC
8
0
10
255.2281
20
157.7846
30
0
40
2.2500
50
23.4261
51
203.4261
0
ARC
8
0
10
257.0171
20
153.6555
30
0
40
2.2500
50
203.4261
51
23.4261
0
LINE
8
0
10
195.3176
20
290.3970
30
0
11
193.5286
21
294.5261
31
0
0
LINE
8
0
10
199.4467
20
292.1860
30
0
11
197.6577
21
296.3151
31
0
0
ARC
8
0
10
195.5931
20
295.4206
30
0
40
2.2500
50
23.4261
51
203.4261
0
ARC
8
0
10
197.3822
20
291.2915
30
0
40
2.2500
50
203.4261
51
23.4261
0
LINE
8
0
10
135.6827
20
428.0330
30
0
11
133.8937
21
432.1621
31
0
0
LINE
8
0
10
139.8118
20
429.8220
30
0
11
138.0227
21
433.9511
31
0
0
ARC
8
0
10
135.9582
20
433.0566
30
0
40
2.2500
50
23.4261
51
203.4261
0
ARC
8
0
10
137.7472
20
428.9275
30
0
40
2.2500
50
203.4261
51
23.4261
0
LINE
8
0
10
76.0478
20
565.6690
30
0
11
74.2587
21
569.7981
31
0
0
LINE
8
0
10
80.1768
20
567.4581
30
0
11
78.3878
21
571.5871
31
0
0
ARC
8
0
10
76.3233
20
570.6926
30
0
40
2.2500
50
23.4261
51
203.4261
0
ARC
8
0
10
78.1123
20
566.5635
30
0
40
2.2500
50
203.4261
51
23.4261
0
LINE
8
0
10
16.4128
20
703.3050
30
0
11
14.6238
21
707.4341
31
0
0
LINE
8
0
10
20.5419
20
705.0941
30
0
11
18.7529
21
709.2232
31
0
0
ARC
8
0
10
16.6883
20
708.3286
30
0
40
2.2500
50
23.4261
51
203.4261
0
ARC
8
0
10
18.4774
20
704.1996
30
0
40
2.2500
50
203.4261
51
23.4261
0
LINE
8
0
10
318.7166
20
-16.9140
30
0
11
316.9275
21
-21.0431
31
0
0
LINE
8
0
10
314.5875
20
-15.1249
30
0
11
312.7985
21
-19.2540
31
0
0
ARC
8
0
10
314.8630
20
-20.1485
30
0
40
2.2500
50
156.5739
51
336.5739
0
ARC
8
0
10
316.6520
20
-16.0195
30
0
40
2.2500
50
336.5739
51
156.5739
0
LINE
8
0
10
259.0817
20
-154.5500
30
0
11
257.2926
21
-158.6791
31
0
0
LINE
8
0
10
254.9526
20
-152.7610
30
0
11
253.1635
21
-156.8900
31
0
0
ARC
8
0
10
255.2281
20
-157.7846
30
0
40
2.2500
50
156.5739
51
336.5739
0
ARC
8
0
10
257.0171
20
-153.6555
30
0
40
2.2500
50
336.5739
51
156.5739
0
LINE
8
0
10
199.4467
20
-292.1860
30
0
11
197.6577
21
-296.3151
31
0
0
LINE
8
0
10
195.3176
20
-290.3970
30
0
11
193.5286
21
-294.5261
31
0
0
ARC
8
0
10
195.5931
20
-295.4206
30
0
40
2.2500
50
156.5739
51
336.5739
0
ARC
8
0
10
197.3822
20
-291.2915
30
0
40
2.2500
50
336.5739
51
156.5739
0
LINE
8
0
10
139.8118
20
-429.8220
30
0
11
138.0227
21
-433.9511
31
0
0
LINE
8
0
10
135.6827
20
-428.0330
30
0
11
133.8937
21
-432.1621
31
0
0
ARC
8
0
10
135.9582
20
-433.0566
30
0
40
2.2500
50
156.5739
51
336.5739
0
ARC
8
0
10
137.7472
20
-428.9275
30
0
40
2.2500
50
336.5739
51
156.5739
0
LINE
8
0
10
80.1768
20
-567.4581
30
0
11
78.3878
21
-571.5871
31
0
0
LINE
8
0
10
76.0478
20
-565.6690
30
0
11
74.2587
21
-569.7981
31
0
0
ARC
8
0
10
76.3233
20
-570.6926
30
0
40
2.2500
50
156.5739
51
336.5739
0
ARC
8
0
10
78.1123
20
-566.5635
30
0
40
2.2500
50
336.5739
51
156.5739
0
LINE
8
0
10
20.5419
20
-705.0941
30
0
11
18.7529
21
-709.2232
31
0
0
LINE
8
0
10
16.4128
20
-703.3050
30
0
11
14.6238
21
-707.4341
31
0
0
ARC
8
0
10
16.6883
20
-708.3286
30
0
40
2.2500
50
156.5739
51
336.5739
0
ARC
8
0
10
18.4774
20
-704.1996
30
0
40
2.2500
50
336.5739
51
156.5739
0
LINE
8
0
10
778.0000
20
761.6919
30
0
11
778.0000
21
719.6919
31
0
0
LINE
8
0
10
778.0000
20
719.6919
30
0
11
764.0000
21
719.6919
31
0
0
LINE
8
0
10
764.0000
20
719.6919
30
0
11
764.0000
21
15.0000
31
0
0
LINE
8
0
10
764.0000
20
15.0000
30
0
11
779.0000
21
0.0000
31
0
0
LINE
8
0
10
779.0000
20
0.0000
30
0
11
764.0000
21
-15.0000
31
0
0
LINE
8
0
10
764.0000
20
-15.0000
30
0
11
764.0000
21
-719.6919
31
0
0
LINE
8
0
10
764.0000
20
-719.6919
30
0
11
778.0000
21
-719.6919
31
0
0
LINE
8
0
10
778.0000
20
-719.6919
30
0
11
778.0000
21
-761.6919
31
0
0
LINE
8
0
10
778.0000
20
-761.6919
30
0
11
1422.0000
21
-761.6919
31
0
0
LINE
8
0
10
1422.0000
20
-761.6919
30
0
11
1428.0000
21
-744.6919
31
0
0
LINE
8
0
10
1428.0000
20
-744.6919
30
0
11
1428.0000
21
-721.6919
31
0
0
LINE
8
0
10
1428.0000
20
-721.6919
30
0
11
1115.3054
21
0.0000
31
0
0
LINE
8
0
10
1115.3054
20
0.0000
30
0
11
1428.0000
21
721.6919
31
0
0
LINE
8
0
10
1428.0000
20
721.6919
30
0
11
1428.0000
21
744.6919
31
0
0
LINE
8
0
10
1428.0000
20
744.6919
30
0
11
1422.0000
21
761.6919
31
0
0
LINE
8
0
10
1422.0000
20
761.6919
30
0
11
778.0000
21
761.6919
31
0
0
CIRCLE
8
0
10
894.6667
20
696.6919
30
0
40
3.5000
0
CIRCLE
8
0
10
894.6667
20
656.6919
30
0
40
3.5000
0
CIRCLE
8
0
10
894.6667
20
-696.6919
30
0
40
3.5000
0
CIRCLE
8
0
10
894.6667
20
-656.6919
30
0
40
3.5000
0
CIRCLE
8
0
10
1128.0000
20
696.6919
30
0
40
3.5000
0
CIRCLE
8
0
10
1128.0000
20
656.6919
30
0
40
3.5000
0
CIRCLE
8
0
10
1128.0000
20
-696.6919
30
0
40
3.5000
0
CIRCLE
8
0
10
1128.0000
20
-656.6919
30
0
40
3.5000
0
LINE
8
0
10
1109.2834
20
16.9140
30
0
11
1111.0725
21
21.0431
31
0
0
LINE
8
0
10
1113.4125
20
15.1249
30
0
11
1115.2015
21
19.2540
31
0
0
ARC
8
0
10
1113.1370
20
20.1485
30
0
40
2.2500
50
336.5739
51
156.5739
0
ARC
8
0
10
1111.3480
20
16.0195
30
0
40
2.2500
50
156.5739
51
336.5739
0
LINE
8
0
10
1168.9183
20
154.5500
30
0
11
1170.7074
21
158.6791
31
0
0
LINE
8
0
10
1173.0474
20
152.7610
30
0
11
1174.8365
21
156.8900
31
0
0
ARC
8
0
10
1172.7719
20
157.7846
30
0
40
2.2500
50
336.5739
51
156.5739
0
ARC
8
0
10
1170.9829
20
153.6555
30
0
40
2.2500
50
156.5739
51
336.5739
0
LINE
8
0
10
1228.5533
20
292.1860
30
0
11
1230.3423
21
296.3151
31
0
0
LINE
8
0
10
1232.6824
20
290.3970
30
0
11
1234.4714
21
294.5261
31
0
0
ARC
8
0
10
1232.4069
20
295.4206
30
0
40
2.2500
50
336.5739
51
156.5739
0
ARC
8
0
10
1230.6178
20
291.2915
30
0
40
2.2500
50
156.5739
51
336.5739
0
LINE
8
0
10
1288.1882
20
429.8220
30
0
11
1289.9773
21
433.9511
31
0
0
LINE
8
0
10
1292.3173
20
428.0330
30
0
11
1294.1063
21
432.1621
31
0
0
ARC
8
0
10
1292.0418
20
433.0566
30
0
40
2.2500
50
336.5739
51
156.5739
0
ARC
8
0
10
1290.2528
20
428.9275
30
0
40
2.2500
50
156.5739
51
336.5739
0
LINE
8
0
10
1347.8232
20
567.4581
30
0
11
1349.6122
21
571.5871
31
0
0
LINE
8
0
10
1351.9522
20
565.6690
30
0
11
1353.7413
21
569.7981
31
0
0
ARC
8
0
10
1351.6767
20
570.6926
30
0
40
2.2500
50
336.5739
51
156.5739
0
ARC
8
0
10
1349.8877
20
566.5635
30
0
40
2.2500
50
156.5739
51
336.5739
0
LINE
8
0
10
1407.4581
20
705.0941
30
0
11
1409.2471
21
709.2232
31
0
0
LINE
8
0
10
1411.5872
20
703.3050
30
0
11
1413.3762
21
707.4341
31
0
0
ARC
8
0
10
1411.3117
20
708.3286
30
0
40
2.2500
50
336.5739
51
156.5739
0
ARC
8
0
10
1409.5226
20
704.1996
30
0
40
2.2500
50
156.5739
51
336.5739
0
LINE
8
0
10
1113.4125
20
-15.1249
30
0
11
1115.2015
21
-19.2540
31
0
0
LINE
8
0
10
1109.2834
20
-16.9140
30
0
11
1111.0725
21
-21.0431
31
0
0
ARC
8
0
10
1113.1370
20
-20.1485
30
0
40
2.2500
50
203.4261
51
23.4261
0
ARC
8
0
10
1111.3480
20
-16.0195
30
0
40
2.2500
50
23.4261
51
203.4261
0
LINE
8
0
10
1173.0474
20
-152.7610
30
0
11
1174.8365
21
-156.8900
31
0
0
LINE
8
0
10
1168.9183
20
-154.5500
30
0
11
1170.7074
21
-158.6791
31
0
0
ARC
8
0
10
1172.7719
20
-157.7846
30
0
40
2.2500
50
203.4261
51
23.4261
0
ARC
8
0
10
1170.9829
20
-153.6555
30
0
40
2.2500
50
23.4261
51
203.4261
0
LINE
8
0
10
1232.6824
20
-290.3970
30
0
11
1234.4714
21
-294.5261
31
0
0
LINE
8
0
10
1228.5533
20
-292.1860
30
0
11
1230.3423
21
-296.3151
31
0
0
ARC
8
0
10
1232.4069
20
-295.4206
30
0
40
2.2500
50
203.4261
51
23.4261
0
ARC
8
0
10
1230.6178
20
-291.2915
30
0
40
2.2500
50
23.4261
51
203.4261
0
LINE
8
0
10
1292.3173
20
-428.0330
30
0
11
1294.1063
21
-432.1621
31
0
0
LINE
8
0
10
1288.1882
20
-429.8220
30
0
11
1289.9773
21
-433.9511
31
0
0
ARC
8
0
10
1292.0418
20
-433.0566
30
0
40
2.2500
50
203.4261
51
23.4261
0
ARC
8
0
10
1290.2528
20
-428.9275
30
0
40
2.2500
50
23.4261
51
203.4261
0
LINE
8
0
10
1351.9522
20
-565.6690
30
0
11
1353.7413
21
-569.7981
31
0
0
LINE
8
0
10
1347.8232
20
-567.4581
30
0
11
1349.6122
21
-571.5871
31
0
0
ARC
8
0
10
1351.6767
20
-570.6926
30
0
40
2.2500
50
203.4261
51
23.4261
0
ARC
8
0
10
1349.8877
20
-566.5635
30
0
40
2.2500
50
23.4261
51
203.4261
0
LINE
8
0
10
1411.5872
20
-703.3050
30
0
11
1413.3762
21
-707.4341
31
0
0
LINE
8
0
10
1407.4581
20
-705.0941
30
0
11
1409.2471
21
-709.2232
31
0
0
ARC
8
0
10
1411.3117
20
-708.3286
30
0
40
2.2500
50
203.4261
51
23.4261
0
ARC
8
0
10
1409.5226
20
-704.1996
30
0
40
2.2500
50
23.4261
51
203.4261
0
LINE
8
0
10
1138.6147
20
0.0000
30
0
11
1129.6884
21
-21.2755
31
0
0
LINE
8
0
10
1129.6884
20
-21.2755
30
0
11
1593.4255
21
-629.2933
31
0
0
LINE
8
0
10
1593.4255
20
-629.2933
30
0
11
1615.5970
21
-625.3839
31
0
0
LINE
8
0
10
1615.5970
20
-625.3839
30
0
11
1638.5970
21
-625.3839
31
0
0
LINE
8
0
10
1638.5970
20
-625.3839
30
0
11
1655.5970
21
-619.3839
31
0
0
LINE
8
0
10
1655.5970
20
-619.3839
30
0
11
1655.5970
21
619.3839
31
0
0
LINE
8
0
10
1655.5970
20
619.3839
30
0
11
1638.5970
21
625.3839
31
0
0
LINE
8
0
10
1638.5970
20
625.3839
30
0
11
1615.5970
21
625.3839
31
0
0
LINE
8
0
10
1615.5970
20
625.3839
30
0
11
1593.4255
21
629.2933
31
0
0
LINE
8
0
10
1593.4255
20
629.2933
30
0
11
1129.6884
21
21.2755
31
0
0
LINE
8
0
10
1129.6884
20
21.2755
30
0
11
1138.6147
21
0.0000
31
0
0
CIRCLE
8
0
10
1590.5970
20
-300.0000
30
0
40
3.5000
0
CIRCLE
8
0
10
1550.5970
20
-300.0000
30
0
40
3.5000
0
CIRCLE
8
0
10
1590.5970
20
0.0000
30
0
40
3.5000
0
CIRCLE
8
0
10
1550.5970
20
0.0000
30
0
40
3.5000
0
CIRCLE
8
0
10
1590.5970
20
300.0000
30
0
40
3.5000
0
CIRCLE
8
0
10
1550.5970
20
300.0000
30
0
40
3.5000
0
CIRCLE
8
0
10
1139.9880
20
18.2901
30
0
40
2.2500
0
CIRCLE
8
0
10
1139.9880
20
-18.2901
30
0
40
2.2500
0
CIRCLE
8
0
10
1230.9547
20
137.5589
30
0
40
2.2500
0
CIRCLE
8
0
10
1230.9547
20
-137.5589
30
0
40
2.2500
0
CIRCLE
8
0
10
1321.9214
20
256.8277
30
0
40
2.2500
0
CIRCLE
8
0
10
1321.9214
20
-256.8277
30
0
40
2.2500
0
CIRCLE
8
0
10
1412.8881
20
376.0966
30
0
40
2.2500
0
CIRCLE
8
0
10
1412.8881
20
-376.0966
30
0
40
2.2500
0
CIRCLE
8
0
10
1503.8549
20
495.3654
30
0
40
2.2500
0
CIRCLE
8
0
10
1503.8549
20
-495.3654
30
0
40
2.2500
0
CIRCLE
8
0
10
1594.8216
20
614.6343
30
0
40
2.2500
0
CIRCLE
8
0
10
1594.8216
20
-614.6343
30
0
40
2.2500
0
ENDSEC
0
EOF
