0
SECTION
2
HEADER
9
$ACADVER
1
AC1009
9
$INSUNITS
70
4
0
ENDSEC
0
SECTION
2
ENTITIES
0
LINE
8
0
10
248.2808
20
21.2755
30
0
11
-139.1396
21
529.2325
31
0
0
LINE
8
0
10
-139.1396
20
529.2325
30
0
11
-161.3111
21
525.3230
31
0
0
LINE
8
0
10
-161.3111
20
525.3230
30
0
11
-184.3111
21
525.3230
31
0
0
LINE
8
0
10
-184.3111
20
525.3230
30
0
11
-201.3111
21
519.3230
31
0
0
LINE
8
0
10
-201.3111
20
519.3230
30
0
11
-201.3111
21
-519.3230
31
0
0
LINE
8
0
10
-201.3111
20
-519.3230
30
0
11
-184.3111
21
-525.3230
31
0
0
LINE
8
0
10
-184.3111
20
-525.3230
30
0
11
-161.3111
21
-525.3230
31
0
0
LINE
8
0
10
-161.3111
20
-525.3230
30
0
11
-139.1396
21
-529.2325
31
0
0
LINE
8
0
10
-139.1396
20
-529.2325
30
0
11
248.2808
21
-21.2755
31
0
0
LINE
8
0
10
248.2808
20
-21.2755
30
0
11
239.3544
21
0.0000
31
0
0
LINE
8
0
10
239.3544
20
0.0000
30
0
11
248.2808
21
21.2755
31
0
0
CIRCLE
8
0
10
-136.3111
20
-200.0000
30
0
40
3.5000
0
CIRCLE
8
0
10
-96.3111
20
-200.0000
30
0
40
3.5000
0
CIRCLE
8
0
10
-136.3111
20
200.0000
30
0
40
3.5000
0
CIRCLE
8
0
10
-96.3111
20
200.0000
30
0
40
3.5000
0
CIRCLE
8
0
10
237.9811
20
18.2901
30
0
40
2.2500
0
CIRCLE
8
0
10
237.9811
20
-18.2901
30
0
40
2.2500
0
CIRCLE
8
0
10
162.4788
20
117.2832
30
0
40
2.2500
0
CIRCLE
8
0
10
162.4788
20
-117.2832
30
0
40
2.2500
0
CIRCLE
8
0
10
86.9764
20
216.2763
30
0
40
2.2500
0
CIRCLE
8
0
10
86.9764
20
-216.2763
30
0
40
2.2500
0
CIRCLE
8
0
10
11.4740
20
315.2695
30
0
40
2.2500
0
CIRCLE
8
0
10
11.4740
20
-315.2695
30
0
40
2.2500
0
CIRCLE
8
0
10
-64.0284
20
414.2626
30
0
40
2.2500
0
CIRCLE
8
0
10
-64.0284
20
-414.2626
30
0
40
2.2500
0
CIRCLE
8
0
10
-139.5307
20
513.2557
30
0
40
2.2500
0
CIRCLE
8
0
10
-139.5307
20
-513.2557
30
0
40
2.2500
0
LINE
8
0
10
6.0000
20
646.2218
30
0
11
0.0000
21
629.2218
31
0
0
LINE
8
0
10
0.0000
20
629.2218
30
0
11
0.0000
21
606.2218
31
0
0
LINE
8
0
10
0.0000
20
606.2218
30
0
11
262.6638
21
0.0000
31
0
0
LINE
8
0
10
262.6638
20
0.0000
30
0
11
0.0000
21
-606.2218
31
0
0
LINE
8
0
10
0.0000
20
-606.2218
30
0
11
0.0000
21
-629.2218
31
0
0
LINE
8
0
10
0.0000
20
-629.2218
30
0
11
6.0000
21
-646.2218
31
0
0
LINE
8
0
10
6.0000
20
-646.2218
30
0
11
650.0000
21
-646.2218
31
0
0
LINE
8
0
10
650.0000
20
-646.2218
30
0
11
650.0000
21
-604.2218
31
0
0
LINE
8
0
10
650.0000
20
-604.2218
30
0
11
664.0000
21
-604.2218
31
0
0
LINE
8
0
10
664.0000
20
-604.2218
30
0
11
664.0000
21
-15.0000
31
0
0
LINE
8
0
10
664.0000
20
-15.0000
30
0
11
649.0000
21
0.0000
31
0
0
LINE
8
0
10
649.0000
20
0.0000
30
0
11
664.0000
21
15.0000
31
0
0
LINE
8
0
10
664.0000
20
15.0000
30
0
11
664.0000
21
604.2218
31
0
0
LINE
8
0
10
664.0000
20
604.2218
30
0
11
650.0000
21
604.2218
31
0
0
LINE
8
0
10
650.0000
20
604.2218
30
0
11
650.0000
21
646.2218
31
0
0
LINE
8
0
10
650.0000
20
646.2218
30
0
11
6.0000
21
646.2218
31
0
0
CIRCLE
8
0
10
300.0000
20
581.2218
30
0
40
3.5000
0
CIRCLE
8
0
10
300.0000
20
541.2218
30
0
40
3.5000
0
CIRCLE
8
0
10
300.0000
20
-581.2218
30
0
40
3.5000
0
CIRCLE
8
0
10
300.0000
20
-541.2218
30
0
40
3.5000
0
CIRCLE
8
0
10
533.3333
20
581.2218
30
0
40
3.5000
0
CIRCLE
8
0
10
533.3333
20
541.2218
30
0
40
3.5000
0
CIRCLE
8
0
10
533.3333
20
-581.2218
30
0
40
3.5000
0
CIRCLE
8
0
10
533.3333
20
-541.2218
30
0
40
3.5000
0
LINE
8
0
10
264.5566
20
15.1249
30
0
11
262.7676
21
19.2540
31
0
0
LINE
8
0
10
268.6857
20
16.9140
30
0
11
266.8967
21
21.0431
31
0
0
ARC
8
0
10
264.8321
20
20.1485
30
0
40
2.2500
50
23.4261
51
203.4261
0
ARC
8
0
10
266.6212
20
16.0195
30
0
40
2.2500
50
203.4261
51
23.4261
0
LINE
8
0
10
215.0596
20
129.3628
30
0
11
213.2706
21
133.4919
31
0
0
LINE
8
0
10
219.1887
20
131.1519
30
0
11
217.3997
21
135.2810
31
0
0
ARC
8
0
10
215.3351
20
134.3864
30
0
40
2.2500
50
23.4261
51
203.4261
0
ARC
8
0
10
217.1242
20
130.2574
30
0
40
2.2500
50
203.4261
51
23.4261
0
LINE
8
0
10
165.5627
20
243.6007
30
0
11
163.7736
21
247.7298
31
0
0
LINE
8
0
10
169.6917
20
245.3898
30
0
11
167.9027
21
249.5189
31
0
0
ARC
8
0
10
165.8381
20
248.6243
30
0
40
2.2500
50
23.4261
51
203.4261
0
ARC
8
0
10
167.6272
20
244.4953
30
0
40
2.2500
50
203.4261
51
23.4261
0
LINE
8
0
10
116.0657
20
357.8386
30
0
11
114.2766
21
361.9677
31
0
0
LINE
8
0
10
120.1947
20
359.6277
30
0
11
118.4057
21
363.7568
31
0
0
ARC
8
0
10
116.3411
20
362.8622
30
0
40
2.2500
50
23.4261
51
203.4261
0
ARC
8
0
10
118.1302
20
358.7332
30
0
40
2.2500
50
203.4261
51
23.4261
0
LINE
8
0
10
66.5687
20
472.0765
30
0
11
64.7796
21
476.2056
31
0
0
LINE
8
0
10
70.6977
20
473.8656
30
0
11
68.9087
21
477.9947
31
0
0
ARC
8
0
10
66.8441
20
477.1001
30
0
40
2.2500
50
23.4261
51
203.4261
0
ARC
8
0
10
68.6332
20
472.9710
30
0
40
2.2500
50
203.4261
51
23.4261
0
LINE
8
0
10
17.0717
20
586.3144
30
0
11
15.2826
21
590.4435
31
0
0
LINE
8
0
10
21.2007
20
588.1035
30
0
11
19.4117
21
592.2326
31
0
0
ARC
8
0
10
17.3472
20
591.3380
30
0
40
2.2500
50
23.4261
51
203.4261
0
ARC
8
0
10
19.1362
20
587.2089
30
0
40
2.2500
50
203.4261
51
23.4261
0
LINE
8
0
10
268.6857
20
-16.9140
30
0
11
266.8967
21
-21.0431
31
0
0
LINE
8
0
10
264.5566
20
-15.1249
30
0
11
262.7676
21
-19.2540
31
0
0
ARC
8
0
10
264.8321
20
-20.1485
30
0
40
2.2500
50
156.5739
51
336.5739
0
ARC
8
0
10
266.6212
20
-16.0195
30
0
40
2.2500
50
336.5739
51
156.5739
0
LINE
8
0
10
219.1887
20
-131.1519
30
0
11
217.3997
21
-135.2810
31
0
0
LINE
8
0
10
215.0596
20
-129.3628
30
0
11
213.2706
21
-133.4919
31
0
0
ARC
8
0
10
215.3351
20
-134.3864
30
0
40
2.2500
50
156.5739
51
336.5739
0
ARC
8
0
10
217.1242
20
-130.2574
30
0
40
2.2500
50
336.5739
51
156.5739
0
LINE
8
0
10
169.6917
20
-245.3898
30
0
11
167.9027
21
-249.5189
31
0
0
LINE
8
0
10
165.5627
20
-243.6007
30
0
11
163.7736
21
-247.7298
31
0
0
ARC
8
0
10
165.8381
20
-248.6243
30
0
40
2.2500
50
156.5739
51
336.5739
0
ARC
8
0
10
167.6272
20
-244.4953
30
0
40
2.2500
50
336.5739
51
156.5739
0
LINE
8
0
10
120.1947
20
-359.6277
30
0
11
118.4057
21
-363.7568
31
0
0
LINE
8
0
10
116.0657
20
-357.8386
30
0
11
114.2766
21
-361.9677
31
0
0
ARC
8
0
10
116.3411
20
-362.8622
30
0
40
2.2500
50
156.5739
51
336.5739
0
ARC
8
0
10
118.1302
20
-358.7332
30
0
40
2.2500
50
336.5739
51
156.5739
0
LINE
8
0
10
70.6977
20
-473.8656
30
0
11
68.9087
21
-477.9947
31
0
0
LINE
8
0
10
66.5687
20
-472.0765
30
0
11
64.7796
21
-476.2056
31
0
0
ARC
8
0
10
66.8441
20
-477.1001
30
0
40
2.2500
50
156.5739
51
336.5739
0
ARC
8
0
10
68.6332
20
-472.9710
30
0
40
2.2500
50
336.5739
51
156.5739
0
LINE
8
0
10
21.2007
20
-588.1035
30
0
11
19.4117
21
-592.2326
31
0
0
LINE
8
0
10
17.0717
20
-586.3144
30
0
11
15.2826
21
-590.4435
31
0
0
ARC
8
0
10
17.3472
20
-591.3380
30
0
40
2.2500
50
156.5739
51
336.5739
0
ARC
8
0
10
19.1362
20
-587.2089
30
0
40
2.2500
50
336.5739
51
156.5739
0
LINE
8
0
10
778.0000
20
646.2218
30
0
11
778.0000
21
604.2218
31
0
0
LINE
8
0
10
778.0000
20
604.2218
30
0
11
764.0000
21
604.2218
31
0
0
LINE
8
0
10
764.0000
20
604.2218
30
0
11
764.0000
21
15.0000
31
0
0
LINE
8
0
10
764.0000
20
15.0000
30
0
11
779.0000
21
0.0000
31
0
0
LINE
8
0
10
779.0000
20
0.0000
30
0
11
764.0000
21
-15.0000
31
0
0
LINE
8
0
10
764.0000
20
-15.0000
30
0
11
764.0000
21
-604.2218
31
0
0
LINE
8
0
10
764.0000
20
-604.2218
30
0
11
778.0000
21
-604.2218
31
0
0
LINE
8
0
10
778.0000
20
-604.2218
30
0
11
778.0000
21
-646.2218
31
0
0
LINE
8
0
10
778.0000
20
-646.2218
30
0
11
1422.0000
21
-646.2218
31
0
0
LINE
8
0
10
1422.0000
20
-646.2218
30
0
11
1428.0000
21
-629.2218
31
0
0
LINE
8
0
10
1428.0000
20
-629.2218
30
0
11
1428.0000
21
-606.2218
31
0
0
LINE
8
0
10
1428.0000
20
-606.2218
30
0
11
1165.3362
21
0.0000
31
0
0
LINE
8
0
10
1165.3362
20
0.0000
30
0
11
1428.0000
21
606.2218
31
0
0
LINE
8
0
10
1428.0000
20
606.2218
30
0
11
1428.0000
21
629.2218
31
0
0
LINE
8
0
10
1428.0000
20
629.2218
30
0
11
1422.0000
21
646.2218
31
0
0
LINE
8
0
10
1422.0000
20
646.2218
30
0
11
778.0000
21
646.2218
31
0
0
CIRCLE
8
0
10
894.6667
20
581.2218
30
0
40
3.5000
0
CIRCLE
8
0
10
894.6667
20
541.2218
30
0
40
3.5000
0
CIRCLE
8
0
10
894.6667
20
-581.2218
30
0
40
3.5000
0
CIRCLE
8
0
10
894.6667
20
-541.2218
30
0
40
3.5000
0
CIRCLE
8
0
10
1128.0000
20
581.2218
30
0
40
3.5000
0
CIRCLE
8
0
10
1128.0000
20
541.2218
30
0
40
3.5000
0
CIRCLE
8
0
10
1128.0000
20
-581.2218
30
0
40
3.5000
0
CIRCLE
8
0
10
1128.0000
20
-541.2218
30
0
40
3.5000
0
LINE
8
0
10
1159.3143
20
16.9140
30
0
11
1161.1033
21
21.0431
31
0
0
LINE
8
0
10
1163.4434
20
15.1249
30
0
11
1165.2324
21
19.2540
31
0
0
ARC
8
0
10
1163.1679
20
20.1485
30
0
40
2.2500
50
336.5739
51
156.5739
0
ARC
8
0
10
1161.3788
20
16.0195
30
0
40
2.2500
50
156.5739
51
336.5739
0
LINE
8
0
10
1208.8113
20
131.1519
30
0
11
1210.6003
21
135.2810
31
0
0
LINE
8
0
10
1212.9404
20
129.3628
30
0
11
1214.7294
21
133.4919
31
0
0
ARC
8
0
10
1212.6649
20
134.3864
30
0
40
2.2500
50
336.5739
51
156.5739
0
ARC
8
0
10
1210.8758
20
130.2574
30
0
40
2.2500
50
156.5739
51
336.5739
0
LINE
8
0
10
1258.3083
20
245.3898
30
0
11
1260.0973
21
249.5189
31
0
0
LINE
8
0
10
1262.4373
20
243.6007
30
0
11
1264.2264
21
247.7298
31
0
0
ARC
8
0
10
1262.1619
20
248.6243
30
0
40
2.2500
50
336.5739
51
156.5739
0
ARC
8
0
10
1260.3728
20
244.4953
30
0
40
2.2500
50
156.5739
51
336.5739
0
LINE
8
0
10
1307.8053
20
359.6277
30
0
11
1309.5943
21
363.7568
31
0
0
LINE
8
0
10
1311.9343
20
357.8386
30
0
11
1313.7234
21
361.9677
31
0
0
ARC
8
0
10
1311.6589
20
362.8622
30
0
40
2.2500
50
336.5739
51
156.5739
0
ARC
8
0
10
1309.8698
20
358.7332
30
0
40
2.2500
50
156.5739
51
336.5739
0
LINE
8
0
10
1357.3023
20
473.8656
30
0
11
1359.0913
21
477.9947
31
0
0
LINE
8
0
10
1361.4313
20
472.0765
30
0
11
1363.2204
21
476.2056
31
0
0
ARC
8
0
10
1361.1559
20
477.1001
30
0
40
2.2500
50
336.5739
51
156.5739
0
ARC
8
0
10
1359.3668
20
472.9710
30
0
40
2.2500
50
156.5739
51
336.5739
0
LINE
8
0
10
1406.7993
20
588.1035
30
0
11
1408.5883
21
592.2326
31
0
0
LINE
8
0
10
1410.9283
20
586.3144
30
0
11
1412.7174
21
590.4435
31
0
0
ARC
8
0
10
1410.6528
20
591.3380
30
0
40
2.2500
50
336.5739
51
156.5739
0
ARC
8
0
10
1408.8638
20
587.2089
30
0
40
2.2500
50
156.5739
51
336.5739
0
LINE
8
0
10
1163.4434
20
-15.1249
30
0
11
1165.2324
21
-19.2540
31
0
0
LINE
8
0
10
1159.3143
20
-16.9140
30
0
11
1161.1033
21
-21.0431
31
0
0
ARC
8
0
10
1163.1679
20
-20.1485
30
0
40
2.2500
50
203.4261
51
23.4261
0
ARC
8
0
10
1161.3788
20
-16.0195
30
0
40
2.2500
50
23.4261
51
203.4261
0
LINE
8
0
10
1212.9404
20
-129.3628
30
0
11
1214.7294
21
-133.4919
31
0
0
LINE
8
0
10
1208.8113
20
-131.1519
30
0
11
1210.6003
21
-135.2810
31
0
0
ARC
8
0
10
1212.6649
20
-134.3864
30
0
40
2.2500
50
203.4261
51
23.4261
0
ARC
8
0
10
1210.8758
20
-130.2574
30
0
40
2.2500
50
23.4261
51
203.4261
0
LINE
8
0
10
1262.4373
20
-243.6007
30
0
11
1264.2264
21
-247.7298
31
0
0
LINE
8
0
10
1258.3083
20
-245.3898
30
0
11
1260.0973
21
-249.5189
31
0
0
ARC
8
0
10
1262.1619
20
-248.6243
30
0
40
2.2500
50
203.4261
51
23.4261
0
ARC
8
0
10
1260.3728
20
-244.4953
30
0
40
2.2500
50
23.4261
51
203.4261
0
LINE
8
0
10
1311.9343
20
-357.8386
30
0
11
1313.7234
21
-361.9677
31
0
0
LINE
8
0
10
1307.8053
20
-359.6277
30
0
11
1309.5943
21
-363.7568
31
0
0
ARC
8
0
10
1311.6589
20
-362.8622
30
0
40
2.2500
50
203.4261
51
23.4261
0
ARC
8
0
10
1309.8698
20
-358.7332
30
0
40
2.2500
50
23.4261
51
203.4261
0
LINE
8
0
10
1361.4313
20
-472.0765
30
0
11
1363.2204
21
-476.2056
31
0
0
LINE
8
0
10
1357.3023
20
-473.8656
30
0
11
1359.0913
21
-477.9947
31
0
0
ARC
8
0
10
1361.1559
20
-477.1001
30
0
40
2.2500
50
203.4261
51
23.4261
0
ARC
8
0
10
1359.3668
20
-472.9710
30
0
40
2.2500
50
23.4261
51
203.4261
0
LINE
8
0
10
1410.9283
20
-586.3144
30
0
11
1412.7174
21
-590.4435
31
0
0
LINE
8
0
10
1406.7993
20
-588.1035
30
0
11
1408.5883
21
-592.2326
31
0
0
ARC
8
0
10
1410.6528
20
-591.3380
30
0
40
2.2500
50
203.4261
51
23.4261
0
ARC
8
0
10
1408.8638
20
-587.2089
30
0
40
2.2500
50
23.4261
51
203.4261
0
LINE
8
0
10
1188.6456
20
0.0000
30
0
11
1179.7192
21
-21.2755
31
0
0
LINE
8
0
10
1179.7192
20
-21.2755
30
0
11
1567.1396
21
-529.2325
31
0
0
LINE
8
0
10
1567.1396
20
-529.2325
30
0
11
1589.3111
21
-525.3230
31
0
0
LINE
8
0
10
1589.3111
20
-525.3230
30
0
11
1612.3111
21
-525.3230
31
0
0
LINE
8
0
10
1612.3111
20
-525.3230
30
0
11
1629.3111
21
-519.3230
31
0
0
LINE
8
0
10
1629.3111
20
-519.3230
30
0
11
1629.3111
21
519.3230
31
0
0
LINE
8
0
10
1629.3111
20
519.3230
30
0
11
1612.3111
21
525.3230
31
0
0
LINE
8
0
10
1612.3111
20
525.3230
30
0
11
1589.3111
21
525.3230
31
0
0
LINE
8
0
10
1589.3111
20
525.3230
30
0
11
1567.1396
21
529.2325
31
0
0
LINE
8
0
10
1567.1396
20
529.2325
30
0
11
1179.7192
21
21.2755
31
0
0
LINE
8
0
10
1179.7192
20
21.2755
30
0
11
1188.6456
21
0.0000
31
0
0
CIRCLE
8
0
10
1564.3111
20
-200.0000
30
0
40
3.5000
0
CIRCLE
8
0
10
1524.3111
20
-200.0000
30
0
40
3.5000
0
CIRCLE
8
0
10
1564.3111
20
200.0000
30
0
40
3.5000
0
CIRCLE
8
0
10
1524.3111
20
200.0000
30
0
40
3.5000
0
CIRCLE
8
0
10
1190.0189
20
18.2901
30
0
40
2.2500
0
CIRCLE
8
0
10
1190.0189
20
-18.2901
30
0
40
2.2500
0
CIRCLE
8
0
10
1265.5212
20
117.2832
30
0
40
2.2500
0
CIRCLE
8
0
10
1265.5212
20
-117.2832
30
0
40
2.2500
0
CIRCLE
8
0
10
1341.0236
20
216.2763
30
0
40
2.2500
0
CIRCLE
8
0
10
1341.0236
20
-216.2763
30
0
40
2.2500
0
CIRCLE
8
0
10
1416.5260
20
315.2695
30
0
40
2.2500
0
CIRCLE
8
0
10
1416.5260
20
-315.2695
30
0
40
2.2500
0
CIRCLE
8
0
10
1492.0284
20
414.2626
30
0
40
2.2500
0
CIRCLE
8
0
10
1492.0284
20
-414.2626
30
0
40
2.2500
0
CIRCLE
8
0
10
1567.5307
20
513.2557
30
0
40
2.2500
0
CIRCLE
8
0
10
1567.5307
20
-513.2557
30
0
40
2.2500
0
ENDSEC
0
EOF
