0
SECTION
2
HEADER
9
$ACADVER
1
AC1009
9
$INSUNITS
70
4
0
ENDSEC
0
SECTION
2
ENTITIES
0
LINE
8
0
10
310.8194
20
21.2755
30
0
11
-171.9969
21
654.3085
31
0
0
LINE
8
0
10
-171.9969
20
654.3085
30
0
11
-194.1685
21
650.3991
31
0
0
LINE
8
0
10
-194.1685
20
650.3991
30
0
11
-217.1685
21
650.3991
31
0
0
LINE
8
0
10
-217.1685
20
650.3991
30
0
11
-234.1685
21
644.3991
31
0
0
LINE
8
0
10
-234.1685
20
644.3991
30
0
11
-234.1685
21
-644.3991
31
0
0
LINE
8
0
10
-234.1685
20
-644.3991
30
0
11
-217.1685
21
-650.3991
31
0
0
LINE
8
0
10
-217.1685
20
-650.3991
30
0
11
-194.1685
21
-650.3991
31
0
0
LINE
8
0
10
-194.1685
20
-650.3991
30
0
11
-171.9969
21
-654.3085
31
0
0
LINE
8
0
10
-171.9969
20
-654.3085
30
0
11
310.8194
21
-21.2755
31
0
0
LINE
8
0
10
310.8194
20
-21.2755
30
0
11
301.8930
21
0.0000
31
0
0
LINE
8
0
10
301.8930
20
0.0000
30
0
11
310.8194
21
21.2755
31
0
0
CIRCLE
8
0
10
-169.1685
20
-325.0000
30
0
40
3.5000
0
CIRCLE
8
0
10
-129.1685
20
-325.0000
30
0
40
3.5000
0
CIRCLE
8
0
10
-169.1685
20
0.0000
30
0
40
3.5000
0
CIRCLE
8
0
10
-129.1685
20
0.0000
30
0
40
3.5000
0
CIRCLE
8
0
10
-169.1685
20
325.0000
30
0
40
3.5000
0
CIRCLE
8
0
10
-129.1685
20
325.0000
30
0
40
3.5000
0
CIRCLE
8
0
10
300.5197
20
18.2901
30
0
40
2.2500
0
CIRCLE
8
0
10
300.5197
20
-18.2901
30
0
40
2.2500
0
CIRCLE
8
0
10
221.6819
20
121.6564
30
0
40
2.2500
0
CIRCLE
8
0
10
221.6819
20
-121.6564
30
0
40
2.2500
0
CIRCLE
8
0
10
142.8441
20
225.0227
30
0
40
2.2500
0
CIRCLE
8
0
10
142.8441
20
-225.0227
30
0
40
2.2500
0
CIRCLE
8
0
10
64.0063
20
328.3890
30
0
40
2.2500
0
CIRCLE
8
0
10
64.0063
20
-328.3890
30
0
40
2.2500
0
CIRCLE
8
0
10
-14.8316
20
431.7554
30
0
40
2.2500
0
CIRCLE
8
0
10
-14.8316
20
-431.7554
30
0
40
2.2500
0
CIRCLE
8
0
10
-93.6694
20
535.1217
30
0
40
2.2500
0
CIRCLE
8
0
10
-93.6694
20
-535.1217
30
0
40
2.2500
0
CIRCLE
8
0
10
-172.5072
20
638.4880
30
0
40
2.2500
0
CIRCLE
8
0
10
-172.5072
20
-638.4880
30
0
40
2.2500
0
LINE
8
0
10
6.0000
20
790.5594
30
0
11
0.0000
21
773.5594
31
0
0
LINE
8
0
10
0.0000
20
773.5594
30
0
11
0.0000
21
750.5594
31
0
0
LINE
8
0
10
0.0000
20
750.5594
30
0
11
325.2024
21
0.0000
31
0
0
LINE
8
0
10
325.2024
20
0.0000
30
0
11
0.0000
21
-750.5594
31
0
0
LINE
8
0
10
0.0000
20
-750.5594
30
0
11
0.0000
21
-773.5594
31
0
0
LINE
8
0
10
0.0000
20
-773.5594
30
0
11
6.0000
21
-790.5594
31
0
0
LINE
8
0
10
6.0000
20
-790.5594
30
0
11
966.6667
21
-790.5594
31
0
0
LINE
8
0
10
966.6667
20
-790.5594
30
0
11
966.6667
21
-748.5594
31
0
0
LINE
8
0
10
966.6667
20
-748.5594
30
0
11
980.6667
21
-748.5594
31
0
0
LINE
8
0
10
980.6667
20
-748.5594
30
0
11
980.6667
21
-15.0000
31
0
0
LINE
8
0
10
980.6667
20
-15.0000
30
0
11
965.6667
21
0.0000
31
0
0
LINE
8
0
10
965.6667
20
0.0000
30
0
11
980.6667
21
15.0000
31
0
0
LINE
8
0
10
980.6667
20
15.0000
30
0
11
980.6667
21
748.5594
31
0
0
LINE
8
0
10
980.6667
20
748.5594
30
0
11
966.6667
21
748.5594
31
0
0
LINE
8
0
10
966.6667
20
748.5594
30
0
11
966.6667
21
790.5594
31
0
0
LINE
8
0
10
966.6667
20
790.5594
30
0
11
6.0000
21
790.5594
31
0
0
CIRCLE
8
0
10
300.0000
20
725.5594
30
0
40
3.5000
0
CIRCLE
8
0
10
300.0000
20
685.5594
30
0
40
3.5000
0
CIRCLE
8
0
10
300.0000
20
-725.5594
30
0
40
3.5000
0
CIRCLE
8
0
10
300.0000
20
-685.5594
30
0
40
3.5000
0
CIRCLE
8
0
10
587.5000
20
725.5594
30
0
40
3.5000
0
CIRCLE
8
0
10
587.5000
20
685.5594
30
0
40
3.5000
0
CIRCLE
8
0
10
587.5000
20
-725.5594
30
0
40
3.5000
0
CIRCLE
8
0
10
587.5000
20
-685.5594
30
0
40
3.5000
0
CIRCLE
8
0
10
875.0000
20
725.5594
30
0
40
3.5000
0
CIRCLE
8
0
10
875.0000
20
685.5594
30
0
40
3.5000
0
CIRCLE
8
0
10
875.0000
20
-725.5594
30
0
40
3.5000
0
CIRCLE
8
0
10
875.0000
20
-685.5594
30
0
40
3.5000
0
LINE
8
0
10
327.0952
20
15.1249
30
0
11
325.3062
21
19.2540
31
0
0
LINE
8
0
10
331.2243
20
16.9140
30
0
11
329.4353
21
21.0431
31
0
0
ARC
8
0
10
327.3707
20
20.1485
30
0
40
2.2500
50
23.4261
51
203.4261
0
ARC
8
0
10
329.1598
20
16.0195
30
0
40
2.2500
50
203.4261
51
23.4261
0
LINE
8
0
10
275.4116
20
134.4095
30
0
11
273.6226
21
138.5386
31
0
0
LINE
8
0
10
279.5407
20
136.1985
30
0
11
277.7516
21
140.3276
31
0
0
ARC
8
0
10
275.6871
20
139.4331
30
0
40
2.2500
50
23.4261
51
203.4261
0
ARC
8
0
10
277.4762
20
135.3040
30
0
40
2.2500
50
203.4261
51
23.4261
0
LINE
8
0
10
223.7280
20
253.6940
30
0
11
221.9390
21
257.8231
31
0
0
LINE
8
0
10
227.8571
20
255.4831
30
0
11
226.0680
21
259.6122
31
0
0
ARC
8
0
10
224.0035
20
258.7176
30
0
40
2.2500
50
23.4261
51
203.4261
0
ARC
8
0
10
225.7925
20
254.5886
30
0
40
2.2500
50
203.4261
51
23.4261
0
LINE
8
0
10
172.0444
20
372.9786
30
0
11
170.2553
21
377.1077
31
0
0
LINE
8
0
10
176.1735
20
374.7676
30
0
11
174.3844
21
378.8967
31
0
0
ARC
8
0
10
172.3199
20
378.0022
30
0
40
2.2500
50
23.4261
51
203.4261
0
ARC
8
0
10
174.1089
20
373.8731
30
0
40
2.2500
50
203.4261
51
23.4261
0
LINE
8
0
10
120.3608
20
492.2631
30
0
11
118.5717
21
496.3922
31
0
0
LINE
8
0
10
124.4899
20
494.0522
30
0
11
122.7008
21
498.1813
31
0
0
ARC
8
0
10
120.6363
20
497.2867
30
0
40
2.2500
50
23.4261
51
203.4261
0
ARC
8
0
10
122.4253
20
493.1577
30
0
40
2.2500
50
203.4261
51
23.4261
0
LINE
8
0
10
68.6772
20
611.5477
30
0
11
66.8881
21
615.6768
31
0
0
LINE
8
0
10
72.8063
20
613.3367
30
0
11
71.0172
21
617.4658
31
0
0
ARC
8
0
10
68.9527
20
616.5713
30
0
40
2.2500
50
23.4261
51
203.4261
0
ARC
8
0
10
70.7417
20
612.4422
30
0
40
2.2500
50
203.4261
51
23.4261
0
LINE
8
0
10
16.9936
20
730.8322
30
0
11
15.2045
21
734.9613
31
0
0
LINE
8
0
10
21.1226
20
732.6213
30
0
11
19.3336
21
736.7504
31
0
0
ARC
8
0
10
17.2691
20
735.8559
30
0
40
2.2500
50
23.4261
51
203.4261
0
ARC
8
0
10
19.0581
20
731.7268
30
0
40
2.2500
50
203.4261
51
23.4261
0
LINE
8
0
10
331.2243
20
-16.9140
30
0
11
329.4353
21
-21.0431
31
0
0
LINE
8
0
10
327.0952
20
-15.1249
30
0
11
325.3062
21
-19.2540
31
0
0
ARC
8
0
10
327.3707
20
-20.1485
30
0
40
2.2500
50
156.5739
51
336.5739
0
ARC
8
0
10
329.1598
20
-16.0195
30
0
40
2.2500
50
336.5739
51
156.5739
0
LINE
8
0
10
279.5407
20
-136.1985
30
0
11
277.7516
21
-140.3276
31
0
0
LINE
8
0
10
275.4116
20
-134.4095
30
0
11
273.6226
21
-138.5386
31
0
0
ARC
8
0
10
275.6871
20
-139.4331
30
0
40
2.2500
50
156.5739
51
336.5739
0
ARC
8
0
10
277.4762
20
-135.3040
30
0
40
2.2500
50
336.5739
51
156.5739
0
LINE
8
0
10
227.8571
20
-255.4831
30
0
11
226.0680
21
-259.6122
31
0
0
LINE
8
0
10
223.7280
20
-253.6940
30
0
11
221.9390
21
-257.8231
31
0
0
ARC
8
0
10
224.0035
20
-258.7176
30
0
40
2.2500
50
156.5739
51
336.5739
0
ARC
8
0
10
225.7925
20
-254.5886
30
0
40
2.2500
50
336.5739
51
156.5739
0
LINE
8
0
10
176.1735
20
-374.7676
30
0
11
174.3844
21
-378.8967
31
0
0
LINE
8
0
10
172.0444
20
-372.9786
30
0
11
170.2553
21
-377.1077
31
0
0
ARC
8
0
10
172.3199
20
-378.0022
30
0
40
2.2500
50
156.5739
51
336.5739
0
ARC
8
0
10
174.1089
20
-373.8731
30
0
40
2.2500
50
336.5739
51
156.5739
0
LINE
8
0
10
124.4899
20
-494.0522
30
0
11
122.7008
21
-498.1813
31
0
0
LINE
8
0
10
120.3608
20
-492.2631
30
0
11
118.5717
21
-496.3922
31
0
0
ARC
8
0
10
120.6363
20
-497.2867
30
0
40
2.2500
50
156.5739
51
336.5739
0
ARC
8
0
10
122.4253
20
-493.1577
30
0
40
2.2500
50
336.5739
51
156.5739
0
LINE
8
0
10
72.8063
20
-613.3367
30
0
11
71.0172
21
-617.4658
31
0
0
LINE
8
0
10
68.6772
20
-611.5477
30
0
11
66.8881
21
-615.6768
31
0
0
ARC
8
0
10
68.9527
20
-616.5713
30
0
40
2.2500
50
156.5739
51
336.5739
0
ARC
8
0
10
70.7417
20
-612.4422
30
0
40
2.2500
50
336.5739
51
156.5739
0
LINE
8
0
10
21.1226
20
-732.6213
30
0
11
19.3336
21
-736.7504
31
0
0
LINE
8
0
10
16.9936
20
-730.8322
30
0
11
15.2045
21
-734.9613
31
0
0
ARC
8
0
10
17.2691
20
-735.8559
30
0
40
2.2500
50
156.5739
51
336.5739
0
ARC
8
0
10
19.0581
20
-731.7268
30
0
40
2.2500
50
336.5739
51
156.5739
0
LINE
8
0
10
1094.6667
20
790.5594
30
0
11
1094.6667
21
748.5594
31
0
0
LINE
8
0
10
1094.6667
20
748.5594
30
0
11
1080.6667
21
748.5594
31
0
0
LINE
8
0
10
1080.6667
20
748.5594
30
0
11
1080.6667
21
15.0000
31
0
0
LINE
8
0
10
1080.6667
20
15.0000
30
0
11
1095.6667
21
0.0000
31
0
0
LINE
8
0
10
1095.6667
20
0.0000
30
0
11
1080.6667
21
-15.0000
31
0
0
LINE
8
0
10
1080.6667
20
-15.0000
30
0
11
1080.6667
21
-748.5594
31
0
0
LINE
8
0
10
1080.6667
20
-748.5594
30
0
11
1094.6667
21
-748.5594
31
0
0
LINE
8
0
10
1094.6667
20
-748.5594
30
0
11
1094.6667
21
-790.5594
31
0
0
LINE
8
0
10
1094.6667
20
-790.5594
30
0
11
2061.3333
21
-790.5594
31
0
0
LINE
8
0
10
2061.3333
20
-790.5594
30
0
11
2061.3333
21
-748.5594
31
0
0
LINE
8
0
10
2061.3333
20
-748.5594
30
0
11
2075.3333
21
-748.5594
31
0
0
LINE
8
0
10
2075.3333
20
-748.5594
30
0
11
2075.3333
21
-15.0000
31
0
0
LINE
8
0
10
2075.3333
20
-15.0000
30
0
11
2060.3333
21
0.0000
31
0
0
LINE
8
0
10
2060.3333
20
0.0000
30
0
11
2075.3333
21
15.0000
31
0
0
LINE
8
0
10
2075.3333
20
15.0000
30
0
11
2075.3333
21
748.5594
31
0
0
LINE
8
0
10
2075.3333
20
748.5594
30
0
11
2061.3333
21
748.5594
31
0
0
LINE
8
0
10
2061.3333
20
748.5594
30
0
11
2061.3333
21
790.5594
31
0
0
LINE
8
0
10
2061.3333
20
790.5594
30
0
11
1094.6667
21
790.5594
31
0
0
CIRCLE
8
0
10
1290.5000
20
725.5594
30
0
40
3.5000
0
CIRCLE
8
0
10
1290.5000
20
685.5594
30
0
40
3.5000
0
CIRCLE
8
0
10
1290.5000
20
-725.5594
30
0
40
3.5000
0
CIRCLE
8
0
10
1290.5000
20
-685.5594
30
0
40
3.5000
0
CIRCLE
8
0
10
1578.0000
20
725.5594
30
0
40
3.5000
0
CIRCLE
8
0
10
1578.0000
20
685.5594
30
0
40
3.5000
0
CIRCLE
8
0
10
1578.0000
20
-725.5594
30
0
40
3.5000
0
CIRCLE
8
0
10
1578.0000
20
-685.5594
30
0
40
3.5000
0
CIRCLE
8
0
10
1865.5000
20
725.5594
30
0
40
3.5000
0
CIRCLE
8
0
10
1865.5000
20
685.5594
30
0
40
3.5000
0
CIRCLE
8
0
10
1865.5000
20
-725.5594
30
0
40
3.5000
0
CIRCLE
8
0
10
1865.5000
20
-685.5594
30
0
40
3.5000
0
LINE
8
0
10
2189.3333
20
790.5594
30
0
11
2189.3333
21
748.5594
31
0
0
LINE
8
0
10
2189.3333
20
748.5594
30
0
11
2175.3333
21
748.5594
31
0
0
LINE
8
0
10
2175.3333
20
748.5594
30
0
11
2175.3333
21
15.0000
31
0
0
LINE
8
0
10
2175.3333
20
15.0000
30
0
11
2190.3333
21
0.0000
31
0
0
LINE
8
0
10
2190.3333
20
0.0000
30
0
11
2175.3333
21
-15.0000
31
0
0
LINE
8
0
10
2175.3333
20
-15.0000
30
0
11
2175.3333
21
-748.5594
31
0
0
LINE
8
0
10
2175.3333
20
-748.5594
30
0
11
2189.3333
21
-748.5594
31
0
0
LINE
8
0
10
2189.3333
20
-748.5594
30
0
11
2189.3333
21
-790.5594
31
0
0
LINE
8
0
10
2189.3333
20
-790.5594
30
0
11
3150.0000
21
-790.5594
31
0
0
LINE
8
0
10
3150.0000
20
-790.5594
30
0
11
3156.0000
21
-773.5594
31
0
0
LINE
8
0
10
3156.0000
20
-773.5594
30
0
11
3156.0000
21
-750.5594
31
0
0
LINE
8
0
10
3156.0000
20
-750.5594
30
0
11
2830.7976
21
0.0000
31
0
0
LINE
8
0
10
2830.7976
20
0.0000
30
0
11
3156.0000
21
750.5594
31
0
0
LINE
8
0
10
3156.0000
20
750.5594
30
0
11
3156.0000
21
773.5594
31
0
0
LINE
8
0
10
3156.0000
20
773.5594
30
0
11
3150.0000
21
790.5594
31
0
0
LINE
8
0
10
3150.0000
20
790.5594
30
0
11
2189.3333
21
790.5594
31
0
0
CIRCLE
8
0
10
2281.0000
20
725.5594
30
0
40
3.5000
0
CIRCLE
8
0
10
2281.0000
20
685.5594
30
0
40
3.5000
0
CIRCLE
8
0
10
2281.0000
20
-725.5594
30
0
40
3.5000
0
CIRCLE
8
0
10
2281.0000
20
-685.5594
30
0
40
3.5000
0
CIRCLE
8
0
10
2568.5000
20
725.5594
30
0
40
3.5000
0
CIRCLE
8
0
10
2568.5000
20
685.5594
30
0
40
3.5000
0
CIRCLE
8
0
10
2568.5000
20
-725.5594
30
0
40
3.5000
0
CIRCLE
8
0
10
2568.5000
20
-685.5594
30
0
40
3.5000
0
CIRCLE
8
0
10
2856.0000
20
725.5594
30
0
40
3.5000
0
CIRCLE
8
0
10
2856.0000
20
685.5594
30
0
40
3.5000
0
CIRCLE
8
0
10
2856.0000
20
-725.5594
30
0
40
3.5000
0
CIRCLE
8
0
10
2856.0000
20
-685.5594
30
0
40
3.5000
0
LINE
8
0
10
2824.7757
20
16.9140
30
0
11
2826.5647
21
21.0431
31
0
0
LINE
8
0
10
2828.9048
20
15.1249
30
0
11
2830.6938
21
19.2540
31
0
0
ARC
8
0
10
2828.6293
20
20.1485
30
0
40
2.2500
50
336.5739
51
156.5739
0
ARC
8
0
10
2826.8402
20
16.0195
30
0
40
2.2500
50
156.5739
51
336.5739
0
LINE
8
0
10
2876.4593
20
136.1985
30
0
11
2878.2484
21
140.3276
31
0
0
LINE
8
0
10
2880.5884
20
134.4095
30
0
11
2882.3774
21
138.5386
31
0
0
ARC
8
0
10
2880.3129
20
139.4331
30
0
40
2.2500
50
336.5739
51
156.5739
0
ARC
8
0
10
2878.5238
20
135.3040
30
0
40
2.2500
50
156.5739
51
336.5739
0
LINE
8
0
10
2928.1429
20
255.4831
30
0
11
2929.9320
21
259.6122
31
0
0
LINE
8
0
10
2932.2720
20
253.6940
30
0
11
2934.0610
21
257.8231
31
0
0
ARC
8
0
10
2931.9965
20
258.7176
30
0
40
2.2500
50
336.5739
51
156.5739
0
ARC
8
0
10
2930.2075
20
254.5886
30
0
40
2.2500
50
156.5739
51
336.5739
0
LINE
8
0
10
2979.8265
20
374.7676
30
0
11
2981.6156
21
378.8967
31
0
0
LINE
8
0
10
2983.9556
20
372.9786
30
0
11
2985.7447
21
377.1077
31
0
0
ARC
8
0
10
2983.6801
20
378.0022
30
0
40
2.2500
50
336.5739
51
156.5739
0
ARC
8
0
10
2981.8911
20
373.8731
30
0
40
2.2500
50
156.5739
51
336.5739
0
LINE
8
0
10
3031.5101
20
494.0522
30
0
11
3033.2992
21
498.1813
31
0
0
LINE
8
0
10
3035.6392
20
492.2631
30
0
11
3037.4283
21
496.3922
31
0
0
ARC
8
0
10
3035.3637
20
497.2867
30
0
40
2.2500
50
336.5739
51
156.5739
0
ARC
8
0
10
3033.5747
20
493.1577
30
0
40
2.2500
50
156.5739
51
336.5739
0
LINE
8
0
10
3083.1937
20
613.3367
30
0
11
3084.9828
21
617.4658
31
0
0
LINE
8
0
10
3087.3228
20
611.5477
30
0
11
3089.1119
21
615.6768
31
0
0
ARC
8
0
10
3087.0473
20
616.5713
30
0
40
2.2500
50
336.5739
51
156.5739
0
ARC
8
0
10
3085.2583
20
612.4422
30
0
40
2.2500
50
156.5739
51
336.5739
0
LINE
8
0
10
3134.8774
20
732.6213
30
0
11
3136.6664
21
736.7504
31
0
0
LINE
8
0
10
3139.0064
20
730.8322
30
0
11
3140.7955
21
734.9613
31
0
0
ARC
8
0
10
3138.7309
20
735.8559
30
0
40
2.2500
50
336.5739
51
156.5739
0
ARC
8
0
10
3136.9419
20
731.7268
30
0
40
2.2500
50
156.5739
51
336.5739
0
LINE
8
0
10
2828.9048
20
-15.1249
30
0
11
2830.6938
21
-19.2540
31
0
0
LINE
8
0
10
2824.7757
20
-16.9140
30
0
11
2826.5647
21
-21.0431
31
0
0
ARC
8
0
10
2828.6293
20
-20.1485
30
0
40
2.2500
50
203.4261
51
23.4261
0
ARC
8
0
10
2826.8402
20
-16.0195
30
0
40
2.2500
50
23.4261
51
203.4261
0
LINE
8
0
10
2880.5884
20
-134.4095
30
0
11
2882.3774
21
-138.5386
31
0
0
LINE
8
0
10
2876.4593
20
-136.1985
30
0
11
2878.2484
21
-140.3276
31
0
0
ARC
8
0
10
2880.3129
20
-139.4331
30
0
40
2.2500
50
203.4261
51
23.4261
0
ARC
8
0
10
2878.5238
20
-135.3040
30
0
40
2.2500
50
23.4261
51
203.4261
0
LINE
8
0
10
2932.2720
20
-253.6940
30
0
11
2934.0610
21
-257.8231
31
0
0
LINE
8
0
10
2928.1429
20
-255.4831
30
0
11
2929.9320
21
-259.6122
31
0
0
ARC
8
0
10
2931.9965
20
-258.7176
30
0
40
2.2500
50
203.4261
51
23.4261
0
ARC
8
0
10
2930.2075
20
-254.5886
30
0
40
2.2500
50
23.4261
51
203.4261
0
LINE
8
0
10
2983.9556
20
-372.9786
30
0
11
2985.7447
21
-377.1077
31
0
0
LINE
8
0
10
2979.8265
20
-374.7676
30
0
11
2981.6156
21
-378.8967
31
0
0
ARC
8
0
10
2983.6801
20
-378.0022
30
0
40
2.2500
50
203.4261
51
23.4261
0
ARC
8
0
10
2981.8911
20
-373.8731
30
0
40
2.2500
50
23.4261
51
203.4261
0
LINE
8
0
10
3035.6392
20
-492.2631
30
0
11
3037.4283
21
-496.3922
31
0
0
LINE
8
0
10
3031.5101
20
-494.0522
30
0
11
3033.2992
21
-498.1813
31
0
0
ARC
8
0
10
3035.3637
20
-497.2867
30
0
40
2.2500
50
203.4261
51
23.4261
0
ARC
8
0
10
3033.5747
20
-493.1577
30
0
40
2.2500
50
23.4261
51
203.4261
0
LINE
8
0
10
3087.3228
20
-611.5477
30
0
11
3089.1119
21
-615.6768
31
0
0
LINE
8
0
10
3083.1937
20
-613.3367
30
0
11
3084.9828
21
-617.4658
31
0
0
ARC
8
0
10
3087.0473
20
-616.5713
30
0
40
2.2500
50
203.4261
51
23.4261
0
ARC
8
0
10
3085.2583
20
-612.4422
30
0
40
2.2500
50
23.4261
51
203.4261
0
LINE
8
0
10
3139.0064
20
-730.8322
30
0
11
3140.7955
21
-734.9613
31
0
0
LINE
8
0
10
3134.8774
20
-732.6213
30
0
11
3136.6664
21
-736.7504
31
0
0
ARC
8
0
10
3138.7309
20
-735.8559
30
0
40
2.2500
50
203.4261
51
23.4261
0
ARC
8
0
10
3136.9419
20
-731.7268
30
0
40
2.2500
50
23.4261
51
203.4261
0
LINE
8
0
10
2854.1070
20
0.0000
30
0
11
2845.1806
21
-21.2755
31
0
0
LINE
8
0
10
2845.1806
20
-21.2755
30
0
11
3327.9969
21
-654.3085
31
0
0
LINE
8
0
10
3327.9969
20
-654.3085
30
0
11
3350.1685
21
-650.3991
31
0
0
LINE
8
0
10
3350.1685
20
-650.3991
30
0
11
3373.1685
21
-650.3991
31
0
0
LINE
8
0
10
3373.1685
20
-650.3991
30
0
11
3390.1685
21
-644.3991
31
0
0
LINE
8
0
10
3390.1685
20
-644.3991
30
0
11
3390.1685
21
644.3991
31
0
0
LINE
8
0
10
3390.1685
20
644.3991
30
0
11
3373.1685
21
650.3991
31
0
0
LINE
8
0
10
3373.1685
20
650.3991
30
0
11
3350.1685
21
650.3991
31
0
0
LINE
8
0
10
3350.1685
20
650.3991
30
0
11
3327.9969
21
654.3085
31
0
0
LINE
8
0
10
3327.9969
20
654.3085
30
0
11
2845.1806
21
21.2755
31
0
0
LINE
8
0
10
2845.1806
20
21.2755
30
0
11
2854.1070
21
0.0000
31
0
0
CIRCLE
8
0
10
3325.1685
20
-325.0000
30
0
40
3.5000
0
CIRCLE
8
0
10
3285.1685
20
-325.0000
30
0
40
3.5000
0
CIRCLE
8
0
10
3325.1685
20
0.0000
30
0
40
3.5000
0
CIRCLE
8
0
10
3285.1685
20
0.0000
30
0
40
3.5000
0
CIRCLE
8
0
10
3325.1685
20
325.0000
30
0
40
3.5000
0
CIRCLE
8
0
10
3285.1685
20
325.0000
30
0
40
3.5000
0
CIRCLE
8
0
10
2855.4803
20
18.2901
30
0
40
2.2500
0
CIRCLE
8
0
10
2855.4803
20
-18.2901
30
0
40
2.2500
0
CIRCLE
8
0
10
2934.3181
20
121.6564
30
0
40
2.2500
0
CIRCLE
8
0
10
2934.3181
20
-121.6564
30
0
40
2.2500
0
CIRCLE
8
0
10
3013.1559
20
225.0227
30
0
40
2.2500
0
CIRCLE
8
0
10
3013.1559
20
-225.0227
30
0
40
2.2500
0
CIRCLE
8
0
10
3091.9937
20
328.3890
30
0
40
2.2500
0
CIRCLE
8
0
10
3091.9937
20
-328.3890
30
0
40
2.2500
0
CIRCLE
8
0
10
3170.8316
20
431.7554
30
0
40
2.2500
0
CIRCLE
8
0
10
3170.8316
20
-431.7554
30
0
40
2.2500
0
CIRCLE
8
0
10
3249.6694
20
535.1217
30
0
40
2.2500
0
CIRCLE
8
0
10
3249.6694
20
-535.1217
30
0
40
2.2500
0
CIRCLE
8
0
10
3328.5072
20
638.4880
30
0
40
2.2500
0
CIRCLE
8
0
10
3328.5072
20
-638.4880
30
0
40
2.2500
0
ENDSEC
0
EOF
