0
SECTION
2
HEADER
9
$ACADVER
1
AC1009
9
$INSUNITS
70
4
0
ENDSEC
0
SECTION
2
ENTITIES
0
LINE
8
0
10
273.2962
20
21.2755
30
0
11
-152.2825
21
579.2629
31
0
0
LINE
8
0
10
-152.2825
20
579.2629
30
0
11
-174.4541
21
575.3535
31
0
0
LINE
8
0
10
-174.4541
20
575.3535
30
0
11
-197.4541
21
575.3535
31
0
0
LINE
8
0
10
-197.4541
20
575.3535
30
0
11
-214.4541
21
569.3535
31
0
0
LINE
8
0
10
-214.4541
20
569.3535
30
0
11
-214.4541
21
-569.3535
31
0
0
LINE
8
0
10
-214.4541
20
-569.3535
30
0
11
-197.4541
21
-575.3535
31
0
0
LINE
8
0
10
-197.4541
20
-575.3535
30
0
11
-174.4541
21
-575.3535
31
0
0
LINE
8
0
10
-174.4541
20
-575.3535
30
0
11
-152.2825
21
-579.2629
31
0
0
LINE
8
0
10
-152.2825
20
-579.2629
30
0
11
273.2962
21
-21.2755
31
0
0
LINE
8
0
10
273.2962
20
-21.2755
30
0
11
264.3698
21
0.0000
31
0
0
LINE
8
0
10
264.3698
20
0.0000
30
0
11
273.2962
21
21.2755
31
0
0
CIRCLE
8
0
10
-149.4541
20
-200.0000
30
0
40
3.5000
0
CIRCLE
8
0
10
-109.4541
20
-200.0000
30
0
40
3.5000
0
CIRCLE
8
0
10
-149.4541
20
200.0000
30
0
40
3.5000
0
CIRCLE
8
0
10
-109.4541
20
200.0000
30
0
40
3.5000
0
CIRCLE
8
0
10
262.9966
20
18.2901
30
0
40
2.2500
0
CIRCLE
8
0
10
262.9966
20
-18.2901
30
0
40
2.2500
0
CIRCLE
8
0
10
179.9136
20
127.2223
30
0
40
2.2500
0
CIRCLE
8
0
10
179.9136
20
-127.2223
30
0
40
2.2500
0
CIRCLE
8
0
10
96.8307
20
236.1545
30
0
40
2.2500
0
CIRCLE
8
0
10
96.8307
20
-236.1545
30
0
40
2.2500
0
CIRCLE
8
0
10
13.7478
20
345.0867
30
0
40
2.2500
0
CIRCLE
8
0
10
13.7478
20
-345.0867
30
0
40
2.2500
0
CIRCLE
8
0
10
-69.3352
20
454.0189
30
0
40
2.2500
0
CIRCLE
8
0
10
-69.3352
20
-454.0189
30
0
40
2.2500
0
CIRCLE
8
0
10
-152.4181
20
562.9511
30
0
40
2.2500
0
CIRCLE
8
0
10
-152.4181
20
-562.9511
30
0
40
2.2500
0
LINE
8
0
10
6.0000
20
703.9568
30
0
11
0.0000
21
686.9568
31
0
0
LINE
8
0
10
0.0000
20
686.9568
30
0
11
0.0000
21
663.9568
31
0
0
LINE
8
0
10
0.0000
20
663.9568
30
0
11
287.6792
21
0.0000
31
0
0
LINE
8
0
10
287.6792
20
0.0000
30
0
11
0.0000
21
-663.9568
31
0
0
LINE
8
0
10
0.0000
20
-663.9568
30
0
11
0.0000
21
-686.9568
31
0
0
LINE
8
0
10
0.0000
20
-686.9568
30
0
11
6.0000
21
-703.9568
31
0
0
LINE
8
0
10
6.0000
20
-703.9568
30
0
11
987.5000
21
-703.9568
31
0
0
LINE
8
0
10
987.5000
20
-703.9568
30
0
11
987.5000
21
-661.9568
31
0
0
LINE
8
0
10
987.5000
20
-661.9568
30
0
11
1001.5000
21
-661.9568
31
0
0
LINE
8
0
10
1001.5000
20
-661.9568
30
0
11
1001.5000
21
-15.0000
31
0
0
LINE
8
0
10
1001.5000
20
-15.0000
30
0
11
986.5000
21
0.0000
31
0
0
LINE
8
0
10
986.5000
20
0.0000
30
0
11
1001.5000
21
15.0000
31
0
0
LINE
8
0
10
1001.5000
20
15.0000
30
0
11
1001.5000
21
661.9568
31
0
0
LINE
8
0
10
1001.5000
20
661.9568
30
0
11
987.5000
21
661.9568
31
0
0
LINE
8
0
10
987.5000
20
661.9568
30
0
11
987.5000
21
703.9568
31
0
0
LINE
8
0
10
987.5000
20
703.9568
30
0
11
6.0000
21
703.9568
31
0
0
CIRCLE
8
0
10
300.0000
20
638.9568
30
0
40
3.5000
0
CIRCLE
8
0
10
300.0000
20
598.9568
30
0
40
3.5000
0
CIRCLE
8
0
10
300.0000
20
-638.9568
30
0
40
3.5000
0
CIRCLE
8
0
10
300.0000
20
-598.9568
30
0
40
3.5000
0
CIRCLE
8
0
10
604.5455
20
638.9568
30
0
40
3.5000
0
CIRCLE
8
0
10
604.5455
20
598.9568
30
0
40
3.5000
0
CIRCLE
8
0
10
604.5455
20
-638.9568
30
0
40
3.5000
0
CIRCLE
8
0
10
604.5455
20
-598.9568
30
0
40
3.5000
0
CIRCLE
8
0
10
909.0909
20
638.9568
30
0
40
3.5000
0
CIRCLE
8
0
10
909.0909
20
598.9568
30
0
40
3.5000
0
CIRCLE
8
0
10
909.0909
20
-638.9568
30
0
40
3.5000
0
CIRCLE
8
0
10
909.0909
20
-598.9568
30
0
40
3.5000
0
LINE
8
0
10
289.5721
20
15.1249
30
0
11
287.7830
21
19.2540
31
0
0
LINE
8
0
10
293.7012
20
16.9140
30
0
11
291.9121
21
21.0431
31
0
0
ARC
8
0
10
289.8476
20
20.1485
30
0
40
2.2500
50
23.4261
51
203.4261
0
ARC
8
0
10
291.6366
20
16.0195
30
0
40
2.2500
50
203.4261
51
23.4261
0
LINE
8
0
10
235.1055
20
140.8325
30
0
11
233.3165
21
144.9616
31
0
0
LINE
8
0
10
239.2346
20
142.6215
30
0
11
237.4455
21
146.7506
31
0
0
ARC
8
0
10
235.3810
20
145.8561
30
0
40
2.2500
50
23.4261
51
203.4261
0
ARC
8
0
10
237.1700
20
141.7270
30
0
40
2.2500
50
203.4261
51
23.4261
0
LINE
8
0
10
180.6389
20
266.5401
30
0
11
178.8499
21
270.6691
31
0
0
LINE
8
0
10
184.7680
20
268.3291
30
0
11
182.9790
21
272.4582
31
0
0
ARC
8
0
10
180.9144
20
271.5637
30
0
40
2.2500
50
23.4261
51
203.4261
0
ARC
8
0
10
182.7035
20
267.4346
30
0
40
2.2500
50
203.4261
51
23.4261
0
LINE
8
0
10
126.1724
20
392.2476
30
0
11
124.3833
21
396.3767
31
0
0
LINE
8
0
10
130.3014
20
394.0367
30
0
11
128.5124
21
398.1658
31
0
0
ARC
8
0
10
126.4478
20
397.2712
30
0
40
2.2500
50
23.4261
51
203.4261
0
ARC
8
0
10
128.2369
20
393.1422
30
0
40
2.2500
50
203.4261
51
23.4261
0
LINE
8
0
10
71.7058
20
517.9552
30
0
11
69.9167
21
522.0843
31
0
0
LINE
8
0
10
75.8349
20
519.7442
30
0
11
74.0458
21
523.8733
31
0
0
ARC
8
0
10
71.9813
20
522.9788
30
0
40
2.2500
50
23.4261
51
203.4261
0
ARC
8
0
10
73.7703
20
518.8497
30
0
40
2.2500
50
203.4261
51
23.4261
0
LINE
8
0
10
17.2392
20
643.6628
30
0
11
15.4502
21
647.7918
31
0
0
LINE
8
0
10
21.3683
20
645.4518
30
0
11
19.5792
21
649.5809
31
0
0
ARC
8
0
10
17.5147
20
648.6864
30
0
40
2.2500
50
23.4261
51
203.4261
0
ARC
8
0
10
19.3037
20
644.5573
30
0
40
2.2500
50
203.4261
51
23.4261
0
LINE
8
0
10
293.7012
20
-16.9140
30
0
11
291.9121
21
-21.0431
31
0
0
LINE
8
0
10
289.5721
20
-15.1249
30
0
11
287.7830
21
-19.2540
31
0
0
ARC
8
0
10
289.8476
20
-20.1485
30
0
40
2.2500
50
156.5739
51
336.5739
0
ARC
8
0
10
291.6366
20
-16.0195
30
0
40
2.2500
50
336.5739
51
156.5739
0
LINE
8
0
10
239.2346
20
-142.6215
30
0
11
237.4455
21
-146.7506
31
0
0
LINE
8
0
10
235.1055
20
-140.8325
30
0
11
233.3165
21
-144.9616
31
0
0
ARC
8
0
10
235.3810
20
-145.8561
30
0
40
2.2500
50
156.5739
51
336.5739
0
ARC
8
0
10
237.1700
20
-141.7270
30
0
40
2.2500
50
336.5739
51
156.5739
0
LINE
8
0
10
184.7680
20
-268.3291
30
0
11
182.9790
21
-272.4582
31
0
0
LINE
8
0
10
180.6389
20
-266.5401
30
0
11
178.8499
21
-270.6691
31
0
0
ARC
8
0
10
180.9144
20
-271.5637
30
0
40
2.2500
50
156.5739
51
336.5739
0
ARC
8
0
10
182.7035
20
-267.4346
30
0
40
2.2500
50
336.5739
51
156.5739
0
LINE
8
0
10
130.3014
20
-394.0367
30
0
11
128.5124
21
-398.1658
31
0
0
LINE
8
0
10
126.1724
20
-392.2476
30
0
11
124.3833
21
-396.3767
31
0
0
ARC
8
0
10
126.4478
20
-397.2712
30
0
40
2.2500
50
156.5739
51
336.5739
0
ARC
8
0
10
128.2369
20
-393.1422
30
0
40
2.2500
50
336.5739
51
156.5739
0
LINE
8
0
10
75.8349
20
-519.7442
30
0
11
74.0458
21
-523.8733
31
0
0
LINE
8
0
10
71.7058
20
-517.9552
30
0
11
69.9167
21
-522.0843
31
0
0
ARC
8
0
10
71.9813
20
-522.9788
30
0
40
2.2500
50
156.5739
51
336.5739
0
ARC
8
0
10
73.7703
20
-518.8497
30
0
40
2.2500
50
336.5739
51
156.5739
0
LINE
8
0
10
21.3683
20
-645.4518
30
0
11
19.5792
21
-649.5809
31
0
0
LINE
8
0
10
17.2392
20
-643.6628
30
0
11
15.4502
21
-647.7918
31
0
0
ARC
8
0
10
17.5147
20
-648.6864
30
0
40
2.2500
50
156.5739
51
336.5739
0
ARC
8
0
10
19.3037
20
-644.5573
30
0
40
2.2500
50
336.5739
51
156.5739
0
LINE
8
0
10
1115.5000
20
703.9568
30
0
11
1115.5000
21
661.9568
31
0
0
LINE
8
0
10
1115.5000
20
661.9568
30
0
11
1101.5000
21
661.9568
31
0
0
LINE
8
0
10
1101.5000
20
661.9568
30
0
11
1101.5000
21
15.0000
31
0
0
LINE
8
0
10
1101.5000
20
15.0000
30
0
11
1116.5000
21
0.0000
31
0
0
LINE
8
0
10
1116.5000
20
0.0000
30
0
11
1101.5000
21
-15.0000
31
0
0
LINE
8
0
10
1101.5000
20
-15.0000
30
0
11
1101.5000
21
-661.9568
31
0
0
LINE
8
0
10
1101.5000
20
-661.9568
30
0
11
1115.5000
21
-661.9568
31
0
0
LINE
8
0
10
1115.5000
20
-661.9568
30
0
11
1115.5000
21
-703.9568
31
0
0
LINE
8
0
10
1115.5000
20
-703.9568
30
0
11
2103.0000
21
-703.9568
31
0
0
LINE
8
0
10
2103.0000
20
-703.9568
30
0
11
2103.0000
21
-661.9568
31
0
0
LINE
8
0
10
2103.0000
20
-661.9568
30
0
11
2117.0000
21
-661.9568
31
0
0
LINE
8
0
10
2117.0000
20
-661.9568
30
0
11
2117.0000
21
-15.0000
31
0
0
LINE
8
0
10
2117.0000
20
-15.0000
30
0
11
2102.0000
21
0.0000
31
0
0
LINE
8
0
10
2102.0000
20
0.0000
30
0
11
2117.0000
21
15.0000
31
0
0
LINE
8
0
10
2117.0000
20
15.0000
30
0
11
2117.0000
21
661.9568
31
0
0
LINE
8
0
10
2117.0000
20
661.9568
30
0
11
2103.0000
21
661.9568
31
0
0
LINE
8
0
10
2103.0000
20
661.9568
30
0
11
2103.0000
21
703.9568
31
0
0
LINE
8
0
10
2103.0000
20
703.9568
30
0
11
1115.5000
21
703.9568
31
0
0
CIRCLE
8
0
10
1341.6364
20
638.9568
30
0
40
3.5000
0
CIRCLE
8
0
10
1341.6364
20
598.9568
30
0
40
3.5000
0
CIRCLE
8
0
10
1341.6364
20
-638.9568
30
0
40
3.5000
0
CIRCLE
8
0
10
1341.6364
20
-598.9568
30
0
40
3.5000
0
CIRCLE
8
0
10
1646.1818
20
638.9568
30
0
40
3.5000
0
CIRCLE
8
0
10
1646.1818
20
598.9568
30
0
40
3.5000
0
CIRCLE
8
0
10
1646.1818
20
-638.9568
30
0
40
3.5000
0
CIRCLE
8
0
10
1646.1818
20
-598.9568
30
0
40
3.5000
0
CIRCLE
8
0
10
1950.7273
20
638.9568
30
0
40
3.5000
0
CIRCLE
8
0
10
1950.7273
20
598.9568
30
0
40
3.5000
0
CIRCLE
8
0
10
1950.7273
20
-638.9568
30
0
40
3.5000
0
CIRCLE
8
0
10
1950.7273
20
-598.9568
30
0
40
3.5000
0
LINE
8
0
10
2231.0000
20
703.9568
30
0
11
2231.0000
21
661.9568
31
0
0
LINE
8
0
10
2231.0000
20
661.9568
30
0
11
2217.0000
21
661.9568
31
0
0
LINE
8
0
10
2217.0000
20
661.9568
30
0
11
2217.0000
21
15.0000
31
0
0
LINE
8
0
10
2217.0000
20
15.0000
30
0
11
2232.0000
21
0.0000
31
0
0
LINE
8
0
10
2232.0000
20
0.0000
30
0
11
2217.0000
21
-15.0000
31
0
0
LINE
8
0
10
2217.0000
20
-15.0000
30
0
11
2217.0000
21
-661.9568
31
0
0
LINE
8
0
10
2217.0000
20
-661.9568
30
0
11
2231.0000
21
-661.9568
31
0
0
LINE
8
0
10
2231.0000
20
-661.9568
30
0
11
2231.0000
21
-703.9568
31
0
0
LINE
8
0
10
2231.0000
20
-703.9568
30
0
11
3218.5000
21
-703.9568
31
0
0
LINE
8
0
10
3218.5000
20
-703.9568
30
0
11
3218.5000
21
-661.9568
31
0
0
LINE
8
0
10
3218.5000
20
-661.9568
30
0
11
3232.5000
21
-661.9568
31
0
0
LINE
8
0
10
3232.5000
20
-661.9568
30
0
11
3232.5000
21
-15.0000
31
0
0
LINE
8
0
10
3232.5000
20
-15.0000
30
0
11
3217.5000
21
0.0000
31
0
0
LINE
8
0
10
3217.5000
20
0.0000
30
0
11
3232.5000
21
15.0000
31
0
0
LINE
8
0
10
3232.5000
20
15.0000
30
0
11
3232.5000
21
661.9568
31
0
0
LINE
8
0
10
3232.5000
20
661.9568
30
0
11
3218.5000
21
661.9568
31
0
0
LINE
8
0
10
3218.5000
20
661.9568
30
0
11
3218.5000
21
703.9568
31
0
0
LINE
8
0
10
3218.5000
20
703.9568
30
0
11
2231.0000
21
703.9568
31
0
0
CIRCLE
8
0
10
2383.2727
20
638.9568
30
0
40
3.5000
0
CIRCLE
8
0
10
2383.2727
20
598.9568
30
0
40
3.5000
0
CIRCLE
8
0
10
2383.2727
20
-638.9568
30
0
40
3.5000
0
CIRCLE
8
0
10
2383.2727
20
-598.9568
30
0
40
3.5000
0
CIRCLE
8
0
10
2687.8182
20
638.9568
30
0
40
3.5000
0
CIRCLE
8
0
10
2687.8182
20
598.9568
30
0
40
3.5000
0
CIRCLE
8
0
10
2687.8182
20
-638.9568
30
0
40
3.5000
0
CIRCLE
8
0
10
2687.8182
20
-598.9568
30
0
40
3.5000
0
CIRCLE
8
0
10
2992.3636
20
638.9568
30
0
40
3.5000
0
CIRCLE
8
0
10
2992.3636
20
598.9568
30
0
40
3.5000
0
CIRCLE
8
0
10
2992.3636
20
-638.9568
30
0
40
3.5000
0
CIRCLE
8
0
10
2992.3636
20
-598.9568
30
0
40
3.5000
0
LINE
8
0
10
3346.5000
20
703.9568
30
0
11
3346.5000
21
661.9568
31
0
0
LINE
8
0
10
3346.5000
20
661.9568
30
0
11
3332.5000
21
661.9568
31
0
0
LINE
8
0
10
3332.5000
20
661.9568
30
0
11
3332.5000
21
15.0000
31
0
0
LINE
8
0
10
3332.5000
20
15.0000
30
0
11
3347.5000
21
0.0000
31
0
0
LINE
8
0
10
3347.5000
20
0.0000
30
0
11
3332.5000
21
-15.0000
31
0
0
LINE
8
0
10
3332.5000
20
-15.0000
30
0
11
3332.5000
21
-661.9568
31
0
0
LINE
8
0
10
3332.5000
20
-661.9568
30
0
11
3346.5000
21
-661.9568
31
0
0
LINE
8
0
10
3346.5000
20
-661.9568
30
0
11
3346.5000
21
-703.9568
31
0
0
LINE
8
0
10
3346.5000
20
-703.9568
30
0
11
4328.0000
21
-703.9568
31
0
0
LINE
8
0
10
4328.0000
20
-703.9568
30
0
11
4334.0000
21
-686.9568
31
0
0
LINE
8
0
10
4334.0000
20
-686.9568
30
0
11
4334.0000
21
-663.9568
31
0
0
LINE
8
0
10
4334.0000
20
-663.9568
30
0
11
4046.3208
21
0.0000
31
0
0
LINE
8
0
10
4046.3208
20
0.0000
30
0
11
4334.0000
21
663.9568
31
0
0
LINE
8
0
10
4334.0000
20
663.9568
30
0
11
4334.0000
21
686.9568
31
0
0
LINE
8
0
10
4334.0000
20
686.9568
30
0
11
4328.0000
21
703.9568
31
0
0
LINE
8
0
10
4328.0000
20
703.9568
30
0
11
3346.5000
21
703.9568
31
0
0
CIRCLE
8
0
10
3424.9091
20
638.9568
30
0
40
3.5000
0
CIRCLE
8
0
10
3424.9091
20
598.9568
30
0
40
3.5000
0
CIRCLE
8
0
10
3424.9091
20
-638.9568
30
0
40
3.5000
0
CIRCLE
8
0
10
3424.9091
20
-598.9568
30
0
40
3.5000
0
CIRCLE
8
0
10
3729.4545
20
638.9568
30
0
40
3.5000
0
CIRCLE
8
0
10
3729.4545
20
598.9568
30
0
40
3.5000
0
CIRCLE
8
0
10
3729.4545
20
-638.9568
30
0
40
3.5000
0
CIRCLE
8
0
10
3729.4545
20
-598.9568
30
0
40
3.5000
0
CIRCLE
8
0
10
4034.0000
20
638.9568
30
0
40
3.5000
0
CIRCLE
8
0
10
4034.0000
20
598.9568
30
0
40
3.5000
0
CIRCLE
8
0
10
4034.0000
20
-638.9568
30
0
40
3.5000
0
CIRCLE
8
0
10
4034.0000
20
-598.9568
30
0
40
3.5000
0
LINE
8
0
10
4040.2988
20
16.9140
30
0
11
4042.0879
21
21.0431
31
0
0
LINE
8
0
10
4044.4279
20
15.1249
30
0
11
4046.2170
21
19.2540
31
0
0
ARC
8
0
10
4044.1524
20
20.1485
30
0
40
2.2500
50
336.5739
51
156.5739
0
ARC
8
0
10
4042.3634
20
16.0195
30
0
40
2.2500
50
156.5739
51
336.5739
0
LINE
8
0
10
4094.7654
20
142.6215
30
0
11
4096.5545
21
146.7506
31
0
0
LINE
8
0
10
4098.8945
20
140.8325
30
0
11
4100.6835
21
144.9616
31
0
0
ARC
8
0
10
4098.6190
20
145.8561
30
0
40
2.2500
50
336.5739
51
156.5739
0
ARC
8
0
10
4096.8300
20
141.7270
30
0
40
2.2500
50
156.5739
51
336.5739
0
LINE
8
0
10
4149.2320
20
268.3291
30
0
11
4151.0210
21
272.4582
31
0
0
LINE
8
0
10
4153.3611
20
266.5401
30
0
11
4155.1501
21
270.6691
31
0
0
ARC
8
0
10
4153.0856
20
271.5637
30
0
40
2.2500
50
336.5739
51
156.5739
0
ARC
8
0
10
4151.2965
20
267.4346
30
0
40
2.2500
50
156.5739
51
336.5739
0
LINE
8
0
10
4203.6986
20
394.0367
30
0
11
4205.4876
21
398.1658
31
0
0
LINE
8
0
10
4207.8276
20
392.2476
30
0
11
4209.6167
21
396.3767
31
0
0
ARC
8
0
10
4207.5522
20
397.2712
30
0
40
2.2500
50
336.5739
51
156.5739
0
ARC
8
0
10
4205.7631
20
393.1422
30
0
40
2.2500
50
156.5739
51
336.5739
0
LINE
8
0
10
4258.1651
20
519.7442
30
0
11
4259.9542
21
523.8733
31
0
0
LINE
8
0
10
4262.2942
20
517.9552
30
0
11
4264.0833
21
522.0843
31
0
0
ARC
8
0
10
4262.0187
20
522.9788
30
0
40
2.2500
50
336.5739
51
156.5739
0
ARC
8
0
10
4260.2297
20
518.8497
30
0
40
2.2500
50
156.5739
51
336.5739
0
LINE
8
0
10
4312.6317
20
645.4518
30
0
11
4314.4208
21
649.5809
31
0
0
LINE
8
0
10
4316.7608
20
643.6628
30
0
11
4318.5498
21
647.7918
31
0
0
ARC
8
0
10
4316.4853
20
648.6864
30
0
40
2.2500
50
336.5739
51
156.5739
0
ARC
8
0
10
4314.6963
20
644.5573
30
0
40
2.2500
50
156.5739
51
336.5739
0
LINE
8
0
10
4044.4279
20
-15.1249
30
0
11
4046.2170
21
-19.2540
31
0
0
LINE
8
0
10
4040.2988
20
-16.9140
30
0
11
4042.0879
21
-21.0431
31
0
0
ARC
8
0
10
4044.1524
20
-20.1485
30
0
40
2.2500
50
203.4261
51
23.4261
0
ARC
8
0
10
4042.3634
20
-16.0195
30
0
40
2.2500
50
23.4261
51
203.4261
0
LINE
8
0
10
4098.8945
20
-140.8325
30
0
11
4100.6835
21
-144.9616
31
0
0
LINE
8
0
10
4094.7654
20
-142.6215
30
0
11
4096.5545
21
-146.7506
31
0
0
ARC
8
0
10
4098.6190
20
-145.8561
30
0
40
2.2500
50
203.4261
51
23.4261
0
ARC
8
0
10
4096.8300
20
-141.7270
30
0
40
2.2500
50
23.4261
51
203.4261
0
LINE
8
0
10
4153.3611
20
-266.5401
30
0
11
4155.1501
21
-270.6691
31
0
0
LINE
8
0
10
4149.2320
20
-268.3291
30
0
11
4151.0210
21
-272.4582
31
0
0
ARC
8
0
10
4153.0856
20
-271.5637
30
0
40
2.2500
50
203.4261
51
23.4261
0
ARC
8
0
10
4151.2965
20
-267.4346
30
0
40
2.2500
50
23.4261
51
203.4261
0
LINE
8
0
10
4207.8276
20
-392.2476
30
0
11
4209.6167
21
-396.3767
31
0
0
LINE
8
0
10
4203.6986
20
-394.0367
30
0
11
4205.4876
21
-398.1658
31
0
0
ARC
8
0
10
4207.5522
20
-397.2712
30
0
40
2.2500
50
203.4261
51
23.4261
0
ARC
8
0
10
4205.7631
20
-393.1422
30
0
40
2.2500
50
23.4261
51
203.4261
0
LINE
8
0
10
4262.2942
20
-517.9552
30
0
11
4264.0833
21
-522.0843
31
0
0
LINE
8
0
10
4258.1651
20
-519.7442
30
0
11
4259.9542
21
-523.8733
31
0
0
ARC
8
0
10
4262.0187
20
-522.9788
30
0
40
2.2500
50
203.4261
51
23.4261
0
ARC
8
0
10
4260.2297
20
-518.8497
30
0
40
2.2500
50
23.4261
51
203.4261
0
LINE
8
0
10
4316.7608
20
-643.6628
30
0
11
4318.5498
21
-647.7918
31
0
0
LINE
8
0
10
4312.6317
20
-645.4518
30
0
11
4314.4208
21
-649.5809
31
0
0
ARC
8
0
10
4316.4853
20
-648.6864
30
0
40
2.2500
50
203.4261
51
23.4261
0
ARC
8
0
10
4314.6963
20
-644.5573
30
0
40
2.2500
50
23.4261
51
203.4261
0
LINE
8
0
10
4069.6302
20
0.0000
30
0
11
4060.7038
21
-21.2755
31
0
0
LINE
8
0
10
4060.7038
20
-21.2755
30
0
11
4486.2825
21
-579.2629
31
0
0
LINE
8
0
10
4486.2825
20
-579.2629
30
0
11
4508.4541
21
-575.3535
31
0
0
LINE
8
0
10
4508.4541
20
-575.3535
30
0
11
4531.4541
21
-575.3535
31
0
0
LINE
8
0
10
4531.4541
20
-575.3535
30
0
11
4548.4541
21
-569.3535
31
0
0
LINE
8
0
10
4548.4541
20
-569.3535
30
0
11
4548.4541
21
569.3535
31
0
0
LINE
8
0
10
4548.4541
20
569.3535
30
0
11
4531.4541
21
575.3535
31
0
0
LINE
8
0
10
4531.4541
20
575.3535
30
0
11
4508.4541
21
575.3535
31
0
0
LINE
8
0
10
4508.4541
20
575.3535
30
0
11
4486.2825
21
579.2629
31
0
0
LINE
8
0
10
4486.2825
20
579.2629
30
0
11
4060.7038
21
21.2755
31
0
0
LINE
8
0
10
4060.7038
20
21.2755
30
0
11
4069.6302
21
0.0000
31
0
0
CIRCLE
8
0
10
4483.4541
20
-200.0000
30
0
40
3.5000
0
CIRCLE
8
0
10
4443.4541
20
-200.0000
30
0
40
3.5000
0
CIRCLE
8
0
10
4483.4541
20
200.0000
30
0
40
3.5000
0
CIRCLE
8
0
10
4443.4541
20
200.0000
30
0
40
3.5000
0
CIRCLE
8
0
10
4071.0034
20
18.2901
30
0
40
2.2500
0
CIRCLE
8
0
10
4071.0034
20
-18.2901
30
0
40
2.2500
0
CIRCLE
8
0
10
4154.0864
20
127.2223
30
0
40
2.2500
0
CIRCLE
8
0
10
4154.0864
20
-127.2223
30
0
40
2.2500
0
CIRCLE
8
0
10
4237.1693
20
236.1545
30
0
40
2.2500
0
CIRCLE
8
0
10
4237.1693
20
-236.1545
30
0
40
2.2500
0
CIRCLE
8
0
10
4320.2522
20
345.0867
30
0
40
2.2500
0
CIRCLE
8
0
10
4320.2522
20
-345.0867
30
0
40
2.2500
0
CIRCLE
8
0
10
4403.3352
20
454.0189
30
0
40
2.2500
0
CIRCLE
8
0
10
4403.3352
20
-454.0189
30
0
40
2.2500
0
CIRCLE
8
0
10
4486.4181
20
562.9511
30
0
40
2.2500
0
CIRCLE
8
0
10
4486.4181
20
-562.9511
30
0
40
2.2500
0
ENDSEC
0
EOF
