0
SECTION
2
HEADER
9
$ACADVER
1
AC1009
9
$INSUNITS
70
4
0
ENDSEC
0
SECTION
2
ENTITIES
0
LINE
8
0
10
273.2962
20
21.2755
30
0
11
-152.2825
21
579.2629
31
0
0
LINE
8
0
10
-152.2825
20
579.2629
30
0
11
-174.4541
21
575.3535
31
0
0
LINE
8
0
10
-174.4541
20
575.3535
30
0
11
-197.4541
21
575.3535
31
0
0
LINE
8
0
10
-197.4541
20
575.3535
30
0
11
-214.4541
21
569.3535
31
0
0
LINE
8
0
10
-214.4541
20
569.3535
30
0
11
-214.4541
21
-569.3535
31
0
0
LINE
8
0
10
-214.4541
20
-569.3535
30
0
11
-197.4541
21
-575.3535
31
0
0
LINE
8
0
10
-197.4541
20
-575.3535
30
0
11
-174.4541
21
-575.3535
31
0
0
LINE
8
0
10
-174.4541
20
-575.3535
30
0
11
-152.2825
21
-579.2629
31
0
0
LINE
8
0
10
-152.2825
20
-579.2629
30
0
11
273.2962
21
-21.2755
31
0
0
LINE
8
0
10
273.2962
20
-21.2755
30
0
11
264.3698
21
0.0000
31
0
0
LINE
8
0
10
264.3698
20
0.0000
30
0
11
273.2962
21
21.2755
31
0
0
CIRCLE
8
0
10
-149.4541
20
-200.0000
30
0
40
3.5000
0
CIRCLE
8
0
10
-109.4541
20
-200.0000
30
0
40
3.5000
0
CIRCLE
8
0
10
-149.4541
20
200.0000
30
0
40
3.5000
0
CIRCLE
8
0
10
-109.4541
20
200.0000
30
0
40
3.5000
0
CIRCLE
8
0
10
262.9966
20
18.2901
30
0
40
2.2500
0
CIRCLE
8
0
10
262.9966
20
-18.2901
30
0
40
2.2500
0
CIRCLE
8
0
10
179.9136
20
127.2223
30
0
40
2.2500
0
CIRCLE
8
0
10
179.9136
20
-127.2223
30
0
40
2.2500
0
CIRCLE
8
0
10
96.8307
20
236.1545
30
0
40
2.2500
0
CIRCLE
8
0
10
96.8307
20
-236.1545
30
0
40
2.2500
0
CIRCLE
8
0
10
13.7478
20
345.0867
30
0
40
2.2500
0
CIRCLE
8
0
10
13.7478
20
-345.0867
30
0
40
2.2500
0
CIRCLE
8
0
10
-69.3352
20
454.0189
30
0
40
2.2500
0
CIRCLE
8
0
10
-69.3352
20
-454.0189
30
0
40
2.2500
0
CIRCLE
8
0
10
-152.4181
20
562.9511
30
0
40
2.2500
0
CIRCLE
8
0
10
-152.4181
20
-562.9511
30
0
40
2.2500
0
LINE
8
0
10
6.0000
20
703.9568
30
0
11
0.0000
21
686.9568
31
0
0
LINE
8
0
10
0.0000
20
686.9568
30
0
11
0.0000
21
663.9568
31
0
0
LINE
8
0
10
0.0000
20
663.9568
30
0
11
287.6792
21
0.0000
31
0
0
LINE
8
0
10
287.6792
20
0.0000
30
0
11
0.0000
21
-663.9568
31
0
0
LINE
8
0
10
0.0000
20
-663.9568
30
0
11
0.0000
21
-686.9568
31
0
0
LINE
8
0
10
0.0000
20
-686.9568
30
0
11
6.0000
21
-703.9568
31
0
0
LINE
8
0
10
6.0000
20
-703.9568
30
0
11
650.0000
21
-703.9568
31
0
0
LINE
8
0
10
650.0000
20
-703.9568
30
0
11
650.0000
21
-661.9568
31
0
0
LINE
8
0
10
650.0000
20
-661.9568
30
0
11
664.0000
21
-661.9568
31
0
0
LINE
8
0
10
664.0000
20
-661.9568
30
0
11
664.0000
21
-15.0000
31
0
0
LINE
8
0
10
664.0000
20
-15.0000
30
0
11
649.0000
21
0.0000
31
0
0
LINE
8
0
10
649.0000
20
0.0000
30
0
11
664.0000
21
15.0000
31
0
0
LINE
8
0
10
664.0000
20
15.0000
30
0
11
664.0000
21
661.9568
31
0
0
LINE
8
0
10
664.0000
20
661.9568
30
0
11
650.0000
21
661.9568
31
0
0
LINE
8
0
10
650.0000
20
661.9568
30
0
11
650.0000
21
703.9568
31
0
0
LINE
8
0
10
650.0000
20
703.9568
30
0
11
6.0000
21
703.9568
31
0
0
CIRCLE
8
0
10
300.0000
20
638.9568
30
0
40
3.5000
0
CIRCLE
8
0
10
300.0000
20
598.9568
30
0
40
3.5000
0
CIRCLE
8
0
10
300.0000
20
-638.9568
30
0
40
3.5000
0
CIRCLE
8
0
10
300.0000
20
-598.9568
30
0
40
3.5000
0
CIRCLE
8
0
10
533.3333
20
638.9568
30
0
40
3.5000
0
CIRCLE
8
0
10
533.3333
20
598.9568
30
0
40
3.5000
0
CIRCLE
8
0
10
533.3333
20
-638.9568
30
0
40
3.5000
0
CIRCLE
8
0
10
533.3333
20
-598.9568
30
0
40
3.5000
0
LINE
8
0
10
289.5721
20
15.1249
30
0
11
287.7830
21
19.2540
31
0
0
LINE
8
0
10
293.7012
20
16.9140
30
0
11
291.9121
21
21.0431
31
0
0
ARC
8
0
10
289.8476
20
20.1485
30
0
40
2.2500
50
23.4261
51
203.4261
0
ARC
8
0
10
291.6366
20
16.0195
30
0
40
2.2500
50
203.4261
51
23.4261
0
LINE
8
0
10
235.1055
20
140.8325
30
0
11
233.3165
21
144.9616
31
0
0
LINE
8
0
10
239.2346
20
142.6215
30
0
11
237.4455
21
146.7506
31
0
0
ARC
8
0
10
235.3810
20
145.8561
30
0
40
2.2500
50
23.4261
51
203.4261
0
ARC
8
0
10
237.1700
20
141.7270
30
0
40
2.2500
50
203.4261
51
23.4261
0
LINE
8
0
10
180.6389
20
266.5401
30
0
11
178.8499
21
270.6691
31
0
0
LINE
8
0
10
184.7680
20
268.3291
30
0
11
182.9790
21
272.4582
31
0
0
ARC
8
0
10
180.9144
20
271.5637
30
0
40
2.2500
50
23.4261
51
203.4261
0
ARC
8
0
10
182.7035
20
267.4346
30
0
40
2.2500
50
203.4261
51
23.4261
0
LINE
8
0
10
126.1724
20
392.2476
30
0
11
124.3833
21
396.3767
31
0
0
LINE
8
0
10
130.3014
20
394.0367
30
0
11
128.5124
21
398.1658
31
0
0
ARC
8
0
10
126.4478
20
397.2712
30
0
40
2.2500
50
23.4261
51
203.4261
0
ARC
8
0
10
128.2369
20
393.1422
30
0
40
2.2500
50
203.4261
51
23.4261
0
LINE
8
0
10
71.7058
20
517.9552
30
0
11
69.9167
21
522.0843
31
0
0
LINE
8
0
10
75.8349
20
519.7442
30
0
11
74.0458
21
523.8733
31
0
0
ARC
8
0
10
71.9813
20
522.9788
30
0
40
2.2500
50
23.4261
51
203.4261
0
ARC
8
0
10
73.7703
20
518.8497
30
0
40
2.2500
50
203.4261
51
23.4261
0
LINE
8
0
10
17.2392
20
643.6628
30
0
11
15.4502
21
647.7918
31
0
0
LINE
8
0
10
21.3683
20
645.4518
30
0
11
19.5792
21
649.5809
31
0
0
ARC
8
0
10
17.5147
20
648.6864
30
0
40
2.2500
50
23.4261
51
203.4261
0
ARC
8
0
10
19.3037
20
644.5573
30
0
40
2.2500
50
203.4261
51
23.4261
0
LINE
8
0
10
293.7012
20
-16.9140
30
0
11
291.9121
21
-21.0431
31
0
0
LINE
8
0
10
289.5721
20
-15.1249
30
0
11
287.7830
21
-19.2540
31
0
0
ARC
8
0
10
289.8476
20
-20.1485
30
0
40
2.2500
50
156.5739
51
336.5739
0
ARC
8
0
10
291.6366
20
-16.0195
30
0
40
2.2500
50
336.5739
51
156.5739
0
LINE
8
0
10
239.2346
20
-142.6215
30
0
11
237.4455
21
-146.7506
31
0
0
LINE
8
0
10
235.1055
20
-140.8325
30
0
11
233.3165
21
-144.9616
31
0
0
ARC
8
0
10
235.3810
20
-145.8561
30
0
40
2.2500
50
156.5739
51
336.5739
0
ARC
8
0
10
237.1700
20
-141.7270
30
0
40
2.2500
50
336.5739
51
156.5739
0
LINE
8
0
10
184.7680
20
-268.3291
30
0
11
182.9790
21
-272.4582
31
0
0
LINE
8
0
10
180.6389
20
-266.5401
30
0
11
178.8499
21
-270.6691
31
0
0
ARC
8
0
10
180.9144
20
-271.5637
30
0
40
2.2500
50
156.5739
51
336.5739
0
ARC
8
0
10
182.7035
20
-267.4346
30
0
40
2.2500
50
336.5739
51
156.5739
0
LINE
8
0
10
130.3014
20
-394.0367
30
0
11
128.5124
21
-398.1658
31
0
0
LINE
8
0
10
126.1724
20
-392.2476
30
0
11
124.3833
21
-396.3767
31
0
0
ARC
8
0
10
126.4478
20
-397.2712
30
0
40
2.2500
50
156.5739
51
336.5739
0
ARC
8
0
10
128.2369
20
-393.1422
30
0
40
2.2500
50
336.5739
51
156.5739
0
LINE
8
0
10
75.8349
20
-519.7442
30
0
11
74.0458
21
-523.8733
31
0
0
LINE
8
0
10
71.7058
20
-517.9552
30
0
11
69.9167
21
-522.0843
31
0
0
ARC
8
0
10
71.9813
20
-522.9788
30
0
40
2.2500
50
156.5739
51
336.5739
0
ARC
8
0
10
73.7703
20
-518.8497
30
0
40
2.2500
50
336.5739
51
156.5739
0
LINE
8
0
10
21.3683
20
-645.4518
30
0
11
19.5792
21
-649.5809
31
0
0
LINE
8
0
10
17.2392
20
-643.6628
30
0
11
15.4502
21
-647.7918
31
0
0
ARC
8
0
10
17.5147
20
-648.6864
30
0
40
2.2500
50
156.5739
51
336.5739
0
ARC
8
0
10
19.3037
20
-644.5573
30
0
40
2.2500
50
336.5739
51
156.5739
0
LINE
8
0
10
778.0000
20
703.9568
30
0
11
778.0000
21
661.9568
31
0
0
LINE
8
0
10
778.0000
20
661.9568
30
0
11
764.0000
21
661.9568
31
0
0
LINE
8
0
10
764.0000
20
661.9568
30
0
11
764.0000
21
15.0000
31
0
0
LINE
8
0
10
764.0000
20
15.0000
30
0
11
779.0000
21
0.0000
31
0
0
LINE
8
0
10
779.0000
20
0.0000
30
0
11
764.0000
21
-15.0000
31
0
0
LINE
8
0
10
764.0000
20
-15.0000
30
0
11
764.0000
21
-661.9568
31
0
0
LINE
8
0
10
764.0000
20
-661.9568
30
0
11
778.0000
21
-661.9568
31
0
0
LINE
8
0
10
778.0000
20
-661.9568
30
0
11
778.0000
21
-703.9568
31
0
0
LINE
8
0
10
778.0000
20
-703.9568
30
0
11
1422.0000
21
-703.9568
31
0
0
LINE
8
0
10
1422.0000
20
-703.9568
30
0
11
1428.0000
21
-686.9568
31
0
0
LINE
8
0
10
1428.0000
20
-686.9568
30
0
11
1428.0000
21
-663.9568
31
0
0
LINE
8
0
10
1428.0000
20
-663.9568
30
0
11
1140.3208
21
0.0000
31
0
0
LINE
8
0
10
1140.3208
20
0.0000
30
0
11
1428.0000
21
663.9568
31
0
0
LINE
8
0
10
1428.0000
20
663.9568
30
0
11
1428.0000
21
686.9568
31
0
0
LINE
8
0
10
1428.0000
20
686.9568
30
0
11
1422.0000
21
703.9568
31
0
0
LINE
8
0
10
1422.0000
20
703.9568
30
0
11
778.0000
21
703.9568
31
0
0
CIRCLE
8
0
10
894.6667
20
638.9568
30
0
40
3.5000
0
CIRCLE
8
0
10
894.6667
20
598.9568
30
0
40
3.5000
0
CIRCLE
8
0
10
894.6667
20
-638.9568
30
0
40
3.5000
0
CIRCLE
8
0
10
894.6667
20
-598.9568
30
0
40
3.5000
0
CIRCLE
8
0
10
1128.0000
20
638.9568
30
0
40
3.5000
0
CIRCLE
8
0
10
1128.0000
20
598.9568
30
0
40
3.5000
0
CIRCLE
8
0
10
1128.0000
20
-638.9568
30
0
40
3.5000
0
CIRCLE
8
0
10
1128.0000
20
-598.9568
30
0
40
3.5000
0
LINE
8
0
10
1134.2988
20
16.9140
30
0
11
1136.0879
21
21.0431
31
0
0
LINE
8
0
10
1138.4279
20
15.1249
30
0
11
1140.2170
21
19.2540
31
0
0
ARC
8
0
10
1138.1524
20
20.1485
30
0
40
2.2500
50
336.5739
51
156.5739
0
ARC
8
0
10
1136.3634
20
16.0195
30
0
40
2.2500
50
156.5739
51
336.5739
0
LINE
8
0
10
1188.7654
20
142.6215
30
0
11
1190.5545
21
146.7506
31
0
0
LINE
8
0
10
1192.8945
20
140.8325
30
0
11
1194.6835
21
144.9616
31
0
0
ARC
8
0
10
1192.6190
20
145.8561
30
0
40
2.2500
50
336.5739
51
156.5739
0
ARC
8
0
10
1190.8300
20
141.7270
30
0
40
2.2500
50
156.5739
51
336.5739
0
LINE
8
0
10
1243.2320
20
268.3291
30
0
11
1245.0210
21
272.4582
31
0
0
LINE
8
0
10
1247.3611
20
266.5401
30
0
11
1249.1501
21
270.6691
31
0
0
ARC
8
0
10
1247.0856
20
271.5637
30
0
40
2.2500
50
336.5739
51
156.5739
0
ARC
8
0
10
1245.2965
20
267.4346
30
0
40
2.2500
50
156.5739
51
336.5739
0
LINE
8
0
10
1297.6986
20
394.0367
30
0
11
1299.4876
21
398.1658
31
0
0
LINE
8
0
10
1301.8276
20
392.2476
30
0
11
1303.6167
21
396.3767
31
0
0
ARC
8
0
10
1301.5522
20
397.2712
30
0
40
2.2500
50
336.5739
51
156.5739
0
ARC
8
0
10
1299.7631
20
393.1422
30
0
40
2.2500
50
156.5739
51
336.5739
0
LINE
8
0
10
1352.1651
20
519.7442
30
0
11
1353.9542
21
523.8733
31
0
0
LINE
8
0
10
1356.2942
20
517.9552
30
0
11
1358.0833
21
522.0843
31
0
0
ARC
8
0
10
1356.0187
20
522.9788
30
0
40
2.2500
50
336.5739
51
156.5739
0
ARC
8
0
10
1354.2297
20
518.8497
30
0
40
2.2500
50
156.5739
51
336.5739
0
LINE
8
0
10
1406.6317
20
645.4518
30
0
11
1408.4208
21
649.5809
31
0
0
LINE
8
0
10
1410.7608
20
643.6628
30
0
11
1412.5498
21
647.7918
31
0
0
ARC
8
0
10
1410.4853
20
648.6864
30
0
40
2.2500
50
336.5739
51
156.5739
0
ARC
8
0
10
1408.6963
20
644.5573
30
0
40
2.2500
50
156.5739
51
336.5739
0
LINE
8
0
10
1138.4279
20
-15.1249
30
0
11
1140.2170
21
-19.2540
31
0
0
LINE
8
0
10
1134.2988
20
-16.9140
30
0
11
1136.0879
21
-21.0431
31
0
0
ARC
8
0
10
1138.1524
20
-20.1485
30
0
40
2.2500
50
203.4261
51
23.4261
0
ARC
8
0
10
1136.3634
20
-16.0195
30
0
40
2.2500
50
23.4261
51
203.4261
0
LINE
8
0
10
1192.8945
20
-140.8325
30
0
11
1194.6835
21
-144.9616
31
0
0
LINE
8
0
10
1188.7654
20
-142.6215
30
0
11
1190.5545
21
-146.7506
31
0
0
ARC
8
0
10
1192.6190
20
-145.8561
30
0
40
2.2500
50
203.4261
51
23.4261
0
ARC
8
0
10
1190.8300
20
-141.7270
30
0
40
2.2500
50
23.4261
51
203.4261
0
LINE
8
0
10
1247.3611
20
-266.5401
30
0
11
1249.1501
21
-270.6691
31
0
0
LINE
8
0
10
1243.2320
20
-268.3291
30
0
11
1245.0210
21
-272.4582
31
0
0
ARC
8
0
10
1247.0856
20
-271.5637
30
0
40
2.2500
50
203.4261
51
23.4261
0
ARC
8
0
10
1245.2965
20
-267.4346
30
0
40
2.2500
50
23.4261
51
203.4261
0
LINE
8
0
10
1301.8276
20
-392.2476
30
0
11
1303.6167
21
-396.3767
31
0
0
LINE
8
0
10
1297.6986
20
-394.0367
30
0
11
1299.4876
21
-398.1658
31
0
0
ARC
8
0
10
1301.5522
20
-397.2712
30
0
40
2.2500
50
203.4261
51
23.4261
0
ARC
8
0
10
1299.7631
20
-393.1422
30
0
40
2.2500
50
23.4261
51
203.4261
0
LINE
8
0
10
1356.2942
20
-517.9552
30
0
11
1358.0833
21
-522.0843
31
0
0
LINE
8
0
10
1352.1651
20
-519.7442
30
0
11
1353.9542
21
-523.8733
31
0
0
ARC
8
0
10
1356.0187
20
-522.9788
30
0
40
2.2500
50
203.4261
51
23.4261
0
ARC
8
0
10
1354.2297
20
-518.8497
30
0
40
2.2500
50
23.4261
51
203.4261
0
LINE
8
0
10
1410.7608
20
-643.6628
30
0
11
1412.5498
21
-647.7918
31
0
0
LINE
8
0
10
1406.6317
20
-645.4518
30
0
11
1408.4208
21
-649.5809
31
0
0
ARC
8
0
10
1410.4853
20
-648.6864
30
0
40
2.2500
50
203.4261
51
23.4261
0
ARC
8
0
10
1408.6963
20
-644.5573
30
0
40
2.2500
50
23.4261
51
203.4261
0
LINE
8
0
10
1163.6302
20
0.0000
30
0
11
1154.7038
21
-21.2755
31
0
0
LINE
8
0
10
1154.7038
20
-21.2755
30
0
11
1580.2825
21
-579.2629
31
0
0
LINE
8
0
10
1580.2825
20
-579.2629
30
0
11
1602.4541
21
-575.3535
31
0
0
LINE
8
0
10
1602.4541
20
-575.3535
30
0
11
1625.4541
21
-575.3535
31
0
0
LINE
8
0
10
1625.4541
20
-575.3535
30
0
11
1642.4541
21
-569.3535
31
0
0
LINE
8
0
10
1642.4541
20
-569.3535
30
0
11
1642.4541
21
569.3535
31
0
0
LINE
8
0
10
1642.4541
20
569.3535
30
0
11
1625.4541
21
575.3535
31
0
0
LINE
8
0
10
1625.4541
20
575.3535
30
0
11
1602.4541
21
575.3535
31
0
0
LINE
8
0
10
1602.4541
20
575.3535
30
0
11
1580.2825
21
579.2629
31
0
0
LINE
8
0
10
1580.2825
20
579.2629
30
0
11
1154.7038
21
21.2755
31
0
0
LINE
8
0
10
1154.7038
20
21.2755
30
0
11
1163.6302
21
0.0000
31
0
0
CIRCLE
8
0
10
1577.4541
20
-200.0000
30
0
40
3.5000
0
CIRCLE
8
0
10
1537.4541
20
-200.0000
30
0
40
3.5000
0
CIRCLE
8
0
10
1577.4541
20
200.0000
30
0
40
3.5000
0
CIRCLE
8
0
10
1537.4541
20
200.0000
30
0
40
3.5000
0
CIRCLE
8
0
10
1165.0034
20
18.2901
30
0
40
2.2500
0
CIRCLE
8
0
10
1165.0034
20
-18.2901
30
0
40
2.2500
0
CIRCLE
8
0
10
1248.0864
20
127.2223
30
0
40
2.2500
0
CIRCLE
8
0
10
1248.0864
20
-127.2223
30
0
40
2.2500
0
CIRCLE
8
0
10
1331.1693
20
236.1545
30
0
40
2.2500
0
CIRCLE
8
0
10
1331.1693
20
-236.1545
30
0
40
2.2500
0
CIRCLE
8
0
10
1414.2522
20
345.0867
30
0
40
2.2500
0
CIRCLE
8
0
10
1414.2522
20
-345.0867
30
0
40
2.2500
0
CIRCLE
8
0
10
1497.3352
20
454.0189
30
0
40
2.2500
0
CIRCLE
8
0
10
1497.3352
20
-454.0189
30
0
40
2.2500
0
CIRCLE
8
0
10
1580.4181
20
562.9511
30
0
40
2.2500
0
CIRCLE
8
0
10
1580.4181
20
-562.9511
30
0
40
2.2500
0
ENDSEC
0
EOF
