0
SECTION
2
HEADER
9
$ACADVER
1
AC1009
9
$INSUNITS
70
4
0
ENDSEC
0
SECTION
2
ENTITIES
0
LINE
8
0
10
235.7731
20
21.2755
30
0
11
-132.5681
21
504.2173
31
0
0
LINE
8
0
10
-132.5681
20
504.2173
30
0
11
-154.7397
21
500.3078
31
0
0
LINE
8
0
10
-154.7397
20
500.3078
30
0
11
-177.7397
21
500.3078
31
0
0
LINE
8
0
10
-177.7397
20
500.3078
30
0
11
-194.7397
21
494.3078
31
0
0
LINE
8
0
10
-194.7397
20
494.3078
30
0
11
-194.7397
21
-494.3078
31
0
0
LINE
8
0
10
-194.7397
20
-494.3078
30
0
11
-177.7397
21
-500.3078
31
0
0
LINE
8
0
10
-177.7397
20
-500.3078
30
0
11
-154.7397
21
-500.3078
31
0
0
LINE
8
0
10
-154.7397
20
-500.3078
30
0
11
-132.5681
21
-504.2173
31
0
0
LINE
8
0
10
-132.5681
20
-504.2173
30
0
11
235.7731
21
-21.2755
31
0
0
LINE
8
0
10
235.7731
20
-21.2755
30
0
11
226.8467
21
0.0000
31
0
0
LINE
8
0
10
226.8467
20
0.0000
30
0
11
235.7731
21
21.2755
31
0
0
CIRCLE
8
0
10
-129.7397
20
-175.0000
30
0
40
3.5000
0
CIRCLE
8
0
10
-89.7397
20
-175.0000
30
0
40
3.5000
0
CIRCLE
8
0
10
-129.7397
20
175.0000
30
0
40
3.5000
0
CIRCLE
8
0
10
-89.7397
20
175.0000
30
0
40
3.5000
0
CIRCLE
8
0
10
225.4734
20
18.2901
30
0
40
2.2500
0
CIRCLE
8
0
10
225.4734
20
-18.2901
30
0
40
2.2500
0
CIRCLE
8
0
10
135.7196
20
135.9686
30
0
40
2.2500
0
CIRCLE
8
0
10
135.7196
20
-135.9686
30
0
40
2.2500
0
CIRCLE
8
0
10
45.9658
20
253.6472
30
0
40
2.2500
0
CIRCLE
8
0
10
45.9658
20
-253.6472
30
0
40
2.2500
0
CIRCLE
8
0
10
-43.7881
20
371.3258
30
0
40
2.2500
0
CIRCLE
8
0
10
-43.7881
20
-371.3258
30
0
40
2.2500
0
CIRCLE
8
0
10
-133.5419
20
489.0044
30
0
40
2.2500
0
CIRCLE
8
0
10
-133.5419
20
-489.0044
30
0
40
2.2500
0
LINE
8
0
10
6.0000
20
617.3543
30
0
11
0.0000
21
600.3543
31
0
0
LINE
8
0
10
0.0000
20
600.3543
30
0
11
0.0000
21
577.3543
31
0
0
LINE
8
0
10
0.0000
20
577.3543
30
0
11
250.1561
21
0.0000
31
0
0
LINE
8
0
10
250.1561
20
0.0000
30
0
11
0.0000
21
-577.3543
31
0
0
LINE
8
0
10
0.0000
20
-577.3543
30
0
11
0.0000
21
-600.3543
31
0
0
LINE
8
0
10
0.0000
20
-600.3543
30
0
11
6.0000
21
-617.3543
31
0
0
LINE
8
0
10
6.0000
20
-617.3543
30
0
11
1294.0000
21
-617.3543
31
0
0
LINE
8
0
10
1294.0000
20
-617.3543
30
0
11
1300.0000
21
-600.3543
31
0
0
LINE
8
0
10
1300.0000
20
-600.3543
30
0
11
1300.0000
21
-577.3543
31
0
0
LINE
8
0
10
1300.0000
20
-577.3543
30
0
11
1049.8439
21
0.0000
31
0
0
LINE
8
0
10
1049.8439
20
0.0000
30
0
11
1300.0000
21
577.3543
31
0
0
LINE
8
0
10
1300.0000
20
577.3543
30
0
11
1300.0000
21
600.3543
31
0
0
LINE
8
0
10
1300.0000
20
600.3543
30
0
11
1294.0000
21
617.3543
31
0
0
LINE
8
0
10
1294.0000
20
617.3543
30
0
11
6.0000
21
617.3543
31
0
0
CIRCLE
8
0
10
300.0000
20
552.3543
30
0
40
3.5000
0
CIRCLE
8
0
10
300.0000
20
512.3543
30
0
40
3.5000
0
CIRCLE
8
0
10
300.0000
20
-552.3543
30
0
40
3.5000
0
CIRCLE
8
0
10
300.0000
20
-512.3543
30
0
40
3.5000
0
CIRCLE
8
0
10
650.0000
20
552.3543
30
0
40
3.5000
0
CIRCLE
8
0
10
650.0000
20
512.3543
30
0
40
3.5000
0
CIRCLE
8
0
10
650.0000
20
-552.3543
30
0
40
3.5000
0
CIRCLE
8
0
10
650.0000
20
-512.3543
30
0
40
3.5000
0
CIRCLE
8
0
10
1000.0000
20
552.3543
30
0
40
3.5000
0
CIRCLE
8
0
10
1000.0000
20
512.3543
30
0
40
3.5000
0
CIRCLE
8
0
10
1000.0000
20
-552.3543
30
0
40
3.5000
0
CIRCLE
8
0
10
1000.0000
20
-512.3543
30
0
40
3.5000
0
LINE
8
0
10
252.0489
20
15.1249
30
0
11
250.2599
21
19.2540
31
0
0
LINE
8
0
10
256.1780
20
16.9140
30
0
11
254.3890
21
21.0431
31
0
0
ARC
8
0
10
252.3244
20
20.1485
30
0
40
2.2500
50
23.4261
51
203.4261
0
ARC
8
0
10
254.1135
20
16.0195
30
0
40
2.2500
50
203.4261
51
23.4261
0
LINE
8
0
10
193.2091
20
150.9258
30
0
11
191.4201
21
155.0549
31
0
0
LINE
8
0
10
197.3382
20
152.7149
30
0
11
195.5492
21
156.8439
31
0
0
ARC
8
0
10
193.4846
20
155.9494
30
0
40
2.2500
50
23.4261
51
203.4261
0
ARC
8
0
10
195.2737
20
151.8203
30
0
40
2.2500
50
203.4261
51
23.4261
0
LINE
8
0
10
134.3693
20
286.7267
30
0
11
132.5803
21
290.8558
31
0
0
LINE
8
0
10
138.4984
20
288.5157
30
0
11
136.7094
21
292.6448
31
0
0
ARC
8
0
10
134.6448
20
291.7503
30
0
40
2.2500
50
23.4261
51
203.4261
0
ARC
8
0
10
136.4339
20
287.6212
30
0
40
2.2500
50
203.4261
51
23.4261
0
LINE
8
0
10
75.5295
20
422.5276
30
0
11
73.7405
21
426.6566
31
0
0
LINE
8
0
10
79.6586
20
424.3166
30
0
11
77.8696
21
428.4457
31
0
0
ARC
8
0
10
75.8050
20
427.5512
30
0
40
2.2500
50
23.4261
51
203.4261
0
ARC
8
0
10
77.5941
20
423.4221
30
0
40
2.2500
50
203.4261
51
23.4261
0
LINE
8
0
10
16.6897
20
558.3284
30
0
11
14.9007
21
562.4575
31
0
0
LINE
8
0
10
20.8188
20
560.1175
30
0
11
19.0297
21
564.2466
31
0
0
ARC
8
0
10
16.9652
20
563.3520
30
0
40
2.2500
50
23.4261
51
203.4261
0
ARC
8
0
10
18.7543
20
559.2230
30
0
40
2.2500
50
203.4261
51
23.4261
0
LINE
8
0
10
256.1780
20
-16.9140
30
0
11
254.3890
21
-21.0431
31
0
0
LINE
8
0
10
252.0489
20
-15.1249
30
0
11
250.2599
21
-19.2540
31
0
0
ARC
8
0
10
252.3244
20
-20.1485
30
0
40
2.2500
50
156.5739
51
336.5739
0
ARC
8
0
10
254.1135
20
-16.0195
30
0
40
2.2500
50
336.5739
51
156.5739
0
LINE
8
0
10
197.3382
20
-152.7149
30
0
11
195.5492
21
-156.8439
31
0
0
LINE
8
0
10
193.2091
20
-150.9258
30
0
11
191.4201
21
-155.0549
31
0
0
ARC
8
0
10
193.4846
20
-155.9494
30
0
40
2.2500
50
156.5739
51
336.5739
0
ARC
8
0
10
195.2737
20
-151.8203
30
0
40
2.2500
50
336.5739
51
156.5739
0
LINE
8
0
10
138.4984
20
-288.5157
30
0
11
136.7094
21
-292.6448
31
0
0
LINE
8
0
10
134.3693
20
-286.7267
30
0
11
132.5803
21
-290.8558
31
0
0
ARC
8
0
10
134.6448
20
-291.7503
30
0
40
2.2500
50
156.5739
51
336.5739
0
ARC
8
0
10
136.4339
20
-287.6212
30
0
40
2.2500
50
336.5739
51
156.5739
0
LINE
8
0
10
79.6586
20
-424.3166
30
0
11
77.8696
21
-428.4457
31
0
0
LINE
8
0
10
75.5295
20
-422.5276
30
0
11
73.7405
21
-426.6566
31
0
0
ARC
8
0
10
75.8050
20
-427.5512
30
0
40
2.2500
50
156.5739
51
336.5739
0
ARC
8
0
10
77.5941
20
-423.4221
30
0
40
2.2500
50
336.5739
51
156.5739
0
LINE
8
0
10
20.8188
20
-560.1175
30
0
11
19.0297
21
-564.2466
31
0
0
LINE
8
0
10
16.6897
20
-558.3284
30
0
11
14.9007
21
-562.4575
31
0
0
ARC
8
0
10
16.9652
20
-563.3520
30
0
40
2.2500
50
156.5739
51
336.5739
0
ARC
8
0
10
18.7543
20
-559.2230
30
0
40
2.2500
50
336.5739
51
156.5739
0
LINE
8
0
10
1043.8220
20
16.9140
30
0
11
1045.6110
21
21.0431
31
0
0
LINE
8
0
10
1047.9511
20
15.1249
30
0
11
1049.7401
21
19.2540
31
0
0
ARC
8
0
10
1047.6756
20
20.1485
30
0
40
2.2500
50
336.5739
51
156.5739
0
ARC
8
0
10
1045.8865
20
16.0195
30
0
40
2.2500
50
156.5739
51
336.5739
0
LINE
8
0
10
1102.6618
20
152.7149
30
0
11
1104.4508
21
156.8439
31
0
0
LINE
8
0
10
1106.7909
20
150.9258
30
0
11
1108.5799
21
155.0549
31
0
0
ARC
8
0
10
1106.5154
20
155.9494
30
0
40
2.2500
50
336.5739
51
156.5739
0
ARC
8
0
10
1104.7263
20
151.8203
30
0
40
2.2500
50
156.5739
51
336.5739
0
LINE
8
0
10
1161.5016
20
288.5157
30
0
11
1163.2906
21
292.6448
31
0
0
LINE
8
0
10
1165.6307
20
286.7267
30
0
11
1167.4197
21
290.8558
31
0
0
ARC
8
0
10
1165.3552
20
291.7503
30
0
40
2.2500
50
336.5739
51
156.5739
0
ARC
8
0
10
1163.5661
20
287.6212
30
0
40
2.2500
50
156.5739
51
336.5739
0
LINE
8
0
10
1220.3414
20
424.3166
30
0
11
1222.1304
21
428.4457
31
0
0
LINE
8
0
10
1224.4705
20
422.5276
30
0
11
1226.2595
21
426.6566
31
0
0
ARC
8
0
10
1224.1950
20
427.5512
30
0
40
2.2500
50
336.5739
51
156.5739
0
ARC
8
0
10
1222.4059
20
423.4221
30
0
40
2.2500
50
156.5739
51
336.5739
0
LINE
8
0
10
1279.1812
20
560.1175
30
0
11
1280.9703
21
564.2466
31
0
0
LINE
8
0
10
1283.3103
20
558.3284
30
0
11
1285.0993
21
562.4575
31
0
0
ARC
8
0
10
1283.0348
20
563.3520
30
0
40
2.2500
50
336.5739
51
156.5739
0
ARC
8
0
10
1281.2457
20
559.2230
30
0
40
2.2500
50
156.5739
51
336.5739
0
LINE
8
0
10
1047.9511
20
-15.1249
30
0
11
1049.7401
21
-19.2540
31
0
0
LINE
8
0
10
1043.8220
20
-16.9140
30
0
11
1045.6110
21
-21.0431
31
0
0
ARC
8
0
10
1047.6756
20
-20.1485
30
0
40
2.2500
50
203.4261
51
23.4261
0
ARC
8
0
10
1045.8865
20
-16.0195
30
0
40
2.2500
50
23.4261
51
203.4261
0
LINE
8
0
10
1106.7909
20
-150.9258
30
0
11
1108.5799
21
-155.0549
31
0
0
LINE
8
0
10
1102.6618
20
-152.7149
30
0
11
1104.4508
21
-156.8439
31
0
0
ARC
8
0
10
1106.5154
20
-155.9494
30
0
40
2.2500
50
203.4261
51
23.4261
0
ARC
8
0
10
1104.7263
20
-151.8203
30
0
40
2.2500
50
23.4261
51
203.4261
0
LINE
8
0
10
1165.6307
20
-286.7267
30
0
11
1167.4197
21
-290.8558
31
0
0
LINE
8
0
10
1161.5016
20
-288.5157
30
0
11
1163.2906
21
-292.6448
31
0
0
ARC
8
0
10
1165.3552
20
-291.7503
30
0
40
2.2500
50
203.4261
51
23.4261
0
ARC
8
0
10
1163.5661
20
-287.6212
30
0
40
2.2500
50
23.4261
51
203.4261
0
LINE
8
0
10
1224.4705
20
-422.5276
30
0
11
1226.2595
21
-426.6566
31
0
0
LINE
8
0
10
1220.3414
20
-424.3166
30
0
11
1222.1304
21
-428.4457
31
0
0
ARC
8
0
10
1224.1950
20
-427.5512
30
0
40
2.2500
50
203.4261
51
23.4261
0
ARC
8
0
10
1222.4059
20
-423.4221
30
0
40
2.2500
50
23.4261
51
203.4261
0
LINE
8
0
10
1283.3103
20
-558.3284
30
0
11
1285.0993
21
-562.4575
31
0
0
LINE
8
0
10
1279.1812
20
-560.1175
30
0
11
1280.9703
21
-564.2466
31
0
0
ARC
8
0
10
1283.0348
20
-563.3520
30
0
40
2.2500
50
203.4261
51
23.4261
0
ARC
8
0
10
1281.2457
20
-559.2230
30
0
40
2.2500
50
23.4261
51
203.4261
0
LINE
8
0
10
1073.1533
20
0.0000
30
0
11
1064.2269
21
-21.2755
31
0
0
LINE
8
0
10
1064.2269
20
-21.2755
30
0
11
1432.5681
21
-504.2173
31
0
0
LINE
8
0
10
1432.5681
20
-504.2173
30
0
11
1454.7397
21
-500.3078
31
0
0
LINE
8
0
10
1454.7397
20
-500.3078
30
0
11
1477.7397
21
-500.3078
31
0
0
LINE
8
0
10
1477.7397
20
-500.3078
30
0
11
1494.7397
21
-494.3078
31
0
0
LINE
8
0
10
1494.7397
20
-494.3078
30
0
11
1494.7397
21
494.3078
31
0
0
LINE
8
0
10
1494.7397
20
494.3078
30
0
11
1477.7397
21
500.3078
31
0
0
LINE
8
0
10
1477.7397
20
500.3078
30
0
11
1454.7397
21
500.3078
31
0
0
LINE
8
0
10
1454.7397
20
500.3078
30
0
11
1432.5681
21
504.2173
31
0
0
LINE
8
0
10
1432.5681
20
504.2173
30
0
11
1064.2269
21
21.2755
31
0
0
LINE
8
0
10
1064.2269
20
21.2755
30
0
11
1073.1533
21
0.0000
31
0
0
CIRCLE
8
0
10
1429.7397
20
-175.0000
30
0
40
3.5000
0
CIRCLE
8
0
10
1389.7397
20
-175.0000
30
0
40
3.5000
0
CIRCLE
8
0
10
1429.7397
20
175.0000
30
0
40
3.5000
0
CIRCLE
8
0
10
1389.7397
20
175.0000
30
0
40
3.5000
0
CIRCLE
8
0
10
1074.5266
20
18.2901
30
0
40
2.2500
0
CIRCLE
8
0
10
1074.5266
20
-18.2901
30
0
40
2.2500
0
CIRCLE
8
0
10
1164.2804
20
135.9686
30
0
40
2.2500
0
CIRCLE
8
0
10
1164.2804
20
-135.9686
30
0
40
2.2500
0
CIRCLE
8
0
10
1254.0342
20
253.6472
30
0
40
2.2500
0
CIRCLE
8
0
10
1254.0342
20
-253.6472
30
0
40
2.2500
0
CIRCLE
8
0
10
1343.7881
20
371.3258
30
0
40
2.2500
0
CIRCLE
8
0
10
1343.7881
20
-371.3258
30
0
40
2.2500
0
CIRCLE
8
0
10
1433.5419
20
489.0044
30
0
40
2.2500
0
CIRCLE
8
0
10
1433.5419
20
-489.0044
30
0
40
2.2500
0
ENDSEC
0
EOF
