0
SECTION
2
HEADER
9
$ACADVER
1
AC1009
9
$INSUNITS
70
4
0
ENDSEC
0
SECTION
2
ENTITIES
0
LINE
8
0
10
210.7576
20
21.2755
30
0
11
-119.4252
21
454.1868
31
0
0
LINE
8
0
10
-119.4252
20
454.1868
30
0
11
-141.5967
21
450.2774
31
0
0
LINE
8
0
10
-141.5967
20
450.2774
30
0
11
-164.5967
21
450.2774
31
0
0
LINE
8
0
10
-164.5967
20
450.2774
30
0
11
-181.5967
21
444.2774
31
0
0
LINE
8
0
10
-181.5967
20
444.2774
30
0
11
-181.5967
21
-444.2774
31
0
0
LINE
8
0
10
-181.5967
20
-444.2774
30
0
11
-164.5967
21
-450.2774
31
0
0
LINE
8
0
10
-164.5967
20
-450.2774
30
0
11
-141.5967
21
-450.2774
31
0
0
LINE
8
0
10
-141.5967
20
-450.2774
30
0
11
-119.4252
21
-454.1868
31
0
0
LINE
8
0
10
-119.4252
20
-454.1868
30
0
11
210.7576
21
-21.2755
31
0
0
LINE
8
0
10
210.7576
20
-21.2755
30
0
11
201.8312
21
0.0000
31
0
0
LINE
8
0
10
201.8312
20
0.0000
30
0
11
210.7576
21
21.2755
31
0
0
CIRCLE
8
0
10
-116.5967
20
0.0000
30
0
40
3.5000
0
CIRCLE
8
0
10
-76.5967
20
0.0000
30
0
40
3.5000
0
CIRCLE
8
0
10
200.4580
20
18.2901
30
0
40
2.2500
0
CIRCLE
8
0
10
200.4580
20
-18.2901
30
0
40
2.2500
0
CIRCLE
8
0
10
120.1041
20
123.6442
30
0
40
2.2500
0
CIRCLE
8
0
10
120.1041
20
-123.6442
30
0
40
2.2500
0
CIRCLE
8
0
10
39.7501
20
228.9983
30
0
40
2.2500
0
CIRCLE
8
0
10
39.7501
20
-228.9983
30
0
40
2.2500
0
CIRCLE
8
0
10
-40.6038
20
334.3525
30
0
40
2.2500
0
CIRCLE
8
0
10
-40.6038
20
-334.3525
30
0
40
2.2500
0
CIRCLE
8
0
10
-120.9577
20
439.7066
30
0
40
2.2500
0
CIRCLE
8
0
10
-120.9577
20
-439.7066
30
0
40
2.2500
0
LINE
8
0
10
6.0000
20
559.6193
30
0
11
0.0000
21
542.6193
31
0
0
LINE
8
0
10
0.0000
20
542.6193
30
0
11
0.0000
21
519.6193
31
0
0
LINE
8
0
10
0.0000
20
519.6193
30
0
11
225.1406
21
0.0000
31
0
0
LINE
8
0
10
225.1406
20
0.0000
30
0
11
0.0000
21
-519.6193
31
0
0
LINE
8
0
10
0.0000
20
-519.6193
30
0
11
0.0000
21
-542.6193
31
0
0
LINE
8
0
10
0.0000
20
-542.6193
30
0
11
6.0000
21
-559.6193
31
0
0
LINE
8
0
10
6.0000
20
-559.6193
30
0
11
1550.0000
21
-559.6193
31
0
0
LINE
8
0
10
1550.0000
20
-559.6193
30
0
11
1550.0000
21
-517.6193
31
0
0
LINE
8
0
10
1550.0000
20
-517.6193
30
0
11
1564.0000
21
-517.6193
31
0
0
LINE
8
0
10
1564.0000
20
-517.6193
30
0
11
1564.0000
21
-15.0000
31
0
0
LINE
8
0
10
1564.0000
20
-15.0000
30
0
11
1549.0000
21
0.0000
31
0
0
LINE
8
0
10
1549.0000
20
0.0000
30
0
11
1564.0000
21
15.0000
31
0
0
LINE
8
0
10
1564.0000
20
15.0000
30
0
11
1564.0000
21
517.6193
31
0
0
LINE
8
0
10
1564.0000
20
517.6193
30
0
11
1550.0000
21
517.6193
31
0
0
LINE
8
0
10
1550.0000
20
517.6193
30
0
11
1550.0000
21
559.6193
31
0
0
LINE
8
0
10
1550.0000
20
559.6193
30
0
11
6.0000
21
559.6193
31
0
0
CIRCLE
8
0
10
300.0000
20
494.6193
30
0
40
3.5000
0
CIRCLE
8
0
10
300.0000
20
454.6193
30
0
40
3.5000
0
CIRCLE
8
0
10
300.0000
20
-494.6193
30
0
40
3.5000
0
CIRCLE
8
0
10
300.0000
20
-454.6193
30
0
40
3.5000
0
CIRCLE
8
0
10
577.7778
20
494.6193
30
0
40
3.5000
0
CIRCLE
8
0
10
577.7778
20
454.6193
30
0
40
3.5000
0
CIRCLE
8
0
10
577.7778
20
-494.6193
30
0
40
3.5000
0
CIRCLE
8
0
10
577.7778
20
-454.6193
30
0
40
3.5000
0
CIRCLE
8
0
10
855.5556
20
494.6193
30
0
40
3.5000
0
CIRCLE
8
0
10
855.5556
20
454.6193
30
0
40
3.5000
0
CIRCLE
8
0
10
855.5556
20
-494.6193
30
0
40
3.5000
0
CIRCLE
8
0
10
855.5556
20
-454.6193
30
0
40
3.5000
0
CIRCLE
8
0
10
1133.3333
20
494.6193
30
0
40
3.5000
0
CIRCLE
8
0
10
1133.3333
20
454.6193
30
0
40
3.5000
0
CIRCLE
8
0
10
1133.3333
20
-494.6193
30
0
40
3.5000
0
CIRCLE
8
0
10
1133.3333
20
-454.6193
30
0
40
3.5000
0
CIRCLE
8
0
10
1411.1111
20
494.6193
30
0
40
3.5000
0
CIRCLE
8
0
10
1411.1111
20
454.6193
30
0
40
3.5000
0
CIRCLE
8
0
10
1411.1111
20
-494.6193
30
0
40
3.5000
0
CIRCLE
8
0
10
1411.1111
20
-454.6193
30
0
40
3.5000
0
LINE
8
0
10
227.0335
20
15.1249
30
0
11
225.2444
21
19.2540
31
0
0
LINE
8
0
10
231.1626
20
16.9140
30
0
11
229.3735
21
21.0431
31
0
0
ARC
8
0
10
227.3090
20
20.1485
30
0
40
2.2500
50
23.4261
51
203.4261
0
ARC
8
0
10
229.0980
20
16.0195
30
0
40
2.2500
50
203.4261
51
23.4261
0
LINE
8
0
10
174.3560
20
136.7034
30
0
11
172.5669
21
140.8325
31
0
0
LINE
8
0
10
178.4850
20
138.4925
30
0
11
176.6960
21
142.6215
31
0
0
ARC
8
0
10
174.6315
20
141.7270
30
0
40
2.2500
50
23.4261
51
203.4261
0
ARC
8
0
10
176.4205
20
137.5979
30
0
40
2.2500
50
203.4261
51
23.4261
0
LINE
8
0
10
121.6784
20
258.2819
30
0
11
119.8894
21
262.4110
31
0
0
LINE
8
0
10
125.8075
20
260.0710
30
0
11
124.0185
21
264.2000
31
0
0
ARC
8
0
10
121.9539
20
263.3055
30
0
40
2.2500
50
23.4261
51
203.4261
0
ARC
8
0
10
123.7430
20
259.1764
30
0
40
2.2500
50
203.4261
51
23.4261
0
LINE
8
0
10
69.0009
20
379.8604
30
0
11
67.2119
21
383.9895
31
0
0
LINE
8
0
10
73.1300
20
381.6494
30
0
11
71.3409
21
385.7785
31
0
0
ARC
8
0
10
69.2764
20
384.8840
30
0
40
2.2500
50
23.4261
51
203.4261
0
ARC
8
0
10
71.0655
20
380.7549
30
0
40
2.2500
50
203.4261
51
23.4261
0
LINE
8
0
10
16.3234
20
501.4389
30
0
11
14.5343
21
505.5680
31
0
0
LINE
8
0
10
20.4525
20
503.2279
30
0
11
18.6634
21
507.3570
31
0
0
ARC
8
0
10
16.5989
20
506.4625
30
0
40
2.2500
50
23.4261
51
203.4261
0
ARC
8
0
10
18.3879
20
502.3334
30
0
40
2.2500
50
203.4261
51
23.4261
0
LINE
8
0
10
231.1626
20
-16.9140
30
0
11
229.3735
21
-21.0431
31
0
0
LINE
8
0
10
227.0335
20
-15.1249
30
0
11
225.2444
21
-19.2540
31
0
0
ARC
8
0
10
227.3090
20
-20.1485
30
0
40
2.2500
50
156.5739
51
336.5739
0
ARC
8
0
10
229.0980
20
-16.0195
30
0
40
2.2500
50
336.5739
51
156.5739
0
LINE
8
0
10
178.4850
20
-138.4925
30
0
11
176.6960
21
-142.6215
31
0
0
LINE
8
0
10
174.3560
20
-136.7034
30
0
11
172.5669
21
-140.8325
31
0
0
ARC
8
0
10
174.6315
20
-141.7270
30
0
40
2.2500
50
156.5739
51
336.5739
0
ARC
8
0
10
176.4205
20
-137.5979
30
0
40
2.2500
50
336.5739
51
156.5739
0
LINE
8
0
10
125.8075
20
-260.0710
30
0
11
124.0185
21
-264.2000
31
0
0
LINE
8
0
10
121.6784
20
-258.2819
30
0
11
119.8894
21
-262.4110
31
0
0
ARC
8
0
10
121.9539
20
-263.3055
30
0
40
2.2500
50
156.5739
51
336.5739
0
ARC
8
0
10
123.7430
20
-259.1764
30
0
40
2.2500
50
336.5739
51
156.5739
0
LINE
8
0
10
73.1300
20
-381.6494
30
0
11
71.3409
21
-385.7785
31
0
0
LINE
8
0
10
69.0009
20
-379.8604
30
0
11
67.2119
21
-383.9895
31
0
0
ARC
8
0
10
69.2764
20
-384.8840
30
0
40
2.2500
50
156.5739
51
336.5739
0
ARC
8
0
10
71.0655
20
-380.7549
30
0
40
2.2500
50
336.5739
51
156.5739
0
LINE
8
0
10
20.4525
20
-503.2279
30
0
11
18.6634
21
-507.3570
31
0
0
LINE
8
0
10
16.3234
20
-501.4389
30
0
11
14.5343
21
-505.5680
31
0
0
ARC
8
0
10
16.5989
20
-506.4625
30
0
40
2.2500
50
156.5739
51
336.5739
0
ARC
8
0
10
18.3879
20
-502.3334
30
0
40
2.2500
50
336.5739
51
156.5739
0
LINE
8
0
10
1678.0000
20
559.6193
30
0
11
1678.0000
21
517.6193
31
0
0
LINE
8
0
10
1678.0000
20
517.6193
30
0
11
1664.0000
21
517.6193
31
0
0
LINE
8
0
10
1664.0000
20
517.6193
30
0
11
1664.0000
21
15.0000
31
0
0
LINE
8
0
10
1664.0000
20
15.0000
30
0
11
1679.0000
21
0.0000
31
0
0
LINE
8
0
10
1679.0000
20
0.0000
30
0
11
1664.0000
21
-15.0000
31
0
0
LINE
8
0
10
1664.0000
20
-15.0000
30
0
11
1664.0000
21
-517.6193
31
0
0
LINE
8
0
10
1664.0000
20
-517.6193
30
0
11
1678.0000
21
-517.6193
31
0
0
LINE
8
0
10
1678.0000
20
-517.6193
30
0
11
1678.0000
21
-559.6193
31
0
0
LINE
8
0
10
1678.0000
20
-559.6193
30
0
11
3222.0000
21
-559.6193
31
0
0
LINE
8
0
10
3222.0000
20
-559.6193
30
0
11
3228.0000
21
-542.6193
31
0
0
LINE
8
0
10
3228.0000
20
-542.6193
30
0
11
3228.0000
21
-519.6193
31
0
0
LINE
8
0
10
3228.0000
20
-519.6193
30
0
11
3002.8594
21
0.0000
31
0
0
LINE
8
0
10
3002.8594
20
0.0000
30
0
11
3228.0000
21
519.6193
31
0
0
LINE
8
0
10
3228.0000
20
519.6193
30
0
11
3228.0000
21
542.6193
31
0
0
LINE
8
0
10
3228.0000
20
542.6193
30
0
11
3222.0000
21
559.6193
31
0
0
LINE
8
0
10
3222.0000
20
559.6193
30
0
11
1678.0000
21
559.6193
31
0
0
CIRCLE
8
0
10
1816.8889
20
494.6193
30
0
40
3.5000
0
CIRCLE
8
0
10
1816.8889
20
454.6193
30
0
40
3.5000
0
CIRCLE
8
0
10
1816.8889
20
-494.6193
30
0
40
3.5000
0
CIRCLE
8
0
10
1816.8889
20
-454.6193
30
0
40
3.5000
0
CIRCLE
8
0
10
2094.6667
20
494.6193
30
0
40
3.5000
0
CIRCLE
8
0
10
2094.6667
20
454.6193
30
0
40
3.5000
0
CIRCLE
8
0
10
2094.6667
20
-494.6193
30
0
40
3.5000
0
CIRCLE
8
0
10
2094.6667
20
-454.6193
30
0
40
3.5000
0
CIRCLE
8
0
10
2372.4444
20
494.6193
30
0
40
3.5000
0
CIRCLE
8
0
10
2372.4444
20
454.6193
30
0
40
3.5000
0
CIRCLE
8
0
10
2372.4444
20
-494.6193
30
0
40
3.5000
0
CIRCLE
8
0
10
2372.4444
20
-454.6193
30
0
40
3.5000
0
CIRCLE
8
0
10
2650.2222
20
494.6193
30
0
40
3.5000
0
CIRCLE
8
0
10
2650.2222
20
454.6193
30
0
40
3.5000
0
CIRCLE
8
0
10
2650.2222
20
-494.6193
30
0
40
3.5000
0
CIRCLE
8
0
10
2650.2222
20
-454.6193
30
0
40
3.5000
0
CIRCLE
8
0
10
2928.0000
20
494.6193
30
0
40
3.5000
0
CIRCLE
8
0
10
2928.0000
20
454.6193
30
0
40
3.5000
0
CIRCLE
8
0
10
2928.0000
20
-494.6193
30
0
40
3.5000
0
CIRCLE
8
0
10
2928.0000
20
-454.6193
30
0
40
3.5000
0
LINE
8
0
10
2996.8374
20
16.9140
30
0
11
2998.6265
21
21.0431
31
0
0
LINE
8
0
10
3000.9665
20
15.1249
30
0
11
3002.7556
21
19.2540
31
0
0
ARC
8
0
10
3000.6910
20
20.1485
30
0
40
2.2500
50
336.5739
51
156.5739
0
ARC
8
0
10
2998.9020
20
16.0195
30
0
40
2.2500
50
156.5739
51
336.5739
0
LINE
8
0
10
3049.5150
20
138.4925
30
0
11
3051.3040
21
142.6215
31
0
0
LINE
8
0
10
3053.6440
20
136.7034
30
0
11
3055.4331
21
140.8325
31
0
0
ARC
8
0
10
3053.3685
20
141.7270
30
0
40
2.2500
50
336.5739
51
156.5739
0
ARC
8
0
10
3051.5795
20
137.5979
30
0
40
2.2500
50
156.5739
51
336.5739
0
LINE
8
0
10
3102.1925
20
260.0710
30
0
11
3103.9815
21
264.2000
31
0
0
LINE
8
0
10
3106.3216
20
258.2819
30
0
11
3108.1106
21
262.4110
31
0
0
ARC
8
0
10
3106.0461
20
263.3055
30
0
40
2.2500
50
336.5739
51
156.5739
0
ARC
8
0
10
3104.2570
20
259.1764
30
0
40
2.2500
50
156.5739
51
336.5739
0
LINE
8
0
10
3154.8700
20
381.6494
30
0
11
3156.6591
21
385.7785
31
0
0
LINE
8
0
10
3158.9991
20
379.8604
30
0
11
3160.7881
21
383.9895
31
0
0
ARC
8
0
10
3158.7236
20
384.8840
30
0
40
2.2500
50
336.5739
51
156.5739
0
ARC
8
0
10
3156.9345
20
380.7549
30
0
40
2.2500
50
156.5739
51
336.5739
0
LINE
8
0
10
3207.5475
20
503.2279
30
0
11
3209.3366
21
507.3570
31
0
0
LINE
8
0
10
3211.6766
20
501.4389
30
0
11
3213.4657
21
505.5680
31
0
0
ARC
8
0
10
3211.4011
20
506.4625
30
0
40
2.2500
50
336.5739
51
156.5739
0
ARC
8
0
10
3209.6121
20
502.3334
30
0
40
2.2500
50
156.5739
51
336.5739
0
LINE
8
0
10
3000.9665
20
-15.1249
30
0
11
3002.7556
21
-19.2540
31
0
0
LINE
8
0
10
2996.8374
20
-16.9140
30
0
11
2998.6265
21
-21.0431
31
0
0
ARC
8
0
10
3000.6910
20
-20.1485
30
0
40
2.2500
50
203.4261
51
23.4261
0
ARC
8
0
10
2998.9020
20
-16.0195
30
0
40
2.2500
50
23.4261
51
203.4261
0
LINE
8
0
10
3053.6440
20
-136.7034
30
0
11
3055.4331
21
-140.8325
31
0
0
LINE
8
0
10
3049.5150
20
-138.4925
30
0
11
3051.3040
21
-142.6215
31
0
0
ARC
8
0
10
3053.3685
20
-141.7270
30
0
40
2.2500
50
203.4261
51
23.4261
0
ARC
8
0
10
3051.5795
20
-137.5979
30
0
40
2.2500
50
23.4261
51
203.4261
0
LINE
8
0
10
3106.3216
20
-258.2819
30
0
11
3108.1106
21
-262.4110
31
0
0
LINE
8
0
10
3102.1925
20
-260.0710
30
0
11
3103.9815
21
-264.2000
31
0
0
ARC
8
0
10
3106.0461
20
-263.3055
30
0
40
2.2500
50
203.4261
51
23.4261
0
ARC
8
0
10
3104.2570
20
-259.1764
30
0
40
2.2500
50
23.4261
51
203.4261
0
LINE
8
0
10
3158.9991
20
-379.8604
30
0
11
3160.7881
21
-383.9895
31
0
0
LINE
8
0
10
3154.8700
20
-381.6494
30
0
11
3156.6591
21
-385.7785
31
0
0
ARC
8
0
10
3158.7236
20
-384.8840
30
0
40
2.2500
50
203.4261
51
23.4261
0
ARC
8
0
10
3156.9345
20
-380.7549
30
0
40
2.2500
50
23.4261
51
203.4261
0
LINE
8
0
10
3211.6766
20
-501.4389
30
0
11
3213.4657
21
-505.5680
31
0
0
LINE
8
0
10
3207.5475
20
-503.2279
30
0
11
3209.3366
21
-507.3570
31
0
0
ARC
8
0
10
3211.4011
20
-506.4625
30
0
40
2.2500
50
203.4261
51
23.4261
0
ARC
8
0
10
3209.6121
20
-502.3334
30
0
40
2.2500
50
23.4261
51
203.4261
0
LINE
8
0
10
3026.1688
20
0.0000
30
0
11
3017.2424
21
-21.2755
31
0
0
LINE
8
0
10
3017.2424
20
-21.2755
30
0
11
3347.4252
21
-454.1868
31
0
0
LINE
8
0
10
3347.4252
20
-454.1868
30
0
11
3369.5967
21
-450.2774
31
0
0
LINE
8
0
10
3369.5967
20
-450.2774
30
0
11
3392.5967
21
-450.2774
31
0
0
LINE
8
0
10
3392.5967
20
-450.2774
30
0
11
3409.5967
21
-444.2774
31
0
0
LINE
8
0
10
3409.5967
20
-444.2774
30
0
11
3409.5967
21
444.2774
31
0
0
LINE
8
0
10
3409.5967
20
444.2774
30
0
11
3392.5967
21
450.2774
31
0
0
LINE
8
0
10
3392.5967
20
450.2774
30
0
11
3369.5967
21
450.2774
31
0
0
LINE
8
0
10
3369.5967
20
450.2774
30
0
11
3347.4252
21
454.1868
31
0
0
LINE
8
0
10
3347.4252
20
454.1868
30
0
11
3017.2424
21
21.2755
31
0
0
LINE
8
0
10
3017.2424
20
21.2755
30
0
11
3026.1688
21
0.0000
31
0
0
CIRCLE
8
0
10
3344.5967
20
0.0000
30
0
40
3.5000
0
CIRCLE
8
0
10
3304.5967
20
0.0000
30
0
40
3.5000
0
CIRCLE
8
0
10
3027.5420
20
18.2901
30
0
40
2.2500
0
CIRCLE
8
0
10
3027.5420
20
-18.2901
30
0
40
2.2500
0
CIRCLE
8
0
10
3107.8959
20
123.6442
30
0
40
2.2500
0
CIRCLE
8
0
10
3107.8959
20
-123.6442
30
0
40
2.2500
0
CIRCLE
8
0
10
3188.2499
20
228.9983
30
0
40
2.2500
0
CIRCLE
8
0
10
3188.2499
20
-228.9983
30
0
40
2.2500
0
CIRCLE
8
0
10
3268.6038
20
334.3525
30
0
40
2.2500
0
CIRCLE
8
0
10
3268.6038
20
-334.3525
30
0
40
2.2500
0
CIRCLE
8
0
10
3348.9577
20
439.7066
30
0
40
2.2500
0
CIRCLE
8
0
10
3348.9577
20
-439.7066
30
0
40
2.2500
0
ENDSEC
0
EOF
