0
SECTION
2
HEADER
9
$ACADVER
1
AC1009
9
$INSUNITS
70
4
0
ENDSEC
0
SECTION
2
ENTITIES
0
LINE
8
0
10
260.7885
20
21.2755
30
0
11
-145.7111
21
554.2477
31
0
0
LINE
8
0
10
-145.7111
20
554.2477
30
0
11
-167.8826
21
550.3382
31
0
0
LINE
8
0
10
-167.8826
20
550.3382
30
0
11
-190.8826
21
550.3382
31
0
0
LINE
8
0
10
-190.8826
20
550.3382
30
0
11
-207.8826
21
544.3382
31
0
0
LINE
8
0
10
-207.8826
20
544.3382
30
0
11
-207.8826
21
-544.3382
31
0
0
LINE
8
0
10
-207.8826
20
-544.3382
30
0
11
-190.8826
21
-550.3382
31
0
0
LINE
8
0
10
-190.8826
20
-550.3382
30
0
11
-167.8826
21
-550.3382
31
0
0
LINE
8
0
10
-167.8826
20
-550.3382
30
0
11
-145.7111
21
-554.2477
31
0
0
LINE
8
0
10
-145.7111
20
-554.2477
30
0
11
260.7885
21
-21.2755
31
0
0
LINE
8
0
10
260.7885
20
-21.2755
30
0
11
251.8621
21
0.0000
31
0
0
LINE
8
0
10
251.8621
20
0.0000
30
0
11
260.7885
21
21.2755
31
0
0
CIRCLE
8
0
10
-142.8826
20
-200.0000
30
0
40
3.5000
0
CIRCLE
8
0
10
-102.8826
20
-200.0000
30
0
40
3.5000
0
CIRCLE
8
0
10
-142.8826
20
200.0000
30
0
40
3.5000
0
CIRCLE
8
0
10
-102.8826
20
200.0000
30
0
40
3.5000
0
CIRCLE
8
0
10
250.4889
20
18.2901
30
0
40
2.2500
0
CIRCLE
8
0
10
250.4889
20
-18.2901
30
0
40
2.2500
0
CIRCLE
8
0
10
171.6510
20
121.6564
30
0
40
2.2500
0
CIRCLE
8
0
10
171.6510
20
-121.6564
30
0
40
2.2500
0
CIRCLE
8
0
10
92.8132
20
225.0227
30
0
40
2.2500
0
CIRCLE
8
0
10
92.8132
20
-225.0227
30
0
40
2.2500
0
CIRCLE
8
0
10
13.9754
20
328.3890
30
0
40
2.2500
0
CIRCLE
8
0
10
13.9754
20
-328.3890
30
0
40
2.2500
0
CIRCLE
8
0
10
-64.8624
20
431.7554
30
0
40
2.2500
0
CIRCLE
8
0
10
-64.8624
20
-431.7554
30
0
40
2.2500
0
CIRCLE
8
0
10
-143.7003
20
535.1217
30
0
40
2.2500
0
CIRCLE
8
0
10
-143.7003
20
-535.1217
30
0
40
2.2500
0
LINE
8
0
10
6.0000
20
675.0893
30
0
11
0.0000
21
658.0893
31
0
0
LINE
8
0
10
0.0000
20
658.0893
30
0
11
0.0000
21
635.0893
31
0
0
LINE
8
0
10
0.0000
20
635.0893
30
0
11
275.1715
21
0.0000
31
0
0
LINE
8
0
10
275.1715
20
0.0000
30
0
11
0.0000
21
-635.0893
31
0
0
LINE
8
0
10
0.0000
20
-635.0893
30
0
11
0.0000
21
-658.0893
31
0
0
LINE
8
0
10
0.0000
20
-658.0893
30
0
11
6.0000
21
-675.0893
31
0
0
LINE
8
0
10
6.0000
20
-675.0893
30
0
11
950.0000
21
-675.0893
31
0
0
LINE
8
0
10
950.0000
20
-675.0893
30
0
11
950.0000
21
-633.0893
31
0
0
LINE
8
0
10
950.0000
20
-633.0893
30
0
11
964.0000
21
-633.0893
31
0
0
LINE
8
0
10
964.0000
20
-633.0893
30
0
11
964.0000
21
-15.0000
31
0
0
LINE
8
0
10
964.0000
20
-15.0000
30
0
11
949.0000
21
0.0000
31
0
0
LINE
8
0
10
949.0000
20
0.0000
30
0
11
964.0000
21
15.0000
31
0
0
LINE
8
0
10
964.0000
20
15.0000
30
0
11
964.0000
21
633.0893
31
0
0
LINE
8
0
10
964.0000
20
633.0893
30
0
11
950.0000
21
633.0893
31
0
0
LINE
8
0
10
950.0000
20
633.0893
30
0
11
950.0000
21
675.0893
31
0
0
LINE
8
0
10
950.0000
20
675.0893
30
0
11
6.0000
21
675.0893
31
0
0
CIRCLE
8
0
10
300.0000
20
610.0893
30
0
40
3.5000
0
CIRCLE
8
0
10
300.0000
20
570.0893
30
0
40
3.5000
0
CIRCLE
8
0
10
300.0000
20
-610.0893
30
0
40
3.5000
0
CIRCLE
8
0
10
300.0000
20
-570.0893
30
0
40
3.5000
0
CIRCLE
8
0
10
560.0000
20
610.0893
30
0
40
3.5000
0
CIRCLE
8
0
10
560.0000
20
570.0893
30
0
40
3.5000
0
CIRCLE
8
0
10
560.0000
20
-610.0893
30
0
40
3.5000
0
CIRCLE
8
0
10
560.0000
20
-570.0893
30
0
40
3.5000
0
CIRCLE
8
0
10
820.0000
20
610.0893
30
0
40
3.5000
0
CIRCLE
8
0
10
820.0000
20
570.0893
30
0
40
3.5000
0
CIRCLE
8
0
10
820.0000
20
-610.0893
30
0
40
3.5000
0
CIRCLE
8
0
10
820.0000
20
-570.0893
30
0
40
3.5000
0
LINE
8
0
10
277.0644
20
15.1249
30
0
11
275.2753
21
19.2540
31
0
0
LINE
8
0
10
281.1934
20
16.9140
30
0
11
279.4044
21
21.0431
31
0
0
ARC
8
0
10
277.3399
20
20.1485
30
0
40
2.2500
50
23.4261
51
203.4261
0
ARC
8
0
10
279.1289
20
16.0195
30
0
40
2.2500
50
203.4261
51
23.4261
0
LINE
8
0
10
225.3807
20
134.4095
30
0
11
223.5917
21
138.5386
31
0
0
LINE
8
0
10
229.5098
20
136.1985
30
0
11
227.7208
21
140.3276
31
0
0
ARC
8
0
10
225.6562
20
139.4331
30
0
40
2.2500
50
23.4261
51
203.4261
0
ARC
8
0
10
227.4453
20
135.3040
30
0
40
2.2500
50
203.4261
51
23.4261
0
LINE
8
0
10
173.6971
20
253.6940
30
0
11
171.9081
21
257.8231
31
0
0
LINE
8
0
10
177.8262
20
255.4831
30
0
11
176.0372
21
259.6122
31
0
0
ARC
8
0
10
173.9726
20
258.7176
30
0
40
2.2500
50
23.4261
51
203.4261
0
ARC
8
0
10
175.7617
20
254.5886
30
0
40
2.2500
50
203.4261
51
23.4261
0
LINE
8
0
10
122.0135
20
372.9786
30
0
11
120.2245
21
377.1077
31
0
0
LINE
8
0
10
126.1426
20
374.7676
30
0
11
124.3536
21
378.8967
31
0
0
ARC
8
0
10
122.2890
20
378.0022
30
0
40
2.2500
50
23.4261
51
203.4261
0
ARC
8
0
10
124.0781
20
373.8731
30
0
40
2.2500
50
203.4261
51
23.4261
0
LINE
8
0
10
70.3299
20
492.2631
30
0
11
68.5409
21
496.3922
31
0
0
LINE
8
0
10
74.4590
20
494.0522
30
0
11
72.6699
21
498.1813
31
0
0
ARC
8
0
10
70.6054
20
497.2867
30
0
40
2.2500
50
23.4261
51
203.4261
0
ARC
8
0
10
72.3945
20
493.1577
30
0
40
2.2500
50
203.4261
51
23.4261
0
LINE
8
0
10
18.6463
20
611.5477
30
0
11
16.8573
21
615.6768
31
0
0
LINE
8
0
10
22.7754
20
613.3367
30
0
11
20.9863
21
617.4658
31
0
0
ARC
8
0
10
18.9218
20
616.5713
30
0
40
2.2500
50
23.4261
51
203.4261
0
ARC
8
0
10
20.7108
20
612.4422
30
0
40
2.2500
50
203.4261
51
23.4261
0
LINE
8
0
10
281.1934
20
-16.9140
30
0
11
279.4044
21
-21.0431
31
0
0
LINE
8
0
10
277.0644
20
-15.1249
30
0
11
275.2753
21
-19.2540
31
0
0
ARC
8
0
10
277.3399
20
-20.1485
30
0
40
2.2500
50
156.5739
51
336.5739
0
ARC
8
0
10
279.1289
20
-16.0195
30
0
40
2.2500
50
336.5739
51
156.5739
0
LINE
8
0
10
229.5098
20
-136.1985
30
0
11
227.7208
21
-140.3276
31
0
0
LINE
8
0
10
225.3807
20
-134.4095
30
0
11
223.5917
21
-138.5386
31
0
0
ARC
8
0
10
225.6562
20
-139.4331
30
0
40
2.2500
50
156.5739
51
336.5739
0
ARC
8
0
10
227.4453
20
-135.3040
30
0
40
2.2500
50
336.5739
51
156.5739
0
LINE
8
0
10
177.8262
20
-255.4831
30
0
11
176.0372
21
-259.6122
31
0
0
LINE
8
0
10
173.6971
20
-253.6940
30
0
11
171.9081
21
-257.8231
31
0
0
ARC
8
0
10
173.9726
20
-258.7176
30
0
40
2.2500
50
156.5739
51
336.5739
0
ARC
8
0
10
175.7617
20
-254.5886
30
0
40
2.2500
50
336.5739
51
156.5739
0
LINE
8
0
10
126.1426
20
-374.7676
30
0
11
124.3536
21
-378.8967
31
0
0
LINE
8
0
10
122.0135
20
-372.9786
30
0
11
120.2245
21
-377.1077
31
0
0
ARC
8
0
10
122.2890
20
-378.0022
30
0
40
2.2500
50
156.5739
51
336.5739
0
ARC
8
0
10
124.0781
20
-373.8731
30
0
40
2.2500
50
336.5739
51
156.5739
0
LINE
8
0
10
74.4590
20
-494.0522
30
0
11
72.6699
21
-498.1813
31
0
0
LINE
8
0
10
70.3299
20
-492.2631
30
0
11
68.5409
21
-496.3922
31
0
0
ARC
8
0
10
70.6054
20
-497.2867
30
0
40
2.2500
50
156.5739
51
336.5739
0
ARC
8
0
10
72.3945
20
-493.1577
30
0
40
2.2500
50
336.5739
51
156.5739
0
LINE
8
0
10
22.7754
20
-613.3367
30
0
11
20.9863
21
-617.4658
31
0
0
LINE
8
0
10
18.6463
20
-611.5477
30
0
11
16.8573
21
-615.6768
31
0
0
ARC
8
0
10
18.9218
20
-616.5713
30
0
40
2.2500
50
156.5739
51
336.5739
0
ARC
8
0
10
20.7108
20
-612.4422
30
0
40
2.2500
50
336.5739
51
156.5739
0
LINE
8
0
10
1078.0000
20
675.0893
30
0
11
1078.0000
21
633.0893
31
0
0
LINE
8
0
10
1078.0000
20
633.0893
30
0
11
1064.0000
21
633.0893
31
0
0
LINE
8
0
10
1064.0000
20
633.0893
30
0
11
1064.0000
21
15.0000
31
0
0
LINE
8
0
10
1064.0000
20
15.0000
30
0
11
1079.0000
21
0.0000
31
0
0
LINE
8
0
10
1079.0000
20
0.0000
30
0
11
1064.0000
21
-15.0000
31
0
0
LINE
8
0
10
1064.0000
20
-15.0000
30
0
11
1064.0000
21
-633.0893
31
0
0
LINE
8
0
10
1064.0000
20
-633.0893
30
0
11
1078.0000
21
-633.0893
31
0
0
LINE
8
0
10
1078.0000
20
-633.0893
30
0
11
1078.0000
21
-675.0893
31
0
0
LINE
8
0
10
1078.0000
20
-675.0893
30
0
11
2022.0000
21
-675.0893
31
0
0
LINE
8
0
10
2022.0000
20
-675.0893
30
0
11
2028.0000
21
-658.0893
31
0
0
LINE
8
0
10
2028.0000
20
-658.0893
30
0
11
2028.0000
21
-635.0893
31
0
0
LINE
8
0
10
2028.0000
20
-635.0893
30
0
11
1752.8285
21
0.0000
31
0
0
LINE
8
0
10
1752.8285
20
0.0000
30
0
11
2028.0000
21
635.0893
31
0
0
LINE
8
0
10
2028.0000
20
635.0893
30
0
11
2028.0000
21
658.0893
31
0
0
LINE
8
0
10
2028.0000
20
658.0893
30
0
11
2022.0000
21
675.0893
31
0
0
LINE
8
0
10
2022.0000
20
675.0893
30
0
11
1078.0000
21
675.0893
31
0
0
CIRCLE
8
0
10
1208.0000
20
610.0893
30
0
40
3.5000
0
CIRCLE
8
0
10
1208.0000
20
570.0893
30
0
40
3.5000
0
CIRCLE
8
0
10
1208.0000
20
-610.0893
30
0
40
3.5000
0
CIRCLE
8
0
10
1208.0000
20
-570.0893
30
0
40
3.5000
0
CIRCLE
8
0
10
1468.0000
20
610.0893
30
0
40
3.5000
0
CIRCLE
8
0
10
1468.0000
20
570.0893
30
0
40
3.5000
0
CIRCLE
8
0
10
1468.0000
20
-610.0893
30
0
40
3.5000
0
CIRCLE
8
0
10
1468.0000
20
-570.0893
30
0
40
3.5000
0
CIRCLE
8
0
10
1728.0000
20
610.0893
30
0
40
3.5000
0
CIRCLE
8
0
10
1728.0000
20
570.0893
30
0
40
3.5000
0
CIRCLE
8
0
10
1728.0000
20
-610.0893
30
0
40
3.5000
0
CIRCLE
8
0
10
1728.0000
20
-570.0893
30
0
40
3.5000
0
LINE
8
0
10
1746.8066
20
16.9140
30
0
11
1748.5956
21
21.0431
31
0
0
LINE
8
0
10
1750.9356
20
15.1249
30
0
11
1752.7247
21
19.2540
31
0
0
ARC
8
0
10
1750.6601
20
20.1485
30
0
40
2.2500
50
336.5739
51
156.5739
0
ARC
8
0
10
1748.8711
20
16.0195
30
0
40
2.2500
50
156.5739
51
336.5739
0
LINE
8
0
10
1798.4902
20
136.1985
30
0
11
1800.2792
21
140.3276
31
0
0
LINE
8
0
10
1802.6193
20
134.4095
30
0
11
1804.4083
21
138.5386
31
0
0
ARC
8
0
10
1802.3438
20
139.4331
30
0
40
2.2500
50
336.5739
51
156.5739
0
ARC
8
0
10
1800.5547
20
135.3040
30
0
40
2.2500
50
156.5739
51
336.5739
0
LINE
8
0
10
1850.1738
20
255.4831
30
0
11
1851.9628
21
259.6122
31
0
0
LINE
8
0
10
1854.3029
20
253.6940
30
0
11
1856.0919
21
257.8231
31
0
0
ARC
8
0
10
1854.0274
20
258.7176
30
0
40
2.2500
50
336.5739
51
156.5739
0
ARC
8
0
10
1852.2383
20
254.5886
30
0
40
2.2500
50
156.5739
51
336.5739
0
LINE
8
0
10
1901.8574
20
374.7676
30
0
11
1903.6464
21
378.8967
31
0
0
LINE
8
0
10
1905.9865
20
372.9786
30
0
11
1907.7755
21
377.1077
31
0
0
ARC
8
0
10
1905.7110
20
378.0022
30
0
40
2.2500
50
336.5739
51
156.5739
0
ARC
8
0
10
1903.9219
20
373.8731
30
0
40
2.2500
50
156.5739
51
336.5739
0
LINE
8
0
10
1953.5410
20
494.0522
30
0
11
1955.3301
21
498.1813
31
0
0
LINE
8
0
10
1957.6701
20
492.2631
30
0
11
1959.4591
21
496.3922
31
0
0
ARC
8
0
10
1957.3946
20
497.2867
30
0
40
2.2500
50
336.5739
51
156.5739
0
ARC
8
0
10
1955.6055
20
493.1577
30
0
40
2.2500
50
156.5739
51
336.5739
0
LINE
8
0
10
2005.2246
20
613.3367
30
0
11
2007.0137
21
617.4658
31
0
0
LINE
8
0
10
2009.3537
20
611.5477
30
0
11
2011.1427
21
615.6768
31
0
0
ARC
8
0
10
2009.0782
20
616.5713
30
0
40
2.2500
50
336.5739
51
156.5739
0
ARC
8
0
10
2007.2892
20
612.4422
30
0
40
2.2500
50
156.5739
51
336.5739
0
LINE
8
0
10
1750.9356
20
-15.1249
30
0
11
1752.7247
21
-19.2540
31
0
0
LINE
8
0
10
1746.8066
20
-16.9140
30
0
11
1748.5956
21
-21.0431
31
0
0
ARC
8
0
10
1750.6601
20
-20.1485
30
0
40
2.2500
50
203.4261
51
23.4261
0
ARC
8
0
10
1748.8711
20
-16.0195
30
0
40
2.2500
50
23.4261
51
203.4261
0
LINE
8
0
10
1802.6193
20
-134.4095
30
0
11
1804.4083
21
-138.5386
31
0
0
LINE
8
0
10
1798.4902
20
-136.1985
30
0
11
1800.2792
21
-140.3276
31
0
0
ARC
8
0
10
1802.3438
20
-139.4331
30
0
40
2.2500
50
203.4261
51
23.4261
0
ARC
8
0
10
1800.5547
20
-135.3040
30
0
40
2.2500
50
23.4261
51
203.4261
0
LINE
8
0
10
1854.3029
20
-253.6940
30
0
11
1856.0919
21
-257.8231
31
0
0
LINE
8
0
10
1850.1738
20
-255.4831
30
0
11
1851.9628
21
-259.6122
31
0
0
ARC
8
0
10
1854.0274
20
-258.7176
30
0
40
2.2500
50
203.4261
51
23.4261
0
ARC
8
0
10
1852.2383
20
-254.5886
30
0
40
2.2500
50
23.4261
51
203.4261
0
LINE
8
0
10
1905.9865
20
-372.9786
30
0
11
1907.7755
21
-377.1077
31
0
0
LINE
8
0
10
1901.8574
20
-374.7676
30
0
11
1903.6464
21
-378.8967
31
0
0
ARC
8
0
10
1905.7110
20
-378.0022
30
0
40
2.2500
50
203.4261
51
23.4261
0
ARC
8
0
10
1903.9219
20
-373.8731
30
0
40
2.2500
50
23.4261
51
203.4261
0
LINE
8
0
10
1957.6701
20
-492.2631
30
0
11
1959.4591
21
-496.3922
31
0
0
LINE
8
0
10
1953.5410
20
-494.0522
30
0
11
1955.3301
21
-498.1813
31
0
0
ARC
8
0
10
1957.3946
20
-497.2867
30
0
40
2.2500
50
203.4261
51
23.4261
0
ARC
8
0
10
1955.6055
20
-493.1577
30
0
40
2.2500
50
23.4261
51
203.4261
0
LINE
8
0
10
2009.3537
20
-611.5477
30
0
11
2011.1427
21
-615.6768
31
0
0
LINE
8
0
10
2005.2246
20
-613.3367
30
0
11
2007.0137
21
-617.4658
31
0
0
ARC
8
0
10
2009.0782
20
-616.5713
30
0
40
2.2500
50
203.4261
51
23.4261
0
ARC
8
0
10
2007.2892
20
-612.4422
30
0
40
2.2500
50
23.4261
51
203.4261
0
LINE
8
0
10
1776.1379
20
0.0000
30
0
11
1767.2115
21
-21.2755
31
0
0
LINE
8
0
10
1767.2115
20
-21.2755
30
0
11
2173.7111
21
-554.2477
31
0
0
LINE
8
0
10
2173.7111
20
-554.2477
30
0
11
2195.8826
21
-550.3382
31
0
0
LINE
8
0
10
2195.8826
20
-550.3382
30
0
11
2218.8826
21
-550.3382
31
0
0
LINE
8
0
10
2218.8826
20
-550.3382
30
0
11
2235.8826
21
-544.3382
31
0
0
LINE
8
0
10
2235.8826
20
-544.3382
30
0
11
2235.8826
21
544.3382
31
0
0
LINE
8
0
10
2235.8826
20
544.3382
30
0
11
2218.8826
21
550.3382
31
0
0
LINE
8
0
10
2218.8826
20
550.3382
30
0
11
2195.8826
21
550.3382
31
0
0
LINE
8
0
10
2195.8826
20
550.3382
30
0
11
2173.7111
21
554.2477
31
0
0
LINE
8
0
10
2173.7111
20
554.2477
30
0
11
1767.2115
21
21.2755
31
0
0
LINE
8
0
10
1767.2115
20
21.2755
30
0
11
1776.1379
21
0.0000
31
0
0
CIRCLE
8
0
10
2170.8826
20
-200.0000
30
0
40
3.5000
0
CIRCLE
8
0
10
2130.8826
20
-200.0000
30
0
40
3.5000
0
CIRCLE
8
0
10
2170.8826
20
200.0000
30
0
40
3.5000
0
CIRCLE
8
0
10
2130.8826
20
200.0000
30
0
40
3.5000
0
CIRCLE
8
0
10
1777.5111
20
18.2901
30
0
40
2.2500
0
CIRCLE
8
0
10
1777.5111
20
-18.2901
30
0
40
2.2500
0
CIRCLE
8
0
10
1856.3490
20
121.6564
30
0
40
2.2500
0
CIRCLE
8
0
10
1856.3490
20
-121.6564
30
0
40
2.2500
0
CIRCLE
8
0
10
1935.1868
20
225.0227
30
0
40
2.2500
0
CIRCLE
8
0
10
1935.1868
20
-225.0227
30
0
40
2.2500
0
CIRCLE
8
0
10
2014.0246
20
328.3890
30
0
40
2.2500
0
CIRCLE
8
0
10
2014.0246
20
-328.3890
30
0
40
2.2500
0
CIRCLE
8
0
10
2092.8624
20
431.7554
30
0
40
2.2500
0
CIRCLE
8
0
10
2092.8624
20
-431.7554
30
0
40
2.2500
0
CIRCLE
8
0
10
2171.7003
20
535.1217
30
0
40
2.2500
0
CIRCLE
8
0
10
2171.7003
20
-535.1217
30
0
40
2.2500
0
ENDSEC
0
EOF
