0
SECTION
2
HEADER
9
$ACADVER
1
AC1009
9
$INSUNITS
70
4
0
ENDSEC
0
SECTION
2
ENTITIES
0
LINE
8
0
10
335.8348
20
21.2755
30
0
11
-185.1399
21
704.3390
31
0
0
LINE
8
0
10
-185.1399
20
704.3390
30
0
11
-207.3114
21
700.4295
31
0
0
LINE
8
0
10
-207.3114
20
700.4295
30
0
11
-230.3114
21
700.4295
31
0
0
LINE
8
0
10
-230.3114
20
700.4295
30
0
11
-247.3114
21
694.4295
31
0
0
LINE
8
0
10
-247.3114
20
694.4295
30
0
11
-247.3114
21
-694.4295
31
0
0
LINE
8
0
10
-247.3114
20
-694.4295
30
0
11
-230.3114
21
-700.4295
31
0
0
LINE
8
0
10
-230.3114
20
-700.4295
30
0
11
-207.3114
21
-700.4295
31
0
0
LINE
8
0
10
-207.3114
20
-700.4295
30
0
11
-185.1399
21
-704.3390
31
0
0
LINE
8
0
10
-185.1399
20
-704.3390
30
0
11
335.8348
21
-21.2755
31
0
0
LINE
8
0
10
335.8348
20
-21.2755
30
0
11
326.9084
21
0.0000
31
0
0
LINE
8
0
10
326.9084
20
0.0000
30
0
11
335.8348
21
21.2755
31
0
0
CIRCLE
8
0
10
-182.3114
20
-375.0000
30
0
40
3.5000
0
CIRCLE
8
0
10
-142.3114
20
-375.0000
30
0
40
3.5000
0
CIRCLE
8
0
10
-182.3114
20
0.0000
30
0
40
3.5000
0
CIRCLE
8
0
10
-142.3114
20
0.0000
30
0
40
3.5000
0
CIRCLE
8
0
10
-182.3114
20
375.0000
30
0
40
3.5000
0
CIRCLE
8
0
10
-142.3114
20
375.0000
30
0
40
3.5000
0
CIRCLE
8
0
10
325.5352
20
18.2901
30
0
40
2.2500
0
CIRCLE
8
0
10
325.5352
20
-18.2901
30
0
40
2.2500
0
CIRCLE
8
0
10
240.6329
20
129.6076
30
0
40
2.2500
0
CIRCLE
8
0
10
240.6329
20
-129.6076
30
0
40
2.2500
0
CIRCLE
8
0
10
155.7306
20
240.9252
30
0
40
2.2500
0
CIRCLE
8
0
10
155.7306
20
-240.9252
30
0
40
2.2500
0
CIRCLE
8
0
10
70.8283
20
352.2428
30
0
40
2.2500
0
CIRCLE
8
0
10
70.8283
20
-352.2428
30
0
40
2.2500
0
CIRCLE
8
0
10
-14.0739
20
463.5604
30
0
40
2.2500
0
CIRCLE
8
0
10
-14.0739
20
-463.5604
30
0
40
2.2500
0
CIRCLE
8
0
10
-98.9762
20
574.8780
30
0
40
2.2500
0
CIRCLE
8
0
10
-98.9762
20
-574.8780
30
0
40
2.2500
0
CIRCLE
8
0
10
-183.8785
20
686.1956
30
0
40
2.2500
0
CIRCLE
8
0
10
-183.8785
20
-686.1956
30
0
40
2.2500
0
LINE
8
0
10
6.0000
20
848.2944
30
0
11
0.0000
21
831.2944
31
0
0
LINE
8
0
10
0.0000
20
831.2944
30
0
11
0.0000
21
808.2944
31
0
0
LINE
8
0
10
0.0000
20
808.2944
30
0
11
350.2178
21
0.0000
31
0
0
LINE
8
0
10
350.2178
20
0.0000
30
0
11
0.0000
21
-808.2944
31
0
0
LINE
8
0
10
0.0000
20
-808.2944
30
0
11
0.0000
21
-831.2944
31
0
0
LINE
8
0
10
0.0000
20
-831.2944
30
0
11
6.0000
21
-848.2944
31
0
0
LINE
8
0
10
6.0000
20
-848.2944
30
0
11
700.0000
21
-848.2944
31
0
0
LINE
8
0
10
700.0000
20
-848.2944
30
0
11
700.0000
21
-806.2944
31
0
0
LINE
8
0
10
700.0000
20
-806.2944
30
0
11
714.0000
21
-806.2944
31
0
0
LINE
8
0
10
714.0000
20
-806.2944
30
0
11
714.0000
21
-15.0000
31
0
0
LINE
8
0
10
714.0000
20
-15.0000
30
0
11
699.0000
21
0.0000
31
0
0
LINE
8
0
10
699.0000
20
0.0000
30
0
11
714.0000
21
15.0000
31
0
0
LINE
8
0
10
714.0000
20
15.0000
30
0
11
714.0000
21
806.2944
31
0
0
LINE
8
0
10
714.0000
20
806.2944
30
0
11
700.0000
21
806.2944
31
0
0
LINE
8
0
10
700.0000
20
806.2944
30
0
11
700.0000
21
848.2944
31
0
0
LINE
8
0
10
700.0000
20
848.2944
30
0
11
6.0000
21
848.2944
31
0
0
CIRCLE
8
0
10
300.0000
20
783.2944
30
0
40
3.5000
0
CIRCLE
8
0
10
300.0000
20
743.2944
30
0
40
3.5000
0
CIRCLE
8
0
10
300.0000
20
-783.2944
30
0
40
3.5000
0
CIRCLE
8
0
10
300.0000
20
-743.2944
30
0
40
3.5000
0
CIRCLE
8
0
10
566.6667
20
783.2944
30
0
40
3.5000
0
CIRCLE
8
0
10
566.6667
20
743.2944
30
0
40
3.5000
0
CIRCLE
8
0
10
566.6667
20
-783.2944
30
0
40
3.5000
0
CIRCLE
8
0
10
566.6667
20
-743.2944
30
0
40
3.5000
0
LINE
8
0
10
352.1107
20
15.1249
30
0
11
350.3216
21
19.2540
31
0
0
LINE
8
0
10
356.2397
20
16.9140
30
0
11
354.4507
21
21.0431
31
0
0
ARC
8
0
10
352.3861
20
20.1485
30
0
40
2.2500
50
23.4261
51
203.4261
0
ARC
8
0
10
354.1752
20
16.0195
30
0
40
2.2500
50
203.4261
51
23.4261
0
LINE
8
0
10
296.4514
20
143.5852
30
0
11
294.6623
21
147.7143
31
0
0
LINE
8
0
10
300.5805
20
145.3743
30
0
11
298.7914
21
149.5033
31
0
0
ARC
8
0
10
296.7269
20
148.6088
30
0
40
2.2500
50
23.4261
51
203.4261
0
ARC
8
0
10
298.5159
20
144.4797
30
0
40
2.2500
50
203.4261
51
23.4261
0
LINE
8
0
10
240.7921
20
272.0455
30
0
11
239.0031
21
276.1746
31
0
0
LINE
8
0
10
244.9212
20
273.8346
30
0
11
243.1321
21
277.9636
31
0
0
ARC
8
0
10
241.0676
20
277.0691
30
0
40
2.2500
50
23.4261
51
203.4261
0
ARC
8
0
10
242.8567
20
272.9400
30
0
40
2.2500
50
203.4261
51
23.4261
0
LINE
8
0
10
185.1328
20
400.5058
30
0
11
183.3438
21
404.6349
31
0
0
LINE
8
0
10
189.2619
20
402.2948
30
0
11
187.4729
21
406.4239
31
0
0
ARC
8
0
10
185.4083
20
405.5294
30
0
40
2.2500
50
23.4261
51
203.4261
0
ARC
8
0
10
187.1974
20
401.4003
30
0
40
2.2500
50
203.4261
51
23.4261
0
LINE
8
0
10
129.4736
20
528.9661
30
0
11
127.6845
21
533.0952
31
0
0
LINE
8
0
10
133.6026
20
530.7551
30
0
11
131.8136
21
534.8842
31
0
0
ARC
8
0
10
129.7491
20
533.9897
30
0
40
2.2500
50
23.4261
51
203.4261
0
ARC
8
0
10
131.5381
20
529.8606
30
0
40
2.2500
50
203.4261
51
23.4261
0
LINE
8
0
10
73.8143
20
657.4264
30
0
11
72.0252
21
661.5554
31
0
0
LINE
8
0
10
77.9434
20
659.2154
30
0
11
76.1543
21
663.3445
31
0
0
ARC
8
0
10
74.0898
20
662.4500
30
0
40
2.2500
50
23.4261
51
203.4261
0
ARC
8
0
10
75.8788
20
658.3209
30
0
40
2.2500
50
203.4261
51
23.4261
0
LINE
8
0
10
18.1550
20
785.8867
30
0
11
16.3660
21
790.0157
31
0
0
LINE
8
0
10
22.2841
20
787.6757
30
0
11
20.4951
21
791.8048
31
0
0
ARC
8
0
10
18.4305
20
790.9103
30
0
40
2.2500
50
23.4261
51
203.4261
0
ARC
8
0
10
20.2196
20
786.7812
30
0
40
2.2500
50
203.4261
51
23.4261
0
LINE
8
0
10
356.2397
20
-16.9140
30
0
11
354.4507
21
-21.0431
31
0
0
LINE
8
0
10
352.1107
20
-15.1249
30
0
11
350.3216
21
-19.2540
31
0
0
ARC
8
0
10
352.3861
20
-20.1485
30
0
40
2.2500
50
156.5739
51
336.5739
0
ARC
8
0
10
354.1752
20
-16.0195
30
0
40
2.2500
50
336.5739
51
156.5739
0
LINE
8
0
10
300.5805
20
-145.3743
30
0
11
298.7914
21
-149.5033
31
0
0
LINE
8
0
10
296.4514
20
-143.5852
30
0
11
294.6623
21
-147.7143
31
0
0
ARC
8
0
10
296.7269
20
-148.6088
30
0
40
2.2500
50
156.5739
51
336.5739
0
ARC
8
0
10
298.5159
20
-144.4797
30
0
40
2.2500
50
336.5739
51
156.5739
0
LINE
8
0
10
244.9212
20
-273.8346
30
0
11
243.1321
21
-277.9636
31
0
0
LINE
8
0
10
240.7921
20
-272.0455
30
0
11
239.0031
21
-276.1746
31
0
0
ARC
8
0
10
241.0676
20
-277.0691
30
0
40
2.2500
50
156.5739
51
336.5739
0
ARC
8
0
10
242.8567
20
-272.9400
30
0
40
2.2500
50
336.5739
51
156.5739
0
LINE
8
0
10
189.2619
20
-402.2948
30
0
11
187.4729
21
-406.4239
31
0
0
LINE
8
0
10
185.1328
20
-400.5058
30
0
11
183.3438
21
-404.6349
31
0
0
ARC
8
0
10
185.4083
20
-405.5294
30
0
40
2.2500
50
156.5739
51
336.5739
0
ARC
8
0
10
187.1974
20
-401.4003
30
0
40
2.2500
50
336.5739
51
156.5739
0
LINE
8
0
10
133.6026
20
-530.7551
30
0
11
131.8136
21
-534.8842
31
0
0
LINE
8
0
10
129.4736
20
-528.9661
30
0
11
127.6845
21
-533.0952
31
0
0
ARC
8
0
10
129.7491
20
-533.9897
30
0
40
2.2500
50
156.5739
51
336.5739
0
ARC
8
0
10
131.5381
20
-529.8606
30
0
40
2.2500
50
336.5739
51
156.5739
0
LINE
8
0
10
77.9434
20
-659.2154
30
0
11
76.1543
21
-663.3445
31
0
0
LINE
8
0
10
73.8143
20
-657.4264
30
0
11
72.0252
21
-661.5554
31
0
0
ARC
8
0
10
74.0898
20
-662.4500
30
0
40
2.2500
50
156.5739
51
336.5739
0
ARC
8
0
10
75.8788
20
-658.3209
30
0
40
2.2500
50
336.5739
51
156.5739
0
LINE
8
0
10
22.2841
20
-787.6757
30
0
11
20.4951
21
-791.8048
31
0
0
LINE
8
0
10
18.1550
20
-785.8867
30
0
11
16.3660
21
-790.0157
31
0
0
ARC
8
0
10
18.4305
20
-790.9103
30
0
40
2.2500
50
156.5739
51
336.5739
0
ARC
8
0
10
20.2196
20
-786.7812
30
0
40
2.2500
50
336.5739
51
156.5739
0
LINE
8
0
10
828.0000
20
848.2944
30
0
11
828.0000
21
806.2944
31
0
0
LINE
8
0
10
828.0000
20
806.2944
30
0
11
814.0000
21
806.2944
31
0
0
LINE
8
0
10
814.0000
20
806.2944
30
0
11
814.0000
21
15.0000
31
0
0
LINE
8
0
10
814.0000
20
15.0000
30
0
11
829.0000
21
0.0000
31
0
0
LINE
8
0
10
829.0000
20
0.0000
30
0
11
814.0000
21
-15.0000
31
0
0
LINE
8
0
10
814.0000
20
-15.0000
30
0
11
814.0000
21
-806.2944
31
0
0
LINE
8
0
10
814.0000
20
-806.2944
30
0
11
828.0000
21
-806.2944
31
0
0
LINE
8
0
10
828.0000
20
-806.2944
30
0
11
828.0000
21
-848.2944
31
0
0
LINE
8
0
10
828.0000
20
-848.2944
30
0
11
1522.0000
21
-848.2944
31
0
0
LINE
8
0
10
1522.0000
20
-848.2944
30
0
11
1528.0000
21
-831.2944
31
0
0
LINE
8
0
10
1528.0000
20
-831.2944
30
0
11
1528.0000
21
-808.2944
31
0
0
LINE
8
0
10
1528.0000
20
-808.2944
30
0
11
1177.7822
21
0.0000
31
0
0
LINE
8
0
10
1177.7822
20
0.0000
30
0
11
1528.0000
21
808.2944
31
0
0
LINE
8
0
10
1528.0000
20
808.2944
30
0
11
1528.0000
21
831.2944
31
0
0
LINE
8
0
10
1528.0000
20
831.2944
30
0
11
1522.0000
21
848.2944
31
0
0
LINE
8
0
10
1522.0000
20
848.2944
30
0
11
828.0000
21
848.2944
31
0
0
CIRCLE
8
0
10
961.3333
20
783.2944
30
0
40
3.5000
0
CIRCLE
8
0
10
961.3333
20
743.2944
30
0
40
3.5000
0
CIRCLE
8
0
10
961.3333
20
-783.2944
30
0
40
3.5000
0
CIRCLE
8
0
10
961.3333
20
-743.2944
30
0
40
3.5000
0
CIRCLE
8
0
10
1228.0000
20
783.2944
30
0
40
3.5000
0
CIRCLE
8
0
10
1228.0000
20
743.2944
30
0
40
3.5000
0
CIRCLE
8
0
10
1228.0000
20
-783.2944
30
0
40
3.5000
0
CIRCLE
8
0
10
1228.0000
20
-743.2944
30
0
40
3.5000
0
LINE
8
0
10
1171.7603
20
16.9140
30
0
11
1173.5493
21
21.0431
31
0
0
LINE
8
0
10
1175.8893
20
15.1249
30
0
11
1177.6784
21
19.2540
31
0
0
ARC
8
0
10
1175.6139
20
20.1485
30
0
40
2.2500
50
336.5739
51
156.5739
0
ARC
8
0
10
1173.8248
20
16.0195
30
0
40
2.2500
50
156.5739
51
336.5739
0
LINE
8
0
10
1227.4195
20
145.3743
30
0
11
1229.2086
21
149.5033
31
0
0
LINE
8
0
10
1231.5486
20
143.5852
30
0
11
1233.3377
21
147.7143
31
0
0
ARC
8
0
10
1231.2731
20
148.6088
30
0
40
2.2500
50
336.5739
51
156.5739
0
ARC
8
0
10
1229.4841
20
144.4797
30
0
40
2.2500
50
156.5739
51
336.5739
0
LINE
8
0
10
1283.0788
20
273.8346
30
0
11
1284.8679
21
277.9636
31
0
0
LINE
8
0
10
1287.2079
20
272.0455
30
0
11
1288.9969
21
276.1746
31
0
0
ARC
8
0
10
1286.9324
20
277.0691
30
0
40
2.2500
50
336.5739
51
156.5739
0
ARC
8
0
10
1285.1433
20
272.9400
30
0
40
2.2500
50
156.5739
51
336.5739
0
LINE
8
0
10
1338.7381
20
402.2948
30
0
11
1340.5271
21
406.4239
31
0
0
LINE
8
0
10
1342.8672
20
400.5058
30
0
11
1344.6562
21
404.6349
31
0
0
ARC
8
0
10
1342.5917
20
405.5294
30
0
40
2.2500
50
336.5739
51
156.5739
0
ARC
8
0
10
1340.8026
20
401.4003
30
0
40
2.2500
50
156.5739
51
336.5739
0
LINE
8
0
10
1394.3974
20
530.7551
30
0
11
1396.1864
21
534.8842
31
0
0
LINE
8
0
10
1398.5264
20
528.9661
30
0
11
1400.3155
21
533.0952
31
0
0
ARC
8
0
10
1398.2509
20
533.9897
30
0
40
2.2500
50
336.5739
51
156.5739
0
ARC
8
0
10
1396.4619
20
529.8606
30
0
40
2.2500
50
156.5739
51
336.5739
0
LINE
8
0
10
1450.0566
20
659.2154
30
0
11
1451.8457
21
663.3445
31
0
0
LINE
8
0
10
1454.1857
20
657.4264
30
0
11
1455.9748
21
661.5554
31
0
0
ARC
8
0
10
1453.9102
20
662.4500
30
0
40
2.2500
50
336.5739
51
156.5739
0
ARC
8
0
10
1452.1212
20
658.3209
30
0
40
2.2500
50
156.5739
51
336.5739
0
LINE
8
0
10
1505.7159
20
787.6757
30
0
11
1507.5049
21
791.8048
31
0
0
LINE
8
0
10
1509.8450
20
785.8867
30
0
11
1511.6340
21
790.0157
31
0
0
ARC
8
0
10
1509.5695
20
790.9103
30
0
40
2.2500
50
336.5739
51
156.5739
0
ARC
8
0
10
1507.7804
20
786.7812
30
0
40
2.2500
50
156.5739
51
336.5739
0
LINE
8
0
10
1175.8893
20
-15.1249
30
0
11
1177.6784
21
-19.2540
31
0
0
LINE
8
0
10
1171.7603
20
-16.9140
30
0
11
1173.5493
21
-21.0431
31
0
0
ARC
8
0
10
1175.6139
20
-20.1485
30
0
40
2.2500
50
203.4261
51
23.4261
0
ARC
8
0
10
1173.8248
20
-16.0195
30
0
40
2.2500
50
23.4261
51
203.4261
0
LINE
8
0
10
1231.5486
20
-143.5852
30
0
11
1233.3377
21
-147.7143
31
0
0
LINE
8
0
10
1227.4195
20
-145.3743
30
0
11
1229.2086
21
-149.5033
31
0
0
ARC
8
0
10
1231.2731
20
-148.6088
30
0
40
2.2500
50
203.4261
51
23.4261
0
ARC
8
0
10
1229.4841
20
-144.4797
30
0
40
2.2500
50
23.4261
51
203.4261
0
LINE
8
0
10
1287.2079
20
-272.0455
30
0
11
1288.9969
21
-276.1746
31
0
0
LINE
8
0
10
1283.0788
20
-273.8346
30
0
11
1284.8679
21
-277.9636
31
0
0
ARC
8
0
10
1286.9324
20
-277.0691
30
0
40
2.2500
50
203.4261
51
23.4261
0
ARC
8
0
10
1285.1433
20
-272.9400
30
0
40
2.2500
50
23.4261
51
203.4261
0
LINE
8
0
10
1342.8672
20
-400.5058
30
0
11
1344.6562
21
-404.6349
31
0
0
LINE
8
0
10
1338.7381
20
-402.2948
30
0
11
1340.5271
21
-406.4239
31
0
0
ARC
8
0
10
1342.5917
20
-405.5294
30
0
40
2.2500
50
203.4261
51
23.4261
0
ARC
8
0
10
1340.8026
20
-401.4003
30
0
40
2.2500
50
23.4261
51
203.4261
0
LINE
8
0
10
1398.5264
20
-528.9661
30
0
11
1400.3155
21
-533.0952
31
0
0
LINE
8
0
10
1394.3974
20
-530.7551
30
0
11
1396.1864
21
-534.8842
31
0
0
ARC
8
0
10
1398.2509
20
-533.9897
30
0
40
2.2500
50
203.4261
51
23.4261
0
ARC
8
0
10
1396.4619
20
-529.8606
30
0
40
2.2500
50
23.4261
51
203.4261
0
LINE
8
0
10
1454.1857
20
-657.4264
30
0
11
1455.9748
21
-661.5554
31
0
0
LINE
8
0
10
1450.0566
20
-659.2154
30
0
11
1451.8457
21
-663.3445
31
0
0
ARC
8
0
10
1453.9102
20
-662.4500
30
0
40
2.2500
50
203.4261
51
23.4261
0
ARC
8
0
10
1452.1212
20
-658.3209
30
0
40
2.2500
50
23.4261
51
203.4261
0
LINE
8
0
10
1509.8450
20
-785.8867
30
0
11
1511.6340
21
-790.0157
31
0
0
LINE
8
0
10
1505.7159
20
-787.6757
30
0
11
1507.5049
21
-791.8048
31
0
0
ARC
8
0
10
1509.5695
20
-790.9103
30
0
40
2.2500
50
203.4261
51
23.4261
0
ARC
8
0
10
1507.7804
20
-786.7812
30
0
40
2.2500
50
23.4261
51
203.4261
0
LINE
8
0
10
1201.0916
20
0.0000
30
0
11
1192.1652
21
-21.2755
31
0
0
LINE
8
0
10
1192.1652
20
-21.2755
30
0
11
1713.1399
21
-704.3390
31
0
0
LINE
8
0
10
1713.1399
20
-704.3390
30
0
11
1735.3114
21
-700.4295
31
0
0
LINE
8
0
10
1735.3114
20
-700.4295
30
0
11
1758.3114
21
-700.4295
31
0
0
LINE
8
0
10
1758.3114
20
-700.4295
30
0
11
1775.3114
21
-694.4295
31
0
0
LINE
8
0
10
1775.3114
20
-694.4295
30
0
11
1775.3114
21
694.4295
31
0
0
LINE
8
0
10
1775.3114
20
694.4295
30
0
11
1758.3114
21
700.4295
31
0
0
LINE
8
0
10
1758.3114
20
700.4295
30
0
11
1735.3114
21
700.4295
31
0
0
LINE
8
0
10
1735.3114
20
700.4295
30
0
11
1713.1399
21
704.3390
31
0
0
LINE
8
0
10
1713.1399
20
704.3390
30
0
11
1192.1652
21
21.2755
31
0
0
LINE
8
0
10
1192.1652
20
21.2755
30
0
11
1201.0916
21
0.0000
31
0
0
CIRCLE
8
0
10
1710.3114
20
-375.0000
30
0
40
3.5000
0
CIRCLE
8
0
10
1670.3114
20
-375.0000
30
0
40
3.5000
0
CIRCLE
8
0
10
1710.3114
20
0.0000
30
0
40
3.5000
0
CIRCLE
8
0
10
1670.3114
20
0.0000
30
0
40
3.5000
0
CIRCLE
8
0
10
1710.3114
20
375.0000
30
0
40
3.5000
0
CIRCLE
8
0
10
1670.3114
20
375.0000
30
0
40
3.5000
0
CIRCLE
8
0
10
1202.4648
20
18.2901
30
0
40
2.2500
0
CIRCLE
8
0
10
1202.4648
20
-18.2901
30
0
40
2.2500
0
CIRCLE
8
0
10
1287.3671
20
129.6076
30
0
40
2.2500
0
CIRCLE
8
0
10
1287.3671
20
-129.6076
30
0
40
2.2500
0
CIRCLE
8
0
10
1372.2694
20
240.9252
30
0
40
2.2500
0
CIRCLE
8
0
10
1372.2694
20
-240.9252
30
0
40
2.2500
0
CIRCLE
8
0
10
1457.1717
20
352.2428
30
0
40
2.2500
0
CIRCLE
8
0
10
1457.1717
20
-352.2428
30
0
40
2.2500
0
CIRCLE
8
0
10
1542.0739
20
463.5604
30
0
40
2.2500
0
CIRCLE
8
0
10
1542.0739
20
-463.5604
30
0
40
2.2500
0
CIRCLE
8
0
10
1626.9762
20
574.8780
30
0
40
2.2500
0
CIRCLE
8
0
10
1626.9762
20
-574.8780
30
0
40
2.2500
0
CIRCLE
8
0
10
1711.8785
20
686.1956
30
0
40
2.2500
0
CIRCLE
8
0
10
1711.8785
20
-686.1956
30
0
40
2.2500
0
ENDSEC
0
EOF
