0
SECTION
2
HEADER
9
$ACADVER
1
AC1009
9
$INSUNITS
70
4
0
ENDSEC
0
SECTION
2
ENTITIES
0
LINE
8
0
10
323.3271
20
21.2755
30
0
11
-178.5684
21
679.3238
31
0
0
LINE
8
0
10
-178.5684
20
679.3238
30
0
11
-200.7399
21
675.4143
31
0
0
LINE
8
0
10
-200.7399
20
675.4143
30
0
11
-223.7399
21
675.4143
31
0
0
LINE
8
0
10
-223.7399
20
675.4143
30
0
11
-240.7399
21
669.4143
31
0
0
LINE
8
0
10
-240.7399
20
669.4143
30
0
11
-240.7399
21
-669.4143
31
0
0
LINE
8
0
10
-240.7399
20
-669.4143
30
0
11
-223.7399
21
-675.4143
31
0
0
LINE
8
0
10
-223.7399
20
-675.4143
30
0
11
-200.7399
21
-675.4143
31
0
0
LINE
8
0
10
-200.7399
20
-675.4143
30
0
11
-178.5684
21
-679.3238
31
0
0
LINE
8
0
10
-178.5684
20
-679.3238
30
0
11
323.3271
21
-21.2755
31
0
0
LINE
8
0
10
323.3271
20
-21.2755
30
0
11
314.4007
21
0.0000
31
0
0
LINE
8
0
10
314.4007
20
0.0000
30
0
11
323.3271
21
21.2755
31
0
0
CIRCLE
8
0
10
-175.7399
20
-350.0000
30
0
40
3.5000
0
CIRCLE
8
0
10
-135.7399
20
-350.0000
30
0
40
3.5000
0
CIRCLE
8
0
10
-175.7399
20
0.0000
30
0
40
3.5000
0
CIRCLE
8
0
10
-135.7399
20
0.0000
30
0
40
3.5000
0
CIRCLE
8
0
10
-175.7399
20
350.0000
30
0
40
3.5000
0
CIRCLE
8
0
10
-135.7399
20
350.0000
30
0
40
3.5000
0
CIRCLE
8
0
10
313.0274
20
18.2901
30
0
40
2.2500
0
CIRCLE
8
0
10
313.0274
20
-18.2901
30
0
40
2.2500
0
CIRCLE
8
0
10
230.8542
20
126.0296
30
0
40
2.2500
0
CIRCLE
8
0
10
230.8542
20
-126.0296
30
0
40
2.2500
0
CIRCLE
8
0
10
148.6809
20
233.7691
30
0
40
2.2500
0
CIRCLE
8
0
10
148.6809
20
-233.7691
30
0
40
2.2500
0
CIRCLE
8
0
10
66.5076
20
341.5086
30
0
40
2.2500
0
CIRCLE
8
0
10
66.5076
20
-341.5086
30
0
40
2.2500
0
CIRCLE
8
0
10
-15.6656
20
449.2481
30
0
40
2.2500
0
CIRCLE
8
0
10
-15.6656
20
-449.2481
30
0
40
2.2500
0
CIRCLE
8
0
10
-97.8389
20
556.9877
30
0
40
2.2500
0
CIRCLE
8
0
10
-97.8389
20
-556.9877
30
0
40
2.2500
0
CIRCLE
8
0
10
-180.0122
20
664.7272
30
0
40
2.2500
0
CIRCLE
8
0
10
-180.0122
20
-664.7272
30
0
40
2.2500
0
LINE
8
0
10
6.0000
20
819.4269
30
0
11
0.0000
21
802.4269
31
0
0
LINE
8
0
10
0.0000
20
802.4269
30
0
11
0.0000
21
779.4269
31
0
0
LINE
8
0
10
0.0000
20
779.4269
30
0
11
337.7101
21
0.0000
31
0
0
LINE
8
0
10
337.7101
20
0.0000
30
0
11
0.0000
21
-779.4269
31
0
0
LINE
8
0
10
0.0000
20
-779.4269
30
0
11
0.0000
21
-802.4269
31
0
0
LINE
8
0
10
0.0000
20
-802.4269
30
0
11
6.0000
21
-819.4269
31
0
0
LINE
8
0
10
6.0000
20
-819.4269
30
0
11
675.0000
21
-819.4269
31
0
0
LINE
8
0
10
675.0000
20
-819.4269
30
0
11
675.0000
21
-777.4269
31
0
0
LINE
8
0
10
675.0000
20
-777.4269
30
0
11
689.0000
21
-777.4269
31
0
0
LINE
8
0
10
689.0000
20
-777.4269
30
0
11
689.0000
21
-15.0000
31
0
0
LINE
8
0
10
689.0000
20
-15.0000
30
0
11
674.0000
21
0.0000
31
0
0
LINE
8
0
10
674.0000
20
0.0000
30
0
11
689.0000
21
15.0000
31
0
0
LINE
8
0
10
689.0000
20
15.0000
30
0
11
689.0000
21
777.4269
31
0
0
LINE
8
0
10
689.0000
20
777.4269
30
0
11
675.0000
21
777.4269
31
0
0
LINE
8
0
10
675.0000
20
777.4269
30
0
11
675.0000
21
819.4269
31
0
0
LINE
8
0
10
675.0000
20
819.4269
30
0
11
6.0000
21
819.4269
31
0
0
CIRCLE
8
0
10
300.0000
20
754.4269
30
0
40
3.5000
0
CIRCLE
8
0
10
300.0000
20
714.4269
30
0
40
3.5000
0
CIRCLE
8
0
10
300.0000
20
-754.4269
30
0
40
3.5000
0
CIRCLE
8
0
10
300.0000
20
-714.4269
30
0
40
3.5000
0
CIRCLE
8
0
10
550.0000
20
754.4269
30
0
40
3.5000
0
CIRCLE
8
0
10
550.0000
20
714.4269
30
0
40
3.5000
0
CIRCLE
8
0
10
550.0000
20
-754.4269
30
0
40
3.5000
0
CIRCLE
8
0
10
550.0000
20
-714.4269
30
0
40
3.5000
0
LINE
8
0
10
339.6029
20
15.1249
30
0
11
337.8139
21
19.2540
31
0
0
LINE
8
0
10
343.7320
20
16.9140
30
0
11
341.9430
21
21.0431
31
0
0
ARC
8
0
10
339.8784
20
20.1485
30
0
40
2.2500
50
23.4261
51
203.4261
0
ARC
8
0
10
341.6675
20
16.0195
30
0
40
2.2500
50
203.4261
51
23.4261
0
LINE
8
0
10
285.7327
20
139.4561
30
0
11
283.9437
21
143.5852
31
0
0
LINE
8
0
10
289.8618
20
141.2452
30
0
11
288.0727
21
145.3743
31
0
0
ARC
8
0
10
286.0082
20
144.4797
30
0
40
2.2500
50
23.4261
51
203.4261
0
ARC
8
0
10
287.7973
20
140.3507
30
0
40
2.2500
50
203.4261
51
23.4261
0
LINE
8
0
10
231.8625
20
263.7873
30
0
11
230.0734
21
267.9164
31
0
0
LINE
8
0
10
235.9916
20
265.5764
30
0
11
234.2025
21
269.7055
31
0
0
ARC
8
0
10
232.1380
20
268.8109
30
0
40
2.2500
50
23.4261
51
203.4261
0
ARC
8
0
10
233.9270
20
264.6819
30
0
40
2.2500
50
203.4261
51
23.4261
0
LINE
8
0
10
177.9923
20
388.1186
30
0
11
176.2032
21
392.2476
31
0
0
LINE
8
0
10
182.1213
20
389.9076
30
0
11
180.3323
21
394.0367
31
0
0
ARC
8
0
10
178.2678
20
393.1422
30
0
40
2.2500
50
23.4261
51
203.4261
0
ARC
8
0
10
180.0568
20
389.0131
30
0
40
2.2500
50
203.4261
51
23.4261
0
LINE
8
0
10
124.1220
20
512.4498
30
0
11
122.3330
21
516.5788
31
0
0
LINE
8
0
10
128.2511
20
514.2388
30
0
11
126.4621
21
518.3679
31
0
0
ARC
8
0
10
124.3975
20
517.4734
30
0
40
2.2500
50
23.4261
51
203.4261
0
ARC
8
0
10
126.1866
20
513.3443
30
0
40
2.2500
50
203.4261
51
23.4261
0
LINE
8
0
10
70.2518
20
636.7810
30
0
11
68.4628
21
640.9100
31
0
0
LINE
8
0
10
74.3809
20
638.5700
30
0
11
72.5918
21
642.6991
31
0
0
ARC
8
0
10
70.5273
20
641.8046
30
0
40
2.2500
50
23.4261
51
203.4261
0
ARC
8
0
10
72.3164
20
637.6755
30
0
40
2.2500
50
203.4261
51
23.4261
0
LINE
8
0
10
16.3816
20
761.1122
30
0
11
14.5925
21
765.2413
31
0
0
LINE
8
0
10
20.5107
20
762.9012
30
0
11
18.7216
21
767.0303
31
0
0
ARC
8
0
10
16.6571
20
766.1358
30
0
40
2.2500
50
23.4261
51
203.4261
0
ARC
8
0
10
18.4461
20
762.0067
30
0
40
2.2500
50
203.4261
51
23.4261
0
LINE
8
0
10
343.7320
20
-16.9140
30
0
11
341.9430
21
-21.0431
31
0
0
LINE
8
0
10
339.6029
20
-15.1249
30
0
11
337.8139
21
-19.2540
31
0
0
ARC
8
0
10
339.8784
20
-20.1485
30
0
40
2.2500
50
156.5739
51
336.5739
0
ARC
8
0
10
341.6675
20
-16.0195
30
0
40
2.2500
50
336.5739
51
156.5739
0
LINE
8
0
10
289.8618
20
-141.2452
30
0
11
288.0727
21
-145.3743
31
0
0
LINE
8
0
10
285.7327
20
-139.4561
30
0
11
283.9437
21
-143.5852
31
0
0
ARC
8
0
10
286.0082
20
-144.4797
30
0
40
2.2500
50
156.5739
51
336.5739
0
ARC
8
0
10
287.7973
20
-140.3507
30
0
40
2.2500
50
336.5739
51
156.5739
0
LINE
8
0
10
235.9916
20
-265.5764
30
0
11
234.2025
21
-269.7055
31
0
0
LINE
8
0
10
231.8625
20
-263.7873
30
0
11
230.0734
21
-267.9164
31
0
0
ARC
8
0
10
232.1380
20
-268.8109
30
0
40
2.2500
50
156.5739
51
336.5739
0
ARC
8
0
10
233.9270
20
-264.6819
30
0
40
2.2500
50
336.5739
51
156.5739
0
LINE
8
0
10
182.1213
20
-389.9076
30
0
11
180.3323
21
-394.0367
31
0
0
LINE
8
0
10
177.9923
20
-388.1186
30
0
11
176.2032
21
-392.2476
31
0
0
ARC
8
0
10
178.2678
20
-393.1422
30
0
40
2.2500
50
156.5739
51
336.5739
0
ARC
8
0
10
180.0568
20
-389.0131
30
0
40
2.2500
50
336.5739
51
156.5739
0
LINE
8
0
10
128.2511
20
-514.2388
30
0
11
126.4621
21
-518.3679
31
0
0
LINE
8
0
10
124.1220
20
-512.4498
30
0
11
122.3330
21
-516.5788
31
0
0
ARC
8
0
10
124.3975
20
-517.4734
30
0
40
2.2500
50
156.5739
51
336.5739
0
ARC
8
0
10
126.1866
20
-513.3443
30
0
40
2.2500
50
336.5739
51
156.5739
0
LINE
8
0
10
74.3809
20
-638.5700
30
0
11
72.5918
21
-642.6991
31
0
0
LINE
8
0
10
70.2518
20
-636.7810
30
0
11
68.4628
21
-640.9100
31
0
0
ARC
8
0
10
70.5273
20
-641.8046
30
0
40
2.2500
50
156.5739
51
336.5739
0
ARC
8
0
10
72.3164
20
-637.6755
30
0
40
2.2500
50
336.5739
51
156.5739
0
LINE
8
0
10
20.5107
20
-762.9012
30
0
11
18.7216
21
-767.0303
31
0
0
LINE
8
0
10
16.3816
20
-761.1122
30
0
11
14.5925
21
-765.2413
31
0
0
ARC
8
0
10
16.6571
20
-766.1358
30
0
40
2.2500
50
156.5739
51
336.5739
0
ARC
8
0
10
18.4461
20
-762.0067
30
0
40
2.2500
50
336.5739
51
156.5739
0
LINE
8
0
10
803.0000
20
819.4269
30
0
11
803.0000
21
777.4269
31
0
0
LINE
8
0
10
803.0000
20
777.4269
30
0
11
789.0000
21
777.4269
31
0
0
LINE
8
0
10
789.0000
20
777.4269
30
0
11
789.0000
21
15.0000
31
0
0
LINE
8
0
10
789.0000
20
15.0000
30
0
11
804.0000
21
0.0000
31
0
0
LINE
8
0
10
804.0000
20
0.0000
30
0
11
789.0000
21
-15.0000
31
0
0
LINE
8
0
10
789.0000
20
-15.0000
30
0
11
789.0000
21
-777.4269
31
0
0
LINE
8
0
10
789.0000
20
-777.4269
30
0
11
803.0000
21
-777.4269
31
0
0
LINE
8
0
10
803.0000
20
-777.4269
30
0
11
803.0000
21
-819.4269
31
0
0
LINE
8
0
10
803.0000
20
-819.4269
30
0
11
1472.0000
21
-819.4269
31
0
0
LINE
8
0
10
1472.0000
20
-819.4269
30
0
11
1478.0000
21
-802.4269
31
0
0
LINE
8
0
10
1478.0000
20
-802.4269
30
0
11
1478.0000
21
-779.4269
31
0
0
LINE
8
0
10
1478.0000
20
-779.4269
30
0
11
1140.2899
21
0.0000
31
0
0
LINE
8
0
10
1140.2899
20
0.0000
30
0
11
1478.0000
21
779.4269
31
0
0
LINE
8
0
10
1478.0000
20
779.4269
30
0
11
1478.0000
21
802.4269
31
0
0
LINE
8
0
10
1478.0000
20
802.4269
30
0
11
1472.0000
21
819.4269
31
0
0
LINE
8
0
10
1472.0000
20
819.4269
30
0
11
803.0000
21
819.4269
31
0
0
CIRCLE
8
0
10
928.0000
20
754.4269
30
0
40
3.5000
0
CIRCLE
8
0
10
928.0000
20
714.4269
30
0
40
3.5000
0
CIRCLE
8
0
10
928.0000
20
-754.4269
30
0
40
3.5000
0
CIRCLE
8
0
10
928.0000
20
-714.4269
30
0
40
3.5000
0
CIRCLE
8
0
10
1178.0000
20
754.4269
30
0
40
3.5000
0
CIRCLE
8
0
10
1178.0000
20
714.4269
30
0
40
3.5000
0
CIRCLE
8
0
10
1178.0000
20
-754.4269
30
0
40
3.5000
0
CIRCLE
8
0
10
1178.0000
20
-714.4269
30
0
40
3.5000
0
LINE
8
0
10
1134.2680
20
16.9140
30
0
11
1136.0570
21
21.0431
31
0
0
LINE
8
0
10
1138.3971
20
15.1249
30
0
11
1140.1861
21
19.2540
31
0
0
ARC
8
0
10
1138.1216
20
20.1485
30
0
40
2.2500
50
336.5739
51
156.5739
0
ARC
8
0
10
1136.3325
20
16.0195
30
0
40
2.2500
50
156.5739
51
336.5739
0
LINE
8
0
10
1188.1382
20
141.2452
30
0
11
1189.9273
21
145.3743
31
0
0
LINE
8
0
10
1192.2673
20
139.4561
30
0
11
1194.0563
21
143.5852
31
0
0
ARC
8
0
10
1191.9918
20
144.4797
30
0
40
2.2500
50
336.5739
51
156.5739
0
ARC
8
0
10
1190.2027
20
140.3507
30
0
40
2.2500
50
156.5739
51
336.5739
0
LINE
8
0
10
1242.0084
20
265.5764
30
0
11
1243.7975
21
269.7055
31
0
0
LINE
8
0
10
1246.1375
20
263.7873
30
0
11
1247.9266
21
267.9164
31
0
0
ARC
8
0
10
1245.8620
20
268.8109
30
0
40
2.2500
50
336.5739
51
156.5739
0
ARC
8
0
10
1244.0730
20
264.6819
30
0
40
2.2500
50
156.5739
51
336.5739
0
LINE
8
0
10
1295.8787
20
389.9076
30
0
11
1297.6677
21
394.0367
31
0
0
LINE
8
0
10
1300.0077
20
388.1186
30
0
11
1301.7968
21
392.2476
31
0
0
ARC
8
0
10
1299.7322
20
393.1422
30
0
40
2.2500
50
336.5739
51
156.5739
0
ARC
8
0
10
1297.9432
20
389.0131
30
0
40
2.2500
50
156.5739
51
336.5739
0
LINE
8
0
10
1349.7489
20
514.2388
30
0
11
1351.5379
21
518.3679
31
0
0
LINE
8
0
10
1353.8780
20
512.4498
30
0
11
1355.6670
21
516.5788
31
0
0
ARC
8
0
10
1353.6025
20
517.4734
30
0
40
2.2500
50
336.5739
51
156.5739
0
ARC
8
0
10
1351.8134
20
513.3443
30
0
40
2.2500
50
156.5739
51
336.5739
0
LINE
8
0
10
1403.6191
20
638.5700
30
0
11
1405.4082
21
642.6991
31
0
0
LINE
8
0
10
1407.7482
20
636.7810
30
0
11
1409.5372
21
640.9100
31
0
0
ARC
8
0
10
1407.4727
20
641.8046
30
0
40
2.2500
50
336.5739
51
156.5739
0
ARC
8
0
10
1405.6836
20
637.6755
30
0
40
2.2500
50
156.5739
51
336.5739
0
LINE
8
0
10
1457.4893
20
762.9012
30
0
11
1459.2784
21
767.0303
31
0
0
LINE
8
0
10
1461.6184
20
761.1122
30
0
11
1463.4075
21
765.2413
31
0
0
ARC
8
0
10
1461.3429
20
766.1358
30
0
40
2.2500
50
336.5739
51
156.5739
0
ARC
8
0
10
1459.5539
20
762.0067
30
0
40
2.2500
50
156.5739
51
336.5739
0
LINE
8
0
10
1138.3971
20
-15.1249
30
0
11
1140.1861
21
-19.2540
31
0
0
LINE
8
0
10
1134.2680
20
-16.9140
30
0
11
1136.0570
21
-21.0431
31
0
0
ARC
8
0
10
1138.1216
20
-20.1485
30
0
40
2.2500
50
203.4261
51
23.4261
0
ARC
8
0
10
1136.3325
20
-16.0195
30
0
40
2.2500
50
23.4261
51
203.4261
0
LINE
8
0
10
1192.2673
20
-139.4561
30
0
11
1194.0563
21
-143.5852
31
0
0
LINE
8
0
10
1188.1382
20
-141.2452
30
0
11
1189.9273
21
-145.3743
31
0
0
ARC
8
0
10
1191.9918
20
-144.4797
30
0
40
2.2500
50
203.4261
51
23.4261
0
ARC
8
0
10
1190.2027
20
-140.3507
30
0
40
2.2500
50
23.4261
51
203.4261
0
LINE
8
0
10
1246.1375
20
-263.7873
30
0
11
1247.9266
21
-267.9164
31
0
0
LINE
8
0
10
1242.0084
20
-265.5764
30
0
11
1243.7975
21
-269.7055
31
0
0
ARC
8
0
10
1245.8620
20
-268.8109
30
0
40
2.2500
50
203.4261
51
23.4261
0
ARC
8
0
10
1244.0730
20
-264.6819
30
0
40
2.2500
50
23.4261
51
203.4261
0
LINE
8
0
10
1300.0077
20
-388.1186
30
0
11
1301.7968
21
-392.2476
31
0
0
LINE
8
0
10
1295.8787
20
-389.9076
30
0
11
1297.6677
21
-394.0367
31
0
0
ARC
8
0
10
1299.7322
20
-393.1422
30
0
40
2.2500
50
203.4261
51
23.4261
0
ARC
8
0
10
1297.9432
20
-389.0131
30
0
40
2.2500
50
23.4261
51
203.4261
0
LINE
8
0
10
1353.8780
20
-512.4498
30
0
11
1355.6670
21
-516.5788
31
0
0
LINE
8
0
10
1349.7489
20
-514.2388
30
0
11
1351.5379
21
-518.3679
31
0
0
ARC
8
0
10
1353.6025
20
-517.4734
30
0
40
2.2500
50
203.4261
51
23.4261
0
ARC
8
0
10
1351.8134
20
-513.3443
30
0
40
2.2500
50
23.4261
51
203.4261
0
LINE
8
0
10
1407.7482
20
-636.7810
30
0
11
1409.5372
21
-640.9100
31
0
0
LINE
8
0
10
1403.6191
20
-638.5700
30
0
11
1405.4082
21
-642.6991
31
0
0
ARC
8
0
10
1407.4727
20
-641.8046
30
0
40
2.2500
50
203.4261
51
23.4261
0
ARC
8
0
10
1405.6836
20
-637.6755
30
0
40
2.2500
50
23.4261
51
203.4261
0
LINE
8
0
10
1461.6184
20
-761.1122
30
0
11
1463.4075
21
-765.2413
31
0
0
LINE
8
0
10
1457.4893
20
-762.9012
30
0
11
1459.2784
21
-767.0303
31
0
0
ARC
8
0
10
1461.3429
20
-766.1358
30
0
40
2.2500
50
203.4261
51
23.4261
0
ARC
8
0
10
1459.5539
20
-762.0067
30
0
40
2.2500
50
23.4261
51
203.4261
0
LINE
8
0
10
1163.5993
20
0.0000
30
0
11
1154.6729
21
-21.2755
31
0
0
LINE
8
0
10
1154.6729
20
-21.2755
30
0
11
1656.5684
21
-679.3238
31
0
0
LINE
8
0
10
1656.5684
20
-679.3238
30
0
11
1678.7399
21
-675.4143
31
0
0
LINE
8
0
10
1678.7399
20
-675.4143
30
0
11
1701.7399
21
-675.4143
31
0
0
LINE
8
0
10
1701.7399
20
-675.4143
30
0
11
1718.7399
21
-669.4143
31
0
0
LINE
8
0
10
1718.7399
20
-669.4143
30
0
11
1718.7399
21
669.4143
31
0
0
LINE
8
0
10
1718.7399
20
669.4143
30
0
11
1701.7399
21
675.4143
31
0
0
LINE
8
0
10
1701.7399
20
675.4143
30
0
11
1678.7399
21
675.4143
31
0
0
LINE
8
0
10
1678.7399
20
675.4143
30
0
11
1656.5684
21
679.3238
31
0
0
LINE
8
0
10
1656.5684
20
679.3238
30
0
11
1154.6729
21
21.2755
31
0
0
LINE
8
0
10
1154.6729
20
21.2755
30
0
11
1163.5993
21
0.0000
31
0
0
CIRCLE
8
0
10
1653.7399
20
-350.0000
30
0
40
3.5000
0
CIRCLE
8
0
10
1613.7399
20
-350.0000
30
0
40
3.5000
0
CIRCLE
8
0
10
1653.7399
20
0.0000
30
0
40
3.5000
0
CIRCLE
8
0
10
1613.7399
20
0.0000
30
0
40
3.5000
0
CIRCLE
8
0
10
1653.7399
20
350.0000
30
0
40
3.5000
0
CIRCLE
8
0
10
1613.7399
20
350.0000
30
0
40
3.5000
0
CIRCLE
8
0
10
1164.9726
20
18.2901
30
0
40
2.2500
0
CIRCLE
8
0
10
1164.9726
20
-18.2901
30
0
40
2.2500
0
CIRCLE
8
0
10
1247.1458
20
126.0296
30
0
40
2.2500
0
CIRCLE
8
0
10
1247.1458
20
-126.0296
30
0
40
2.2500
0
CIRCLE
8
0
10
1329.3191
20
233.7691
30
0
40
2.2500
0
CIRCLE
8
0
10
1329.3191
20
-233.7691
30
0
40
2.2500
0
CIRCLE
8
0
10
1411.4924
20
341.5086
30
0
40
2.2500
0
CIRCLE
8
0
10
1411.4924
20
-341.5086
30
0
40
2.2500
0
CIRCLE
8
0
10
1493.6656
20
449.2481
30
0
40
2.2500
0
CIRCLE
8
0
10
1493.6656
20
-449.2481
30
0
40
2.2500
0
CIRCLE
8
0
10
1575.8389
20
556.9877
30
0
40
2.2500
0
CIRCLE
8
0
10
1575.8389
20
-556.9877
30
0
40
2.2500
0
CIRCLE
8
0
10
1658.0122
20
664.7272
30
0
40
2.2500
0
CIRCLE
8
0
10
1658.0122
20
-664.7272
30
0
40
2.2500
0
ENDSEC
0
EOF
