0
SECTION
2
HEADER
9
$ACADVER
1
AC1009
9
$INSUNITS
70
4
0
ENDSEC
0
SECTION
2
ENTITIES
0
LINE
8
0
10
123.2036
20
21.2755
30
0
11
-73.4249
21
279.0803
31
0
0
LINE
8
0
10
-73.4249
20
279.0803
30
0
11
-95.5965
21
275.1709
31
0
0
LINE
8
0
10
-95.5965
20
275.1709
30
0
11
-118.5965
21
275.1709
31
0
0
LINE
8
0
10
-118.5965
20
275.1709
30
0
11
-135.5965
21
269.1709
31
0
0
LINE
8
0
10
-135.5965
20
269.1709
30
0
11
-135.5965
21
-269.1709
31
0
0
LINE
8
0
10
-135.5965
20
-269.1709
30
0
11
-118.5965
21
-275.1709
31
0
0
LINE
8
0
10
-118.5965
20
-275.1709
30
0
11
-95.5965
21
-275.1709
31
0
0
LINE
8
0
10
-95.5965
20
-275.1709
30
0
11
-73.4249
21
-279.0803
31
0
0
LINE
8
0
10
-73.4249
20
-279.0803
30
0
11
123.2036
21
-21.2755
31
0
0
LINE
8
0
10
123.2036
20
-21.2755
30
0
11
114.2772
21
0.0000
31
0
0
LINE
8
0
10
114.2772
20
0.0000
30
0
11
123.2036
21
21.2755
31
0
0
CIRCLE
8
0
10
-70.5965
20
0.0000
30
0
40
3.5000
0
CIRCLE
8
0
10
-30.5965
20
0.0000
30
0
40
3.5000
0
CIRCLE
8
0
10
112.9040
20
18.2901
30
0
40
2.2500
0
CIRCLE
8
0
10
112.9040
20
-18.2901
30
0
40
2.2500
0
CIRCLE
8
0
10
50.4402
20
100.1880
30
0
40
2.2500
0
CIRCLE
8
0
10
50.4402
20
-100.1880
30
0
40
2.2500
0
CIRCLE
8
0
10
-12.0236
20
182.0859
30
0
40
2.2500
0
CIRCLE
8
0
10
-12.0236
20
-182.0859
30
0
40
2.2500
0
CIRCLE
8
0
10
-74.4875
20
263.9839
30
0
40
2.2500
0
CIRCLE
8
0
10
-74.4875
20
-263.9839
30
0
40
2.2500
0
LINE
8
0
10
6.0000
20
357.5467
30
0
11
0.0000
21
340.5467
31
0
0
LINE
8
0
10
0.0000
20
340.5467
30
0
11
0.0000
21
317.5467
31
0
0
LINE
8
0
10
0.0000
20
317.5467
30
0
11
137.5866
21
0.0000
31
0
0
LINE
8
0
10
137.5866
20
0.0000
30
0
11
0.0000
21
-317.5467
31
0
0
LINE
8
0
10
0.0000
20
-317.5467
30
0
11
0.0000
21
-340.5467
31
0
0
LINE
8
0
10
0.0000
20
-340.5467
30
0
11
6.0000
21
-357.5467
31
0
0
LINE
8
0
10
6.0000
20
-357.5467
30
0
11
1294.0000
21
-357.5467
31
0
0
LINE
8
0
10
1294.0000
20
-357.5467
30
0
11
1300.0000
21
-340.5467
31
0
0
LINE
8
0
10
1300.0000
20
-340.5467
30
0
11
1300.0000
21
-317.5467
31
0
0
LINE
8
0
10
1300.0000
20
-317.5467
30
0
11
1162.4134
21
0.0000
31
0
0
LINE
8
0
10
1162.4134
20
0.0000
30
0
11
1300.0000
21
317.5467
31
0
0
LINE
8
0
10
1300.0000
20
317.5467
30
0
11
1300.0000
21
340.5467
31
0
0
LINE
8
0
10
1300.0000
20
340.5467
30
0
11
1294.0000
21
357.5467
31
0
0
LINE
8
0
10
1294.0000
20
357.5467
30
0
11
6.0000
21
357.5467
31
0
0
CIRCLE
8
0
10
300.0000
20
292.5467
30
0
40
3.5000
0
CIRCLE
8
0
10
300.0000
20
252.5467
30
0
40
3.5000
0
CIRCLE
8
0
10
300.0000
20
-292.5467
30
0
40
3.5000
0
CIRCLE
8
0
10
300.0000
20
-252.5467
30
0
40
3.5000
0
CIRCLE
8
0
10
650.0000
20
292.5467
30
0
40
3.5000
0
CIRCLE
8
0
10
650.0000
20
252.5467
30
0
40
3.5000
0
CIRCLE
8
0
10
650.0000
20
-292.5467
30
0
40
3.5000
0
CIRCLE
8
0
10
650.0000
20
-252.5467
30
0
40
3.5000
0
CIRCLE
8
0
10
1000.0000
20
292.5467
30
0
40
3.5000
0
CIRCLE
8
0
10
1000.0000
20
252.5467
30
0
40
3.5000
0
CIRCLE
8
0
10
1000.0000
20
-292.5467
30
0
40
3.5000
0
CIRCLE
8
0
10
1000.0000
20
-252.5467
30
0
40
3.5000
0
LINE
8
0
10
139.4795
20
15.1249
30
0
11
137.6904
21
19.2540
31
0
0
LINE
8
0
10
143.6086
20
16.9140
30
0
11
141.8195
21
21.0431
31
0
0
ARC
8
0
10
139.7550
20
20.1485
30
0
40
2.2500
50
23.4261
51
203.4261
0
ARC
8
0
10
141.5440
20
16.0195
30
0
40
2.2500
50
203.4261
51
23.4261
0
LINE
8
0
10
98.5302
20
109.6350
30
0
11
96.7411
21
113.7641
31
0
0
LINE
8
0
10
102.6592
20
111.4240
30
0
11
100.8702
21
115.5531
31
0
0
ARC
8
0
10
98.8057
20
114.6586
30
0
40
2.2500
50
23.4261
51
203.4261
0
ARC
8
0
10
100.5947
20
110.5295
30
0
40
2.2500
50
203.4261
51
23.4261
0
LINE
8
0
10
57.5808
20
204.1451
30
0
11
55.7918
21
208.2741
31
0
0
LINE
8
0
10
61.7099
20
205.9341
30
0
11
59.9209
21
210.0632
31
0
0
ARC
8
0
10
57.8563
20
209.1687
30
0
40
2.2500
50
23.4261
51
203.4261
0
ARC
8
0
10
59.6454
20
205.0396
30
0
40
2.2500
50
203.4261
51
23.4261
0
LINE
8
0
10
16.6315
20
298.6551
30
0
11
14.8425
21
302.7842
31
0
0
LINE
8
0
10
20.7606
20
300.4442
30
0
11
18.9715
21
304.5733
31
0
0
ARC
8
0
10
16.9070
20
303.6787
30
0
40
2.2500
50
23.4261
51
203.4261
0
ARC
8
0
10
18.6961
20
299.5497
30
0
40
2.2500
50
203.4261
51
23.4261
0
LINE
8
0
10
143.6086
20
-16.9140
30
0
11
141.8195
21
-21.0431
31
0
0
LINE
8
0
10
139.4795
20
-15.1249
30
0
11
137.6904
21
-19.2540
31
0
0
ARC
8
0
10
139.7550
20
-20.1485
30
0
40
2.2500
50
156.5739
51
336.5739
0
ARC
8
0
10
141.5440
20
-16.0195
30
0
40
2.2500
50
336.5739
51
156.5739
0
LINE
8
0
10
102.6592
20
-111.4240
30
0
11
100.8702
21
-115.5531
31
0
0
LINE
8
0
10
98.5302
20
-109.6350
30
0
11
96.7411
21
-113.7641
31
0
0
ARC
8
0
10
98.8057
20
-114.6586
30
0
40
2.2500
50
156.5739
51
336.5739
0
ARC
8
0
10
100.5947
20
-110.5295
30
0
40
2.2500
50
336.5739
51
156.5739
0
LINE
8
0
10
61.7099
20
-205.9341
30
0
11
59.9209
21
-210.0632
31
0
0
LINE
8
0
10
57.5808
20
-204.1451
30
0
11
55.7918
21
-208.2741
31
0
0
ARC
8
0
10
57.8563
20
-209.1687
30
0
40
2.2500
50
156.5739
51
336.5739
0
ARC
8
0
10
59.6454
20
-205.0396
30
0
40
2.2500
50
336.5739
51
156.5739
0
LINE
8
0
10
20.7606
20
-300.4442
30
0
11
18.9715
21
-304.5733
31
0
0
LINE
8
0
10
16.6315
20
-298.6551
30
0
11
14.8425
21
-302.7842
31
0
0
ARC
8
0
10
16.9070
20
-303.6787
30
0
40
2.2500
50
156.5739
51
336.5739
0
ARC
8
0
10
18.6961
20
-299.5497
30
0
40
2.2500
50
336.5739
51
156.5739
0
LINE
8
0
10
1156.3914
20
16.9140
30
0
11
1158.1805
21
21.0431
31
0
0
LINE
8
0
10
1160.5205
20
15.1249
30
0
11
1162.3096
21
19.2540
31
0
0
ARC
8
0
10
1160.2450
20
20.1485
30
0
40
2.2500
50
336.5739
51
156.5739
0
ARC
8
0
10
1158.4560
20
16.0195
30
0
40
2.2500
50
156.5739
51
336.5739
0
LINE
8
0
10
1197.3408
20
111.4240
30
0
11
1199.1298
21
115.5531
31
0
0
LINE
8
0
10
1201.4698
20
109.6350
30
0
11
1203.2589
21
113.7641
31
0
0
ARC
8
0
10
1201.1943
20
114.6586
30
0
40
2.2500
50
336.5739
51
156.5739
0
ARC
8
0
10
1199.4053
20
110.5295
30
0
40
2.2500
50
156.5739
51
336.5739
0
LINE
8
0
10
1238.2901
20
205.9341
30
0
11
1240.0791
21
210.0632
31
0
0
LINE
8
0
10
1242.4192
20
204.1451
30
0
11
1244.2082
21
208.2741
31
0
0
ARC
8
0
10
1242.1437
20
209.1687
30
0
40
2.2500
50
336.5739
51
156.5739
0
ARC
8
0
10
1240.3546
20
205.0396
30
0
40
2.2500
50
156.5739
51
336.5739
0
LINE
8
0
10
1279.2394
20
300.4442
30
0
11
1281.0285
21
304.5733
31
0
0
LINE
8
0
10
1283.3685
20
298.6551
30
0
11
1285.1575
21
302.7842
31
0
0
ARC
8
0
10
1283.0930
20
303.6787
30
0
40
2.2500
50
336.5739
51
156.5739
0
ARC
8
0
10
1281.3039
20
299.5497
30
0
40
2.2500
50
156.5739
51
336.5739
0
LINE
8
0
10
1160.5205
20
-15.1249
30
0
11
1162.3096
21
-19.2540
31
0
0
LINE
8
0
10
1156.3914
20
-16.9140
30
0
11
1158.1805
21
-21.0431
31
0
0
ARC
8
0
10
1160.2450
20
-20.1485
30
0
40
2.2500
50
203.4261
51
23.4261
0
ARC
8
0
10
1158.4560
20
-16.0195
30
0
40
2.2500
50
23.4261
51
203.4261
0
LINE
8
0
10
1201.4698
20
-109.6350
30
0
11
1203.2589
21
-113.7641
31
0
0
LINE
8
0
10
1197.3408
20
-111.4240
30
0
11
1199.1298
21
-115.5531
31
0
0
ARC
8
0
10
1201.1943
20
-114.6586
30
0
40
2.2500
50
203.4261
51
23.4261
0
ARC
8
0
10
1199.4053
20
-110.5295
30
0
40
2.2500
50
23.4261
51
203.4261
0
LINE
8
0
10
1242.4192
20
-204.1451
30
0
11
1244.2082
21
-208.2741
31
0
0
LINE
8
0
10
1238.2901
20
-205.9341
30
0
11
1240.0791
21
-210.0632
31
0
0
ARC
8
0
10
1242.1437
20
-209.1687
30
0
40
2.2500
50
203.4261
51
23.4261
0
ARC
8
0
10
1240.3546
20
-205.0396
30
0
40
2.2500
50
23.4261
51
203.4261
0
LINE
8
0
10
1283.3685
20
-298.6551
30
0
11
1285.1575
21
-302.7842
31
0
0
LINE
8
0
10
1279.2394
20
-300.4442
30
0
11
1281.0285
21
-304.5733
31
0
0
ARC
8
0
10
1283.0930
20
-303.6787
30
0
40
2.2500
50
203.4261
51
23.4261
0
ARC
8
0
10
1281.3039
20
-299.5497
30
0
40
2.2500
50
23.4261
51
203.4261
0
LINE
8
0
10
1185.7228
20
0.0000
30
0
11
1176.7964
21
-21.2755
31
0
0
LINE
8
0
10
1176.7964
20
-21.2755
30
0
11
1373.4249
21
-279.0803
31
0
0
LINE
8
0
10
1373.4249
20
-279.0803
30
0
11
1395.5965
21
-275.1709
31
0
0
LINE
8
0
10
1395.5965
20
-275.1709
30
0
11
1418.5965
21
-275.1709
31
0
0
LINE
8
0
10
1418.5965
20
-275.1709
30
0
11
1435.5965
21
-269.1709
31
0
0
LINE
8
0
10
1435.5965
20
-269.1709
30
0
11
1435.5965
21
269.1709
31
0
0
LINE
8
0
10
1435.5965
20
269.1709
30
0
11
1418.5965
21
275.1709
31
0
0
LINE
8
0
10
1418.5965
20
275.1709
30
0
11
1395.5965
21
275.1709
31
0
0
LINE
8
0
10
1395.5965
20
275.1709
30
0
11
1373.4249
21
279.0803
31
0
0
LINE
8
0
10
1373.4249
20
279.0803
30
0
11
1176.7964
21
21.2755
31
0
0
LINE
8
0
10
1176.7964
20
21.2755
30
0
11
1185.7228
21
0.0000
31
0
0
CIRCLE
8
0
10
1370.5965
20
0.0000
30
0
40
3.5000
0
CIRCLE
8
0
10
1330.5965
20
0.0000
30
0
40
3.5000
0
CIRCLE
8
0
10
1187.0960
20
18.2901
30
0
40
2.2500
0
CIRCLE
8
0
10
1187.0960
20
-18.2901
30
0
40
2.2500
0
CIRCLE
8
0
10
1249.5598
20
100.1880
30
0
40
2.2500
0
CIRCLE
8
0
10
1249.5598
20
-100.1880
30
0
40
2.2500
0
CIRCLE
8
0
10
1312.0236
20
182.0859
30
0
40
2.2500
0
CIRCLE
8
0
10
1312.0236
20
-182.0859
30
0
40
2.2500
0
CIRCLE
8
0
10
1374.4875
20
263.9839
30
0
40
2.2500
0
CIRCLE
8
0
10
1374.4875
20
-263.9839
30
0
40
2.2500
0
ENDSEC
0
EOF
