0
SECTION
2
HEADER
9
$ACADVER
1
AC1009
9
$INSUNITS
70
4
0
ENDSEC
0
SECTION
2
ENTITIES
0
LINE
8
0
10
110.6959
20
21.2755
30
0
11
-66.8535
21
254.0651
31
0
0
LINE
8
0
10
-66.8535
20
254.0651
30
0
11
-89.0250
21
250.1557
31
0
0
LINE
8
0
10
-89.0250
20
250.1557
30
0
11
-112.0250
21
250.1557
31
0
0
LINE
8
0
10
-112.0250
20
250.1557
30
0
11
-129.0250
21
244.1557
31
0
0
LINE
8
0
10
-129.0250
20
244.1557
30
0
11
-129.0250
21
-244.1557
31
0
0
LINE
8
0
10
-129.0250
20
-244.1557
30
0
11
-112.0250
21
-250.1557
31
0
0
LINE
8
0
10
-112.0250
20
-250.1557
30
0
11
-89.0250
21
-250.1557
31
0
0
LINE
8
0
10
-89.0250
20
-250.1557
30
0
11
-66.8535
21
-254.0651
31
0
0
LINE
8
0
10
-66.8535
20
-254.0651
30
0
11
110.6959
21
-21.2755
31
0
0
LINE
8
0
10
110.6959
20
-21.2755
30
0
11
101.7695
21
0.0000
31
0
0
LINE
8
0
10
101.7695
20
0.0000
30
0
11
110.6959
21
21.2755
31
0
0
CIRCLE
8
0
10
-64.0250
20
0.0000
30
0
40
3.5000
0
CIRCLE
8
0
10
-24.0250
20
0.0000
30
0
40
3.5000
0
CIRCLE
8
0
10
100.3963
20
18.2901
30
0
40
2.2500
0
CIRCLE
8
0
10
100.3963
20
-18.2901
30
0
40
2.2500
0
CIRCLE
8
0
10
16.4037
20
128.4150
30
0
40
2.2500
0
CIRCLE
8
0
10
16.4037
20
-128.4150
30
0
40
2.2500
0
CIRCLE
8
0
10
-67.5889
20
238.5399
30
0
40
2.2500
0
CIRCLE
8
0
10
-67.5889
20
-238.5399
30
0
40
2.2500
0
LINE
8
0
10
6.0000
20
328.6792
30
0
11
0.0000
21
311.6792
31
0
0
LINE
8
0
10
0.0000
20
311.6792
30
0
11
0.0000
21
288.6792
31
0
0
LINE
8
0
10
0.0000
20
288.6792
30
0
11
125.0789
21
0.0000
31
0
0
LINE
8
0
10
125.0789
20
0.0000
30
0
11
0.0000
21
-288.6792
31
0
0
LINE
8
0
10
0.0000
20
-288.6792
30
0
11
0.0000
21
-311.6792
31
0
0
LINE
8
0
10
0.0000
20
-311.6792
30
0
11
6.0000
21
-328.6792
31
0
0
LINE
8
0
10
6.0000
20
-328.6792
30
0
11
494.0000
21
-328.6792
31
0
0
LINE
8
0
10
494.0000
20
-328.6792
30
0
11
500.0000
21
-311.6792
31
0
0
LINE
8
0
10
500.0000
20
-311.6792
30
0
11
500.0000
21
-288.6792
31
0
0
LINE
8
0
10
500.0000
20
-288.6792
30
0
11
374.9211
21
0.0000
31
0
0
LINE
8
0
10
374.9211
20
0.0000
30
0
11
500.0000
21
288.6792
31
0
0
LINE
8
0
10
500.0000
20
288.6792
30
0
11
500.0000
21
311.6792
31
0
0
LINE
8
0
10
500.0000
20
311.6792
30
0
11
494.0000
21
328.6792
31
0
0
LINE
8
0
10
494.0000
20
328.6792
30
0
11
6.0000
21
328.6792
31
0
0
CIRCLE
8
0
10
250.0000
20
263.6792
30
0
40
3.5000
0
CIRCLE
8
0
10
250.0000
20
223.6792
30
0
40
3.5000
0
CIRCLE
8
0
10
250.0000
20
-263.6792
30
0
40
3.5000
0
CIRCLE
8
0
10
250.0000
20
-223.6792
30
0
40
3.5000
0
LINE
8
0
10
126.9718
20
15.1249
30
0
11
125.1827
21
19.2540
31
0
0
LINE
8
0
10
131.1008
20
16.9140
30
0
11
129.3118
21
21.0431
31
0
0
ARC
8
0
10
127.2473
20
20.1485
30
0
40
2.2500
50
23.4261
51
203.4261
0
ARC
8
0
10
129.0363
20
16.0195
30
0
40
2.2500
50
203.4261
51
23.4261
0
LINE
8
0
10
71.9088
20
142.2089
30
0
11
70.1198
21
146.3379
31
0
0
LINE
8
0
10
76.0379
20
143.9979
30
0
11
74.2489
21
148.1270
31
0
0
ARC
8
0
10
72.1843
20
147.2325
30
0
40
2.2500
50
23.4261
51
203.4261
0
ARC
8
0
10
73.9734
20
143.1034
30
0
40
2.2500
50
203.4261
51
23.4261
0
LINE
8
0
10
16.8459
20
269.2928
30
0
11
15.0569
21
273.4219
31
0
0
LINE
8
0
10
20.9750
20
271.0818
30
0
11
19.1859
21
275.2109
31
0
0
ARC
8
0
10
17.1214
20
274.3164
30
0
40
2.2500
50
23.4261
51
203.4261
0
ARC
8
0
10
18.9105
20
270.1873
30
0
40
2.2500
50
203.4261
51
23.4261
0
LINE
8
0
10
131.1008
20
-16.9140
30
0
11
129.3118
21
-21.0431
31
0
0
LINE
8
0
10
126.9718
20
-15.1249
30
0
11
125.1827
21
-19.2540
31
0
0
ARC
8
0
10
127.2473
20
-20.1485
30
0
40
2.2500
50
156.5739
51
336.5739
0
ARC
8
0
10
129.0363
20
-16.0195
30
0
40
2.2500
50
336.5739
51
156.5739
0
LINE
8
0
10
76.0379
20
-143.9979
30
0
11
74.2489
21
-148.1270
31
0
0
LINE
8
0
10
71.9088
20
-142.2089
30
0
11
70.1198
21
-146.3379
31
0
0
ARC
8
0
10
72.1843
20
-147.2325
30
0
40
2.2500
50
156.5739
51
336.5739
0
ARC
8
0
10
73.9734
20
-143.1034
30
0
40
2.2500
50
336.5739
51
156.5739
0
LINE
8
0
10
20.9750
20
-271.0818
30
0
11
19.1859
21
-275.2109
31
0
0
LINE
8
0
10
16.8459
20
-269.2928
30
0
11
15.0569
21
-273.4219
31
0
0
ARC
8
0
10
17.1214
20
-274.3164
30
0
40
2.2500
50
156.5739
51
336.5739
0
ARC
8
0
10
18.9105
20
-270.1873
30
0
40
2.2500
50
336.5739
51
156.5739
0
LINE
8
0
10
368.8992
20
16.9140
30
0
11
370.6882
21
21.0431
31
0
0
LINE
8
0
10
373.0282
20
15.1249
30
0
11
374.8173
21
19.2540
31
0
0
ARC
8
0
10
372.7527
20
20.1485
30
0
40
2.2500
50
336.5739
51
156.5739
0
ARC
8
0
10
370.9637
20
16.0195
30
0
40
2.2500
50
156.5739
51
336.5739
0
LINE
8
0
10
423.9621
20
143.9979
30
0
11
425.7511
21
148.1270
31
0
0
LINE
8
0
10
428.0912
20
142.2089
30
0
11
429.8802
21
146.3379
31
0
0
ARC
8
0
10
427.8157
20
147.2325
30
0
40
2.2500
50
336.5739
51
156.5739
0
ARC
8
0
10
426.0266
20
143.1034
30
0
40
2.2500
50
156.5739
51
336.5739
0
LINE
8
0
10
479.0250
20
271.0818
30
0
11
480.8141
21
275.2109
31
0
0
LINE
8
0
10
483.1541
20
269.2928
30
0
11
484.9431
21
273.4219
31
0
0
ARC
8
0
10
482.8786
20
274.3164
30
0
40
2.2500
50
336.5739
51
156.5739
0
ARC
8
0
10
481.0895
20
270.1873
30
0
40
2.2500
50
156.5739
51
336.5739
0
LINE
8
0
10
373.0282
20
-15.1249
30
0
11
374.8173
21
-19.2540
31
0
0
LINE
8
0
10
368.8992
20
-16.9140
30
0
11
370.6882
21
-21.0431
31
0
0
ARC
8
0
10
372.7527
20
-20.1485
30
0
40
2.2500
50
203.4261
51
23.4261
0
ARC
8
0
10
370.9637
20
-16.0195
30
0
40
2.2500
50
23.4261
51
203.4261
0
LINE
8
0
10
428.0912
20
-142.2089
30
0
11
429.8802
21
-146.3379
31
0
0
LINE
8
0
10
423.9621
20
-143.9979
30
0
11
425.7511
21
-148.1270
31
0
0
ARC
8
0
10
427.8157
20
-147.2325
30
0
40
2.2500
50
203.4261
51
23.4261
0
ARC
8
0
10
426.0266
20
-143.1034
30
0
40
2.2500
50
23.4261
51
203.4261
0
LINE
8
0
10
483.1541
20
-269.2928
30
0
11
484.9431
21
-273.4219
31
0
0
LINE
8
0
10
479.0250
20
-271.0818
30
0
11
480.8141
21
-275.2109
31
0
0
ARC
8
0
10
482.8786
20
-274.3164
30
0
40
2.2500
50
203.4261
51
23.4261
0
ARC
8
0
10
481.0895
20
-270.1873
30
0
40
2.2500
50
23.4261
51
203.4261
0
LINE
8
0
10
398.2305
20
0.0000
30
0
11
389.3041
21
-21.2755
31
0
0
LINE
8
0
10
389.3041
20
-21.2755
30
0
11
566.8535
21
-254.0651
31
0
0
LINE
8
0
10
566.8535
20
-254.0651
30
0
11
589.0250
21
-250.1557
31
0
0
LINE
8
0
10
589.0250
20
-250.1557
30
0
11
612.0250
21
-250.1557
31
0
0
LINE
8
0
10
612.0250
20
-250.1557
30
0
11
629.0250
21
-244.1557
31
0
0
LINE
8
0
10
629.0250
20
-244.1557
30
0
11
629.0250
21
244.1557
31
0
0
LINE
8
0
10
629.0250
20
244.1557
30
0
11
612.0250
21
250.1557
31
0
0
LINE
8
0
10
612.0250
20
250.1557
30
0
11
589.0250
21
250.1557
31
0
0
LINE
8
0
10
589.0250
20
250.1557
30
0
11
566.8535
21
254.0651
31
0
0
LINE
8
0
10
566.8535
20
254.0651
30
0
11
389.3041
21
21.2755
31
0
0
LINE
8
0
10
389.3041
20
21.2755
30
0
11
398.2305
21
0.0000
31
0
0
CIRCLE
8
0
10
564.0250
20
0.0000
30
0
40
3.5000
0
CIRCLE
8
0
10
524.0250
20
0.0000
30
0
40
3.5000
0
CIRCLE
8
0
10
399.6037
20
18.2901
30
0
40
2.2500
0
CIRCLE
8
0
10
399.6037
20
-18.2901
30
0
40
2.2500
0
CIRCLE
8
0
10
483.5963
20
128.4150
30
0
40
2.2500
0
CIRCLE
8
0
10
483.5963
20
-128.4150
30
0
40
2.2500
0
CIRCLE
8
0
10
567.5889
20
238.5399
30
0
40
2.2500
0
CIRCLE
8
0
10
567.5889
20
-238.5399
30
0
40
2.2500
0
ENDSEC
0
EOF
