0
SECTION
2
HEADER
9
$ACADVER
1
AC1009
9
$INSUNITS
70
4
0
ENDSEC
0
SECTION
2
ENTITIES
0
LINE
8
0
10
398.3734
20
21.2755
30
0
11
-217.9972
21
829.4151
31
0
0
LINE
8
0
10
-217.9972
20
829.4151
30
0
11
-240.1687
21
825.5056
31
0
0
LINE
8
0
10
-240.1687
20
825.5056
30
0
11
-263.1687
21
825.5056
31
0
0
LINE
8
0
10
-263.1687
20
825.5056
30
0
11
-280.1687
21
819.5056
31
0
0
LINE
8
0
10
-280.1687
20
819.5056
30
0
11
-280.1687
21
-819.5056
31
0
0
LINE
8
0
10
-280.1687
20
-819.5056
30
0
11
-263.1687
21
-825.5056
31
0
0
LINE
8
0
10
-263.1687
20
-825.5056
30
0
11
-240.1687
21
-825.5056
31
0
0
LINE
8
0
10
-240.1687
20
-825.5056
30
0
11
-217.9972
21
-829.4151
31
0
0
LINE
8
0
10
-217.9972
20
-829.4151
30
0
11
398.3734
21
-21.2755
31
0
0
LINE
8
0
10
398.3734
20
-21.2755
30
0
11
389.4470
21
0.0000
31
0
0
LINE
8
0
10
389.4470
20
0.0000
30
0
11
398.3734
21
21.2755
31
0
0
CIRCLE
8
0
10
-215.1687
20
-500.0000
30
0
40
3.5000
0
CIRCLE
8
0
10
-175.1687
20
-500.0000
30
0
40
3.5000
0
CIRCLE
8
0
10
-215.1687
20
-166.6667
30
0
40
3.5000
0
CIRCLE
8
0
10
-175.1687
20
-166.6667
30
0
40
3.5000
0
CIRCLE
8
0
10
-215.1687
20
166.6667
30
0
40
3.5000
0
CIRCLE
8
0
10
-175.1687
20
166.6667
30
0
40
3.5000
0
CIRCLE
8
0
10
-215.1687
20
500.0000
30
0
40
3.5000
0
CIRCLE
8
0
10
-175.1687
20
500.0000
30
0
40
3.5000
0
CIRCLE
8
0
10
388.0737
20
18.2901
30
0
40
2.2500
0
CIRCLE
8
0
10
388.0737
20
-18.2901
30
0
40
2.2500
0
CIRCLE
8
0
10
301.3521
20
131.9930
30
0
40
2.2500
0
CIRCLE
8
0
10
301.3521
20
-131.9930
30
0
40
2.2500
0
CIRCLE
8
0
10
214.6305
20
245.6960
30
0
40
2.2500
0
CIRCLE
8
0
10
214.6305
20
-245.6960
30
0
40
2.2500
0
CIRCLE
8
0
10
127.9089
20
359.3989
30
0
40
2.2500
0
CIRCLE
8
0
10
127.9089
20
-359.3989
30
0
40
2.2500
0
CIRCLE
8
0
10
41.1873
20
473.1019
30
0
40
2.2500
0
CIRCLE
8
0
10
41.1873
20
-473.1019
30
0
40
2.2500
0
CIRCLE
8
0
10
-45.5343
20
586.8049
30
0
40
2.2500
0
CIRCLE
8
0
10
-45.5343
20
-586.8049
30
0
40
2.2500
0
CIRCLE
8
0
10
-132.2559
20
700.5078
30
0
40
2.2500
0
CIRCLE
8
0
10
-132.2559
20
-700.5078
30
0
40
2.2500
0
CIRCLE
8
0
10
-218.9775
20
814.2108
30
0
40
2.2500
0
CIRCLE
8
0
10
-218.9775
20
-814.2108
30
0
40
2.2500
0
LINE
8
0
10
6.0000
20
992.6320
30
0
11
0.0000
21
975.6320
31
0
0
LINE
8
0
10
0.0000
20
975.6320
30
0
11
0.0000
21
952.6320
31
0
0
LINE
8
0
10
0.0000
20
952.6320
30
0
11
412.7564
21
0.0000
31
0
0
LINE
8
0
10
412.7564
20
0.0000
30
0
11
0.0000
21
-952.6320
31
0
0
LINE
8
0
10
0.0000
20
-952.6320
30
0
11
0.0000
21
-975.6320
31
0
0
LINE
8
0
10
0.0000
20
-975.6320
30
0
11
6.0000
21
-992.6320
31
0
0
LINE
8
0
10
6.0000
20
-992.6320
30
0
11
825.0000
21
-992.6320
31
0
0
LINE
8
0
10
825.0000
20
-992.6320
30
0
11
825.0000
21
-950.6320
31
0
0
LINE
8
0
10
825.0000
20
-950.6320
30
0
11
839.0000
21
-950.6320
31
0
0
LINE
8
0
10
839.0000
20
-950.6320
30
0
11
839.0000
21
-15.0000
31
0
0
LINE
8
0
10
839.0000
20
-15.0000
30
0
11
824.0000
21
0.0000
31
0
0
LINE
8
0
10
824.0000
20
0.0000
30
0
11
839.0000
21
15.0000
31
0
0
LINE
8
0
10
839.0000
20
15.0000
30
0
11
839.0000
21
950.6320
31
0
0
LINE
8
0
10
839.0000
20
950.6320
30
0
11
825.0000
21
950.6320
31
0
0
LINE
8
0
10
825.0000
20
950.6320
30
0
11
825.0000
21
992.6320
31
0
0
LINE
8
0
10
825.0000
20
992.6320
30
0
11
6.0000
21
992.6320
31
0
0
CIRCLE
8
0
10
300.0000
20
927.6320
30
0
40
3.5000
0
CIRCLE
8
0
10
300.0000
20
887.6320
30
0
40
3.5000
0
CIRCLE
8
0
10
300.0000
20
-927.6320
30
0
40
3.5000
0
CIRCLE
8
0
10
300.0000
20
-887.6320
30
0
40
3.5000
0
CIRCLE
8
0
10
510.0000
20
927.6320
30
0
40
3.5000
0
CIRCLE
8
0
10
510.0000
20
887.6320
30
0
40
3.5000
0
CIRCLE
8
0
10
510.0000
20
-927.6320
30
0
40
3.5000
0
CIRCLE
8
0
10
510.0000
20
-887.6320
30
0
40
3.5000
0
CIRCLE
8
0
10
720.0000
20
927.6320
30
0
40
3.5000
0
CIRCLE
8
0
10
720.0000
20
887.6320
30
0
40
3.5000
0
CIRCLE
8
0
10
720.0000
20
-927.6320
30
0
40
3.5000
0
CIRCLE
8
0
10
720.0000
20
-887.6320
30
0
40
3.5000
0
LINE
8
0
10
414.6492
20
15.1249
30
0
11
412.8602
21
19.2540
31
0
0
LINE
8
0
10
418.7783
20
16.9140
30
0
11
416.9893
21
21.0431
31
0
0
ARC
8
0
10
414.9247
20
20.1485
30
0
40
2.2500
50
23.4261
51
203.4261
0
ARC
8
0
10
416.7138
20
16.0195
30
0
40
2.2500
50
203.4261
51
23.4261
0
LINE
8
0
10
357.7973
20
146.3379
30
0
11
356.0082
21
150.4670
31
0
0
LINE
8
0
10
361.9263
20
148.1270
30
0
11
360.1373
21
152.2561
31
0
0
ARC
8
0
10
358.0728
20
151.3615
30
0
40
2.2500
50
23.4261
51
203.4261
0
ARC
8
0
10
359.8618
20
147.2325
30
0
40
2.2500
50
203.4261
51
23.4261
0
LINE
8
0
10
300.9453
20
277.5509
30
0
11
299.1562
21
281.6800
31
0
0
LINE
8
0
10
305.0744
20
279.3400
30
0
11
303.2853
21
283.4691
31
0
0
ARC
8
0
10
301.2208
20
282.5746
30
0
40
2.2500
50
23.4261
51
203.4261
0
ARC
8
0
10
303.0098
20
278.4455
30
0
40
2.2500
50
203.4261
51
23.4261
0
LINE
8
0
10
244.0933
20
408.7640
30
0
11
242.3043
21
412.8930
31
0
0
LINE
8
0
10
248.2224
20
410.5530
30
0
11
246.4334
21
414.6821
31
0
0
ARC
8
0
10
244.3688
20
413.7876
30
0
40
2.2500
50
23.4261
51
203.4261
0
ARC
8
0
10
246.1579
20
409.6585
30
0
40
2.2500
50
203.4261
51
23.4261
0
LINE
8
0
10
187.2414
20
539.9770
30
0
11
185.4523
21
544.1060
31
0
0
LINE
8
0
10
191.3704
20
541.7660
30
0
11
189.5814
21
545.8951
31
0
0
ARC
8
0
10
187.5168
20
545.0006
30
0
40
2.2500
50
23.4261
51
203.4261
0
ARC
8
0
10
189.3059
20
540.8715
30
0
40
2.2500
50
203.4261
51
23.4261
0
LINE
8
0
10
130.3894
20
671.1900
30
0
11
128.6003
21
675.3190
31
0
0
LINE
8
0
10
134.5185
20
672.9790
30
0
11
132.7294
21
677.1081
31
0
0
ARC
8
0
10
130.6649
20
676.2136
30
0
40
2.2500
50
23.4261
51
203.4261
0
ARC
8
0
10
132.4539
20
672.0845
30
0
40
2.2500
50
203.4261
51
23.4261
0
LINE
8
0
10
73.5374
20
802.4030
30
0
11
71.7484
21
806.5321
31
0
0
LINE
8
0
10
77.6665
20
804.1920
30
0
11
75.8774
21
808.3211
31
0
0
ARC
8
0
10
73.8129
20
807.4266
30
0
40
2.2500
50
23.4261
51
203.4261
0
ARC
8
0
10
75.6019
20
803.2975
30
0
40
2.2500
50
203.4261
51
23.4261
0
LINE
8
0
10
16.6854
20
933.6160
30
0
11
14.8964
21
937.7451
31
0
0
LINE
8
0
10
20.8145
20
935.4050
30
0
11
19.0255
21
939.5341
31
0
0
ARC
8
0
10
16.9609
20
938.6396
30
0
40
2.2500
50
23.4261
51
203.4261
0
ARC
8
0
10
18.7500
20
934.5105
30
0
40
2.2500
50
203.4261
51
23.4261
0
LINE
8
0
10
418.7783
20
-16.9140
30
0
11
416.9893
21
-21.0431
31
0
0
LINE
8
0
10
414.6492
20
-15.1249
30
0
11
412.8602
21
-19.2540
31
0
0
ARC
8
0
10
414.9247
20
-20.1485
30
0
40
2.2500
50
156.5739
51
336.5739
0
ARC
8
0
10
416.7138
20
-16.0195
30
0
40
2.2500
50
336.5739
51
156.5739
0
LINE
8
0
10
361.9263
20
-148.1270
30
0
11
360.1373
21
-152.2561
31
0
0
LINE
8
0
10
357.7973
20
-146.3379
30
0
11
356.0082
21
-150.4670
31
0
0
ARC
8
0
10
358.0728
20
-151.3615
30
0
40
2.2500
50
156.5739
51
336.5739
0
ARC
8
0
10
359.8618
20
-147.2325
30
0
40
2.2500
50
336.5739
51
156.5739
0
LINE
8
0
10
305.0744
20
-279.3400
30
0
11
303.2853
21
-283.4691
31
0
0
LINE
8
0
10
300.9453
20
-277.5509
30
0
11
299.1562
21
-281.6800
31
0
0
ARC
8
0
10
301.2208
20
-282.5746
30
0
40
2.2500
50
156.5739
51
336.5739
0
ARC
8
0
10
303.0098
20
-278.4455
30
0
40
2.2500
50
336.5739
51
156.5739
0
LINE
8
0
10
248.2224
20
-410.5530
30
0
11
246.4334
21
-414.6821
31
0
0
LINE
8
0
10
244.0933
20
-408.7640
30
0
11
242.3043
21
-412.8930
31
0
0
ARC
8
0
10
244.3688
20
-413.7876
30
0
40
2.2500
50
156.5739
51
336.5739
0
ARC
8
0
10
246.1579
20
-409.6585
30
0
40
2.2500
50
336.5739
51
156.5739
0
LINE
8
0
10
191.3704
20
-541.7660
30
0
11
189.5814
21
-545.8951
31
0
0
LINE
8
0
10
187.2414
20
-539.9770
30
0
11
185.4523
21
-544.1060
31
0
0
ARC
8
0
10
187.5168
20
-545.0006
30
0
40
2.2500
50
156.5739
51
336.5739
0
ARC
8
0
10
189.3059
20
-540.8715
30
0
40
2.2500
50
336.5739
51
156.5739
0
LINE
8
0
10
134.5185
20
-672.9790
30
0
11
132.7294
21
-677.1081
31
0
0
LINE
8
0
10
130.3894
20
-671.1900
30
0
11
128.6003
21
-675.3190
31
0
0
ARC
8
0
10
130.6649
20
-676.2136
30
0
40
2.2500
50
156.5739
51
336.5739
0
ARC
8
0
10
132.4539
20
-672.0845
30
0
40
2.2500
50
336.5739
51
156.5739
0
LINE
8
0
10
77.6665
20
-804.1920
30
0
11
75.8774
21
-808.3211
31
0
0
LINE
8
0
10
73.5374
20
-802.4030
30
0
11
71.7484
21
-806.5321
31
0
0
ARC
8
0
10
73.8129
20
-807.4266
30
0
40
2.2500
50
156.5739
51
336.5739
0
ARC
8
0
10
75.6019
20
-803.2975
30
0
40
2.2500
50
336.5739
51
156.5739
0
LINE
8
0
10
20.8145
20
-935.4050
30
0
11
19.0255
21
-939.5341
31
0
0
LINE
8
0
10
16.6854
20
-933.6160
30
0
11
14.8964
21
-937.7451
31
0
0
ARC
8
0
10
16.9609
20
-938.6396
30
0
40
2.2500
50
156.5739
51
336.5739
0
ARC
8
0
10
18.7500
20
-934.5105
30
0
40
2.2500
50
336.5739
51
156.5739
0
LINE
8
0
10
953.0000
20
992.6320
30
0
11
953.0000
21
950.6320
31
0
0
LINE
8
0
10
953.0000
20
950.6320
30
0
11
939.0000
21
950.6320
31
0
0
LINE
8
0
10
939.0000
20
950.6320
30
0
11
939.0000
21
15.0000
31
0
0
LINE
8
0
10
939.0000
20
15.0000
30
0
11
954.0000
21
0.0000
31
0
0
LINE
8
0
10
954.0000
20
0.0000
30
0
11
939.0000
21
-15.0000
31
0
0
LINE
8
0
10
939.0000
20
-15.0000
30
0
11
939.0000
21
-950.6320
31
0
0
LINE
8
0
10
939.0000
20
-950.6320
30
0
11
953.0000
21
-950.6320
31
0
0
LINE
8
0
10
953.0000
20
-950.6320
30
0
11
953.0000
21
-992.6320
31
0
0
LINE
8
0
10
953.0000
20
-992.6320
30
0
11
1772.0000
21
-992.6320
31
0
0
LINE
8
0
10
1772.0000
20
-992.6320
30
0
11
1778.0000
21
-975.6320
31
0
0
LINE
8
0
10
1778.0000
20
-975.6320
30
0
11
1778.0000
21
-952.6320
31
0
0
LINE
8
0
10
1778.0000
20
-952.6320
30
0
11
1365.2436
21
0.0000
31
0
0
LINE
8
0
10
1365.2436
20
0.0000
30
0
11
1778.0000
21
952.6320
31
0
0
LINE
8
0
10
1778.0000
20
952.6320
30
0
11
1778.0000
21
975.6320
31
0
0
LINE
8
0
10
1778.0000
20
975.6320
30
0
11
1772.0000
21
992.6320
31
0
0
LINE
8
0
10
1772.0000
20
992.6320
30
0
11
953.0000
21
992.6320
31
0
0
CIRCLE
8
0
10
1058.0000
20
927.6320
30
0
40
3.5000
0
CIRCLE
8
0
10
1058.0000
20
887.6320
30
0
40
3.5000
0
CIRCLE
8
0
10
1058.0000
20
-927.6320
30
0
40
3.5000
0
CIRCLE
8
0
10
1058.0000
20
-887.6320
30
0
40
3.5000
0
CIRCLE
8
0
10
1268.0000
20
927.6320
30
0
40
3.5000
0
CIRCLE
8
0
10
1268.0000
20
887.6320
30
0
40
3.5000
0
CIRCLE
8
0
10
1268.0000
20
-927.6320
30
0
40
3.5000
0
CIRCLE
8
0
10
1268.0000
20
-887.6320
30
0
40
3.5000
0
CIRCLE
8
0
10
1478.0000
20
927.6320
30
0
40
3.5000
0
CIRCLE
8
0
10
1478.0000
20
887.6320
30
0
40
3.5000
0
CIRCLE
8
0
10
1478.0000
20
-927.6320
30
0
40
3.5000
0
CIRCLE
8
0
10
1478.0000
20
-887.6320
30
0
40
3.5000
0
LINE
8
0
10
1359.2217
20
16.9140
30
0
11
1361.0107
21
21.0431
31
0
0
LINE
8
0
10
1363.3508
20
15.1249
30
0
11
1365.1398
21
19.2540
31
0
0
ARC
8
0
10
1363.0753
20
20.1485
30
0
40
2.2500
50
336.5739
51
156.5739
0
ARC
8
0
10
1361.2862
20
16.0195
30
0
40
2.2500
50
156.5739
51
336.5739
0
LINE
8
0
10
1416.0737
20
148.1270
30
0
11
1417.8627
21
152.2561
31
0
0
LINE
8
0
10
1420.2027
20
146.3379
30
0
11
1421.9918
21
150.4670
31
0
0
ARC
8
0
10
1419.9272
20
151.3615
30
0
40
2.2500
50
336.5739
51
156.5739
0
ARC
8
0
10
1418.1382
20
147.2325
30
0
40
2.2500
50
156.5739
51
336.5739
0
LINE
8
0
10
1472.9256
20
279.3400
30
0
11
1474.7147
21
283.4691
31
0
0
LINE
8
0
10
1477.0547
20
277.5509
30
0
11
1478.8438
21
281.6800
31
0
0
ARC
8
0
10
1476.7792
20
282.5746
30
0
40
2.2500
50
336.5739
51
156.5739
0
ARC
8
0
10
1474.9902
20
278.4455
30
0
40
2.2500
50
156.5739
51
336.5739
0
LINE
8
0
10
1529.7776
20
410.5530
30
0
11
1531.5666
21
414.6821
31
0
0
LINE
8
0
10
1533.9067
20
408.7640
30
0
11
1535.6957
21
412.8930
31
0
0
ARC
8
0
10
1533.6312
20
413.7876
30
0
40
2.2500
50
336.5739
51
156.5739
0
ARC
8
0
10
1531.8421
20
409.6585
30
0
40
2.2500
50
156.5739
51
336.5739
0
LINE
8
0
10
1586.6296
20
541.7660
30
0
11
1588.4186
21
545.8951
31
0
0
LINE
8
0
10
1590.7586
20
539.9770
30
0
11
1592.5477
21
544.1060
31
0
0
ARC
8
0
10
1590.4832
20
545.0006
30
0
40
2.2500
50
336.5739
51
156.5739
0
ARC
8
0
10
1588.6941
20
540.8715
30
0
40
2.2500
50
156.5739
51
336.5739
0
LINE
8
0
10
1643.4815
20
672.9790
30
0
11
1645.2706
21
677.1081
31
0
0
LINE
8
0
10
1647.6106
20
671.1900
30
0
11
1649.3997
21
675.3190
31
0
0
ARC
8
0
10
1647.3351
20
676.2136
30
0
40
2.2500
50
336.5739
51
156.5739
0
ARC
8
0
10
1645.5461
20
672.0845
30
0
40
2.2500
50
156.5739
51
336.5739
0
LINE
8
0
10
1700.3335
20
804.1920
30
0
11
1702.1226
21
808.3211
31
0
0
LINE
8
0
10
1704.4626
20
802.4030
30
0
11
1706.2516
21
806.5321
31
0
0
ARC
8
0
10
1704.1871
20
807.4266
30
0
40
2.2500
50
336.5739
51
156.5739
0
ARC
8
0
10
1702.3981
20
803.2975
30
0
40
2.2500
50
156.5739
51
336.5739
0
LINE
8
0
10
1757.1855
20
935.4050
30
0
11
1758.9745
21
939.5341
31
0
0
LINE
8
0
10
1761.3146
20
933.6160
30
0
11
1763.1036
21
937.7451
31
0
0
ARC
8
0
10
1761.0391
20
938.6396
30
0
40
2.2500
50
336.5739
51
156.5739
0
ARC
8
0
10
1759.2500
20
934.5105
30
0
40
2.2500
50
156.5739
51
336.5739
0
LINE
8
0
10
1363.3508
20
-15.1249
30
0
11
1365.1398
21
-19.2540
31
0
0
LINE
8
0
10
1359.2217
20
-16.9140
30
0
11
1361.0107
21
-21.0431
31
0
0
ARC
8
0
10
1363.0753
20
-20.1485
30
0
40
2.2500
50
203.4261
51
23.4261
0
ARC
8
0
10
1361.2862
20
-16.0195
30
0
40
2.2500
50
23.4261
51
203.4261
0
LINE
8
0
10
1420.2027
20
-146.3379
30
0
11
1421.9918
21
-150.4670
31
0
0
LINE
8
0
10
1416.0737
20
-148.1270
30
0
11
1417.8627
21
-152.2561
31
0
0
ARC
8
0
10
1419.9272
20
-151.3615
30
0
40
2.2500
50
203.4261
51
23.4261
0
ARC
8
0
10
1418.1382
20
-147.2325
30
0
40
2.2500
50
23.4261
51
203.4261
0
LINE
8
0
10
1477.0547
20
-277.5509
30
0
11
1478.8438
21
-281.6800
31
0
0
LINE
8
0
10
1472.9256
20
-279.3400
30
0
11
1474.7147
21
-283.4691
31
0
0
ARC
8
0
10
1476.7792
20
-282.5746
30
0
40
2.2500
50
203.4261
51
23.4261
0
ARC
8
0
10
1474.9902
20
-278.4455
30
0
40
2.2500
50
23.4261
51
203.4261
0
LINE
8
0
10
1533.9067
20
-408.7640
30
0
11
1535.6957
21
-412.8930
31
0
0
LINE
8
0
10
1529.7776
20
-410.5530
30
0
11
1531.5666
21
-414.6821
31
0
0
ARC
8
0
10
1533.6312
20
-413.7876
30
0
40
2.2500
50
203.4261
51
23.4261
0
ARC
8
0
10
1531.8421
20
-409.6585
30
0
40
2.2500
50
23.4261
51
203.4261
0
LINE
8
0
10
1590.7586
20
-539.9770
30
0
11
1592.5477
21
-544.1060
31
0
0
LINE
8
0
10
1586.6296
20
-541.7660
30
0
11
1588.4186
21
-545.8951
31
0
0
ARC
8
0
10
1590.4832
20
-545.0006
30
0
40
2.2500
50
203.4261
51
23.4261
0
ARC
8
0
10
1588.6941
20
-540.8715
30
0
40
2.2500
50
23.4261
51
203.4261
0
LINE
8
0
10
1647.6106
20
-671.1900
30
0
11
1649.3997
21
-675.3190
31
0
0
LINE
8
0
10
1643.4815
20
-672.9790
30
0
11
1645.2706
21
-677.1081
31
0
0
ARC
8
0
10
1647.3351
20
-676.2136
30
0
40
2.2500
50
203.4261
51
23.4261
0
ARC
8
0
10
1645.5461
20
-672.0845
30
0
40
2.2500
50
23.4261
51
203.4261
0
LINE
8
0
10
1704.4626
20
-802.4030
30
0
11
1706.2516
21
-806.5321
31
0
0
LINE
8
0
10
1700.3335
20
-804.1920
30
0
11
1702.1226
21
-808.3211
31
0
0
ARC
8
0
10
1704.1871
20
-807.4266
30
0
40
2.2500
50
203.4261
51
23.4261
0
ARC
8
0
10
1702.3981
20
-803.2975
30
0
40
2.2500
50
23.4261
51
203.4261
0
LINE
8
0
10
1761.3146
20
-933.6160
30
0
11
1763.1036
21
-937.7451
31
0
0
LINE
8
0
10
1757.1855
20
-935.4050
30
0
11
1758.9745
21
-939.5341
31
0
0
ARC
8
0
10
1761.0391
20
-938.6396
30
0
40
2.2500
50
203.4261
51
23.4261
0
ARC
8
0
10
1759.2500
20
-934.5105
30
0
40
2.2500
50
23.4261
51
203.4261
0
LINE
8
0
10
1388.5530
20
0.0000
30
0
11
1379.6266
21
-21.2755
31
0
0
LINE
8
0
10
1379.6266
20
-21.2755
30
0
11
1995.9972
21
-829.4151
31
0
0
LINE
8
0
10
1995.9972
20
-829.4151
30
0
11
2018.1687
21
-825.5056
31
0
0
LINE
8
0
10
2018.1687
20
-825.5056
30
0
11
2041.1687
21
-825.5056
31
0
0
LINE
8
0
10
2041.1687
20
-825.5056
30
0
11
2058.1687
21
-819.5056
31
0
0
LINE
8
0
10
2058.1687
20
-819.5056
30
0
11
2058.1687
21
819.5056
31
0
0
LINE
8
0
10
2058.1687
20
819.5056
30
0
11
2041.1687
21
825.5056
31
0
0
LINE
8
0
10
2041.1687
20
825.5056
30
0
11
2018.1687
21
825.5056
31
0
0
LINE
8
0
10
2018.1687
20
825.5056
30
0
11
1995.9972
21
829.4151
31
0
0
LINE
8
0
10
1995.9972
20
829.4151
30
0
11
1379.6266
21
21.2755
31
0
0
LINE
8
0
10
1379.6266
20
21.2755
30
0
11
1388.5530
21
0.0000
31
0
0
CIRCLE
8
0
10
1993.1687
20
-500.0000
30
0
40
3.5000
0
CIRCLE
8
0
10
1953.1687
20
-500.0000
30
0
40
3.5000
0
CIRCLE
8
0
10
1993.1687
20
-166.6667
30
0
40
3.5000
0
CIRCLE
8
0
10
1953.1687
20
-166.6667
30
0
40
3.5000
0
CIRCLE
8
0
10
1993.1687
20
166.6667
30
0
40
3.5000
0
CIRCLE
8
0
10
1953.1687
20
166.6667
30
0
40
3.5000
0
CIRCLE
8
0
10
1993.1687
20
500.0000
30
0
40
3.5000
0
CIRCLE
8
0
10
1953.1687
20
500.0000
30
0
40
3.5000
0
CIRCLE
8
0
10
1389.9263
20
18.2901
30
0
40
2.2500
0
CIRCLE
8
0
10
1389.9263
20
-18.2901
30
0
40
2.2500
0
CIRCLE
8
0
10
1476.6479
20
131.9930
30
0
40
2.2500
0
CIRCLE
8
0
10
1476.6479
20
-131.9930
30
0
40
2.2500
0
CIRCLE
8
0
10
1563.3695
20
245.6960
30
0
40
2.2500
0
CIRCLE
8
0
10
1563.3695
20
-245.6960
30
0
40
2.2500
0
CIRCLE
8
0
10
1650.0911
20
359.3989
30
0
40
2.2500
0
CIRCLE
8
0
10
1650.0911
20
-359.3989
30
0
40
2.2500
0
CIRCLE
8
0
10
1736.8127
20
473.1019
30
0
40
2.2500
0
CIRCLE
8
0
10
1736.8127
20
-473.1019
30
0
40
2.2500
0
CIRCLE
8
0
10
1823.5343
20
586.8049
30
0
40
2.2500
0
CIRCLE
8
0
10
1823.5343
20
-586.8049
30
0
40
2.2500
0
CIRCLE
8
0
10
1910.2559
20
700.5078
30
0
40
2.2500
0
CIRCLE
8
0
10
1910.2559
20
-700.5078
30
0
40
2.2500
0
CIRCLE
8
0
10
1996.9775
20
814.2108
30
0
40
2.2500
0
CIRCLE
8
0
10
1996.9775
20
-814.2108
30
0
40
2.2500
0
ENDSEC
0
EOF
